<svg width="475" height="280" viewBox="0 0 475 280" fill="none" xmlns="http://www.w3.org/2000/svg">
<g clip-path="url(#clip0)">
<path fill-rule="evenodd" clip-rule="evenodd" d="M185.092 64.0146C185.092 41.6076 203.256 23.4431 225.663 23.4431C248.07 23.4431 266.235 41.6076 266.235 64.0146V64.6743H185.092V64.0146ZM186.417 63.3549H264.91C264.558 41.9809 247.121 24.7625 225.663 24.7625C204.205 24.7625 186.769 41.9809 186.417 63.3549Z" fill="#36739F"/>
<path fill-rule="evenodd" clip-rule="evenodd" d="M216.758 24.1027C216.758 19.0019 220.893 14.8669 225.994 14.8669C231.094 14.8669 235.229 19.0019 235.229 24.1027V24.7624H216.758V24.1027ZM218.104 23.443H233.883C233.548 19.3796 230.144 16.1863 225.994 16.1863C221.844 16.1863 218.44 19.3796 218.104 23.443Z" fill="#36739F"/>
<path fill-rule="evenodd" clip-rule="evenodd" d="M225.004 64.0145V24.1028H226.323V64.0145H225.004Z" fill="#36739F"/>
<path fill-rule="evenodd" clip-rule="evenodd" d="M214.029 43.1097C215.384 37.4496 219.12 30.9707 225.155 23.6821L226.171 24.5236C220.191 31.7468 216.599 38.0415 215.313 43.4168C214.011 48.8552 213.515 55.7069 213.843 63.9885L212.525 64.0407C212.194 55.6891 212.69 48.7066 214.029 43.1097Z" fill="#36739F"/>
<path fill-rule="evenodd" clip-rule="evenodd" d="M237.254 43.1097C235.899 37.4496 232.163 30.9707 226.128 23.6821L225.112 24.5236C231.092 31.7468 234.684 38.0415 235.971 43.4168C237.272 48.8552 237.768 55.7069 237.44 63.9885L238.758 64.0407C239.089 55.6891 238.593 48.7066 237.254 43.1097Z" fill="#36739F"/>
<path fill-rule="evenodd" clip-rule="evenodd" d="M203.524 42.3724C206.197 35.3839 213.118 29.338 224.062 24.166L224.625 25.3589C213.797 30.4765 207.249 36.3277 204.756 42.8438C202.212 49.4933 201.278 56.7473 201.966 64.6168L200.652 64.7317C199.948 56.6843 200.901 49.2275 203.524 42.3724Z" fill="#36739F"/>
<path fill-rule="evenodd" clip-rule="evenodd" d="M247.636 42.3724C244.962 35.3839 238.041 29.338 227.098 24.166L226.534 25.3589C237.362 30.4765 243.91 36.3277 246.403 42.8438C248.947 49.4933 249.881 56.7473 249.193 64.6168L250.507 64.7317C251.211 56.6843 250.258 49.2275 247.636 42.3724Z" fill="#36739F"/>
<path fill-rule="evenodd" clip-rule="evenodd" d="M168.331 64.4839C167.635 64.2679 166.896 64.657 166.68 65.3529L156.961 96.6697H178.919L169.2 65.3529C169.071 64.9378 168.746 64.6127 168.331 64.4839ZM165.42 64.9619C165.852 63.57 167.33 62.7918 168.722 63.2238C169.552 63.4815 170.203 64.1316 170.46 64.9619L180.71 97.9891H155.17L165.42 64.9619Z" fill="#36739F"/>
<path fill-rule="evenodd" clip-rule="evenodd" d="M158.704 97.9891C156.153 97.9891 154.086 100.057 154.086 102.607V205.52H181.793V102.607C181.793 100.057 179.726 97.9891 177.175 97.9891H158.704ZM152.767 102.607C152.767 99.3279 155.425 96.6697 158.704 96.6697H177.175C180.455 96.6697 183.113 99.3279 183.113 102.607V206.839H152.767V102.607Z" fill="#36739F"/>
<path fill-rule="evenodd" clip-rule="evenodd" d="M157.384 212.117C155.563 212.117 154.086 210.64 154.086 208.818V206.839H181.793V212.117H157.384ZM152.767 208.818C152.767 211.369 154.834 213.436 157.384 213.436H183.113V205.52H152.767V208.818Z" fill="#36739F"/>
<path fill-rule="evenodd" clip-rule="evenodd" d="M268.544 213.436H294.272C296.823 213.436 298.89 211.369 298.89 208.818V205.52H268.544V213.436ZM269.863 212.117V206.839H297.571V208.818C297.571 210.64 296.094 212.117 294.272 212.117H269.863Z" fill="#36739F"/>
<path fill-rule="evenodd" clip-rule="evenodd" d="M186.411 219.373C184.589 219.373 183.112 217.897 183.112 216.075V213.436H268.543V216.075C268.543 217.897 267.067 219.373 265.245 219.373H186.411ZM181.793 216.075C181.793 218.625 183.86 220.693 186.411 220.693H265.245C267.795 220.693 269.863 218.625 269.863 216.075V212.117H181.793V216.075Z" fill="#36739F"/>
<path fill-rule="evenodd" clip-rule="evenodd" d="M167.94 136.911C165.754 136.911 163.982 138.683 163.982 140.869C163.982 143.055 165.754 144.828 167.94 144.828C170.126 144.828 171.898 143.055 171.898 140.869C171.898 138.683 170.126 136.911 167.94 136.911ZM162.662 140.869C162.662 137.955 165.025 135.592 167.94 135.592C170.854 135.592 173.217 137.955 173.217 140.869C173.217 143.784 170.854 146.147 167.94 146.147C165.025 146.147 162.662 143.784 162.662 140.869Z" fill="#36739F"/>
<path fill-rule="evenodd" clip-rule="evenodd" d="M167.94 83.4756C165.754 83.4756 163.982 85.2478 163.982 87.4338C163.982 89.6199 165.754 91.392 167.94 91.392C170.126 91.392 171.898 89.6199 171.898 87.4338C171.898 85.2478 170.126 83.4756 167.94 83.4756ZM162.662 87.4338C162.662 84.5191 165.025 82.1562 167.94 82.1562C170.854 82.1562 173.217 84.5191 173.217 87.4338C173.217 90.3486 170.854 92.7114 167.94 92.7114C165.025 92.7114 162.662 90.3486 162.662 87.4338Z" fill="#36739F"/>
<path fill-rule="evenodd" clip-rule="evenodd" d="M225.333 88.7532C223.147 88.7532 221.375 90.5254 221.375 92.7114C221.375 94.8975 223.147 96.6696 225.333 96.6696C227.519 96.6696 229.291 94.8975 229.291 92.7114C229.291 90.5254 227.519 88.7532 225.333 88.7532ZM220.056 92.7114C220.056 89.7967 222.419 87.4338 225.333 87.4338C228.248 87.4338 230.611 89.7967 230.611 92.7114C230.611 95.6262 228.248 97.989 225.333 97.989C222.419 97.989 220.056 95.6262 220.056 92.7114Z" fill="#36739F"/>
<path fill-rule="evenodd" clip-rule="evenodd" d="M167.94 187.048C165.754 187.048 163.982 188.821 163.982 191.007C163.982 193.193 165.754 194.965 167.94 194.965C170.126 194.965 171.898 193.193 171.898 191.007C171.898 188.821 170.126 187.048 167.94 187.048ZM162.662 191.007C162.662 188.092 165.025 185.729 167.94 185.729C170.854 185.729 173.217 188.092 173.217 191.007C173.217 193.921 170.854 196.284 167.94 196.284C165.025 196.284 162.662 193.921 162.662 191.007Z" fill="#36739F"/>
<path fill-rule="evenodd" clip-rule="evenodd" d="M168.269 103.926C164.808 103.926 162.002 106.732 162.002 110.193V122.398H174.536V110.193C174.536 106.732 171.73 103.926 168.269 103.926ZM160.683 110.193C160.683 106.004 164.079 102.607 168.269 102.607C172.459 102.607 175.856 106.004 175.856 110.193V123.717H160.683V110.193Z" fill="#36739F"/>
<path fill-rule="evenodd" clip-rule="evenodd" d="M199.935 111.843C196.474 111.843 193.668 114.649 193.668 118.11V130.314H206.202V118.11C206.202 114.649 203.396 111.843 199.935 111.843ZM192.349 118.11C192.349 113.92 195.745 110.523 199.935 110.523C204.125 110.523 207.522 113.92 207.522 118.11V131.634H192.349V118.11Z" fill="#36739F"/>
<path fill-rule="evenodd" clip-rule="evenodd" d="M225.664 111.843C222.202 111.843 219.397 114.649 219.397 118.11V130.314H231.931V118.11C231.931 114.649 229.125 111.843 225.664 111.843ZM218.077 118.11C218.077 113.92 221.474 110.523 225.664 110.523C229.854 110.523 233.25 113.92 233.25 118.11V131.634H218.077V118.11Z" fill="#36739F"/>
<path fill-rule="evenodd" clip-rule="evenodd" d="M251.391 111.843C247.93 111.843 245.124 114.649 245.124 118.11V130.314H257.658V118.11C257.658 114.649 254.852 111.843 251.391 111.843ZM243.805 118.11C243.805 113.92 247.201 110.523 251.391 110.523C255.581 110.523 258.978 113.92 258.978 118.11V131.634H243.805V118.11Z" fill="#36739F"/>
<path fill-rule="evenodd" clip-rule="evenodd" d="M199.935 151.425C196.474 151.425 193.668 154.231 193.668 157.692V169.896H206.202V157.692C206.202 154.231 203.396 151.425 199.935 151.425ZM192.349 157.692C192.349 153.502 195.745 150.105 199.935 150.105C204.125 150.105 207.522 153.502 207.522 157.692V171.216H192.349V157.692Z" fill="#36739F"/>
<path fill-rule="evenodd" clip-rule="evenodd" d="M225.664 151.425C222.202 151.425 219.397 154.231 219.397 157.692V169.896H231.931V157.692C231.931 154.231 229.125 151.425 225.664 151.425ZM218.077 157.692C218.077 153.502 221.474 150.105 225.664 150.105C229.854 150.105 233.25 153.502 233.25 157.692V171.216H218.077V157.692Z" fill="#36739F"/>
<path fill-rule="evenodd" clip-rule="evenodd" d="M251.391 151.425C247.93 151.425 245.124 154.231 245.124 157.692V169.896H257.658V157.692C257.658 154.231 254.852 151.425 251.391 151.425ZM243.805 157.692C243.805 153.502 247.201 150.105 251.391 150.105C255.581 150.105 258.978 153.502 258.978 157.692V171.216H243.805V157.692Z" fill="#36739F"/>
<path fill-rule="evenodd" clip-rule="evenodd" d="M199.935 183.09C196.474 183.09 193.668 185.896 193.668 189.357V201.562H206.202V189.357C206.202 185.896 203.396 183.09 199.935 183.09ZM192.349 189.357C192.349 185.167 195.745 181.771 199.935 181.771C204.125 181.771 207.522 185.167 207.522 189.357V202.881H192.349V189.357Z" fill="#36739F"/>
<path fill-rule="evenodd" clip-rule="evenodd" d="M251.391 183.09C247.93 183.09 245.124 185.896 245.124 189.357V201.562H257.658V189.357C257.658 185.896 254.852 183.09 251.391 183.09ZM243.805 189.357C243.805 185.167 247.201 181.771 251.391 181.771C255.581 181.771 258.978 185.167 258.978 189.357V202.881H243.805V189.357Z" fill="#36739F"/>
<path fill-rule="evenodd" clip-rule="evenodd" d="M199.935 70.9415C196.474 70.9415 193.668 73.7474 193.668 77.2086V100.628H192.349V77.2086C192.349 73.0187 195.745 69.6221 199.935 69.6221C204.125 69.6221 207.522 73.0187 207.522 77.2086V92.1112H206.202V77.2086C206.202 73.7474 203.396 70.9415 199.935 70.9415Z" fill="#36739F"/>
<path fill-rule="evenodd" clip-rule="evenodd" d="M225.664 70.9415C222.202 70.9415 219.397 73.7474 219.397 77.2086V84.6455H218.077V77.2086C218.077 73.0187 221.474 69.6221 225.664 69.6221C229.854 69.6221 233.25 73.0187 233.25 77.2086V84.478H231.931V77.2086C231.931 73.7474 229.125 70.9415 225.664 70.9415Z" fill="#36739F"/>
<path fill-rule="evenodd" clip-rule="evenodd" d="M251.391 72.2608C247.93 72.2608 245.124 75.0667 245.124 78.5279V91.7981H243.805V78.5279C243.805 74.338 247.201 70.9414 251.391 70.9414C255.581 70.9414 258.978 74.338 258.978 78.5279V100.628H257.658V78.5279C257.658 75.0667 254.852 72.2608 251.391 72.2608Z" fill="#36739F"/>
<path fill-rule="evenodd" clip-rule="evenodd" d="M168.269 156.702C164.808 156.702 162.002 159.508 162.002 162.969V175.174H174.536V162.969C174.536 159.508 171.73 156.702 168.269 156.702ZM160.683 162.969C160.683 158.779 164.079 155.383 168.269 155.383C172.459 155.383 175.856 158.779 175.856 162.969V176.493H160.683V162.969Z" fill="#36739F"/>
<path fill-rule="evenodd" clip-rule="evenodd" d="M182.453 123.717H153.427V122.398H182.453V123.717Z" fill="#36739F"/>
<path opacity="0.3" fill-rule="evenodd" clip-rule="evenodd" d="M225.334 5.63121V15.5267H226.653V5.63121H230.612V4.31181H226.653V0H225.334V4.31181H221.376V5.63121H225.334ZM167.28 52.4699V48.158H168.6V52.4699H172.558V53.7893H168.6V63.6847H167.28V53.7893H163.322V52.4699H167.28ZM283.057 52.4699V48.158H284.377V52.4699H288.335V53.7893H284.377V63.6847H283.057V53.7893H279.099V52.4699H283.057Z" fill="#36739F"/>
<path fill-rule="evenodd" clip-rule="evenodd" d="M284.108 64.4839C283.412 64.2679 282.673 64.657 282.457 65.3529L272.738 96.6697H294.696L284.977 65.3529C284.849 64.9378 284.524 64.6127 284.108 64.4839ZM281.197 64.9619C281.629 63.57 283.108 62.7918 284.499 63.2238C285.33 63.4815 285.98 64.1316 286.238 64.9619L296.487 97.9891H270.947L281.197 64.9619Z" fill="#36739F"/>
<path fill-rule="evenodd" clip-rule="evenodd" d="M274.481 97.9891C271.931 97.9891 269.863 100.057 269.863 102.607V205.52H297.571V102.607C297.571 100.057 295.503 97.9891 292.953 97.9891H274.481ZM268.544 102.607C268.544 99.3279 271.202 96.6697 274.481 96.6697H292.953C296.232 96.6697 298.89 99.3279 298.89 102.607V206.839H268.544V102.607Z" fill="#36739F"/>
<path fill-rule="evenodd" clip-rule="evenodd" d="M283.717 136.911C281.531 136.911 279.759 138.683 279.759 140.869C279.759 143.055 281.531 144.828 283.717 144.828C285.903 144.828 287.675 143.055 287.675 140.869C287.675 138.683 285.903 136.911 283.717 136.911ZM278.439 140.869C278.439 137.955 280.802 135.592 283.717 135.592C286.632 135.592 288.995 137.955 288.995 140.869C288.995 143.784 286.632 146.147 283.717 146.147C280.802 146.147 278.439 143.784 278.439 140.869Z" fill="#36739F"/>
<path fill-rule="evenodd" clip-rule="evenodd" d="M283.717 83.4756C281.531 83.4756 279.759 85.2478 279.759 87.4338C279.759 89.6199 281.531 91.392 283.717 91.392C285.903 91.392 287.675 89.6199 287.675 87.4338C287.675 85.2478 285.903 83.4756 283.717 83.4756ZM278.439 87.4338C278.439 84.5191 280.802 82.1562 283.717 82.1562C286.632 82.1562 288.995 84.5191 288.995 87.4338C288.995 90.3486 286.632 92.7114 283.717 92.7114C280.802 92.7114 278.439 90.3486 278.439 87.4338Z" fill="#36739F"/>
<path fill-rule="evenodd" clip-rule="evenodd" d="M283.717 188.682C281.531 188.682 279.759 190.454 279.759 192.64C279.759 194.826 281.531 196.598 283.717 196.598C285.903 196.598 287.675 194.826 287.675 192.64C287.675 190.454 285.903 188.682 283.717 188.682ZM278.439 192.64C278.439 189.725 280.802 187.363 283.717 187.363C286.632 187.363 288.995 189.725 288.995 192.64C288.995 195.555 286.632 197.918 283.717 197.918C280.802 197.918 278.439 195.555 278.439 192.64Z" fill="#36739F"/>
<path fill-rule="evenodd" clip-rule="evenodd" d="M284.047 103.926C280.585 103.926 277.779 106.732 277.779 110.193V122.398H290.314V110.193C290.314 106.732 287.508 103.926 284.047 103.926ZM276.46 110.193C276.46 106.004 279.857 102.607 284.047 102.607C288.236 102.607 291.633 106.004 291.633 110.193V123.717H276.46V110.193Z" fill="#36739F"/>
<path fill-rule="evenodd" clip-rule="evenodd" d="M284.047 156.702C280.585 156.702 277.779 159.508 277.779 162.969V175.174H290.314V162.969C290.314 159.508 287.508 156.702 284.047 156.702ZM276.46 162.969C276.46 158.779 279.857 155.383 284.047 155.383C288.236 155.383 291.633 158.779 291.633 162.969V176.493H276.46V162.969Z" fill="#36739F"/>
<path fill-rule="evenodd" clip-rule="evenodd" d="M298.231 123.717H269.204V122.398H298.231V123.717Z" fill="#36739F"/>
<path fill-rule="evenodd" clip-rule="evenodd" d="M185.092 63.6848H266.235V96.01C266.235 99.2891 263.576 101.947 260.297 101.947H191.029C187.75 101.947 185.092 99.2891 185.092 96.01V63.6848ZM186.411 65.0042V96.01C186.411 98.5604 188.479 100.628 191.029 100.628H260.297C262.848 100.628 264.915 98.5604 264.915 96.01V65.0042H186.411Z" fill="#36739F"/>
<path fill-rule="evenodd" clip-rule="evenodd" d="M185.752 97.9891H179.814V96.6697H185.752V97.9891Z" fill="#36739F"/>
<path fill-rule="evenodd" clip-rule="evenodd" d="M269.533 141.529H183.112V140.21H269.533V141.529Z" fill="#36739F"/>
<path fill-rule="evenodd" clip-rule="evenodd" d="M181.793 206.18H183.112V212.117H268.543V206.18H269.863V213.436H181.793V206.18Z" fill="#36739F"/>
<path fill-rule="evenodd" clip-rule="evenodd" d="M271.512 97.9891H265.575V96.6697H271.512V97.9891Z" fill="#36739F"/>
<path fill-rule="evenodd" clip-rule="evenodd" d="M228.842 82.972C226.901 81.7425 224.426 81.7425 222.486 82.972L194.622 100.628H256.705L228.842 82.972ZM221.779 81.8575C224.151 80.3548 227.176 80.3548 229.548 81.8575L261.252 101.947H190.075L221.779 81.8575Z" fill="#36739F"/>
<path fill-rule="evenodd" clip-rule="evenodd" d="M228.486 178.769C226.725 177.817 224.601 177.817 222.84 178.769L214.118 183.484V212.117H237.208V183.484L228.486 178.769ZM222.212 177.609C224.366 176.445 226.96 176.445 229.114 177.609L238.527 182.697V213.436H212.799V182.697L222.212 177.609Z" fill="#36739F"/>
<path fill-rule="evenodd" clip-rule="evenodd" d="M212.799 63.6848H238.527V87.434H237.208V65.0042H214.118V87.434H212.799V63.6848Z" fill="#36739F"/>
<path fill-rule="evenodd" clip-rule="evenodd" d="M225.004 212.777V177.812H226.323V212.777H225.004Z" fill="#36739F"/>
<path fill-rule="evenodd" clip-rule="evenodd" d="M166.048 175.833V156.042H167.367V175.833H166.048Z" fill="#36739F"/>
<path fill-rule="evenodd" clip-rule="evenodd" d="M169.347 175.833V156.042H170.666V175.833H169.347Z" fill="#36739F"/>
<path fill-rule="evenodd" clip-rule="evenodd" d="M166.048 123.058V103.267H167.367V123.058H166.048Z" fill="#36739F"/>
<path fill-rule="evenodd" clip-rule="evenodd" d="M169.347 123.058V103.267H170.666V123.058H169.347Z" fill="#36739F"/>
<path fill-rule="evenodd" clip-rule="evenodd" d="M281.737 123.058V103.267H283.057V123.058H281.737Z" fill="#36739F"/>
<path fill-rule="evenodd" clip-rule="evenodd" d="M285.036 123.058V103.267H286.355V123.058H285.036Z" fill="#36739F"/>
<path fill-rule="evenodd" clip-rule="evenodd" d="M281.737 175.833V156.042H283.057V175.833H281.737Z" fill="#36739F"/>
<path fill-rule="evenodd" clip-rule="evenodd" d="M285.036 175.833V156.042H286.355V175.833H285.036Z" fill="#36739F"/>
<path fill-rule="evenodd" clip-rule="evenodd" d="M249.083 170.556V150.765H250.402V170.556H249.083Z" fill="#36739F"/>
<path fill-rule="evenodd" clip-rule="evenodd" d="M252.382 170.556V150.765H253.701V170.556H252.382Z" fill="#36739F"/>
<path fill-rule="evenodd" clip-rule="evenodd" d="M249.083 202.221V182.43H250.402V202.221H249.083Z" fill="#36739F"/>
<path fill-rule="evenodd" clip-rule="evenodd" d="M252.382 202.221V182.43H253.701V202.221H252.382Z" fill="#36739F"/>
<path fill-rule="evenodd" clip-rule="evenodd" d="M249.083 130.974V111.183H250.402V130.974H249.083Z" fill="#36739F"/>
<path fill-rule="evenodd" clip-rule="evenodd" d="M252.382 130.974V111.183H253.701V130.974H252.382Z" fill="#36739F"/>
<path fill-rule="evenodd" clip-rule="evenodd" d="M249.083 95.3502V71.6011H250.402V95.3502H249.083Z" fill="#36739F"/>
<path fill-rule="evenodd" clip-rule="evenodd" d="M252.382 97.3293V71.6011H253.701V97.3293H252.382Z" fill="#36739F"/>
<path fill-rule="evenodd" clip-rule="evenodd" d="M197.626 130.974V111.183H198.945V130.974H197.626Z" fill="#36739F"/>
<path fill-rule="evenodd" clip-rule="evenodd" d="M200.925 130.974V111.183H202.244V130.974H200.925Z" fill="#36739F"/>
<path fill-rule="evenodd" clip-rule="evenodd" d="M197.626 97.3293V70.9414H198.945V97.3293H197.626Z" fill="#36739F"/>
<path fill-rule="evenodd" clip-rule="evenodd" d="M200.925 95.3502V70.9414H202.244V95.3502H200.925Z" fill="#36739F"/>
<path fill-rule="evenodd" clip-rule="evenodd" d="M197.626 170.556V150.765H198.945V170.556H197.626Z" fill="#36739F"/>
<path fill-rule="evenodd" clip-rule="evenodd" d="M200.925 170.556V150.765H202.244V170.556H200.925Z" fill="#36739F"/>
<path fill-rule="evenodd" clip-rule="evenodd" d="M197.626 202.881V183.09H198.945V202.881H197.626Z" fill="#36739F"/>
<path fill-rule="evenodd" clip-rule="evenodd" d="M200.925 202.881V183.09H202.244V202.881H200.925Z" fill="#36739F"/>
<path fill-rule="evenodd" clip-rule="evenodd" d="M223.354 170.556V150.765H224.674V170.556H223.354Z" fill="#36739F"/>
<path fill-rule="evenodd" clip-rule="evenodd" d="M226.653 170.556V150.765H227.973V170.556H226.653Z" fill="#36739F"/>
<path fill-rule="evenodd" clip-rule="evenodd" d="M223.354 130.974V111.183H224.674V130.974H223.354Z" fill="#36739F"/>
<path fill-rule="evenodd" clip-rule="evenodd" d="M226.653 130.974V111.183H227.973V130.974H226.653Z" fill="#36739F"/>
<path fill-rule="evenodd" clip-rule="evenodd" d="M223.354 81.4966V70.2817H224.674V81.4966H223.354Z" fill="#36739F"/>
<path fill-rule="evenodd" clip-rule="evenodd" d="M226.653 81.4966V70.2817H227.973V81.4966H226.653Z" fill="#36739F"/>
<path fill-rule="evenodd" clip-rule="evenodd" d="M152.358 149.5L160.858 160L189.316 171.75L202.904 177.865L219.553 186.519H306.753L307.796 231.908H144.19L152.358 149.5Z" fill="#FBFBFC"/>
<path fill-rule="evenodd" clip-rule="evenodd" d="M111.484 153.248C110.852 153.248 110.228 153.377 109.648 153.628L92.3917 161.104C90.7026 161.835 89.6094 163.5 89.6094 165.341V269.355H156.239V165.341C156.239 163.5 155.146 161.835 153.457 161.104L136.2 153.628C135.621 153.377 134.996 153.248 134.364 153.248H111.484ZM109.124 152.417C109.869 152.095 110.672 151.928 111.484 151.928H134.364C135.176 151.928 135.98 152.095 136.725 152.417L153.981 159.893C156.153 160.834 157.558 162.974 157.558 165.341V270.674H88.29V165.341C88.29 162.974 89.6956 160.834 91.8672 159.893L109.124 152.417Z" fill="#36739F"/>
<path fill-rule="evenodd" clip-rule="evenodd" d="M79.9761 175.462C79.8278 175.13 79.4377 174.98 79.105 175.129L6.81744 207.355V261.127L80.0439 269.277L80.0333 175.731C80.0333 175.638 80.0138 175.547 79.9761 175.462ZM78.5677 173.923C79.566 173.478 80.7361 173.927 81.1812 174.925C81.2942 175.179 81.3526 175.453 81.3527 175.731L81.3633 269.277C81.3634 270.006 80.7727 270.596 80.044 270.597C79.9953 270.597 79.9465 270.594 79.8979 270.588L5.49805 262.308V206.499L78.5677 173.923Z" fill="#36739F"/>
<path fill-rule="evenodd" clip-rule="evenodd" d="M88.9805 175.136H79.2129V173.816H88.9805V175.136Z" fill="#36739F"/>
<path fill-rule="evenodd" clip-rule="evenodd" d="M66.6655 243.968C64.4299 243.968 62.6163 245.782 62.6163 248.023V267.544H61.2969V248.023C61.2969 245.055 63.6998 242.648 66.6655 242.648C66.7932 242.648 66.9208 242.653 67.0481 242.662C70.2362 242.89 72.7052 245.546 72.7052 248.744V268.504H71.3858V248.744C71.3858 246.237 69.4504 244.157 66.954 243.978H66.954C66.858 243.971 66.7617 243.968 66.6655 243.968Z" fill="#36739F"/>
<path fill-rule="evenodd" clip-rule="evenodd" d="M54.8081 245.066C54.775 244.703 54.4541 244.436 54.0913 244.469L48.8031 244.95M53.9717 243.155C55.0602 243.056 56.023 243.858 56.122 244.946C56.1275 245.006 56.1302 245.066 56.1302 245.126V260.273C56.1302 261.366 55.2441 262.252 54.1511 262.252C54.0912 262.252 54.0314 262.249 53.9717 262.244L48.6835 261.762C47.6642 261.669 46.8838 260.815 46.8838 259.791V245.607C46.8838 244.583 47.6642 243.729 48.6835 243.636L53.9717 243.155ZM48.8031 244.95C48.4633 244.981 48.2032 245.266 48.2032 245.607V259.791C48.2032 260.132 48.4633 260.417 48.8031 260.448L54.0913 260.93C54.1111 260.931 54.1311 260.932 54.1511 260.932C54.5154 260.932 54.8108 260.637 54.8108 260.273V245.126C54.8108 245.106 54.8099 245.086 54.8081 245.066" fill="#36739F"/>
<path fill-rule="evenodd" clip-rule="evenodd" d="M40.1647 246.506C40.1332 246.143 39.8133 245.874 39.4504 245.905L35.1134 246.282C34.7725 246.312 34.5108 246.597 34.5108 246.939V258.459C34.5108 258.801 34.7725 259.086 35.1134 259.116L39.4504 259.493C39.4694 259.494 39.4884 259.495 39.5075 259.495C39.8718 259.495 40.1672 259.2 40.1672 258.836V246.563C40.1672 246.544 40.1663 246.525 40.1647 246.506ZM39.3362 244.591C40.4251 244.496 41.3845 245.302 41.4791 246.391C41.4841 246.448 41.4866 246.506 41.4866 246.563V258.836C41.4866 259.929 40.6005 260.815 39.5075 260.815C39.4503 260.815 39.3931 260.812 39.3362 260.807L34.9992 260.43C33.9764 260.342 33.1914 259.485 33.1914 258.459V246.939C33.1914 245.913 33.9764 245.057 34.9992 244.968L39.3362 244.591Z" fill="#36739F"/>
<path fill-rule="evenodd" clip-rule="evenodd" d="M26.6464 247.948C26.6152 247.585 26.2956 247.316 25.9326 247.347L22.864 247.611C22.5228 247.64 22.2608 247.926 22.2608 248.268V257.13C22.2608 257.473 22.5228 257.758 22.864 257.787L25.9326 258.051L25.8761 258.709L25.9327 258.051C25.9515 258.053 25.9703 258.054 25.9891 258.054C26.3535 258.054 26.6488 257.758 26.6488 257.394V248.004C26.6488 247.985 26.648 247.967 26.6464 247.948ZM25.8196 246.033C26.9087 245.939 27.8674 246.746 27.961 247.835C27.9658 247.891 27.9682 247.948 27.9682 248.004V257.394C27.9682 258.487 27.0822 259.373 25.9891 259.373C25.9325 259.373 25.876 259.371 25.8196 259.366L22.751 259.102C21.7275 259.014 20.9414 258.158 20.9414 257.13V248.268C20.9414 247.241 21.7275 246.384 22.751 246.296L25.8196 246.033Z" fill="#36739F"/>
<path fill-rule="evenodd" clip-rule="evenodd" d="M15.5494 248.669C15.5182 248.306 15.1986 248.037 14.8356 248.069L12.7742 248.246C12.433 248.275 12.171 248.561 12.171 248.903V255.774C12.171 256.116 12.433 256.402 12.7742 256.431L14.8356 256.608C14.8544 256.61 14.8733 256.611 14.8921 256.611C15.2564 256.611 15.5518 256.315 15.5518 255.951V248.726C15.5518 248.707 15.551 248.688 15.5494 248.669ZM14.7226 246.754C15.8116 246.66 16.7703 247.467 16.8639 248.556C16.8688 248.613 16.8712 248.669 16.8712 248.726V255.951C16.8712 257.044 15.9851 257.93 14.8921 257.93C14.8355 257.93 14.7789 257.928 14.7226 257.923L12.6612 257.746C11.6376 257.658 10.8516 256.801 10.8516 255.774V248.903C10.8516 247.876 11.6376 247.019 12.6612 246.931" fill="#36739F"/>
<path fill-rule="evenodd" clip-rule="evenodd" d="M54.8022 221.318C54.7435 220.959 54.4044 220.715 54.0448 220.773L48.7566 221.636L48.6504 220.985L48.7566 221.636C48.4375 221.688 48.2032 221.964 48.2032 222.287V233.583C48.2032 233.602 48.204 233.622 48.2057 233.641C48.2375 234.004 48.5574 234.272 48.9204 234.24L54.2086 233.778C54.5493 233.748 54.8108 233.463 54.8108 233.12V221.424C54.8108 221.389 54.8079 221.353 54.8022 221.318ZM53.8323 219.471C54.9111 219.295 55.9283 220.027 56.1043 221.106C56.1215 221.211 56.1302 221.318 56.1302 221.424V233.12C56.1302 234.147 55.3459 235.003 54.3236 235.092L49.0354 235.555C47.9466 235.65 46.9866 234.845 46.8913 233.756C46.8863 233.698 46.8838 233.641 46.8838 233.583V222.287C46.8838 221.317 47.5868 220.49 48.5441 220.334L53.8323 219.471Z" fill="#36739F"/>
<path fill-rule="evenodd" clip-rule="evenodd" d="M71.2641 218.443C71.2012 218.085 70.8592 217.845 70.5003 217.908L64.6024 218.943C64.2868 218.998 64.0567 219.272 64.0567 219.593V232.14C64.0567 232.159 64.0575 232.178 64.0592 232.198C64.0911 232.561 64.4111 232.829 64.7741 232.797L70.6721 232.279C71.0127 232.25 71.2741 231.964 71.2741 231.622V218.558C71.2741 218.519 71.2708 218.481 71.2641 218.443ZM70.2722 216.608C71.3488 216.419 72.3747 217.139 72.5637 218.215C72.5835 218.328 72.5935 218.443 72.5935 218.558V231.622C72.5935 232.648 71.8094 233.504 70.7874 233.594L64.8894 234.111C63.8006 234.207 62.8404 233.402 62.7449 232.313C62.7398 232.255 62.7373 232.198 62.7373 232.14V219.593C62.7373 218.632 63.4277 217.81 64.3743 217.644L70.2722 216.608Z" fill="#36739F"/>
<path fill-rule="evenodd" clip-rule="evenodd" d="M40.1591 223.593C40.1023 223.233 39.7645 222.988 39.4046 223.045L35.0676 223.729C34.747 223.78 34.5108 224.056 34.5108 224.381V235.116C34.5108 235.139 34.512 235.162 34.5144 235.185C34.5526 235.547 34.8773 235.81 35.2397 235.772L39.5766 235.315C39.9123 235.279 40.1672 234.996 40.1672 234.659V223.696C40.1672 223.662 40.1645 223.627 40.1591 223.593ZM39.1988 221.741C40.2785 221.571 41.2919 222.308 41.4623 223.388C41.4785 223.49 41.4866 223.593 41.4866 223.696V234.659C41.4866 235.671 40.7221 236.521 39.7149 236.627L35.378 237.084C34.291 237.198 33.3169 236.41 33.2023 235.323L33.8584 235.254L33.2023 235.323C33.195 235.254 33.1914 235.185 33.1914 235.116V224.381C33.1914 223.407 33.8999 222.578 34.8619 222.426L39.1988 221.741L39.3017 222.393L39.1988 221.741Z" fill="#36739F"/>
<path fill-rule="evenodd" clip-rule="evenodd" d="M26.6401 225.879C26.5809 225.52 26.2415 225.276 25.882 225.336L22.8133 225.841C22.4947 225.893 22.2608 226.169 22.2608 226.492V236.289C22.2608 236.311 22.2619 236.333 22.2641 236.355C22.3003 236.718 22.6236 236.982 22.9861 236.946L26.0548 236.639C26.392 236.605 26.6488 236.322 26.6488 235.983V225.986C26.6488 225.951 26.6459 225.915 26.6401 225.879ZM25.6677 224.034C26.7462 223.856 27.7644 224.587 27.942 225.665C27.9594 225.771 27.9682 225.879 27.9682 225.986V235.983C27.9682 236.999 27.1978 237.851 26.1861 237.952L23.1174 238.259C22.0298 238.367 21.06 237.574 20.9512 236.486C20.9447 236.421 20.9414 236.355 20.9414 236.289V226.492C20.9414 225.523 21.643 224.696 22.599 224.539L25.6677 224.034Z" fill="#36739F"/>
<path fill-rule="evenodd" clip-rule="evenodd" d="M15.5427 227.757C15.4824 227.398 15.1422 227.155 14.7829 227.216L12.7215 227.562C12.4037 227.615 12.171 227.89 12.171 228.212V237.138C12.171 237.156 12.1717 237.174 12.1733 237.193C12.2036 237.556 12.5226 237.825 12.8857 237.795L14.9471 237.623C15.2889 237.594 15.5518 237.308 15.5518 236.965V227.866C15.5518 227.83 15.5488 227.793 15.5427 227.757ZM14.5645 225.915C15.6425 225.734 16.663 226.461 16.8439 227.539C16.8621 227.647 16.8712 227.757 16.8712 227.866V236.965C16.8712 237.994 16.0826 238.852 15.0571 238.937L12.9957 239.11C11.9065 239.201 10.9496 238.392 10.8585 237.303C10.8539 237.248 10.8516 237.193 10.8516 237.138V228.212C10.8516 227.246 11.5498 226.421 12.5031 226.261L14.5645 225.915Z" fill="#36739F"/>
<path fill-rule="evenodd" clip-rule="evenodd" d="M54.7665 192.713C54.6352 192.373 54.2532 192.204 53.9134 192.335L48.6252 194.378C48.3709 194.476 48.2032 194.72 48.2032 194.993V207.176C48.2032 207.22 48.2075 207.263 48.216 207.306C48.2873 207.663 48.6348 207.895 48.9921 207.823L54.2803 206.767C54.5887 206.705 54.8108 206.435 54.8108 206.12V192.95C54.8108 192.869 54.7958 192.788 54.7665 192.713ZM53.438 191.104C54.4576 190.71 55.6034 191.218 55.9972 192.237C56.0851 192.465 56.1302 192.706 56.1302 192.95V206.12C56.1302 207.064 55.464 207.876 54.5387 208.061L49.2506 209.117C48.1787 209.331 47.1362 208.636 46.9221 207.564C46.8966 207.436 46.8838 207.307 46.8838 207.176V194.993C46.8838 194.175 47.3869 193.442 48.1498 193.147L53.438 191.104Z" fill="#36739F"/>
<path fill-rule="evenodd" clip-rule="evenodd" d="M39.6331 198.928C39.5018 198.588 39.1199 198.419 38.78 198.551L34.6808 200.134C34.4265 200.232 34.2589 200.477 34.2589 200.749V210.728C34.2589 210.772 34.2631 210.815 34.2716 210.857C34.343 211.215 34.6905 211.446 35.0478 211.375L39.1469 210.556C39.4554 210.495 39.6774 210.224 39.6774 209.909V199.166C39.6774 199.085 39.6624 199.004 39.6331 198.928ZM38.3046 197.32C39.3242 196.926 40.47 197.433 40.8639 198.453C40.9517 198.68 40.9968 198.922 40.9968 199.166V209.909C40.9968 210.853 40.3307 211.665 39.4054 211.85L35.3062 212.669C34.2344 212.883 33.1919 212.188 32.9778 211.116C32.9523 210.988 32.9395 210.858 32.9395 210.728V200.749C32.9395 199.931 33.4425 199.198 34.2054 198.903L38.3046 197.32Z" fill="#36739F"/>
<path fill-rule="evenodd" clip-rule="evenodd" d="M26.6617 204.256C26.5304 203.916 26.1485 203.747 25.8086 203.878L22.5021 205.155L22.2644 204.54L22.5021 205.155C22.2478 205.254 22.0801 205.498 22.0801 205.771V214.28C22.0801 214.323 22.0844 214.367 22.0929 214.409C22.1643 214.766 22.5118 214.998 22.8691 214.927L26.1755 214.266C26.4839 214.205 26.706 213.934 26.706 213.619V204.494C26.706 204.412 26.691 204.332 26.6617 204.256ZM25.3332 202.647C26.3528 202.254 27.4986 202.761 27.8924 203.78C27.9803 204.008 28.0254 204.25 28.0254 204.494V213.619C28.0254 214.563 27.3593 215.375 26.434 215.56L23.1275 216.221C22.0557 216.435 21.0132 215.739 20.7991 214.668C20.7736 214.54 20.7607 214.41 20.7607 214.28V205.771C20.7607 204.953 21.2638 204.219 22.0267 203.925L25.3332 202.647Z" fill="#36739F"/>
<path fill-rule="evenodd" clip-rule="evenodd" d="M15.8524 208.696C15.7211 208.356 15.3392 208.187 14.9993 208.318L12.4855 209.289C12.2312 209.387 12.0635 209.632 12.0635 209.904V216.944C12.0635 216.987 12.0678 217.031 12.0763 217.073C12.1477 217.43 12.4952 217.662 12.8525 217.591L15.3662 217.089L15.4954 217.736L15.3662 217.089C15.6746 217.027 15.8967 216.756 15.8967 216.442V208.933C15.8967 208.852 15.8817 208.772 15.8524 208.696ZM14.5239 207.087C15.5435 206.693 16.6893 207.201 17.0831 208.22C17.171 208.448 17.2161 208.69 17.2161 208.933V216.442C17.2161 217.385 16.55 218.198 15.6247 218.383L13.1109 218.885C12.0391 219.099 10.9966 218.403 10.7825 217.332C10.757 217.204 10.7441 217.074 10.7441 216.944V209.904C10.7441 209.087 11.2472 208.353 12.0101 208.058L14.5239 207.087Z" fill="#36739F"/>
<path fill-rule="evenodd" clip-rule="evenodd" d="M71.2174 186.405C71.0697 186.072 70.6799 185.922 70.3469 186.069L64.4489 188.686C64.2104 188.791 64.0567 189.028 64.0567 189.289V203.605C64.0567 203.651 64.0615 203.697 64.0711 203.742C64.1466 204.098 64.4968 204.326 64.8532 204.25L70.7512 203C71.056 202.935 71.2741 202.666 71.2741 202.354V186.672C71.2741 186.58 71.2548 186.489 71.2174 186.405ZM69.8119 184.863C70.8111 184.42 71.9803 184.871 72.4235 185.87C72.5356 186.123 72.5935 186.396 72.5935 186.672V202.354C72.5935 203.289 71.9394 204.097 71.0249 204.29L65.1269 205.541C64.0577 205.768 63.0071 205.085 62.7804 204.015C62.7517 203.881 62.7373 203.743 62.7373 203.605V189.289C62.7373 188.506 63.1985 187.797 63.9139 187.48L69.8119 184.863Z" fill="#36739F"/>
<path fill-rule="evenodd" clip-rule="evenodd" d="M71.8749 209.322H80.7034V210.641H72.0123L6.29337 224.481L6.02148 223.19L71.8749 209.322Z" fill="#36739F"/>
<path fill-rule="evenodd" clip-rule="evenodd" d="M71.9144 237.029H80.7039V238.349H71.9738L6.21723 244.283L6.09863 242.969L71.9144 237.029Z" fill="#36739F"/>
<path fill-rule="evenodd" clip-rule="evenodd" d="M81.7207 167.612C81.1404 167.612 80.5672 167.739 80.0417 167.985L7.95705 201.75C7.26165 202.076 6.81744 202.775 6.81744 203.543V207.009H5.49805V203.543C5.49805 202.263 6.23839 201.098 7.39739 200.556L79.482 166.791C80.1827 166.462 80.947 166.292 81.7207 166.292H88.62V167.612H81.7207Z" fill="#36739F"/>
<path fill-rule="evenodd" clip-rule="evenodd" d="M165.873 175.462C166.021 175.13 166.411 174.98 166.744 175.129L239.031 207.355V261.127L165.816 269.277V175.731C165.816 175.639 165.835 175.547 165.873 175.462ZM167.281 173.923C166.283 173.478 165.113 173.927 164.668 174.925C164.555 175.179 164.496 175.453 164.496 175.731V269.277C164.496 270.006 165.087 270.596 165.816 270.596C165.864 270.596 165.913 270.594 165.962 270.588L240.351 262.308V206.499L167.281 173.923Z" fill="#36739F"/>
<path fill-rule="evenodd" clip-rule="evenodd" d="M156.868 175.135H166.636V173.816H156.868V175.135Z" fill="#36739F"/>
<path fill-rule="evenodd" clip-rule="evenodd" d="M179.183 243.968C181.419 243.968 183.232 245.782 183.232 248.022V267.544H184.552V248.022C184.552 245.055 182.149 242.648 179.183 242.648C179.055 242.648 178.928 242.653 178.801 242.662C175.612 242.89 173.143 245.545 173.143 248.744V268.503H174.463V248.744C174.463 246.236 176.398 244.156 178.895 243.978H178.895C178.991 243.971 179.087 243.968 179.183 243.968Z" fill="#36739F"/>
<path fill-rule="evenodd" clip-rule="evenodd" d="M191.038 245.034C191.071 244.672 191.394 244.436 191.757 244.469L197.046 244.95M191.877 243.155C190.788 243.056 189.826 243.858 189.727 244.946C189.721 245.006 189.718 245.066 189.718 245.126V260.273C189.718 261.366 190.605 262.252 191.698 262.252C191.757 262.252 191.817 262.249 191.877 262.243L197.165 261.762C198.184 261.669 198.965 260.815 198.965 259.791V245.607C198.965 244.583 198.184 243.729 197.165 243.636L191.877 243.155ZM197.046 244.95C197.385 244.981 197.645 245.266 197.645 245.607V259.791C197.645 260.132 197.385 260.417 197.046 260.448L191.757 260.93C191.738 260.931 191.718 260.932 191.698 260.932C191.333 260.932 191.038 260.637 191.038 260.273V245.126C191.038 245.106 191.036 245.054 191.038 245.034" fill="#36739F"/>
<path fill-rule="evenodd" clip-rule="evenodd" d="M205.684 246.505C205.715 246.142 206.035 245.874 206.398 245.905L210.735 246.282C211.076 246.312 211.338 246.597 211.338 246.939V258.459C211.338 258.801 211.076 259.086 210.735 259.116L206.398 259.493C206.379 259.494 206.36 259.495 206.341 259.495C205.977 259.495 205.681 259.2 205.681 258.835V246.562C205.681 246.543 205.682 246.524 205.684 246.505ZM206.512 244.591C205.424 244.496 204.464 245.302 204.369 246.391C204.365 246.448 204.362 246.505 204.362 246.562V258.835C204.362 259.928 205.248 260.814 206.341 260.814C206.398 260.814 206.456 260.812 206.512 260.807L210.849 260.43C211.872 260.341 212.657 259.485 212.657 258.459V246.939C212.657 245.913 211.872 245.056 210.849 244.968L206.512 244.591Z" fill="#36739F"/>
<path fill-rule="evenodd" clip-rule="evenodd" d="M219.202 247.948C219.233 247.585 219.553 247.316 219.916 247.347L222.985 247.611C223.326 247.64 223.588 247.925 223.588 248.268V257.13C223.588 257.472 223.326 257.758 222.985 257.787L219.916 258.051L219.972 258.708L219.916 258.051C219.897 258.053 219.878 258.053 219.859 258.053C219.495 258.053 219.2 257.758 219.2 257.394V248.004C219.2 247.985 219.201 247.966 219.202 247.948ZM220.029 246.032C218.94 245.939 217.981 246.746 217.888 247.835C217.883 247.891 217.88 247.948 217.88 248.004V257.394C217.88 258.487 218.766 259.373 219.859 259.373C219.916 259.373 219.973 259.37 220.029 259.366L223.098 259.102C224.121 259.014 224.907 258.157 224.907 257.13V248.268C224.907 247.241 224.121 246.384 223.098 246.296L220.029 246.032Z" fill="#36739F"/>
<path fill-rule="evenodd" clip-rule="evenodd" d="M230.298 248.669C230.329 248.306 230.649 248.037 231.012 248.069L233.073 248.246L233.074 248.246C233.415 248.275 233.677 248.561 233.677 248.903V255.774C233.677 256.116 233.415 256.402 233.074 256.431L231.012 256.608C230.993 256.61 230.974 256.611 230.956 256.611C230.591 256.611 230.296 256.315 230.296 255.951V248.726C230.296 248.707 230.297 248.688 230.298 248.669ZM231.125 246.754C230.036 246.66 229.077 247.467 228.984 248.556C228.979 248.613 228.976 248.669 228.976 248.726V255.951C228.976 257.044 229.863 257.93 230.956 257.93C231.012 257.93 231.069 257.928 231.125 257.923L233.186 257.746C234.21 257.658 234.996 256.801 234.996 255.774V248.903C234.996 247.876 234.21 247.019 233.186 246.931L233.13 247.588" fill="#36739F"/>
<path fill-rule="evenodd" clip-rule="evenodd" d="M191.046 221.318C191.105 220.959 191.444 220.715 191.804 220.773L197.092 221.636L197.198 220.985L197.092 221.636C197.411 221.688 197.645 221.964 197.645 222.287V233.583C197.645 233.602 197.645 233.622 197.643 233.641C197.611 234.004 197.291 234.272 196.928 234.24L191.64 233.778C191.299 233.748 191.038 233.463 191.038 233.12V221.424C191.038 221.389 191.041 221.353 191.046 221.318ZM192.016 219.471C190.938 219.295 189.92 220.027 189.744 221.106C189.727 221.211 189.718 221.318 189.718 221.424V233.12C189.718 234.147 190.503 235.003 191.525 235.092L196.813 235.555C197.902 235.65 198.862 234.845 198.957 233.756C198.962 233.698 198.965 233.641 198.965 233.583V222.287C198.965 221.317 198.262 220.49 197.305 220.334L192.016 219.471Z" fill="#36739F"/>
<path fill-rule="evenodd" clip-rule="evenodd" d="M174.584 218.443C174.647 218.085 174.989 217.845 175.348 217.908L181.246 218.943C181.562 218.998 181.792 219.272 181.792 219.593V232.14C181.792 232.159 181.791 232.178 181.789 232.198C181.758 232.561 181.437 232.829 181.075 232.797L175.177 232.279C174.836 232.25 174.575 231.964 174.575 231.622V218.558C174.575 218.519 174.578 218.481 174.584 218.443ZM175.576 216.608C174.5 216.419 173.474 217.139 173.285 218.215C173.265 218.328 173.255 218.443 173.255 218.558V231.622C173.255 232.648 174.039 233.504 175.061 233.594L180.959 234.111C182.048 234.207 183.008 233.402 183.104 232.313C183.109 232.255 183.111 232.198 183.111 232.14V219.593C183.111 218.632 182.421 217.81 181.474 217.644L175.576 216.608Z" fill="#36739F"/>
<path fill-rule="evenodd" clip-rule="evenodd" d="M205.69 223.593C205.746 223.233 206.084 222.988 206.444 223.045L210.781 223.729C211.102 223.78 211.338 224.056 211.338 224.381V235.116C211.338 235.139 211.337 235.162 211.334 235.185C211.296 235.547 210.971 235.81 210.609 235.772L206.272 235.315C205.936 235.279 205.681 234.996 205.681 234.659V223.696C205.681 223.662 205.684 223.627 205.69 223.593ZM206.65 221.741C205.57 221.571 204.557 222.308 204.386 223.388C204.37 223.49 204.362 223.593 204.362 223.696V234.659C204.362 235.671 205.127 236.521 206.134 236.627L210.471 237.084C211.558 237.198 212.532 236.41 212.646 235.323L211.99 235.254L212.646 235.323C212.654 235.254 212.657 235.185 212.657 235.116V224.381C212.657 223.407 211.949 222.578 210.987 222.426L206.65 221.741L206.547 222.393L206.65 221.741Z" fill="#36739F"/>
<path fill-rule="evenodd" clip-rule="evenodd" d="M219.209 225.879C219.268 225.52 219.607 225.276 219.967 225.335L223.035 225.84C223.354 225.893 223.588 226.168 223.588 226.491V236.289C223.588 236.311 223.587 236.333 223.585 236.355C223.548 236.717 223.225 236.982 222.862 236.946L219.794 236.639C219.457 236.605 219.2 236.321 219.2 235.982V225.986C219.2 225.95 219.203 225.914 219.209 225.879ZM220.181 224.033C219.102 223.856 218.084 224.586 217.907 225.665C217.889 225.771 217.88 225.879 217.88 225.986V235.982C217.88 236.999 218.651 237.851 219.663 237.952L222.731 238.259C223.819 238.367 224.789 237.574 224.897 236.486C224.904 236.421 224.907 236.355 224.907 236.289V226.491C224.907 225.522 224.206 224.696 223.25 224.539L220.181 224.033Z" fill="#36739F"/>
<path fill-rule="evenodd" clip-rule="evenodd" d="M230.305 227.757C230.365 227.398 230.705 227.155 231.065 227.216L233.126 227.561C233.444 227.615 233.677 227.89 233.677 228.212V237.137C233.677 237.156 233.676 237.174 233.674 237.192C233.644 237.555 233.325 237.825 232.962 237.795L230.901 237.622C230.559 237.594 230.296 237.308 230.296 236.965V227.866C230.296 227.83 230.299 227.793 230.305 227.757ZM231.283 225.914C230.205 225.733 229.185 226.461 229.004 227.539C228.986 227.647 228.976 227.756 228.976 227.866V236.965C228.976 237.994 229.765 238.851 230.791 238.937L232.852 239.11C233.941 239.201 234.898 238.392 234.989 237.302C234.994 237.248 234.996 237.192 234.996 237.137V228.212C234.996 227.245 234.298 226.42 233.345 226.26L231.283 225.914Z" fill="#36739F"/>
<path fill-rule="evenodd" clip-rule="evenodd" d="M191.082 192.712C191.213 192.373 191.595 192.203 191.935 192.335L197.223 194.377C197.478 194.476 197.645 194.72 197.645 194.993V207.176C197.645 207.22 197.641 207.263 197.633 207.305C197.561 207.663 197.214 207.895 196.857 207.823L191.568 206.767C191.26 206.705 191.038 206.434 191.038 206.12V192.95C191.038 192.869 191.053 192.788 191.082 192.712ZM192.411 191.104C191.391 190.71 190.245 191.217 189.851 192.237C189.764 192.464 189.718 192.706 189.718 192.95V206.12C189.718 207.063 190.385 207.876 191.31 208.061L196.598 209.117C197.67 209.331 198.712 208.636 198.927 207.564C198.952 207.436 198.965 207.306 198.965 207.176V194.993C198.965 194.175 198.462 193.441 197.699 193.147L192.411 191.104Z" fill="#36739F"/>
<path fill-rule="evenodd" clip-rule="evenodd" d="M206.216 198.928C206.347 198.588 206.729 198.419 207.069 198.551L211.168 200.134C211.422 200.232 211.59 200.477 211.59 200.749V210.728C211.59 210.772 211.586 210.815 211.577 210.857C211.506 211.215 211.158 211.446 210.801 211.375L206.702 210.556C206.393 210.495 206.171 210.224 206.171 209.909V199.166C206.171 199.085 206.186 199.004 206.216 198.928ZM207.544 197.32C206.524 196.926 205.379 197.433 204.985 198.453C204.897 198.68 204.852 198.922 204.852 199.166V209.909C204.852 210.853 205.518 211.665 206.443 211.85L210.542 212.669C211.614 212.883 212.657 212.188 212.871 211.116C212.896 210.988 212.909 210.858 212.909 210.728V200.749C212.909 199.931 212.406 199.198 211.643 198.903L207.544 197.32Z" fill="#36739F"/>
<path fill-rule="evenodd" clip-rule="evenodd" d="M219.187 204.256C219.318 203.916 219.7 203.747 220.04 203.878L223.346 205.155L223.584 204.54L223.346 205.155C223.601 205.254 223.768 205.498 223.768 205.771V214.28C223.768 214.323 223.764 214.367 223.756 214.409C223.684 214.766 223.337 214.998 222.98 214.927L219.673 214.266C219.365 214.205 219.143 213.934 219.143 213.619V204.494C219.143 204.412 219.158 204.332 219.187 204.256ZM220.515 202.647C219.496 202.254 218.35 202.761 217.956 203.78C217.868 204.008 217.823 204.25 217.823 204.494V213.619C217.823 214.563 218.489 215.375 219.415 215.56L222.721 216.221C223.793 216.435 224.835 215.739 225.05 214.668C225.075 214.54 225.088 214.41 225.088 214.28V205.771C225.088 204.953 224.585 204.219 223.822 203.925L220.515 202.647Z" fill="#36739F"/>
<path fill-rule="evenodd" clip-rule="evenodd" d="M229.996 208.696C230.128 208.356 230.509 208.187 230.849 208.318L233.363 209.289C233.617 209.387 233.785 209.632 233.785 209.904V216.944C233.785 216.987 233.781 217.031 233.772 217.073C233.701 217.43 233.353 217.662 232.996 217.591L230.482 217.089L230.353 217.736L230.482 217.089C230.174 217.027 229.952 216.756 229.952 216.442V208.933C229.952 208.852 229.967 208.772 229.996 208.696ZM231.325 207.087C230.305 206.693 229.159 207.201 228.765 208.22C228.678 208.448 228.633 208.69 228.633 208.933V216.442C228.633 217.385 229.299 218.198 230.224 218.383L232.738 218.885C233.81 219.099 234.852 218.403 235.066 217.332C235.092 217.204 235.104 217.074 235.104 216.944V209.904C235.104 209.087 234.601 208.353 233.838 208.058L231.325 207.087Z" fill="#36739F"/>
<path fill-rule="evenodd" clip-rule="evenodd" d="M174.631 186.405C174.779 186.072 175.169 185.922 175.502 186.069L181.4 188.686C181.638 188.791 181.792 189.028 181.792 189.289V203.605C181.792 203.651 181.787 203.697 181.778 203.742C181.702 204.098 181.352 204.326 180.995 204.25L175.097 203C174.793 202.935 174.575 202.666 174.575 202.354V186.672C174.575 186.58 174.594 186.489 174.631 186.405ZM176.037 184.863C175.038 184.42 173.868 184.871 173.425 185.87C173.313 186.123 173.255 186.396 173.255 186.672V202.354C173.255 203.289 173.909 204.096 174.824 204.29L180.722 205.541C181.791 205.768 182.842 205.085 183.068 204.015C183.097 203.88 183.111 203.743 183.111 203.605V189.289C183.111 188.506 182.65 187.797 181.935 187.479L176.037 184.863Z" fill="#36739F"/>
<path fill-rule="evenodd" clip-rule="evenodd" d="M173.974 209.322H165.145V210.641H173.836L239.555 224.481L239.827 223.19L173.974 209.322Z" fill="#36739F"/>
<path fill-rule="evenodd" clip-rule="evenodd" d="M173.934 237.029H165.145V238.349H173.875L239.631 244.283L239.75 242.969L173.934 237.029Z" fill="#36739F"/>
<path fill-rule="evenodd" clip-rule="evenodd" d="M164.128 167.612C164.708 167.612 165.281 167.739 165.807 167.985L237.892 201.75C238.587 202.076 239.031 202.775 239.031 203.543V207.009H240.351V203.543C240.351 202.263 239.61 201.098 238.451 200.556L166.367 166.791C165.666 166.462 164.902 166.292 164.128 166.292H157.229V167.612H164.128Z" fill="#36739F"/>
<path fill-rule="evenodd" clip-rule="evenodd" d="M88.6201 163.473C88.6201 145.583 104.017 131.148 122.924 131.148C141.832 131.148 157.229 145.583 157.229 163.473H155.909C155.909 146.386 141.18 132.467 122.924 132.467C104.669 132.467 89.9395 146.386 89.9395 163.473H88.6201Z" fill="#36739F"/>
<path fill-rule="evenodd" clip-rule="evenodd" d="M106.249 145.503C108.448 139.564 113.584 134.816 121.495 131.207L122.042 132.408C114.318 135.931 109.52 140.467 107.486 145.961C106.375 148.961 105.664 151.962 105.349 154.966L104.037 154.828C104.364 151.709 105.102 148.6 106.249 145.503Z" fill="#36739F"/>
<path fill-rule="evenodd" clip-rule="evenodd" d="M138.493 145.503C136.294 139.564 131.158 134.816 123.248 131.207L122.7 132.408C130.424 135.931 135.222 140.467 137.256 145.961C138.311 148.809 139.005 151.659 139.342 154.511L140.652 154.356C140.303 151.395 139.582 148.444 138.493 145.503Z" fill="#36739F"/>
<path fill-rule="evenodd" clip-rule="evenodd" d="M116.987 124.881C116.259 124.881 115.668 125.471 115.668 126.2V132.137H114.349V126.2C114.349 124.743 115.53 123.561 116.987 123.561H128.202C129.66 123.561 130.841 124.743 130.841 126.2V132.137H129.522V126.2C129.522 125.471 128.931 124.881 128.202 124.881H116.987Z" fill="#36739F"/>
<path fill-rule="evenodd" clip-rule="evenodd" d="M118.224 118.284H126.468L132.081 120.006C132.913 120.261 133.48 121.028 133.48 121.898V122.902C133.48 123.995 132.594 124.881 131.501 124.881H113.689C112.596 124.881 111.71 123.995 111.71 122.902V121.875C111.71 121.022 112.256 120.265 113.065 119.996L118.224 118.284ZM118.438 119.603L113.481 121.249C113.211 121.338 113.029 121.59 113.029 121.875V122.902C113.029 123.266 113.325 123.561 113.689 123.561H131.501C131.865 123.561 132.161 123.266 132.161 122.902V121.898C132.161 121.608 131.971 121.352 131.694 121.267L126.27 119.603H118.438Z" fill="#36739F"/>
<path fill-rule="evenodd" clip-rule="evenodd" d="M122.595 107.729C120.955 107.729 119.626 109.058 119.626 110.697V118.284H125.563V110.697C125.563 109.058 124.234 107.729 122.595 107.729ZM118.307 110.697C118.307 108.329 120.226 106.409 122.595 106.409C124.963 106.409 126.883 108.329 126.883 110.697V118.614C126.883 119.16 126.44 119.603 125.893 119.603H119.296C118.75 119.603 118.307 119.16 118.307 118.614V110.697Z" fill="#36739F"/>
<path opacity="0.3" fill-rule="evenodd" clip-rule="evenodd" d="M123.254 99.4702V107.069H121.935V99.4702H123.254Z" fill="#36739F"/>
<path fill-rule="evenodd" clip-rule="evenodd" d="M115.008 159.845H130.841V179.636H115.008V159.845ZM116.327 161.164V178.316H129.521V161.164H116.327Z" fill="#36739F"/>
<path fill-rule="evenodd" clip-rule="evenodd" d="M115.008 189.531H130.841V209.322H115.008V189.531ZM116.327 190.85V208.003H129.521V190.85H116.327Z" fill="#36739F"/>
<path fill-rule="evenodd" clip-rule="evenodd" d="M115.008 219.218H130.841V239.008H115.008V219.218ZM116.327 220.537V237.689H129.521V220.537H116.327Z" fill="#36739F"/>
<path fill-rule="evenodd" clip-rule="evenodd" d="M122.844 243.086C117.693 243.086 112.364 243.751 106.859 245.085C106.822 245.094 106.786 245.104 106.75 245.115L106.558 244.484L106.75 245.115C105.704 245.433 105.113 246.538 105.431 247.584C106.923 252.497 109.105 256.117 111.94 258.508C114.765 260.891 118.29 262.098 122.562 262.098C126.838 262.098 130.367 260.888 133.194 258.499C136.03 256.102 138.213 252.474 139.703 247.548L140.334 247.739L139.703 247.548C139.711 247.52 139.72 247.491 139.727 247.462C139.996 246.402 139.355 245.326 138.295 245.057C138.283 245.054 138.271 245.051 138.26 245.048C133.088 243.739 127.95 243.086 122.844 243.086ZM139.117 243.947C140.58 244.577 141.41 246.193 141.006 247.786C140.993 247.835 140.98 247.883 140.966 247.93C139.427 253.017 137.133 256.898 134.045 259.507C130.948 262.124 127.105 263.417 122.562 263.417C118.024 263.417 114.185 262.128 111.089 259.516C108.003 256.913 105.709 253.042 104.168 247.967C103.639 246.224 104.623 244.382 106.367 243.853C106.427 243.834 106.487 243.818 106.548 243.803C112.146 242.446 117.578 241.766 122.844 241.766C128.075 241.766 133.334 242.438 138.619 243.778L139.117 243.904V243.947Z" fill="#36739F"/>
<path fill-rule="evenodd" clip-rule="evenodd" d="M122.924 214.719C118.002 214.719 112.912 215.379 107.651 216.705C107.628 216.71 107.606 216.716 107.583 216.723L107.583 216.723C107.015 216.888 106.421 217.272 105.984 217.769C105.542 218.27 105.322 218.812 105.351 219.28L104.035 219.363C103.976 218.432 104.409 217.561 104.993 216.897C105.581 216.229 106.385 215.696 107.216 215.456L107.4 216.089L107.216 215.456C107.254 215.445 107.291 215.435 107.329 215.425C112.685 214.076 117.884 213.399 122.924 213.399C127.932 213.399 132.965 214.067 138.023 215.4C138.892 215.629 139.653 216.2 140.18 216.891C140.705 217.579 141.046 218.452 140.974 219.326L139.659 219.217C139.698 218.75 139.513 218.192 139.131 217.691C138.751 217.193 138.226 216.818 137.686 216.676C132.733 215.37 127.813 214.719 122.924 214.719Z" fill="#36739F"/>
<path fill-rule="evenodd" clip-rule="evenodd" d="M122.924 185.032C118.002 185.032 112.912 185.693 107.651 187.018C107.628 187.024 107.606 187.03 107.583 187.036L107.583 187.036C107.015 187.201 106.421 187.585 105.984 188.082C105.542 188.584 105.322 189.126 105.351 189.594L104.035 189.677C103.976 188.746 104.409 187.874 104.993 187.211C105.581 186.542 106.385 186.01 107.216 185.769L107.4 186.403L107.216 185.769C107.254 185.758 107.291 185.748 107.329 185.739C112.685 184.389 117.884 183.713 122.924 183.713C127.932 183.713 132.965 184.381 138.023 185.714C138.892 185.943 139.653 186.514 140.18 187.205C140.705 187.892 141.046 188.766 140.974 189.639L139.659 189.531C139.698 189.063 139.513 188.505 139.131 188.005C138.751 187.507 138.226 187.132 137.686 186.989C132.733 185.684 127.813 185.032 122.924 185.032Z" fill="#36739F"/>
<path fill-rule="evenodd" clip-rule="evenodd" d="M104.033 246.567V154.897H105.353V246.567H104.033Z" fill="#36739F"/>
<path fill-rule="evenodd" clip-rule="evenodd" d="M100.735 243.817V156.216H102.055V243.817C102.055 244.254 102.272 244.663 102.634 244.909L105.064 246.555L104.324 247.647L101.894 246.001C101.169 245.51 100.735 244.692 100.735 243.817Z" fill="#36739F"/>
<path fill-rule="evenodd" clip-rule="evenodd" d="M144.275 243.817V156.216H142.956V243.817C142.956 244.254 142.739 244.663 142.377 244.909L139.947 246.555L140.687 247.647L143.117 246.001C143.841 245.51 144.275 244.692 144.275 243.817Z" fill="#36739F"/>
<path fill-rule="evenodd" clip-rule="evenodd" d="M139.657 245.907V154.897H140.977V245.907H139.657Z" fill="#36739F"/>
<path fill-rule="evenodd" clip-rule="evenodd" d="M5.49805 260.98L80.7403 269.355H165.109L240.351 260.98V263.803C240.351 265.458 239.124 266.856 237.484 267.073L165.188 276.611H80.6604L8.36509 267.073C6.72437 266.856 5.49805 265.458 5.49805 263.803V260.98ZM6.81744 262.455V263.803C6.81744 264.796 7.55324 265.635 8.53767 265.765L80.747 275.292H165.102L237.311 265.765C238.296 265.635 239.031 264.796 239.031 263.803V262.455L165.182 270.674H80.6671L6.81744 262.455Z" fill="#36739F"/>
<path fill-rule="evenodd" clip-rule="evenodd" d="M208.801 180.214L222.869 187.207L246.443 186.389V275.952H194.327V205.36C197.509 201.069 200.74 198.263 204.018 196.944C207.296 195.624 208.89 190.048 208.801 180.214Z" fill="#FBFBFC"/>
<path fill-rule="evenodd" clip-rule="evenodd" d="M498.243 127.615C499.335 125.914 501.217 124.885 503.239 124.885H524.31V279.32H454.259L454.223 278.698C453.044 258.154 455.433 234.984 461.376 209.194C467.171 184.047 479.469 156.853 498.243 127.615ZM503.239 126.205C501.667 126.205 500.203 127.005 499.353 128.328C480.635 157.48 468.413 184.533 462.662 209.491C456.799 234.93 454.418 257.765 455.506 278.001H522.99V126.205H503.239Z" fill="#36739F"/>
<path fill-rule="evenodd" clip-rule="evenodd" d="M491.345 116.298C492.786 113.956 495.339 112.529 498.089 112.529H517.713C521.356 112.529 524.31 115.482 524.31 119.126V125.545H522.991V119.126C522.991 116.211 520.628 113.848 517.713 113.848H498.089C495.797 113.848 493.67 115.037 492.469 116.99L474.87 145.61H356.867L362.955 135.138C363.546 134.123 364.632 133.498 365.807 133.498H480.59V133.789L491.345 116.298ZM479.958 134.817H365.807C365.102 134.817 364.45 135.192 364.096 135.801L359.16 144.291H474.132L479.958 134.817Z" fill="#36739F"/>
<path fill-rule="evenodd" clip-rule="evenodd" d="M420.021 251.319H455.831L455.795 252.013C455.603 255.741 455.475 258.497 455.411 260.282C455.347 262.067 455.294 264.409 455.249 267.31L455.24 267.959H445.522C444.429 267.959 443.543 268.845 443.543 269.938V279.32H420.021V251.319ZM421.341 252.638V278.001H442.224V269.938C442.224 268.117 443.7 266.64 445.522 266.64H453.94C453.983 264.032 454.033 261.897 454.092 260.235C454.152 258.552 454.269 256.019 454.441 252.638H421.341Z" fill="#36739F"/>
<path fill-rule="evenodd" clip-rule="evenodd" d="M464.743 165.032H419.952V163.712H466.858L466.392 164.663C457.89 181.993 452.075 198.103 448.934 212.993C445.783 227.931 443.741 240.943 442.804 252.034L441.489 251.923C442.432 240.762 444.485 227.694 447.643 212.721C450.754 197.973 456.457 182.076 464.743 165.032Z" fill="#36739F"/>
<path fill-rule="evenodd" clip-rule="evenodd" d="M523.65 275.264H455.137V273.945H523.65V275.264Z" fill="#36739F"/>
<path fill-rule="evenodd" clip-rule="evenodd" d="M523.65 271.617H455.137V270.297H523.65V271.617Z" fill="#36739F"/>
<path fill-rule="evenodd" clip-rule="evenodd" d="M420.05 181.879H365.332V180.56H420.05V181.879Z" fill="#36739F"/>
<path fill-rule="evenodd" clip-rule="evenodd" d="M420.05 163.64H365.332V162.32H420.05V163.64Z" fill="#36739F"/>
<path fill-rule="evenodd" clip-rule="evenodd" d="M420.05 174.583H365.332V173.264H420.05V174.583Z" fill="#36739F"/>
<path fill-rule="evenodd" clip-rule="evenodd" d="M420.05 156.344H365.332V155.024H420.05V156.344Z" fill="#36739F"/>
<path fill-rule="evenodd" clip-rule="evenodd" d="M420.05 149.048H365.332V147.729H420.05V149.048Z" fill="#36739F"/>
<path fill-rule="evenodd" clip-rule="evenodd" d="M523.65 267.969H455.137V266.649H523.65V267.969Z" fill="#36739F"/>
<path fill-rule="evenodd" clip-rule="evenodd" d="M420.05 167.287H365.332V165.968H420.05V167.287Z" fill="#36739F"/>
<path fill-rule="evenodd" clip-rule="evenodd" d="M420.05 178.231H365.332V176.912H420.05V178.231Z" fill="#36739F"/>
<path fill-rule="evenodd" clip-rule="evenodd" d="M420.05 159.992H365.332V158.672H420.05V159.992Z" fill="#36739F"/>
<path fill-rule="evenodd" clip-rule="evenodd" d="M420.05 170.935H365.332V169.616H420.05V170.935Z" fill="#36739F"/>
<path fill-rule="evenodd" clip-rule="evenodd" d="M420.05 152.696H365.332V151.376H420.05V152.696Z" fill="#36739F"/>
<path fill-rule="evenodd" clip-rule="evenodd" d="M523.65 252.648H455.137V251.328H523.65V252.648Z" fill="#36739F"/>
<g opacity="0.5">
<path fill-rule="evenodd" clip-rule="evenodd" d="M473.792 204.743C477.298 188.897 483.903 168.881 493.596 144.705L494.821 145.196C485.141 169.34 478.564 189.281 475.08 205.028C471.593 220.79 469.448 236.452 468.647 252.012L467.329 251.944C468.135 236.308 470.289 220.574 473.792 204.743Z" fill="#36739F"/>
<path fill-rule="evenodd" clip-rule="evenodd" d="M524.16 168.931L456.417 251.758L455.396 250.923L523.139 168.095L524.16 168.931Z" fill="#36739F"/>
<path fill-rule="evenodd" clip-rule="evenodd" d="M524.07 183.352L469.8 252.386L468.763 251.571L523.033 182.536L524.07 183.352Z" fill="#36739F"/>
<path fill-rule="evenodd" clip-rule="evenodd" d="M524.047 157.773L458.02 232.716L457.03 231.844L523.057 156.9L524.047 157.773Z" fill="#36739F"/>
<path fill-rule="evenodd" clip-rule="evenodd" d="M524.771 145.376L461.663 215.213L460.684 214.328L523.792 144.491L524.771 145.376Z" fill="#36739F"/>
<path fill-rule="evenodd" clip-rule="evenodd" d="M516.364 145.921L466.023 197.72L465.077 196.801L515.418 145.001L516.364 145.921Z" fill="#36739F"/>
<path fill-rule="evenodd" clip-rule="evenodd" d="M508.884 145.934L471.115 182.615L470.195 181.669L507.965 144.988L508.884 145.934Z" fill="#36739F"/>
<path fill-rule="evenodd" clip-rule="evenodd" d="M523.65 233.872H457.555V232.552H523.65V233.872Z" fill="#36739F"/>
<path fill-rule="evenodd" clip-rule="evenodd" d="M523.65 214.903H460.316V213.583H523.65V214.903Z" fill="#36739F"/>
<path fill-rule="evenodd" clip-rule="evenodd" d="M523.65 198.123H464.851V196.803H523.65V198.123Z" fill="#36739F"/>
<path fill-rule="evenodd" clip-rule="evenodd" d="M523.649 182.802H469.957V181.482H523.649V182.802Z" fill="#36739F"/>
</g>
<path fill-rule="evenodd" clip-rule="evenodd" d="M421.342 144.731V279.32H356.813V145.663H358.133V278.001H420.022V144.731H421.342Z" fill="#36739F"/>
<path fill-rule="evenodd" clip-rule="evenodd" d="M366.398 206.085H377.202V260.663H366.398V206.085ZM367.718 207.405V259.344H375.883V207.405H367.718Z" fill="#36739F"/>
<path fill-rule="evenodd" clip-rule="evenodd" d="M399.959 206.085H410.763V260.663H399.959V206.085ZM401.278 207.405V259.344H409.443V207.405H401.278Z" fill="#36739F"/>
<path fill-rule="evenodd" clip-rule="evenodd" d="M383.179 206.085H393.983V253.248H383.179V206.085ZM384.498 207.405V251.928H392.663V207.405H384.498Z" fill="#36739F"/>
<path fill-rule="evenodd" clip-rule="evenodd" d="M383.179 257.885H393.983V271.607H383.179V257.885ZM384.498 259.204V270.288H392.663V259.204H384.498Z" fill="#36739F"/>
<path fill-rule="evenodd" clip-rule="evenodd" d="M365.402 181.219V145.461H366.722V181.219H365.402Z" fill="#36739F"/>
<path fill-rule="evenodd" clip-rule="evenodd" d="M341.593 15.5267C341.593 14.798 342.183 14.2073 342.912 14.2073H357.643C358.372 14.2073 358.963 14.798 358.963 15.5267V19.3143C358.963 20.043 358.372 20.6337 357.643 20.6337H342.912C342.183 20.6337 341.593 20.043 341.593 19.3143V15.5267ZM357.643 15.5267H342.912V19.3143H357.643V15.5267Z" fill="#36739F"/>
<path fill-rule="evenodd" clip-rule="evenodd" d="M340.134 43.98C340.134 43.2514 340.725 42.6606 341.453 42.6606H359.103C359.831 42.6606 360.422 43.2514 360.422 43.98V47.7677C360.422 48.4963 359.831 49.0871 359.103 49.0871H341.453C340.725 49.0871 340.134 48.4963 340.134 47.7677V43.98ZM359.103 43.98H341.453V47.7677H359.103V43.98Z" fill="#36739F"/>
<path fill-rule="evenodd" clip-rule="evenodd" d="M337.945 111.101C337.945 110.372 338.536 109.781 339.265 109.781H361.292C362.02 109.781 362.611 110.372 362.611 111.101V114.889C362.611 115.617 362.02 116.208 361.292 116.208H339.265C338.536 116.208 337.945 115.617 337.945 114.889V111.101ZM361.292 111.101H339.265V114.889H361.292V111.101Z" fill="#36739F"/>
<path fill-rule="evenodd" clip-rule="evenodd" d="M342.754 43.2841L343.394 19.9558L344.712 19.992L344.072 43.3203L342.754 43.2841ZM340.911 110.439L342.609 48.5634L343.928 48.5996L342.23 110.475L340.911 110.439ZM340.134 138.777L340.769 115.622L342.088 115.658L341.453 138.814L340.134 138.777Z" fill="#36739F"/>
<path fill-rule="evenodd" clip-rule="evenodd" d="M358.143 43.3042L357.503 19.9558L356.184 19.992L356.825 43.3404L358.143 43.3042ZM359.986 110.469L358.29 48.6425L356.971 48.6787L358.667 110.505L359.986 110.469ZM361.12 140.58L360.132 115.787L358.814 115.84L359.802 140.633L361.12 140.58Z" fill="#36739F"/>
<path fill-rule="evenodd" clip-rule="evenodd" d="M335.322 238.776C333.47 238.776 331.969 240.277 331.969 242.129V249.86H338.675V242.129C338.675 240.277 337.174 238.776 335.322 238.776ZM330.649 242.129C330.649 239.549 332.741 237.457 335.322 237.457C337.902 237.457 339.994 239.549 339.994 242.129V251.179H330.649V242.129Z" fill="#36739F"/>
<path fill-rule="evenodd" clip-rule="evenodd" d="M314.893 238.776C313.041 238.776 311.54 240.277 311.54 242.129V249.86H318.246V242.129C318.246 240.277 316.745 238.776 314.893 238.776ZM310.221 242.129C310.221 239.549 312.313 237.457 314.893 237.457C317.474 237.457 319.566 239.549 319.566 242.129V251.179H310.221V242.129Z" fill="#36739F"/>
<path fill-rule="evenodd" clip-rule="evenodd" d="M294.465 238.776C292.614 238.776 291.112 240.277 291.112 242.129V249.86H297.818V242.129C297.818 240.277 296.317 238.776 294.465 238.776ZM289.793 242.129C289.793 239.549 291.885 237.457 294.465 237.457C297.046 237.457 299.138 239.549 299.138 242.129V251.179H289.793V242.129Z" fill="#36739F"/>
<path fill-rule="evenodd" clip-rule="evenodd" d="M238.289 239.506C236.437 239.506 234.936 241.007 234.936 242.859V250.589H241.642V242.859C241.642 241.007 240.14 239.506 238.289 239.506ZM233.616 242.859C233.616 240.278 235.708 238.187 238.289 238.187C240.869 238.187 242.961 240.278 242.961 242.859V251.909H233.616V242.859Z" fill="#36739F"/>
<path fill-rule="evenodd" clip-rule="evenodd" d="M264.553 239.506C262.701 239.506 261.2 241.007 261.2 242.859V250.589H267.906V242.859C267.906 241.007 266.405 239.506 264.553 239.506ZM259.881 242.859C259.881 240.278 261.973 238.187 264.553 238.187C267.134 238.187 269.226 240.278 269.226 242.859V251.909H259.881V242.859Z" fill="#36739F"/>
<path fill-rule="evenodd" clip-rule="evenodd" d="M294.465 260.664C292.614 260.664 291.112 262.165 291.112 264.017V271.747H297.818V264.017C297.818 262.165 296.317 260.664 294.465 260.664ZM289.793 264.017C289.793 261.436 291.885 259.344 294.465 259.344C297.046 259.344 299.138 261.436 299.138 264.017V273.066H289.793V264.017Z" fill="#36739F"/>
<path fill-rule="evenodd" clip-rule="evenodd" d="M238.289 261.393C236.437 261.393 234.936 262.894 234.936 264.746V272.477H241.642V264.746C241.642 262.894 240.14 261.393 238.289 261.393ZM233.616 264.746C233.616 262.166 235.708 260.074 238.289 260.074C240.869 260.074 242.961 262.166 242.961 264.746V273.796H233.616V264.746Z" fill="#36739F"/>
<path fill-rule="evenodd" clip-rule="evenodd" d="M217.86 239.506C216.008 239.506 214.507 241.007 214.507 242.859V250.589H221.213V242.859C221.213 241.007 219.712 239.506 217.86 239.506ZM213.188 242.859C213.188 240.278 215.279 238.187 217.86 238.187C220.44 238.187 222.532 240.278 222.532 242.859V251.909H213.188V242.859Z" fill="#36739F"/>
<path fill-rule="evenodd" clip-rule="evenodd" d="M217.86 261.393C216.008 261.393 214.507 262.894 214.507 264.746V272.477H221.213V264.746C221.213 262.894 219.712 261.393 217.86 261.393ZM213.188 264.746C213.188 262.166 215.279 260.074 217.86 260.074C220.44 260.074 222.532 262.166 222.532 264.746V273.796H213.188V264.746Z" fill="#36739F"/>
<path fill-rule="evenodd" clip-rule="evenodd" d="M264.553 260.664C262.701 260.664 261.2 262.165 261.2 264.017V277.948H267.906V264.017C267.906 262.165 266.405 260.664 264.553 260.664ZM259.881 264.017C259.881 261.436 261.973 259.344 264.553 259.344C267.134 259.344 269.226 261.436 269.226 264.017V279.268H259.881V264.017Z" fill="#36739F"/>
<path fill-rule="evenodd" clip-rule="evenodd" d="M314.893 260.664C313.041 260.664 311.54 262.165 311.54 264.017V271.747H318.246V264.017C318.246 262.165 316.745 260.664 314.893 260.664ZM310.221 264.017C310.221 261.436 312.313 259.344 314.893 259.344C317.474 259.344 319.566 261.436 319.566 264.017V273.066H310.221V264.017Z" fill="#36739F"/>
<path fill-rule="evenodd" clip-rule="evenodd" d="M335.322 260.664C333.47 260.664 331.969 262.165 331.969 264.017V271.747H338.675V264.017C338.675 262.165 337.174 260.664 335.322 260.664ZM330.649 264.017C330.649 261.436 332.741 259.344 335.322 259.344C337.902 259.344 339.994 261.436 339.994 264.017V273.066H330.649V264.017Z" fill="#36739F"/>
<path fill-rule="evenodd" clip-rule="evenodd" d="M313.113 139.554C312.415 139.554 311.768 139.923 311.411 140.524L308.441 145.531H356.775L360.398 139.554H313.113ZM310.277 139.85C310.871 138.849 311.949 138.235 313.113 138.235H362.74L357.518 146.85H306.124L310.277 139.85Z" fill="#36739F"/>
<path fill-rule="evenodd" clip-rule="evenodd" d="M234.217 230.891H250.348V232.21H232.887V231.55C232.887 220.307 242.001 211.192 253.245 211.192H339.203C346.49 211.192 352.397 217.099 352.397 224.386V232.21H278.12V230.891H351.078V224.386C351.078 217.828 345.761 212.512 339.203 212.512H253.245C242.951 212.512 234.565 220.681 234.217 230.891Z" fill="#36739F"/>
<path fill-rule="evenodd" clip-rule="evenodd" d="M253.624 225.644C252.167 225.644 250.985 226.825 250.985 228.283V277.948H277.39V228.283C277.39 226.825 276.208 225.644 274.751 225.644H253.624ZM249.666 228.283C249.666 226.097 251.438 224.324 253.624 224.324H274.751C276.937 224.324 278.709 226.097 278.709 228.283V279.268H249.666V228.283Z" fill="#36739F"/>
<path fill-rule="evenodd" clip-rule="evenodd" d="M229.398 196.461C215.156 196.461 203.564 208.507 203.564 223.426V231.55H202.244V223.426C202.244 207.831 214.375 195.142 229.398 195.142H325.243C340.265 195.142 352.397 207.831 352.397 223.426V231.55H351.077V223.426C351.077 208.507 339.485 196.461 325.243 196.461H229.398Z" fill="#36739F"/>
<path fill-rule="evenodd" clip-rule="evenodd" d="M202.244 230.891H250.273V232.21H203.564V277.948H351.077V232.21H278.07V230.891H352.397V279.268H202.244V230.891Z" fill="#36739F"/>
<path fill-rule="evenodd" clip-rule="evenodd" d="M351.737 225.644H202.904V224.324H351.737V225.644Z" fill="#36739F"/>
<path fill-rule="evenodd" clip-rule="evenodd" d="M338.675 145.531H352.397V170.926H338.675V145.531ZM339.994 146.85V169.606H351.078V146.85H339.994Z" fill="#36739F"/>
<path fill-rule="evenodd" clip-rule="evenodd" d="M317.028 172.385C315.206 172.385 313.73 173.862 313.73 175.684V195.801H312.41V175.684C312.41 173.133 314.478 171.066 317.028 171.066H330.269C332.82 171.066 334.887 173.133 334.887 175.684V197.246H333.568V175.684C333.568 173.862 332.091 172.385 330.269 172.385H317.028Z" fill="#36739F"/>
<path fill-rule="evenodd" clip-rule="evenodd" d="M338.675 169.606H352.397V183.329H338.675V169.606ZM339.994 170.926V182.009H351.078V170.926H339.994Z" fill="#36739F"/>
<path fill-rule="evenodd" clip-rule="evenodd" d="M338.675 182.009H352.397V224.984H351.078V183.329H339.994V200.134H338.675V182.009Z" fill="#36739F"/>
<path fill-rule="evenodd" clip-rule="evenodd" d="M306.093 195.801V146.891H307.412V195.801H306.093Z" fill="#36739F"/>
<g opacity="0.3">
<path fill-rule="evenodd" clip-rule="evenodd" d="M79.9742 118.928C73.5177 116.147 66.346 115.426 59.4654 117.015C43.7682 120.639 33.4577 134.377 35.9672 148.112C34.4824 148.356 32.9242 148.627 31.4655 148.964C24.3708 150.601 18.2507 153.543 14.0904 156.989C10.1452 160.256 7.81309 164.118 8.39603 167.821C4.52028 169.023 1.40926 171.907 0.0674692 175.728C-0.053234 176.072 0.127593 176.448 0.471364 176.569C0.815128 176.69 1.19165 176.509 1.31236 176.165C2.56985 172.584 5.57821 169.903 9.32849 168.927C9.67418 168.837 9.88546 168.488 9.8051 168.14L9.77959 168.03C9.06283 164.925 10.9244 161.324 14.932 158.005C18.9042 154.715 24.826 151.85 31.7623 150.249C33.3952 149.872 35.168 149.578 36.8523 149.305C37.0307 149.276 37.1894 149.176 37.2914 149.026C37.3935 148.877 37.4299 148.693 37.3921 148.516C34.5932 135.417 44.342 121.86 59.7622 118.3C66.3601 116.777 73.2453 117.466 79.4522 120.14C79.7868 120.284 80.1749 120.129 80.3191 119.795C80.4632 119.46 80.3088 119.072 79.9742 118.928Z" fill="#36739F"/>
<path fill-rule="evenodd" clip-rule="evenodd" d="M87.1995 115.732C77.0045 118.092 69.7644 126.502 69.0489 135.853C67.3226 135.871 65.5614 136.088 63.8442 136.484C52.5405 139.094 44.7815 148.664 46.25 158.293C40.2891 158.396 35.0202 162.307 33.2044 168.097C33.0954 168.445 33.2889 168.815 33.6365 168.924C33.9842 169.033 34.3544 168.84 34.4634 168.492C36.1844 163.004 41.3214 159.387 47.0128 159.621C47.2157 159.629 47.4112 159.544 47.5427 159.389C47.6741 159.234 47.727 159.027 47.686 158.829C45.8323 149.839 52.9997 140.342 64.141 137.77C65.9698 137.348 67.8451 137.142 69.6577 137.174C70.0151 137.181 70.3127 136.901 70.3286 136.544C70.73 127.572 77.6137 119.299 87.5102 117.014C87.5195 117.012 87.5288 117.01 87.538 117.007C89.9648 116.335 92.6387 116.167 95.1865 116.374C95.5496 116.403 95.868 116.133 95.8975 115.77C95.927 115.407 95.6566 115.088 95.2934 115.059C92.6278 114.842 89.7999 115.013 87.1995 115.732Z" fill="#36739F"/>
</g>
<path opacity="0.3" fill-rule="evenodd" clip-rule="evenodd" d="M374.181 40.3379C376.681 39.3899 379.597 38.8745 382.425 38.8745C394.33 38.8745 403.134 47.918 404.283 59.4255C406.302 59.0112 408.359 58.8034 410.421 58.8057C418.471 58.8059 425.543 61.8671 429.579 66.5484C434.399 59.0746 442.751 54.5905 451.687 54.7408C465.643 54.7436 477.1 65.0062 477.102 77.8186C477.12 79.2057 477.001 80.5906 476.746 81.9532C483.192 83.1118 487.972 88.6827 488.073 95.2966L488.073 95.3067C488.073 95.3663 488.089 95.4383 488.137 95.612L488.143 95.6336C488.183 95.7791 488.248 96.0131 488.248 96.2683C488.248 96.6326 487.953 96.928 487.588 96.928C487.224 96.928 486.929 96.6326 486.929 96.2683C486.929 96.2087 486.913 96.1366 486.865 95.9629L486.859 95.9413C486.819 95.7969 486.755 95.5653 486.754 95.3123C486.657 89.1191 482.023 83.9383 475.878 83.1544C475.695 83.1309 475.529 83.0312 475.422 82.8796C475.316 82.728 475.278 82.5385 475.318 82.3575C475.646 80.8718 475.803 79.3531 475.783 77.8316L475.783 77.8231C475.783 65.8565 465.04 56.0602 451.682 56.0602L451.67 56.0601C442.892 55.9106 434.707 60.4743 430.219 68.0199C430.108 68.2079 429.91 68.3283 429.691 68.3412C429.473 68.3542 429.262 68.258 429.129 68.0845C425.521 63.3857 418.567 60.1251 410.42 60.1251H410.42C408.204 60.1226 405.996 60.3735 403.838 60.873C403.65 60.9166 403.452 60.8755 403.297 60.7608C403.142 60.646 403.045 60.4689 403.031 60.2764C402.244 49.0206 393.819 40.1939 382.425 40.1939C379.746 40.1939 376.99 40.6838 374.649 41.5716C372.295 42.4644 370.434 43.7306 369.448 45.2293C369.248 45.5336 368.839 45.6181 368.534 45.4178C368.23 45.2176 368.146 44.8085 368.346 44.5041C369.545 42.6809 371.695 41.2809 374.181 40.3379Z" fill="#36739F"/>
<path opacity="0.3" fill-rule="evenodd" clip-rule="evenodd" d="M335.682 72.5077C335.622 72.1483 335.282 71.9057 334.923 71.9657C326.967 73.2939 322.959 78.4611 321.102 83.6067C320.176 86.1706 319.78 88.7363 319.681 90.841C319.618 92.2077 319.678 93.418 319.817 94.3221C318.145 93.9443 316.436 93.7539 314.72 93.7552C311.485 93.7055 308.282 94.394 305.353 95.7683C305.023 95.9231 304.881 96.3159 305.036 96.6458C305.191 96.9756 305.584 97.1175 305.913 96.9627C308.662 95.6729 311.669 95.0271 314.705 95.0745L314.716 95.0746C316.68 95.0727 318.636 95.3373 320.53 95.8613C320.77 95.9277 321.026 95.8536 321.194 95.6698C321.361 95.4859 321.411 95.2236 321.323 94.9912C321.106 94.4215 320.905 92.9297 320.999 90.9025C321.093 88.9053 321.47 86.4733 322.343 84.0547C324.083 79.2351 327.77 74.4974 335.14 73.267C335.5 73.207 335.742 72.8671 335.682 72.5077Z" fill="#36739F"/>
</g>
<g opacity="0.3">
<path d="M460.669 104.586C459.975 99.3003 456.984 95.1776 451.696 92.2178C448.103 90.5019 444.172 89.6428 440.204 89.7058C437.642 89.7032 435.092 90.0544 432.623 90.7497C433.969 87.1449 433.889 64.9289 414.496 61.634C404.88 60.0029 392.94 63.4446 390.776 76.0206C389.633 75.7732 388.467 75.6475 387.298 75.6455C382.846 75.5844 378.555 77.3407 375.384 80.5221C372.213 83.7034 370.425 88.0448 370.421 92.5766C370.418 96.9879 372.149 101.217 375.23 104.321" stroke="white" stroke-linecap="round" stroke-linejoin="round"/>
</g>
<defs>
<clipPath id="clip0">
<rect width="740.841" height="279.712" fill="white"/>
</clipPath>
</defs>
</svg>
