<svg width="40" height="40" viewBox="0 0 40 40" fill="none" xmlns="http://www.w3.org/2000/svg">
<circle opacity="0.1" cx="20" cy="20" r="20" fill="#FF8A00"/>
<path d="M20 10C19.2469 10 18.6364 10.6105 18.6364 11.3636V18.6364H11.3636C10.6105 18.6364 10 19.2469 10 20C10 20.7531 10.6105 21.3636 11.3636 21.3636H18.6364V28.6364C18.6364 29.3895 19.2469 30 20 30C20.7531 30 21.3636 29.3895 21.3636 28.6364V21.3636H28.6364C29.3895 21.3636 30 20.7531 30 20C30 19.2469 29.3895 18.6364 28.6364 18.6364H21.3636V11.3636C21.3636 10.6105 20.7531 10 20 10Z" fill="#FF8A00"/>
</svg>
