<?xml version="1.0" encoding="utf-8"?>


<!-- The icon can be used freely in both personal and commercial projects with no attribution required, but always appreciated.
You may NOT sub-license, resell, rent, redistribute or otherwise transfer the icon without express written permission from iconmonstr.com -->


<!DOCTYPE svg PUBLIC "-//W3C//DTD SVG 1.1//EN" "http://www.w3.org/Graphics/SVG/1.1/DTD/svg11.dtd">

<svg version="1.1" xmlns="http://www.w3.org/2000/svg" xmlns:xlink="http://www.w3.org/1999/xlink" x="0px" y="0px"

	 width="512px" height="512px" viewBox="0 0 512 512" enable-background="new 0 0 512 512" xml:space="preserve">

<path id="facebook-circle-outline-icon" d="M256.417,90c44.34,0,86.026,17.267,117.38,48.62c31.354,31.354,48.62,73.04,48.62,117.38

	c0,44.34-17.267,86.026-48.62,117.38c-31.354,31.353-73.04,48.62-117.38,48.62s-86.026-17.268-117.38-48.62

	c-31.354-31.354-48.62-73.04-48.62-117.38c0-44.34,17.267-86.026,48.62-117.38C170.391,107.267,212.077,90,256.417,90 M256.417,50

	c-113.771,0-206,92.229-206,206s92.229,206,206,206s206-92.229,206-206S370.188,50,256.417,50L256.417,50z M228.111,218.133h-23.517

	v38.386h23.517v112.764h45.22V256.04h31.551l3.358-37.907h-34.909c0,0,0-14.155,0-21.593c0-8.938,1.801-12.477,10.438-12.477

	c6.957,0,24.471,0,24.471,0v-39.347c0,0-25.797,0-31.309,0c-33.649,0-48.82,14.814-48.82,43.186

	C228.111,212.614,228.111,218.133,228.111,218.133z"/>

</svg>

