<?xml version="1.0" encoding="UTF-8"?>
<!DOCTYPE svg PUBLIC "-//W3C//DTD SVG 1.1//EN" "http://www.w3.org/Graphics/SVG/1.1/DTD/svg11.dtd">
<!-- Creator: CorelDRAW X5 -->
<svg xmlns="http://www.w3.org/2000/svg" xml:space="preserve" width="512px" height="512px" shape-rendering="geometricPrecision" text-rendering="geometricPrecision" image-rendering="optimizeQuality" fill-rule="evenodd" clip-rule="evenodd"
viewBox="0 0 512 512"
 xmlns:xlink="http://www.w3.org/1999/xlink"
 version="1.1"
 enable-background="new 0 0 512 512">
 <g id="Layer_x0020_1">
  <metadata id="CorelCorpID_0Corel-Layer"/>
  <g id="_188420736">
   <path id="facebook-circle-outline-icon" fill="black" d="M256 0c-141.385,0 -256,114.615 -256,256 0,141.385 114.615,256 256,256 141.385,0 256,-114.615 256,-256 0,-141.385 -114.615,-256 -256,-256l0 0zm0 49.708c55.1021,0 106.907,21.4583 145.87,60.4218 38.9647,38.9635 60.4218,90.768 60.4218,145.87 0,55.1021 -21.4583,106.907 -60.4218,145.87 -38.9635,38.9635 -90.768,60.4218 -145.87,60.4218 -55.1021,0 -106.907,-21.4595 -145.87,-60.4218 -38.9647,-38.9635 -60.4218,-90.768 -60.4218,-145.87 0,-55.1021 21.4583,-106.907 60.4218,-145.87 38.9635,-38.9635 90.768,-60.4218 145.87,-60.4218"/>
   <path id="_188420784" fill="black" fill-rule="nonzero" d="M304.463 309.164l-14.1615 75.0404 -20.7839 0c-3.67796,0 -6.86577,-1.47166 -9.56342,-4.41379 -2.69765,-2.94332 -4.04647,-6.55986 -4.04647,-10.852 0,-0.612994 0.0614175,-1.22599 0.122835,-1.77756 0.0614175,-0.551576 0.122835,-1.10433 0.244489,-1.71733l10.852 -56.2797 -37.7044 0 -10.6677 58.4872c-1.10315,5.88545 -3.61655,10.1162 -7.54018,12.691 -3.92363,2.57481 -8.27719,3.86222 -13.0583,3.86222l-20.0481 0 13.9784 -75.0404 -21.1512 0c-3.92363,0 -6.92719,-0.981499 -9.01184,-2.8819 -2.08465,-1.9004 -3.12639,-5.02679 -3.12639,-9.44058 0,-1.71733 0.183071,-3.67915 0.551576,-5.88663l2.39056 -14.53 34.9454 0 9.56342 -50.7616 -39.3592 0 3.49489 -18.9449c0.858664,-4.65946 2.75906,-8.15317 5.7012,-10.4221 2.94332,-2.26772 7.72443,-3.37206 14.3457,-3.37206l20.4154 0 11.4036 -59.223c0.981499,-4.90395 3.24922,-8.70593 6.80553,-11.4036 3.55513,-2.69646 7.72443,-4.04529 12.5067,-4.04529l20.5997 0 -13.9784 74.6719 37.5202 0 14.1615 -74.6719 20.2312 0c4.29214,0 7.78703,1.22599 10.4847,3.67796 2.69765,2.45198 4.04647,5.57954 4.04647,9.38034 0,1.22599 -0.0614175,2.14489 -0.184253,2.75788l-11.4036 58.8557 37.3359 0 -3.49371 18.9438c-0.858664,4.65946 -2.75906,8.09294 -5.76262,10.3618 -3.00473,2.26772 -7.78703,3.43348 -14.2855,3.43348l-18.3922 0 -9.38034 50.7616 26.1178 0c3.92363,0 6.92719,0.920082 8.95042,2.82048 2.02323,1.9004 3.00355,5.14962 3.00355,9.68743 0,1.71615 -0.183071,3.67796 -0.550395,5.88427l-2.20749 14.3469 -39.9119 0zm-70.4423 -32.7391l37.7044 0 9.38034 -50.7616 -37.5202 0 -9.5646 50.7616z"/>
  </g>
 </g>
</svg>
