<svg width="32" height="32" viewBox="0 0 32 32" fill="none" xmlns="http://www.w3.org/2000/svg">
<path d="M15.9999 3.58691C9.15541 3.58691 3.58691 9.15541 3.58691 15.9999C3.58691 22.8444 9.15541 28.4129 15.9999 28.4129C22.8444 28.4129 28.4129 22.8444 28.4129 15.9999C28.4129 9.15541 22.8444 3.58691 15.9999 3.58691ZM19.0869 16.4369H17.0674C17.0674 19.6634 17.0674 23.6359 17.0674 23.6359H14.0749C14.0749 23.6359 14.0749 19.7019 14.0749 16.4369H12.6524V13.8929H14.0749V12.2474C14.0749 11.0689 14.6349 9.22741 17.0949 9.22741L19.3114 9.23591V11.7054C19.3114 11.7054 17.9639 11.7054 17.7019 11.7054C17.4399 11.7054 17.0679 11.8364 17.0679 12.3984V13.8934H19.3479L19.0869 16.4369Z" fill="url(#paint0_linear)"/>
<defs>
<linearGradient id="paint0_linear" x1="15.9999" y1="3.58691" x2="15.9999" y2="28.4129" gradientUnits="userSpaceOnUse">
<stop stop-color="#FFAA45"/>
<stop offset="1" stop-color="#FF7A00"/>
</linearGradient>
</defs>
</svg>
