<svg width="445" height="297" viewBox="0 0 445 297" fill="none" xmlns="http://www.w3.org/2000/svg">
<path fill-rule="evenodd" clip-rule="evenodd" d="M11.7585 22.3728C9.74649 22.3728 8.11543 23.993 8.11543 25.9917V176.535H105.75V22.3728H11.7585ZM6.6582 25.9917C6.6582 23.1936 8.94169 20.9253 11.7585 20.9253H107.207V177.983H6.6582V25.9917Z" fill="#36739F"/>
<path fill-rule="evenodd" clip-rule="evenodd" d="M1.55762 251.083H113.764V273.52H1.55762V251.083ZM3.01485 252.531V272.072H112.307V252.531H3.01485Z" fill="#36739F"/>
<path fill-rule="evenodd" clip-rule="evenodd" d="M0.100301 177.982C-1.91171 177.982 -3.54277 179.603 -3.54277 181.601V247.464C-3.54277 249.463 -1.91171 251.083 0.100301 251.083H99.1919V177.982H0.100301ZM-5 181.601C-5 178.803 -2.71652 176.535 0.100301 176.535H100.649V252.531H0.100301C-2.71652 252.531 -5 250.262 -5 247.464V181.601Z" fill="#36739F"/>
<path fill-rule="evenodd" clip-rule="evenodd" d="M305.31 125.872C307.379 125.872 309.033 127.504 309.033 129.49V268.454C309.033 270.44 307.379 272.073 305.31 272.073H107.207V273.52H305.31C308.158 273.52 310.49 271.264 310.49 268.454V129.49C310.49 126.68 308.158 124.424 305.31 124.424H107.207V125.872H305.31Z" fill="#36739F"/>
<path fill-rule="evenodd" clip-rule="evenodd" d="M115.222 172.193H106.478V170.745H115.222C118.039 170.745 120.322 173.013 120.322 175.811V247.464C120.322 250.263 118.039 252.531 115.222 252.531H93.3633V251.083H115.222C117.234 251.083 118.865 249.463 118.865 247.464V175.811C118.865 173.813 117.234 172.193 115.222 172.193Z" fill="#36739F"/>
<path fill-rule="evenodd" clip-rule="evenodd" d="M24.1442 2.1072C22.1322 2.1072 20.5012 3.72741 20.5012 5.72604V20.9252H105.749V5.72604C105.749 3.72741 104.118 2.1072 102.106 2.1072H24.1442ZM19.0439 5.72604C19.0439 2.92796 21.3274 0.659668 24.1442 0.659668H102.106C104.923 0.659668 107.206 2.92796 107.206 5.72604V22.3727H19.0439V5.72604Z" fill="#36739F"/>
<path fill-rule="evenodd" clip-rule="evenodd" d="M17.5869 30.3342H26.3303V168.574H17.5869V30.3342ZM19.0441 31.7818V167.126H24.8731V31.7818H19.0441Z" fill="#36739F"/>
<path d="M26.3303 49.876H17.5869V51.3235H26.3303V49.876Z" fill="#36739F"/>
<path d="M26.3303 69.4177H17.5869V70.8653H26.3303V69.4177Z" fill="#36739F"/>
<path d="M26.3303 88.9595H17.5869V90.407H26.3303V88.9595Z" fill="#36739F"/>
<path d="M26.3303 108.501H17.5869V109.949H26.3303V108.501Z" fill="#36739F"/>
<path d="M26.3303 128.043H17.5869V129.49H26.3303V128.043Z" fill="#36739F"/>
<path d="M26.3303 147.585H17.5869V149.032H26.3303V147.585Z" fill="#36739F"/>
<path fill-rule="evenodd" clip-rule="evenodd" d="M35.0742 30.3342H43.8176V168.574H35.0742V30.3342ZM36.5314 31.7818V167.126H42.3604V31.7818H36.5314Z" fill="#36739F"/>
<path d="M43.8176 49.876H35.0742V51.3235H43.8176V49.876Z" fill="#36739F"/>
<path d="M43.8176 69.4177H35.0742V70.8653H43.8176V69.4177Z" fill="#36739F"/>
<path d="M43.8176 88.9595H35.0742V90.407H43.8176V88.9595Z" fill="#36739F"/>
<path d="M43.8176 108.501H35.0742V109.949H43.8176V108.501Z" fill="#36739F"/>
<path d="M43.8176 128.043H35.0742V129.49H43.8176V128.043Z" fill="#36739F"/>
<path d="M43.8176 147.585H35.0742V149.032H43.8176V147.585Z" fill="#36739F"/>
<path fill-rule="evenodd" clip-rule="evenodd" d="M52.5605 30.3342H61.3039V168.574H52.5605V30.3342ZM54.0178 31.7818V167.126H59.8467V31.7818H54.0178Z" fill="#36739F"/>
<path d="M61.3039 49.876H52.5605V51.3235H61.3039V49.876Z" fill="#36739F"/>
<path d="M61.3039 69.4177H52.5605V70.8653H61.3039V69.4177Z" fill="#36739F"/>
<path d="M61.3039 88.9595H52.5605V90.407H61.3039V88.9595Z" fill="#36739F"/>
<path d="M61.3039 108.501H52.5605V109.949H61.3039V108.501Z" fill="#36739F"/>
<path d="M61.3039 128.043H52.5605V129.49H61.3039V128.043Z" fill="#36739F"/>
<path d="M61.3039 147.585H52.5605V149.032H61.3039V147.585Z" fill="#36739F"/>
<path fill-rule="evenodd" clip-rule="evenodd" d="M70.0479 30.3342H78.7912V168.574H70.0479V30.3342ZM71.5051 31.7818V167.126H77.334V31.7818H71.5051Z" fill="#36739F"/>
<path fill-rule="evenodd" clip-rule="evenodd" d="M127.607 138.176H136.351V237.332H127.607V138.176ZM129.065 139.623V235.884H134.894V139.623H129.065Z" fill="#36739F"/>
<path d="M136.351 157.717H127.607V159.165H136.351V157.717Z" fill="#36739F"/>
<path d="M136.351 177.259H127.607V178.707H136.351V177.259Z" fill="#36739F"/>
<path d="M136.351 196.801H127.607V198.249H136.351V196.801Z" fill="#36739F"/>
<path d="M136.351 216.343H127.607V217.79H136.351V216.343Z" fill="#36739F"/>
<path fill-rule="evenodd" clip-rule="evenodd" d="M145.823 138.176H154.567V237.332H145.823V138.176ZM147.28 139.623V235.884H153.109V139.623H147.28Z" fill="#36739F"/>
<path d="M154.567 157.717H145.823V159.165H154.567V157.717Z" fill="#36739F"/>
<path d="M154.567 177.259H145.823V178.707H154.567V177.259Z" fill="#36739F"/>
<path d="M154.567 196.801H145.823V198.249H154.567V196.801Z" fill="#36739F"/>
<path d="M154.567 216.343H145.823V217.79H154.567V216.343Z" fill="#36739F"/>
<path fill-rule="evenodd" clip-rule="evenodd" d="M164.039 138.176H172.782V237.332H164.039V138.176ZM165.496 139.623V235.884H171.325V139.623H165.496Z" fill="#36739F"/>
<path d="M172.782 157.717H164.039V159.165H172.782V157.717Z" fill="#36739F"/>
<path d="M172.782 177.259H164.039V178.707H172.782V177.259Z" fill="#36739F"/>
<path d="M172.782 196.801H164.039V198.249H172.782V196.801Z" fill="#36739F"/>
<path d="M172.782 216.343H164.039V217.79H172.782V216.343Z" fill="#36739F"/>
<path fill-rule="evenodd" clip-rule="evenodd" d="M182.254 138.176H190.997V237.332H182.254V138.176ZM183.711 139.623V235.884H189.54V139.623H183.711Z" fill="#36739F"/>
<path d="M190.997 157.717H182.254V159.165H190.997V157.717Z" fill="#36739F"/>
<path d="M190.997 177.259H182.254V178.707H190.997V177.259Z" fill="#36739F"/>
<path d="M190.997 196.801H182.254V198.249H190.997V196.801Z" fill="#36739F"/>
<path d="M190.997 216.343H182.254V217.79H190.997V216.343Z" fill="#36739F"/>
<path fill-rule="evenodd" clip-rule="evenodd" d="M200.47 138.176H209.213V237.332H200.47V138.176ZM201.927 139.623V235.884H207.756V139.623H201.927Z" fill="#36739F"/>
<path d="M209.213 157.717H200.47V159.165H209.213V157.717Z" fill="#36739F"/>
<path d="M209.213 177.259H200.47V178.707H209.213V177.259Z" fill="#36739F"/>
<path d="M209.213 196.801H200.47V198.249H209.213V196.801Z" fill="#36739F"/>
<path d="M209.213 216.343H200.47V217.79H209.213V216.343Z" fill="#36739F"/>
<path fill-rule="evenodd" clip-rule="evenodd" d="M218.685 138.176H227.428V237.332H218.685V138.176ZM220.142 139.623V235.884H225.971V139.623H220.142Z" fill="#36739F"/>
<path d="M227.428 157.717H218.685V159.165H227.428V157.717Z" fill="#36739F"/>
<path d="M227.428 177.259H218.685V178.707H227.428V177.259Z" fill="#36739F"/>
<path d="M227.428 196.801H218.685V198.249H227.428V196.801Z" fill="#36739F"/>
<path d="M227.428 216.343H218.685V217.79H227.428V216.343Z" fill="#36739F"/>
<path fill-rule="evenodd" clip-rule="evenodd" d="M236.9 138.176H245.644V237.332H236.9V138.176ZM238.358 139.623V235.884H244.187V139.623H238.358Z" fill="#36739F"/>
<path d="M245.644 157.717H236.9V159.165H245.644V157.717Z" fill="#36739F"/>
<path d="M245.644 177.259H236.9V178.707H245.644V177.259Z" fill="#36739F"/>
<path d="M245.644 196.801H236.9V198.249H245.644V196.801Z" fill="#36739F"/>
<path d="M245.644 216.343H236.9V217.79H245.644V216.343Z" fill="#36739F"/>
<path fill-rule="evenodd" clip-rule="evenodd" d="M255.115 138.176H263.859V237.332H255.115V138.176ZM256.572 139.623V235.884H262.401V139.623H256.572Z" fill="#36739F"/>
<path d="M263.859 157.717H255.115V159.165H263.859V157.717Z" fill="#36739F"/>
<path d="M263.859 177.259H255.115V178.707H263.859V177.259Z" fill="#36739F"/>
<path d="M263.859 196.801H255.115V198.249H263.859V196.801Z" fill="#36739F"/>
<path d="M263.859 216.343H255.115V217.79H263.859V216.343Z" fill="#36739F"/>
<path fill-rule="evenodd" clip-rule="evenodd" d="M273.332 138.176H282.075V237.332H273.332V138.176ZM274.789 139.623V235.884H280.618V139.623H274.789Z" fill="#36739F"/>
<path d="M282.074 157.717H273.331V159.165H282.074V157.717Z" fill="#36739F"/>
<path d="M282.074 177.259H273.331V178.707H282.074V177.259Z" fill="#36739F"/>
<path d="M282.074 196.801H273.331V198.249H282.074V196.801Z" fill="#36739F"/>
<path d="M282.074 216.343H273.331V217.79H282.074V216.343Z" fill="#36739F"/>
<path fill-rule="evenodd" clip-rule="evenodd" d="M291.546 138.176H300.289V237.332H291.546V138.176ZM293.003 139.623V235.884H298.832V139.623H293.003Z" fill="#36739F"/>
<path d="M300.289 157.717H291.546V159.165H300.289V157.717Z" fill="#36739F"/>
<path d="M300.289 177.259H291.546V178.707H300.289V177.259Z" fill="#36739F"/>
<path d="M300.289 196.801H291.546V198.249H300.289V196.801Z" fill="#36739F"/>
<path d="M300.289 216.343H291.546V217.79H300.289V216.343Z" fill="#36739F"/>
<path d="M78.7912 49.8757H70.0479V51.3233H78.7912V49.8757Z" fill="#36739F"/>
<path d="M78.7912 69.4177H70.0479V70.8652H78.7912V69.4177Z" fill="#36739F"/>
<path d="M78.7912 88.9592H70.0479V90.4067H78.7912V88.9592Z" fill="#36739F"/>
<path d="M78.7912 108.501H70.0479V109.949H78.7912V108.501Z" fill="#36739F"/>
<path d="M78.7912 128.043H70.0479V129.49H78.7912V128.043Z" fill="#36739F"/>
<path d="M78.7912 147.584H70.0479V149.032H78.7912V147.584Z" fill="#36739F"/>
<path fill-rule="evenodd" clip-rule="evenodd" d="M78.791 184.497H87.5344V244.569H78.791V184.497ZM80.2482 185.944V243.122H86.0772V185.944H80.2482Z" fill="#36739F"/>
<path d="M87.5344 204.039H78.791V205.486H87.5344V204.039Z" fill="#36739F"/>
<path d="M87.5344 223.58H78.791V225.028H87.5344V223.58Z" fill="#36739F"/>
<path fill-rule="evenodd" clip-rule="evenodd" d="M61.3037 184.497H70.0471V244.569H61.3037V184.497ZM62.7609 185.944V243.122H68.5899V185.944H62.7609Z" fill="#36739F"/>
<path d="M70.0471 204.039H61.3037V205.486H70.0471V204.039Z" fill="#36739F"/>
<path d="M70.0471 223.58H61.3037V225.028H70.0471V223.58Z" fill="#36739F"/>
<path fill-rule="evenodd" clip-rule="evenodd" d="M43.8174 184.497H52.5608V244.569H43.8174V184.497ZM45.2746 185.944V243.122H51.1035V185.944H45.2746Z" fill="#36739F"/>
<path d="M52.5608 204.039H43.8174V205.486H52.5608V204.039Z" fill="#36739F"/>
<path d="M52.5608 223.58H43.8174V225.028H52.5608V223.58Z" fill="#36739F"/>
<path fill-rule="evenodd" clip-rule="evenodd" d="M26.3311 184.497H35.0744V244.569H26.3311V184.497ZM27.7883 185.944V243.122H33.6172V185.944H27.7883Z" fill="#36739F"/>
<path d="M35.0744 204.039H26.3311V205.486H35.0744V204.039Z" fill="#36739F"/>
<path d="M35.0744 223.58H26.3311V225.028H35.0744V223.58Z" fill="#36739F"/>
<path fill-rule="evenodd" clip-rule="evenodd" d="M8.11523 184.497H16.8586V244.57H8.11523V184.497ZM9.57246 185.945V243.122H15.4014V185.945H9.57246Z" fill="#36739F"/>
<path d="M16.8586 204.038H8.11523V205.486H16.8586V204.038Z" fill="#36739F"/>
<path d="M16.8586 223.58H8.11523V225.028H16.8586V223.58Z" fill="#36739F"/>
<path fill-rule="evenodd" clip-rule="evenodd" d="M87.5342 30.3342H96.2776V168.574H87.5342V30.3342ZM88.9914 31.7818V167.126H94.8203V31.7818H88.9914Z" fill="#36739F"/>
<path fill-rule="evenodd" clip-rule="evenodd" d="M100.649 177.259V251.807H99.1914V177.259H100.649Z" fill="#36739F"/>
<path fill-rule="evenodd" clip-rule="evenodd" d="M104.292 251.083H109.392V273.52H104.292V251.083ZM105.749 252.531V272.072H107.935V252.531H105.749Z" fill="#36739F"/>
<path fill-rule="evenodd" clip-rule="evenodd" d="M91.9053 251.083H97.0056V273.52H91.9053V251.083ZM93.3625 252.531V272.072H95.5484V252.531H93.3625Z" fill="#36739F"/>
<path fill-rule="evenodd" clip-rule="evenodd" d="M79.5195 251.083H84.6198V273.52H79.5195V251.083ZM80.9768 252.531V272.072H83.1626V252.531H80.9768Z" fill="#36739F"/>
<path fill-rule="evenodd" clip-rule="evenodd" d="M67.1328 251.083H72.2331V273.52H67.1328V251.083ZM68.59 252.531V272.072H70.7759V252.531H68.59Z" fill="#36739F"/>
<path fill-rule="evenodd" clip-rule="evenodd" d="M54.7461 251.083H59.8464V273.52H54.7461V251.083ZM56.2033 252.531V272.072H58.3892V252.531H56.2033Z" fill="#36739F"/>
<path fill-rule="evenodd" clip-rule="evenodd" d="M42.3604 251.083H47.4606V273.52H42.3604V251.083ZM43.8176 252.531V272.072H46.0034V252.531H43.8176Z" fill="#36739F"/>
<path fill-rule="evenodd" clip-rule="evenodd" d="M29.9736 251.083H35.0739V273.52H29.9736V251.083ZM31.4309 252.531V272.072H33.6167V252.531H31.4309Z" fill="#36739F"/>
<path fill-rule="evenodd" clip-rule="evenodd" d="M17.5869 251.083H22.6872V273.52H17.5869V251.083ZM19.0441 252.531V272.072H21.23V252.531H19.0441Z" fill="#36739F"/>
<path fill-rule="evenodd" clip-rule="evenodd" d="M5.92969 251.083H11.03V273.52H5.92969V251.083ZM7.38692 252.531V272.072H9.57276V252.531H7.38692Z" fill="#36739F"/>
<path fill-rule="evenodd" clip-rule="evenodd" d="M215.041 251.083H220.141V273.52H215.041V251.083ZM216.498 252.531V272.072H218.684V252.531H216.498Z" fill="#36739F"/>
<path fill-rule="evenodd" clip-rule="evenodd" d="M202.655 251.083H207.756V273.52H202.655V251.083ZM204.112 252.531V272.072H206.298V252.531H204.112Z" fill="#36739F"/>
<path fill-rule="evenodd" clip-rule="evenodd" d="M190.269 251.083H195.369V273.52H190.269V251.083ZM191.726 252.531V272.072H193.912V252.531H191.726Z" fill="#36739F"/>
<path fill-rule="evenodd" clip-rule="evenodd" d="M177.882 251.083H182.982V273.52H177.882V251.083ZM179.339 252.531V272.072H181.525V252.531H179.339Z" fill="#36739F"/>
<path fill-rule="evenodd" clip-rule="evenodd" d="M165.496 251.083H170.596V273.52H165.496V251.083ZM166.953 252.531V272.072H169.139V252.531H166.953Z" fill="#36739F"/>
<path fill-rule="evenodd" clip-rule="evenodd" d="M153.109 251.083H158.21V273.52H153.109V251.083ZM154.567 252.531V272.072H156.752V252.531H154.567Z" fill="#36739F"/>
<path fill-rule="evenodd" clip-rule="evenodd" d="M140.723 251.083H145.823V273.52H140.723V251.083ZM142.18 252.531V272.072H144.366V252.531H142.18Z" fill="#36739F"/>
<path fill-rule="evenodd" clip-rule="evenodd" d="M128.337 251.083H133.437V273.52H128.337V251.083ZM129.794 252.531V272.072H131.98V252.531H129.794Z" fill="#36739F"/>
<path d="M116.889 251.47L307.223 251.47" stroke="#36739F" stroke-width="1.5"/>
<path fill-rule="evenodd" clip-rule="evenodd" d="M116.679 251.083H121.779V273.52H116.679V251.083ZM118.136 252.531V272.072H120.322V252.531H118.136Z" fill="#36739F"/>
<path fill-rule="evenodd" clip-rule="evenodd" d="M301.018 251.083H306.118V273.52H301.018V251.083ZM302.475 252.531V272.072H304.661V252.531H302.475Z" fill="#36739F"/>
<path fill-rule="evenodd" clip-rule="evenodd" d="M288.632 251.083H293.732V273.52H288.632V251.083ZM290.089 252.531V272.072H292.275V252.531H290.089Z" fill="#36739F"/>
<path fill-rule="evenodd" clip-rule="evenodd" d="M276.245 251.083H281.345V273.52H276.245V251.083ZM277.702 252.531V272.072H279.888V252.531H277.702Z" fill="#36739F"/>
<path fill-rule="evenodd" clip-rule="evenodd" d="M263.858 251.083H268.959V273.52H263.858V251.083ZM265.316 252.531V272.072H267.501V252.531H265.316Z" fill="#36739F"/>
<path fill-rule="evenodd" clip-rule="evenodd" d="M251.473 251.083H256.573V273.52H251.473V251.083ZM252.93 252.531V272.072H255.116V252.531H252.93Z" fill="#36739F"/>
<path fill-rule="evenodd" clip-rule="evenodd" d="M239.086 251.083H244.186V273.52H239.086V251.083ZM240.543 252.531V272.072H242.729V252.531H240.543Z" fill="#36739F"/>
<path fill-rule="evenodd" clip-rule="evenodd" d="M227.428 251.083H232.528V273.52H227.428V251.083ZM228.885 252.531V272.072H231.071V252.531H228.885Z" fill="#36739F"/>
<path d="M96.2776 49.8757H87.5342V51.3233H96.2776V49.8757Z" fill="#36739F"/>
<path d="M96.2776 69.4177H87.5342V70.8652H96.2776V69.4177Z" fill="#36739F"/>
<path d="M96.2776 88.9592H87.5342V90.4067H96.2776V88.9592Z" fill="#36739F"/>
<path d="M96.2776 108.501H87.5342V109.949H96.2776V108.501Z" fill="#36739F"/>
<path d="M96.2776 128.043H87.5342V129.49H96.2776V128.043Z" fill="#36739F"/>
<path d="M96.2776 147.584H87.5342V149.032H96.2776V147.584Z" fill="#36739F"/>
<path d="M28.5168 1.38354H27.0596V14.4114H28.5168V1.38354Z" fill="#36739F"/>
<path d="M28.5168 17.3064H27.0596V21.649H28.5168V17.3064Z" fill="#36739F"/>
<path d="M37.26 1.38354H35.8027V5.72615H37.26V1.38354Z" fill="#36739F"/>
<path d="M46.0031 17.3064H44.5459V21.649H46.0031V17.3064Z" fill="#36739F"/>
<path d="M54.7463 1.38354H53.2891V5.72615H54.7463V1.38354Z" fill="#36739F"/>
<path d="M107.207 238.779H105.75V251.807H107.207V238.779Z" fill="#36739F"/>
<path d="M113.764 171.469H112.307V184.497H113.764V171.469Z" fill="#36739F"/>
<path d="M72.2336 1.38354H70.7764V5.72615H72.2336V1.38354Z" fill="#36739F"/>
<path d="M80.9768 17.3064H79.5195V21.649H80.9768V17.3064Z" fill="#36739F"/>
<path d="M89.7199 1.38354H88.2627V5.72615H89.7199V1.38354Z" fill="#36739F"/>
<path d="M98.4631 17.3064H97.0059V21.649H98.4631V17.3064Z" fill="#36739F"/>
<path d="M37.26 8.62109H35.8027V21.6489H37.26V8.62109Z" fill="#36739F"/>
<path d="M46.0031 1.38354H44.5459V14.4114H46.0031V1.38354Z" fill="#36739F"/>
<path d="M54.7463 8.62109H53.2891V21.6489H54.7463V8.62109Z" fill="#36739F"/>
<path d="M107.207 177.259H105.75V235.884H107.207V177.259Z" fill="#36739F"/>
<path d="M113.764 187.392H112.307V253.254H113.764V187.392Z" fill="#36739F"/>
<path d="M63.4895 1.38354H62.0322V14.4114H63.4895V1.38354Z" fill="#36739F"/>
<path d="M72.2336 8.62109H70.7764V21.6489H72.2336V8.62109Z" fill="#36739F"/>
<path d="M80.9768 1.38354H79.5195V14.4114H80.9768V1.38354Z" fill="#36739F"/>
<path d="M89.7199 8.62109H88.2627V22.3727H89.7199V8.62109Z" fill="#36739F"/>
<path d="M98.4631 1.38354H97.0059V14.4114H98.4631V1.38354Z" fill="#36739F"/>
<path fill-rule="evenodd" clip-rule="evenodd" d="M373.45 237.67H432.489V273.511H373.45V237.67ZM374.712 238.923V272.258H431.227V238.923H374.712Z" fill="#36739F"/>
<path fill-rule="evenodd" clip-rule="evenodd" d="M421.222 224.384L433.082 236.206L432.491 238.583L425.9 235.555H419.879L417.318 230.858L421.222 224.384ZM421.472 226.409L418.771 230.889L420.631 234.301H426.178L431.633 236.808L431.687 236.591L421.472 226.409Z" fill="#36739F"/>
<path fill-rule="evenodd" clip-rule="evenodd" d="M404.205 224.69L407.416 226.847L406.62 235.153H403.44L394.008 228.778L404.205 224.69ZM396.671 229.062L403.829 233.9H405.472L406.089 227.469L404.054 226.103L396.671 229.062Z" fill="#36739F"/>
<path fill-rule="evenodd" clip-rule="evenodd" d="M410.242 223.973L414.2 227.604L405.712 231.926L406.148 226.813L410.242 223.973ZM407.355 227.504L407.161 229.779L412.016 227.307L410.132 225.579L407.355 227.504Z" fill="#36739F"/>
<path fill-rule="evenodd" clip-rule="evenodd" d="M413.945 227.393L415.53 230.238V234.685L410.653 234.361L405.432 238.92L405.415 234.529L406.677 234.524L406.683 236.158L410.214 233.075L414.268 233.345V230.561L412.841 227.999L413.945 227.393Z" fill="#36739F"/>
<path fill-rule="evenodd" clip-rule="evenodd" d="M416.026 219.412L421.786 224.946L420.908 225.847L415.941 221.074L410.577 225.268L409.797 224.283L416.026 219.412Z" fill="#36739F"/>
<path fill-rule="evenodd" clip-rule="evenodd" d="M417.95 231.493L414.804 231.02L414.993 229.78L418.139 230.254L417.95 231.493Z" fill="#36739F"/>
<path fill-rule="evenodd" clip-rule="evenodd" d="M377.229 225.677L388.235 233.452L374.634 233.903L372.928 233.192L377.229 225.677ZM377.636 227.503L374.728 232.583L374.868 232.641L384.459 232.323L377.636 227.503Z" fill="#36739F"/>
<path fill-rule="evenodd" clip-rule="evenodd" d="M387.684 233.196V236.236L373.436 238.69L372.575 236.598L374.007 235.953L374.121 233.246L375.382 233.298L375.235 236.777L374.203 237.241L374.22 237.283L386.422 235.181V233.196H387.684Z" fill="#36739F"/>
<path fill-rule="evenodd" clip-rule="evenodd" d="M402.447 219.498H416.008V220.752H403.95L404.75 225.288L403.507 225.505L402.447 219.498Z" fill="#36739F"/>
<path fill-rule="evenodd" clip-rule="evenodd" d="M393.143 220.335L393.438 219.258L399.314 220.242L402.718 219.512L402.984 220.738L399.331 221.521L397.419 221.163L404.424 224.843L403.834 225.951L393.143 220.335Z" fill="#36739F"/>
<path fill-rule="evenodd" clip-rule="evenodd" d="M394.65 220.556L394.813 219.946L393.593 219.625L393.405 220.332L392.584 228.48L395.101 229.5L395.577 228.34L393.934 227.673L394.65 220.556Z" fill="#36739F"/>
<path fill-rule="evenodd" clip-rule="evenodd" d="M393.725 219.456L394.331 220.555L387.621 223.631V225.095L393.542 227.517L392.977 228.638L386.359 225.869V222.889L393.725 219.456Z" fill="#36739F"/>
<path fill-rule="evenodd" clip-rule="evenodd" d="M385.805 218.657L391.434 220.972L390.951 222.13L385.698 219.97L379.411 221.43L382.884 226.394V228.264L387.683 224.967L388.401 225.997L381.622 230.655V226.786L377.313 220.629L385.805 218.657Z" fill="#36739F"/>
<path fill-rule="evenodd" clip-rule="evenodd" d="M376.808 226.501L377.622 220.854L378.871 221.032L378.057 226.679L376.808 226.501Z" fill="#36739F"/>
<path fill-rule="evenodd" clip-rule="evenodd" d="M385.823 232.244L386.184 231.042L387.173 231.335L403.692 233.902L403.576 235.151L386.932 232.572L385.823 232.244Z" fill="#36739F"/>
<path fill-rule="evenodd" clip-rule="evenodd" d="M429.597 176.322L429.421 177.87C429.367 178.34 429.223 178.922 428.996 179.611C429.382 179.31 429.737 179.062 430.058 178.868L431.636 177.914L430.975 179.628C430.717 180.296 430.054 181.315 429.05 182.649C429.71 183.413 430.243 184.354 430.658 185.455C430.798 185.826 431.177 186.413 431.73 187.147C432.269 187.862 432.927 188.656 433.573 189.427C433.682 189.558 433.792 189.688 433.9 189.817C434.425 190.442 434.926 191.04 435.316 191.535C435.55 191.833 435.756 192.109 435.905 192.34C435.979 192.455 436.048 192.572 436.1 192.684C436.144 192.778 436.213 192.943 436.213 193.13C436.213 193.6 436.064 194.266 435.709 194.833C435.343 195.419 434.71 195.957 433.765 195.957C433.279 195.957 432.807 195.774 432.393 195.556C431.972 195.333 431.549 195.038 431.155 194.746C430.981 194.618 430.818 194.494 430.661 194.375C430.443 194.209 430.235 194.052 430.022 193.899C429.661 193.64 429.365 193.456 429.128 193.36C427.892 192.86 426.05 192.181 424.314 191.843C422.661 191.52 421.023 191.689 418.209 192.455C416.308 192.972 412.371 193.682 406.436 194.584L405.847 196.133L411.202 199.332C412.755 200.26 413.41 202.163 412.755 203.841L409.673 211.729L406.133 220.245L404.967 219.766L408.504 211.256L411.578 203.387C412.011 202.278 411.578 201.02 410.552 200.406L404.295 196.669L405.516 193.455L405.881 193.4C412.035 192.469 416.02 191.751 417.876 191.246C420.756 190.462 422.618 190.234 424.558 190.613C426.415 190.975 428.348 191.691 429.604 192.199C429.989 192.355 430.388 192.615 430.76 192.882C430.979 193.039 431.219 193.221 431.453 193.398C431.61 193.517 431.764 193.634 431.909 193.741C432.292 194.024 432.652 194.272 432.986 194.449C433.328 194.63 433.583 194.703 433.765 194.703C434.153 194.703 434.429 194.504 434.638 194.171C434.839 193.849 434.934 193.458 434.949 193.198C434.929 193.158 434.895 193.098 434.842 193.016C434.725 192.835 434.549 192.596 434.321 192.307C433.946 191.829 433.46 191.251 432.936 190.626C432.826 190.496 432.715 190.363 432.603 190.229C431.957 189.459 431.28 188.642 430.72 187.898C430.173 187.173 429.687 186.454 429.476 185.895C429.033 184.72 428.463 183.807 427.783 183.133L427.392 182.745L427.727 182.309C427.766 182.258 427.805 182.207 427.843 182.157L426.906 181.506C426.998 181.291 427.086 181.085 427.168 180.886C426.849 181.356 426.499 181.886 426.119 182.476L426.06 182.569L425.972 182.636C425.339 183.118 424.378 183.429 423.185 183.627C421.974 183.829 420.445 183.926 418.608 183.926C413.124 183.926 404.076 183.314 399.036 182.761C396.623 182.497 394.447 182.183 392.509 181.82L396.333 185.437L395.974 188.457L396.34 192.229L391.023 194.718L382.917 191.654L383.221 194.703L381.856 194.496L383.126 196.308L383.476 194.297L387.886 197.078L388.466 196.303L388.945 196.556C389.824 197.02 391.353 197.292 393.633 197.292C394.978 197.292 395.7 197.106 396.296 196.952C396.425 196.919 396.548 196.887 396.67 196.859C397.037 196.775 397.416 196.721 397.878 196.795C398.325 196.866 398.805 197.051 399.401 197.365C400.508 197.948 402.699 198.886 404.785 199.764C405.105 199.899 405.424 200.033 405.736 200.164C407.415 200.869 408.898 201.491 409.39 201.756C409.949 202.056 410.126 202.658 410.175 203.153C410.227 203.675 410.161 204.285 410.042 204.89C409.804 206.109 409.32 207.468 408.898 208.406C408.083 210.217 404.54 218.152 403.61 220.257L402.454 219.754C403.386 217.645 406.93 209.707 407.746 207.895C408.139 207.021 408.588 205.754 408.804 204.651C408.912 204.095 408.954 203.622 408.919 203.276C408.902 203.105 408.869 202.992 408.837 202.925C408.821 202.894 408.808 202.877 408.801 202.868C408.794 202.861 408.789 202.858 408.789 202.858C408.356 202.625 406.952 202.035 405.259 201.325C404.945 201.193 404.622 201.057 404.292 200.918C402.228 200.049 399.976 199.087 398.81 198.473C398.27 198.188 397.93 198.073 397.677 198.032C397.439 197.994 397.239 198.015 396.954 198.08C396.851 198.104 396.741 198.132 396.621 198.164C396.016 198.321 395.148 198.546 393.633 198.546C391.621 198.546 390.005 198.345 388.85 197.89L388.198 198.76L384.398 196.363L383.848 199.53L379.139 192.813L382.565 193.335L382.432 189.996L391.047 193.321L394.999 191.471L394.705 188.444L395.006 185.913L388.361 179.627L390.611 180.145C392.989 180.693 395.842 181.15 399.175 181.515C404.182 182.064 413.182 182.672 418.608 182.672C420.409 182.672 421.861 182.576 422.977 182.391C424.033 182.215 424.722 181.969 425.121 181.7C425.872 180.537 426.513 179.595 427.044 178.877C427.578 178.153 428.032 177.614 428.391 177.318L429.597 176.322Z" fill="#36739F"/>
<path fill-rule="evenodd" clip-rule="evenodd" d="M404.572 207.362C403.416 205.878 401.657 202.963 399.308 198.662L400.417 198.064C402.771 202.373 404.485 205.202 405.57 206.595C406.695 208.04 407.495 209.19 407.947 210.03L406.834 210.621C406.434 209.877 405.688 208.796 404.572 207.362Z" fill="#36739F"/>
<path fill-rule="evenodd" clip-rule="evenodd" d="M444.952 178.394C445.078 178.699 444.946 179.048 444.649 179.194L430.348 186.237C430.195 186.312 430.017 186.322 429.856 186.266C429.696 186.209 429.565 186.09 429.494 185.936L428.554 183.896C428.48 183.734 428.478 183.548 428.55 183.385C428.621 183.222 428.76 183.096 428.93 183.04L444.171 178.037C444.485 177.934 444.826 178.09 444.952 178.394ZM429.995 184.011L430.37 184.826L436.086 182.011L429.995 184.011Z" fill="#36739F"/>
<path fill-rule="evenodd" clip-rule="evenodd" d="M389.885 188.02L395.848 186.277L395.491 185.074L387.708 187.35L392.617 193.338L393.595 192.546L389.885 188.02Z" fill="#36739F"/>
<path fill-rule="evenodd" clip-rule="evenodd" d="M412.56 220.435L408.147 212.743L409.244 212.122L413.656 219.814L412.56 220.435Z" fill="#36739F"/>
<path fill-rule="evenodd" clip-rule="evenodd" d="M406.922 206.381L403.753 200.664L404.858 200.059L408.024 205.771L408.991 207.441L407.898 208.066L406.922 206.381Z" fill="#36739F"/>
<path fill-rule="evenodd" clip-rule="evenodd" d="M412.998 217.015C411.979 215.314 410.726 213.07 409.239 210.286L410.354 209.699C411.836 212.473 413.079 214.698 414.082 216.375C415.094 218.065 415.842 219.162 416.335 219.712L415.393 220.546C414.81 219.896 414.009 218.704 412.998 217.015Z" fill="#36739F"/>
<path fill-rule="evenodd" clip-rule="evenodd" d="M375.216 186.907L381.531 192.367V194.671L380.53 194.334V197.161L374.744 192.952L375.216 186.907ZM380.239 192.912L376.28 189.489L376.057 192.353L379.268 194.689V192.585L380.239 192.912Z" fill="#36739F"/>
<path fill-rule="evenodd" clip-rule="evenodd" d="M388.18 179.562L389.758 180.606L389.707 181.104L389.479 185.728L385.791 184.73L387.277 189.073L389.941 188.456L390.227 189.677L386.586 190.52L383.808 183.221L388.277 184.475L388.469 180.584L388.18 179.562Z" fill="#36739F"/>
<path fill-rule="evenodd" clip-rule="evenodd" d="M361.373 175.065L370.417 180.93L374.548 185.958L373.758 186.905L368.009 183.8L365.633 184.078L361.373 175.065ZM364.404 178.527L366.389 182.728L368.26 182.509L371.541 184.281L369.563 181.873L364.404 178.527Z" fill="#36739F"/>
<path fill-rule="evenodd" clip-rule="evenodd" d="M370.138 189.201L370.064 189.824L369.652 190.298L368.099 188.965L370.138 189.201ZM372.03 190.683L373.534 191.974L374.149 190.929L372.03 190.683ZM376.213 189.907L373.857 193.909L369.652 190.298L370.064 189.824L370.138 189.201L376.213 189.907Z" fill="#36739F"/>
<path fill-rule="evenodd" clip-rule="evenodd" d="M378.299 186.63L383.278 187.583L383.039 188.814L379.726 188.18L380.047 191.32L378.791 191.446L378.299 186.63Z" fill="#36739F"/>
<path fill-rule="evenodd" clip-rule="evenodd" d="M409.124 176.997C408.984 177.192 408.919 177.49 409.147 178.026C409.161 178.059 409.216 178.149 409.386 178.286C409.551 178.419 409.793 178.569 410.124 178.734C410.787 179.065 411.743 179.419 413.01 179.793C415.539 180.541 419.216 181.344 424.056 182.199L423.835 183.434C418.98 182.575 415.247 181.763 412.65 180.995C411.353 180.612 410.317 180.233 409.558 179.855C409.179 179.666 408.852 179.469 408.592 179.26C408.337 179.055 408.11 178.81 407.984 178.513C407.653 177.733 407.617 176.94 408.095 176.271C408.441 175.787 408.998 175.458 409.675 175.234C410.003 175.126 410.34 175.34 410.418 175.677C410.497 176.015 410.282 176.345 409.957 176.464C409.503 176.63 409.25 176.821 409.124 176.997Z" fill="#36739F"/>
<path fill-rule="evenodd" clip-rule="evenodd" d="M401.554 175.361C401.394 175.521 401.277 175.738 401.223 176.045C401.154 176.432 401.262 176.861 401.723 177.345C402.201 177.846 403.034 178.375 404.328 178.882C406.053 179.557 410.946 180.819 419.084 182.672L418.802 183.894C410.704 182.05 405.7 180.766 403.865 180.048C402.489 179.509 401.464 178.897 400.807 178.207C400.133 177.499 399.828 176.686 399.98 175.828C400.072 175.304 400.293 174.842 400.661 174.476C400.884 174.253 401.148 174.079 401.443 173.948C401.759 173.807 402.102 174.02 402.185 174.355C402.268 174.692 402.048 175.014 401.756 175.201C401.678 175.25 401.611 175.304 401.554 175.361Z" fill="#36739F"/>
<path fill-rule="evenodd" clip-rule="evenodd" d="M393.417 175.365C393.417 175.621 393.556 176.004 394.007 176.532C394.125 176.669 394.459 176.925 395.118 177.279C395.753 177.62 396.629 178.02 397.76 178.466C400.018 179.356 403.259 180.412 407.55 181.52C408.87 181.861 410.6 182.201 412.744 182.539L412.546 183.777C410.381 183.436 408.608 183.088 407.232 182.733C402.906 181.616 399.614 180.545 397.294 179.631C396.135 179.174 395.211 178.753 394.518 178.381C393.848 178.022 393.328 177.674 393.045 177.343C392.51 176.717 392.155 176.052 392.155 175.365C392.155 174.847 392.355 174.4 392.687 174.024C392.916 173.765 393.316 173.828 393.524 174.104C393.734 174.382 393.633 174.759 393.484 175.073C393.435 175.176 393.417 175.273 393.417 175.365Z" fill="#36739F"/>
<path d="M423.41 261.044H402.378L400.274 235.972L389.758 233.361L384.237 190.792L378.716 148.222H348.744V279.847H423.41V261.044Z" fill="#F9FAFD"/>
<path fill-rule="evenodd" clip-rule="evenodd" d="M305.668 267.34H417.261V273.84H305.668V267.34ZM307.046 268.708V272.472H415.883V268.708H307.046Z" fill="#36739F"/>
<path fill-rule="evenodd" clip-rule="evenodd" d="M328.056 239.114H343.21V268.709H328.056V239.114ZM329.433 240.483V267.34H341.833V240.483H329.433Z" fill="#36739F"/>
<path fill-rule="evenodd" clip-rule="evenodd" d="M379.719 239.114H394.873V268.709H379.719V239.114ZM381.096 240.483V267.34H393.496V240.483H381.096Z" fill="#36739F"/>
<path fill-rule="evenodd" clip-rule="evenodd" d="M373.691 239.114H381.097V268.709H373.691V239.114ZM375.069 240.483V267.34H379.719V240.483H375.069Z" fill="#36739F"/>
<path fill-rule="evenodd" clip-rule="evenodd" d="M348.721 242.535H368.181V264.432H348.721V242.535ZM350.098 243.904V263.063H366.803V243.904H350.098Z" fill="#36739F"/>
<path fill-rule="evenodd" clip-rule="evenodd" d="M358.425 145.543L360.592 146.104L360.617 240.483H341.743L353.035 148.346L358.425 145.543ZM358.593 147.001L354.315 149.225L343.299 239.114H359.239L359.214 147.161L358.593 147.001Z" fill="#36739F"/>
<path fill-rule="evenodd" clip-rule="evenodd" d="M359.214 145.789L370.797 148.218L381.178 240.483H359.239L359.214 145.789ZM360.592 147.477L360.617 239.114H379.637L369.538 149.353L360.592 147.477Z" fill="#36739F"/>
<path fill-rule="evenodd" clip-rule="evenodd" d="M358.642 110.558C359.045 110.248 359.556 110.069 360.186 110.069C360.802 110.069 361.323 110.229 361.747 110.516C362.164 110.798 362.448 111.178 362.639 111.562C363.013 112.31 363.073 113.151 363.073 113.615C363.073 114.229 362.784 114.877 362.322 115.537C363.263 115.976 363.95 116.3 364.381 116.509C364.696 116.662 364.883 116.969 364.987 117.163C365.112 117.396 365.225 117.68 365.327 117.978C365.532 118.577 365.725 119.328 365.898 120.054C365.985 120.42 366.069 120.785 366.147 121.128L366.151 121.148C366.228 121.484 366.299 121.797 366.365 122.072C366.433 122.355 366.492 122.585 366.543 122.754C366.569 122.839 366.589 122.897 366.603 122.933C366.604 122.935 366.605 122.936 366.605 122.938C366.669 123.026 366.71 123.116 366.736 123.179C366.771 123.263 366.801 123.355 366.827 123.445C366.879 123.626 366.927 123.845 366.971 124.081C367.06 124.554 367.142 125.147 367.212 125.755C367.351 126.964 367.449 128.296 367.449 128.947C367.449 128.949 367.449 128.952 367.449 128.954C367.472 128.959 367.495 128.964 367.524 128.97C367.559 128.978 367.602 128.987 367.66 129C367.904 129.055 368.253 129.149 368.601 129.41C368.951 129.673 369.246 130.061 369.478 130.619C370.39 132.811 369.461 134.635 368.989 135.469C368.831 135.748 368.618 135.984 368.443 136.167C368.383 136.231 368.329 136.286 368.279 136.337C368.166 136.454 368.077 136.545 367.997 136.643C367.948 136.703 367.921 136.745 367.907 136.771C367.914 136.779 367.923 136.79 367.935 136.803C368.328 137.21 368.75 137.681 369.057 138.411C369.36 139.133 369.531 140.055 369.531 141.355C369.531 142.79 368.763 143.698 368.14 144.247C368.73 144.407 369.467 144.608 370.351 144.851L370.856 144.99V148.787L358.638 146.983L352.772 150.195V146.635L352.986 146.433C354.19 145.295 355.072 144.352 355.648 143.601C355.936 143.226 356.136 142.913 356.262 142.659C356.391 142.398 356.419 142.244 356.419 142.174C356.419 141.372 356.282 139.608 355.998 136.845C355.486 136.417 355.073 136.023 354.774 135.663C354.457 135.282 354.166 134.823 354.166 134.332C354.166 134.174 354.203 133.942 354.242 133.719C354.285 133.474 354.346 133.168 354.418 132.826C354.554 132.179 354.732 131.38 354.911 130.578L354.941 130.443C355.131 129.592 355.319 128.746 355.46 128.063C355.531 127.722 355.588 127.427 355.628 127.196C355.647 127.081 355.662 126.986 355.671 126.911C355.676 126.874 355.679 126.845 355.681 126.823C355.681 126.819 355.682 126.816 355.682 126.813C355.673 126.795 355.642 126.731 355.538 126.618C355.386 126.451 355.151 126.258 354.847 126.05C354.243 125.638 353.469 125.238 352.834 124.952C352.099 124.621 351.973 123.824 351.977 123.272C351.981 122.66 352.138 121.945 352.345 121.268C352.555 120.581 352.83 119.888 353.102 119.304C353.367 118.734 353.651 118.22 353.888 117.919C354.142 117.597 354.542 117.292 354.911 117.033C355.123 116.884 355.374 116.718 355.612 116.56C355.78 116.449 355.941 116.342 356.079 116.248C356.389 116.035 356.622 115.86 356.77 115.721C356.441 115.236 356.382 114.651 356.46 114.165C356.548 113.622 356.839 113.018 357.366 112.702C357.366 112.702 357.367 112.701 357.367 112.7C357.393 112.66 357.428 112.592 357.475 112.477C357.498 112.422 357.525 112.352 357.556 112.271C357.633 112.071 357.733 111.811 357.842 111.587C358.009 111.246 358.252 110.858 358.642 110.558ZM367.383 144.854C367.379 144.858 367.378 144.859 367.381 144.856C367.382 144.855 367.382 144.855 367.383 144.854ZM358.53 113.435C358.438 113.578 358.298 113.753 358.081 113.872C358.019 113.906 357.871 114.074 357.821 114.382C357.774 114.673 357.847 114.901 357.968 115.024C358.207 115.267 358.3 115.59 358.231 115.914C358.173 116.182 358.017 116.394 357.889 116.539C357.627 116.833 357.229 117.123 356.86 117.375C356.679 117.499 356.507 117.612 356.34 117.723C356.126 117.864 355.919 118.001 355.706 118.151C355.335 118.411 355.089 118.616 354.972 118.764C354.838 118.934 354.608 119.329 354.353 119.878C354.104 120.413 353.852 121.047 353.663 121.665C353.471 122.294 353.357 122.862 353.354 123.281C353.352 123.585 353.404 123.689 353.422 123.714C354.096 124.019 354.939 124.453 355.627 124.923C355.973 125.158 356.305 125.421 356.558 125.697C356.791 125.952 357.061 126.331 357.061 126.791C357.061 126.956 357.026 127.192 356.986 127.426C356.942 127.679 356.881 127.991 356.81 128.338C356.666 129.033 356.475 129.891 356.286 130.739L356.257 130.87C356.077 131.676 355.9 132.466 355.767 133.105C355.696 133.442 355.639 133.731 355.599 133.956C355.579 134.068 355.565 134.159 355.555 134.229C355.547 134.293 355.545 134.323 355.544 134.331C355.544 134.33 355.545 134.332 355.546 134.334C355.553 134.359 355.595 134.501 355.836 134.791C356.095 135.103 356.506 135.493 357.09 135.966L357.311 136.145L357.34 136.426C357.641 139.332 357.797 141.261 357.797 142.174C357.797 142.54 357.673 142.911 357.498 143.263C357.32 143.624 357.064 144.014 356.744 144.431C356.142 145.216 355.273 146.147 354.149 147.221V147.878L358.38 145.561L369.479 147.2V146.032C368.294 145.706 367.415 145.467 366.84 145.315C366.753 145.292 366.642 145.256 366.535 145.196C366.433 145.138 366.26 145.015 366.171 144.785C366.074 144.535 366.133 144.309 366.199 144.171C366.26 144.045 366.343 143.953 366.395 143.901C366.498 143.796 366.635 143.691 366.74 143.611L366.743 143.608C366.757 143.598 366.771 143.587 366.784 143.577C366.892 143.495 367.003 143.411 367.119 143.314C367.635 142.885 368.153 142.299 368.153 141.355C368.153 140.167 367.997 139.44 367.786 138.938C367.579 138.445 367.299 138.121 366.94 137.749C366.65 137.448 366.476 137.077 366.521 136.654C366.56 136.278 366.764 135.981 366.926 135.783C367.047 135.634 367.201 135.476 367.33 135.344C367.37 135.302 367.409 135.263 367.443 135.227C367.606 135.055 367.719 134.921 367.788 134.799C368.223 134.03 368.859 132.712 368.205 131.141C368.046 130.758 367.885 130.588 367.771 130.503C367.656 130.416 367.533 130.375 367.355 130.334C367.336 130.33 367.312 130.325 367.284 130.319C367.209 130.303 367.11 130.282 367.032 130.261C366.912 130.229 366.745 130.174 366.585 130.064C366.193 129.797 366.071 129.376 366.071 128.947C366.071 128.374 365.98 127.103 365.843 125.91C365.775 125.317 365.697 124.76 365.617 124.33C365.576 124.114 365.538 123.943 365.503 123.821C365.487 123.767 365.474 123.73 365.466 123.709C365.393 123.608 365.349 123.502 365.324 123.44C365.288 123.351 365.255 123.25 365.223 123.147C365.161 122.939 365.094 122.677 365.025 122.389C364.957 122.106 364.884 121.787 364.808 121.454L364.803 121.43C364.725 121.086 364.643 120.727 364.557 120.369C364.386 119.648 364.205 118.952 364.023 118.418C363.931 118.15 363.846 117.946 363.772 117.808C363.745 117.758 363.725 117.726 363.712 117.708C363.172 117.447 362.256 117.016 360.96 116.415L360.144 116.036L360.726 115.353C361.468 114.482 361.695 113.92 361.695 113.615C361.695 113.23 361.639 112.639 361.405 112.169C361.292 111.943 361.149 111.767 360.971 111.646C360.797 111.529 360.553 111.438 360.186 111.438C359.835 111.438 359.627 111.531 359.485 111.64C359.33 111.76 359.202 111.938 359.082 112.185C358.997 112.357 358.939 112.509 358.875 112.677C358.838 112.775 358.798 112.879 358.75 112.996C358.693 113.133 358.622 113.291 358.53 113.435Z" fill="#36739F"/>
<path fill-rule="evenodd" clip-rule="evenodd" d="M364.736 134.646V138.049L364.449 138.254C363.568 138.881 362.879 139.384 362.379 139.763C361.86 140.157 361.59 140.385 361.505 140.476C361.33 140.663 361.177 140.933 361.069 141.319L360.915 141.866L360.345 141.817C360.086 141.794 359.783 141.711 359.545 141.478C359.296 141.234 359.214 140.922 359.214 140.643C359.214 140.32 359.3 138.615 359.466 135.579L359.5 134.971L364.736 134.646ZM360.809 136.261C360.734 137.625 360.679 138.67 360.643 139.4C360.847 139.215 361.157 138.969 361.543 138.676C362.002 138.328 362.607 137.884 363.358 137.347V136.102L360.809 136.261Z" fill="#36739F"/>
<path fill-rule="evenodd" clip-rule="evenodd" d="M363.087 122.041L364.718 124.961L364.732 125.101C364.922 126.976 365.02 128.37 365.02 129.265C365.02 129.694 364.999 130.077 364.926 130.348C364.906 130.422 364.876 130.51 364.83 130.597C364.786 130.68 364.705 130.805 364.561 130.903C364.397 131.014 364.195 131.061 363.991 131.024C363.811 130.992 363.682 130.905 363.607 130.842C363.222 130.524 362.773 129.908 362.373 129.192C361.962 128.455 361.563 127.538 361.308 126.565C360.925 125.099 361.329 123.777 362.441 122.679L363.087 122.041ZM362.83 124.402C362.524 124.965 362.469 125.563 362.642 126.221C362.863 127.066 363.215 127.876 363.579 128.529C363.595 128.558 363.612 128.588 363.628 128.617C363.597 127.828 363.513 126.751 363.376 125.378L362.83 124.402Z" fill="#36739F"/>
<path fill-rule="evenodd" clip-rule="evenodd" d="M156.533 210.226L192.576 211.946L272.431 199.932L350.847 211.946L384.658 209.087L388.259 222.737C375.98 231.089 367.889 241.761 363.986 254.754C361.124 264.279 360.169 277.543 361.12 294.546H329.087C329.843 273.255 330.09 259.404 329.827 252.992C329.599 247.435 329.827 237.672 329.087 236.683C325.681 232.13 318.583 250.259 317.627 256.499C316.99 260.659 316.99 273.342 317.627 294.546H300.158C299.855 276.081 299.014 263.147 297.637 255.745C295.57 244.642 278.43 223.906 272.431 222.737C265.184 221.324 254.849 235.842 252.094 239.991C245.455 249.99 243.107 268.175 245.05 294.546H226.306C226.387 269.423 226.039 254.87 225.261 250.887C224.093 244.913 218.655 233.913 215.873 235.853C213.091 237.792 214.052 251.765 214.052 262.914C214.052 270.347 214.052 281.409 214.052 296.101H180.987C180.987 287.521 180.987 276.459 180.987 262.914C180.987 249.369 172.836 237.395 156.533 226.99V210.226Z" fill="#FAFAFC"/>
<path fill-rule="evenodd" clip-rule="evenodd" d="M271.57 204.41L350.371 218.125L379.066 215.563C379.168 215.554 379.271 215.549 379.374 215.549C381.276 215.549 382.818 217.081 382.818 218.971V220.566L382.523 220.771C376.754 224.758 373.009 228.505 370.509 231.007C370.386 231.13 370.266 231.25 370.149 231.367C366.456 235.056 356.957 246.303 355.592 262.624C355.18 267.554 355.306 272.914 355.444 278.767C355.518 281.892 355.595 285.158 355.595 288.574V289.258H347.305V234.379C344.493 240.814 343.085 247.718 343.085 255.097V289.258H334.571V240.735C334.571 236.55 332.802 231.416 329.154 225.305C327.719 226.416 325.78 228.534 323.325 231.732C319.194 237.114 313.1 249.506 313.1 262.568V289.258H304.238V262.568C304.238 254.424 300.904 245.353 292.546 233.538C287.298 226.122 281.166 219.893 272.614 215.2C271.94 214.83 271.147 214.852 270.454 215.244C262.077 219.972 255.82 226.151 250.594 233.538C242.236 245.353 238.901 254.424 238.901 262.568V289.258H230.04V262.568C230.04 249.506 223.945 237.114 219.815 231.732C217.36 228.534 215.42 226.416 213.985 225.305C210.338 231.416 208.569 236.55 208.569 240.735V289.258H200.055V255.097C200.055 247.718 198.647 240.814 195.834 234.379V289.258H187.545V288.574C187.545 285.189 187.643 281.925 187.738 278.802C187.779 277.423 187.82 276.072 187.851 274.751C187.953 270.421 187.952 266.39 187.549 262.64C185.808 246.441 176.853 235.038 173.178 231.367C173.072 231.262 172.963 231.153 172.852 231.043M172.851 231.042L172.508 230.702C172.508 230.701 172.508 230.701 172.508 230.701C169.992 228.213 166.159 224.602 160.617 220.771L160.321 220.566V218.971C160.321 218.868 160.326 218.766 160.335 218.664C160.505 216.782 162.179 215.394 164.074 215.563L192.769 218.125L271.57 204.41M271.57 205.799L192.827 219.504L163.951 216.926C162.814 216.825 161.809 217.658 161.707 218.787C161.702 218.848 161.699 218.909 161.699 218.971V219.852C167.175 223.67 170.98 227.259 173.48 229.732L173.481 229.733L173.825 230.074L173.826 230.075C173.938 230.187 174.048 230.296 174.154 230.402C177.973 234.216 187.135 245.892 188.919 262.495C189.332 266.338 189.331 270.442 189.228 274.783C189.197 276.122 189.156 277.483 189.114 278.867C189.027 281.769 188.936 284.772 188.924 287.89H194.457V231.318L195.76 231.008C199.543 238.416 201.432 246.449 201.432 255.097V287.89H207.191V240.735C207.191 236.041 209.231 230.439 213.19 223.962L213.557 223.361L214.152 223.742C215.852 224.831 218.111 227.255 220.91 230.903C225.183 236.47 231.417 249.145 231.417 262.568V287.89H237.523V262.568C237.523 254.027 241.028 244.68 249.467 232.752C254.789 225.229 261.19 218.899 269.773 214.054C270.852 213.445 272.156 213.385 273.28 214.002C282.058 218.819 288.337 225.21 293.673 232.752C302.112 244.68 305.616 254.027 305.616 262.568V287.89H311.722V262.568C311.722 249.145 317.957 236.47 322.229 230.903C325.029 227.255 327.287 224.831 328.988 223.742L329.583 223.361L329.95 223.962C333.909 230.439 335.949 236.041 335.949 240.735V287.89H341.707V255.097C341.707 246.449 343.597 238.416 347.38 231.008L348.683 231.318V287.89H354.216C354.207 284.799 354.136 281.801 354.069 278.903C353.93 272.996 353.802 267.509 354.219 262.511C355.622 245.731 365.371 234.198 369.172 230.402C369.29 230.284 369.412 230.162 369.536 230.038C372.003 227.569 375.735 223.835 381.441 219.852V218.971C381.441 217.837 380.515 216.918 379.374 216.918C379.312 216.918 379.251 216.921 379.189 216.926L350.313 219.504L271.57 205.799ZM253.214 214.681L253.643 215.96L234.206 226.39L220.001 219.591L253.214 214.681ZM224.634 220.289L234.17 224.854L249.536 216.608L224.634 220.289ZM289.497 215.96L289.926 214.681L323.139 219.591L308.934 226.39L289.497 215.96ZM293.604 216.608L308.97 224.854L318.506 220.289L293.604 216.608ZM207.486 222.721L203.656 234.106L197.788 224.216L207.486 222.721ZM336.343 222.721L346.041 224.216L340.173 234.106L336.343 222.721ZM200.006 225.259L203.307 230.823L205.462 224.418L200.006 225.259ZM338.366 224.418L340.521 230.823L343.823 225.259L338.366 224.418ZM248.158 222.971L249.067 223.949L235.405 244.304V230.032L248.158 222.971ZM236.783 230.836V239.784L246.34 225.545L236.783 230.836ZM294.073 223.949L294.982 222.971L307.734 230.032V244.304L294.073 223.949ZM296.8 225.545L306.357 239.784V230.836L296.8 225.545ZM174.604 223.366L188.564 225.135V241.312L174.604 223.366ZM368.536 223.366L354.576 241.312V225.135L368.536 223.366ZM177.726 225.141L187.186 237.302V226.34L177.726 225.141ZM355.953 226.34V237.302L365.414 225.141L355.953 226.34ZM222.774 225.422L231.961 230.005V239.991L230.663 240.31L222.774 225.422ZM320.365 225.422L312.477 240.31L311.178 239.991V230.005L320.365 225.422ZM225.994 228.559L230.584 230.849V237.222L225.994 228.559ZM312.556 230.849V237.222L317.146 228.559L312.556 230.849Z" fill="#36739F"/>
<path opacity="0.3" fill-rule="evenodd" clip-rule="evenodd" d="M133.92 75.2598C140.307 77.928 145.248 83.0899 147.233 89.3908C148.994 89.0062 150.837 88.8148 152.677 88.8148C164.791 88.8148 174.932 96.6759 175.7 106.75C181.789 105.464 188.068 108.187 191.276 113.615C191.469 113.941 191.359 114.36 191.031 114.552C190.702 114.743 190.28 114.634 190.088 114.308C187.048 109.163 180.972 106.706 175.236 108.27C175.032 108.326 174.813 108.285 174.642 108.16C174.472 108.034 174.37 107.837 174.365 107.627C174.14 98.1094 164.616 90.1833 152.677 90.1833C150.717 90.1833 148.761 90.4124 146.924 90.8685C146.562 90.9584 146.194 90.7455 146.094 90.3882C143.578 81.4142 134.631 74.6591 124.025 74.6591C124.015 74.6591 124.005 74.6588 123.995 74.6584C121.368 74.545 118.608 74.999 116.065 75.8029C115.702 75.9175 115.315 75.7185 115.2 75.3583C115.084 74.9982 115.285 74.6134 115.647 74.4988C118.308 73.6577 121.226 73.1711 124.04 73.2905C126.96 73.2922 129.767 73.7798 132.368 74.6706C138.239 70.4564 145.279 68.1156 152.559 68.1156C169.381 68.1156 183.098 79.5941 183.771 94.0619C185.339 93.9614 186.988 93.8717 188.551 93.8717C196.154 93.8717 203.071 95.4164 208.114 97.9282C212.895 100.31 216.175 103.668 216.452 107.547C220.677 107.858 224.52 110.046 226.782 113.595C226.986 113.914 226.891 114.337 226.569 114.539C226.248 114.741 225.822 114.647 225.619 114.327C223.498 111.001 219.808 108.994 215.763 108.882C215.39 108.872 215.093 108.569 215.093 108.198V108.081C215.093 104.776 212.353 101.571 207.496 99.1515C202.682 96.7533 195.984 95.2402 188.551 95.2402C186.801 95.2402 184.928 95.3562 183.15 95.4739C182.962 95.4864 182.777 95.4216 182.638 95.2946C182.499 95.1677 182.419 94.9898 182.416 94.8024C182.187 80.9102 169.084 69.4841 152.559 69.4841C145.883 69.4841 139.409 71.537 133.92 75.2598Z" fill="#36739F"/>
<path opacity="0.3" fill-rule="evenodd" clip-rule="evenodd" d="M400.876 133.57C393.868 129.899 385.898 127.865 378.712 128.484C378.398 128.511 378.165 128.789 378.192 129.104C378.219 129.418 378.496 129.652 378.81 129.625C385.729 129.028 393.482 130.989 400.347 134.585C407.213 138.181 413.13 143.382 416.415 149.197C416.541 149.421 416.801 149.533 417.05 149.471C421.872 148.277 425.663 149.814 428.192 152.259C430.752 154.732 431.986 158.097 431.721 160.491C431.703 160.651 431.753 160.811 431.859 160.932C431.965 161.053 432.118 161.124 432.278 161.127C435.376 161.182 437.548 162.27 438.969 163.828C440.401 165.397 441.115 167.489 441.197 169.61C441.21 169.925 441.475 170.172 441.791 170.159C442.106 170.147 442.352 169.881 442.339 169.565C442.248 167.227 441.46 164.86 439.813 163.056C438.256 161.35 435.97 160.188 432.897 160.005C432.96 157.28 431.548 153.911 428.986 151.435C426.272 148.813 422.235 147.155 417.196 148.262C413.738 142.36 407.74 137.165 400.876 133.57Z" fill="#36739F"/>
<path opacity="0.3" fill-rule="evenodd" clip-rule="evenodd" d="M316.422 137.647C325.482 131.414 336.987 127.628 347.104 128.498C347.458 128.528 347.721 128.84 347.69 129.194C347.66 129.548 347.348 129.81 346.993 129.78C337.241 128.941 326.028 132.6 317.153 138.707C316.86 138.908 316.459 138.835 316.257 138.542C316.055 138.249 316.129 137.849 316.422 137.647Z" fill="#36739F"/>
<path opacity="0.3" fill-rule="evenodd" clip-rule="evenodd" d="M408.599 288.204H367.674V287.16H408.599V288.204Z" fill="#36739F"/>
</svg>
