<svg width="230" height="227" viewBox="0 0 230 227" fill="none" xmlns="http://www.w3.org/2000/svg">
<path opacity="0.1" fill-rule="evenodd" clip-rule="evenodd" d="M45.0308 78.8361C35.1885 89.8703 18.9735 109.137 31.4698 142.713C43.9662 176.29 82.3887 211.781 124.192 195.655C165.995 179.528 144.864 150.423 172.693 136.083C200.522 121.744 218.612 110.042 210.973 92.4764C203.333 74.9109 169.913 71.8264 174.873 53.8274C179.832 35.8284 125.715 33.3185 97.1862 42.8402C68.6569 52.3618 54.873 67.8019 45.0308 78.8361Z" fill="url(#paint0_linear_330_9405)"/>
<path fill-rule="evenodd" clip-rule="evenodd" d="M71.1338 156.424V125.214H72.7145V156.424C72.7145 156.741 72.8947 157.154 73.4691 157.633C74.0391 158.108 74.9111 158.572 76.0581 158.977C78.345 159.784 81.556 160.298 85.1403 160.298C88.7246 160.298 91.9356 159.784 94.2225 158.977C95.3695 158.572 96.2415 158.108 96.8115 157.633C97.3859 157.154 97.5661 156.741 97.5661 156.424V125.327H99.1469V156.424C99.1469 157.395 98.5874 158.21 97.8243 158.847C97.0567 159.487 95.9933 160.028 94.7486 160.468C92.2522 161.349 88.8551 161.879 85.1403 161.879C81.4256 161.879 78.0285 161.349 75.532 160.468C74.2874 160.028 73.2239 159.487 72.4564 158.847C71.6932 158.21 71.1338 157.395 71.1338 156.424Z" fill="#FF6B00"/>
<path opacity="0.5" fill-rule="evenodd" clip-rule="evenodd" d="M72.4564 133.969C71.6932 133.332 71.1338 132.517 71.1338 131.547H72.7145C72.7145 131.864 72.8947 132.276 73.4691 132.755C74.0391 133.231 74.9111 133.695 76.0581 134.1C78.345 134.907 81.556 135.421 85.1403 135.421C88.7246 135.421 91.9356 134.907 94.2225 134.1C95.3695 133.695 96.2415 133.231 96.8115 132.755C97.3859 132.276 97.5661 131.864 97.5661 131.547H99.1469C99.1469 132.517 98.5874 133.332 97.8243 133.969C97.0567 134.61 95.9933 135.151 94.7486 135.59C92.2522 136.471 88.8551 137.002 85.1403 137.002C81.4256 137.002 78.0285 136.471 75.532 135.59C74.2874 135.151 73.2239 134.61 72.4564 133.969Z" fill="#FF6B00"/>
<path opacity="0.5" fill-rule="evenodd" clip-rule="evenodd" d="M72.4564 140.188C71.6932 139.552 71.1338 138.737 71.1338 137.766H72.7145C72.7145 138.083 72.8947 138.495 73.4691 138.975C74.0391 139.45 74.9111 139.914 76.0581 140.319C78.345 141.126 81.556 141.64 85.1403 141.64C88.7246 141.64 91.9356 141.126 94.2225 140.319C95.3695 139.914 96.2415 139.45 96.8115 138.975C97.3859 138.495 97.5661 138.083 97.5661 137.766H99.1469C99.1469 138.737 98.5874 139.552 97.8243 140.188C97.0567 140.829 95.9933 141.37 94.7486 141.81C92.2522 142.691 88.8551 143.221 85.1403 143.221C81.4256 143.221 78.0285 142.691 75.532 141.81C74.2874 141.37 73.2239 140.829 72.4564 140.188Z" fill="#FF6B00"/>
<path opacity="0.5" fill-rule="evenodd" clip-rule="evenodd" d="M72.4564 146.408C71.6932 145.771 71.1338 144.956 71.1338 143.985H72.7145C72.7145 144.303 72.8947 144.715 73.4691 145.194C74.0391 145.67 74.9111 146.134 76.0581 146.538C78.345 147.345 81.556 147.859 85.1403 147.859C88.7246 147.859 91.9356 147.345 94.2225 146.538C95.3695 146.134 96.2415 145.67 96.8115 145.194C97.3859 144.715 97.5661 144.303 97.5661 143.985H99.1469C99.1469 144.956 98.5874 145.771 97.8243 146.408C97.0567 147.048 95.9933 147.59 94.7486 148.029C92.2522 148.91 88.8551 149.44 85.1403 149.44C81.4256 149.44 78.0285 148.91 75.532 148.029C74.2874 147.59 73.2239 147.048 72.4564 146.408Z" fill="#FF6B00"/>
<path opacity="0.5" fill-rule="evenodd" clip-rule="evenodd" d="M72.4564 152.627C71.6932 151.99 71.1338 151.176 71.1338 150.205H72.7145C72.7145 150.522 72.8947 150.934 73.4691 151.414C74.0391 151.889 74.9111 152.353 76.0581 152.758C78.345 153.565 81.556 154.079 85.1403 154.079C88.7246 154.079 91.9356 153.565 94.2225 152.758C95.3695 152.353 96.2415 151.889 96.8115 151.414C97.3859 150.934 97.5661 150.522 97.5661 150.205H99.1469C99.1469 151.176 98.5874 151.99 97.8243 152.627C97.0567 153.268 95.9933 153.809 94.7486 154.248C92.2522 155.129 88.8551 155.66 85.1403 155.66C81.4256 155.66 78.0285 155.129 75.532 154.248C74.2874 153.809 73.2239 153.268 72.4564 152.627Z" fill="#FF6B00"/>
<path fill-rule="evenodd" clip-rule="evenodd" d="M73.4691 124.118C72.8947 124.598 72.7145 125.01 72.7145 125.327C72.7145 125.644 72.8947 126.057 73.4691 126.536C74.0391 127.012 74.9111 127.475 76.0581 127.88C78.345 128.687 81.556 129.201 85.1403 129.201C88.7246 129.201 91.9356 128.687 94.2225 127.88C95.3695 127.475 96.2415 127.012 96.8115 126.536C97.3859 126.057 97.5661 125.644 97.5661 125.327C97.5661 125.01 97.3859 124.598 96.8115 124.118C96.2415 123.643 95.3695 123.179 94.2225 122.774C91.9356 121.967 88.7246 121.453 85.1403 121.453C81.556 121.453 78.345 121.967 76.0581 122.774C74.9111 123.179 74.0391 123.643 73.4691 124.118ZM75.532 121.284C78.0285 120.402 81.4256 119.872 85.1403 119.872C88.8551 119.872 92.2522 120.402 94.7486 121.284C95.9933 121.723 97.0567 122.264 97.8243 122.905C98.5874 123.542 99.1469 124.356 99.1469 125.327C99.1469 126.298 98.5874 127.113 97.8243 127.75C97.0567 128.39 95.9933 128.932 94.7486 129.371C92.2522 130.252 88.8551 130.782 85.1403 130.782C81.4256 130.782 78.0285 130.252 75.532 129.371C74.2874 128.932 73.2239 128.39 72.4564 127.75C71.6932 127.113 71.1338 126.298 71.1338 125.327C71.1338 124.356 71.6932 123.542 72.4564 122.905C73.2239 122.264 74.2874 121.723 75.532 121.284Z" fill="#FF6B00"/>
<path fill-rule="evenodd" clip-rule="evenodd" d="M85.14 102.808C85.5765 102.808 85.9304 103.162 85.9304 103.598V124.262C85.9304 124.699 85.5765 125.052 85.14 125.052C84.7035 125.052 84.3496 124.699 84.3496 124.262V103.598C84.3496 103.162 84.7035 102.808 85.14 102.808Z" fill="#FF6B00"/>
<path fill-rule="evenodd" clip-rule="evenodd" d="M98.8592 106.753L98.899 108.054C98.9845 110.852 98.5078 113.176 97.3795 114.947C96.2375 116.74 94.4835 117.88 92.2029 118.396C90.0538 118.882 88.268 118.993 86.9277 118.615C86.2427 118.421 85.6513 118.094 85.1996 117.603C84.7461 117.11 84.4754 116.499 84.361 115.809L84.3174 115.546L84.4424 115.31C85.903 112.554 88.3846 110.649 91.7878 109.56C95.0578 108.514 96.9993 107.793 97.7231 107.388L98.8592 106.753ZM97.3165 109.31C96.1865 109.769 94.492 110.355 92.2694 111.066C89.292 112.018 87.2236 113.607 85.975 115.802C86.0589 116.111 86.1925 116.347 86.3626 116.532C86.5781 116.766 86.8943 116.963 87.3573 117.094C88.3129 117.364 89.7845 117.322 91.8543 116.854C93.7926 116.416 95.1614 115.487 96.0462 114.098C96.8007 112.914 97.2418 111.333 97.3165 109.31Z" fill="#FF6B00"/>
<path fill-rule="evenodd" clip-rule="evenodd" d="M71.9607 100.534L71.921 101.835C71.8355 104.633 72.3122 106.957 73.4404 108.728C74.5824 110.521 76.3365 111.661 78.617 112.177C80.7567 112.66 82.5174 112.769 83.7879 112.355C84.4453 112.14 84.9988 111.777 85.382 111.232C85.7629 110.691 85.9266 110.042 85.9307 109.339L85.9316 109.184L85.8737 109.04C84.7749 106.306 82.4324 104.428 79.0321 103.341C75.7622 102.295 73.8206 101.574 73.0968 101.169L71.9607 100.534ZM73.5034 103.09C74.6334 103.549 76.3279 104.136 78.5505 104.846C81.5707 105.812 83.4445 107.378 84.3453 109.481C84.3229 109.863 84.2242 110.131 84.0895 110.322C83.9402 110.534 83.6984 110.721 83.2976 110.852C82.4517 111.128 81.0448 111.105 78.9656 110.635C77.0273 110.196 75.6585 109.268 74.7737 107.879C74.0192 106.694 73.5781 105.113 73.5034 103.09Z" fill="#FF6B00"/>
<path fill-rule="evenodd" clip-rule="evenodd" d="M105.341 156.424V112.775H106.922V156.424C106.922 156.741 107.102 157.153 107.676 157.633C108.246 158.108 109.118 158.572 110.265 158.977C112.552 159.784 115.763 160.298 119.347 160.298C122.932 160.298 126.143 159.784 128.43 158.977C129.577 158.572 130.449 158.108 131.019 157.633C131.593 157.153 131.773 156.741 131.773 156.424V112.888H133.354V156.424C133.354 157.395 132.794 158.21 132.031 158.846C131.264 159.487 130.2 160.028 128.956 160.468C126.459 161.349 123.062 161.879 119.347 161.879C115.633 161.879 112.235 161.349 109.739 160.468C108.494 160.028 107.431 159.487 106.663 158.846C105.9 158.21 105.341 157.395 105.341 156.424Z" fill="#FF6B00"/>
<path opacity="0.5" fill-rule="evenodd" clip-rule="evenodd" d="M106.663 121.53C105.9 120.894 105.341 120.079 105.341 119.108H106.922C106.922 119.425 107.102 119.837 107.676 120.317C108.246 120.792 109.118 121.256 110.265 121.661C112.552 122.468 115.763 122.982 119.347 122.982C122.932 122.982 126.143 122.468 128.43 121.661C129.577 121.256 130.449 120.792 131.019 120.317C131.593 119.837 131.773 119.425 131.773 119.108H133.354C133.354 120.079 132.794 120.894 132.031 121.53C131.264 122.171 130.2 122.712 128.956 123.152C126.459 124.033 123.062 124.563 119.347 124.563C115.633 124.563 112.236 124.033 109.739 123.152C108.494 122.712 107.431 122.171 106.663 121.53Z" fill="#FF6B00"/>
<path opacity="0.5" fill-rule="evenodd" clip-rule="evenodd" d="M106.663 127.75C105.9 127.113 105.341 126.298 105.341 125.327H106.922C106.922 125.645 107.102 126.057 107.676 126.536C108.246 127.012 109.118 127.475 110.265 127.88C112.552 128.687 115.763 129.201 119.347 129.201C122.932 129.201 126.143 128.687 128.43 127.88C129.577 127.475 130.449 127.012 131.019 126.536C131.593 126.057 131.773 125.645 131.773 125.327H133.354C133.354 126.298 132.794 127.113 132.031 127.75C131.264 128.39 130.2 128.932 128.956 129.371C126.459 130.252 123.062 130.782 119.347 130.782C115.633 130.782 112.236 130.252 109.739 129.371C108.494 128.932 107.431 128.39 106.663 127.75Z" fill="#FF6B00"/>
<path opacity="0.5" fill-rule="evenodd" clip-rule="evenodd" d="M106.663 133.969C105.9 133.332 105.341 132.517 105.341 131.547H106.922C106.922 131.864 107.102 132.276 107.676 132.755C108.246 133.231 109.118 133.695 110.265 134.1C112.552 134.907 115.763 135.421 119.347 135.421C122.932 135.421 126.143 134.907 128.43 134.1C129.577 133.695 130.449 133.231 131.019 132.755C131.593 132.276 131.773 131.864 131.773 131.547H133.354C133.354 132.517 132.794 133.332 132.031 133.969C131.264 134.61 130.2 135.151 128.956 135.59C126.459 136.471 123.062 137.002 119.347 137.002C115.633 137.002 112.235 136.471 109.739 135.59C108.494 135.151 107.431 134.61 106.663 133.969Z" fill="#FF6B00"/>
<path opacity="0.5" fill-rule="evenodd" clip-rule="evenodd" d="M106.663 140.188C105.9 139.552 105.341 138.737 105.341 137.766H106.922C106.922 138.083 107.102 138.495 107.676 138.975C108.246 139.45 109.118 139.914 110.265 140.319C112.552 141.126 115.763 141.64 119.347 141.64C122.932 141.64 126.143 141.126 128.43 140.319C129.577 139.914 130.449 139.45 131.019 138.975C131.593 138.495 131.773 138.083 131.773 137.766H133.354C133.354 138.737 132.794 139.552 132.031 140.188C131.264 140.829 130.2 141.37 128.956 141.81C126.459 142.691 123.062 143.221 119.347 143.221C115.633 143.221 112.235 142.691 109.739 141.81C108.494 141.37 107.431 140.829 106.663 140.188Z" fill="#FF6B00"/>
<path opacity="0.5" fill-rule="evenodd" clip-rule="evenodd" d="M106.663 146.408C105.9 145.771 105.341 144.956 105.341 143.985H106.922C106.922 144.303 107.102 144.715 107.676 145.194C108.246 145.67 109.118 146.134 110.265 146.538C112.552 147.345 115.763 147.859 119.347 147.859C122.932 147.859 126.143 147.345 128.43 146.538C129.577 146.134 130.449 145.67 131.019 145.194C131.593 144.715 131.773 144.303 131.773 143.985H133.354C133.354 144.956 132.794 145.771 132.031 146.408C131.264 147.048 130.2 147.59 128.956 148.029C126.459 148.91 123.062 149.44 119.347 149.44C115.633 149.44 112.236 148.91 109.739 148.029C108.494 147.59 107.431 147.048 106.663 146.408Z" fill="#FF6B00"/>
<path opacity="0.5" fill-rule="evenodd" clip-rule="evenodd" d="M106.663 152.627C105.9 151.99 105.341 151.176 105.341 150.205H106.922C106.922 150.522 107.102 150.934 107.676 151.414C108.246 151.889 109.118 152.353 110.265 152.758C112.552 153.565 115.763 154.079 119.347 154.079C122.932 154.079 126.143 153.565 128.43 152.758C129.577 152.353 130.449 151.889 131.019 151.414C131.593 150.934 131.773 150.522 131.773 150.205H133.354C133.354 151.176 132.794 151.99 132.031 152.627C131.264 153.268 130.2 153.809 128.956 154.248C126.459 155.129 123.062 155.66 119.347 155.66C115.633 155.66 112.235 155.129 109.739 154.248C108.494 153.809 107.431 153.268 106.663 152.627Z" fill="#FF6B00"/>
<path fill-rule="evenodd" clip-rule="evenodd" d="M107.676 111.68C107.102 112.159 106.922 112.571 106.922 112.888C106.922 113.206 107.102 113.618 107.676 114.097C108.246 114.573 109.118 115.037 110.265 115.441C112.552 116.249 115.763 116.763 119.347 116.763C122.932 116.763 126.143 116.249 128.43 115.441C129.577 115.037 130.449 114.573 131.019 114.097C131.593 113.618 131.773 113.206 131.773 112.888C131.773 112.571 131.593 112.159 131.019 111.68C130.449 111.204 129.577 110.74 128.43 110.335C126.143 109.528 122.932 109.014 119.347 109.014C115.763 109.014 112.552 109.528 110.265 110.335C109.118 110.74 108.246 111.204 107.676 111.68ZM109.739 108.845C112.236 107.964 115.633 107.434 119.347 107.434C123.062 107.434 126.459 107.964 128.956 108.845C130.2 109.284 131.264 109.825 132.031 110.466C132.794 111.103 133.354 111.918 133.354 112.888C133.354 113.859 132.794 114.674 132.031 115.311C131.264 115.951 130.2 116.493 128.956 116.932C126.459 117.813 123.062 118.343 119.347 118.343C115.633 118.343 112.236 117.813 109.739 116.932C108.494 116.493 107.431 115.951 106.663 115.311C105.9 114.674 105.341 113.859 105.341 112.888C105.341 111.918 105.9 111.103 106.663 110.466C107.431 109.825 108.494 109.284 109.739 108.845Z" fill="#FF6B00"/>
<path fill-rule="evenodd" clip-rule="evenodd" d="M119.347 80.8846C119.784 80.8846 120.137 81.2385 120.137 81.675V111.823C120.137 112.26 119.784 112.614 119.347 112.614C118.911 112.614 118.557 112.26 118.557 111.823V81.675C118.557 81.2385 118.911 80.8846 119.347 80.8846Z" fill="#FF6B00"/>
<path fill-rule="evenodd" clip-rule="evenodd" d="M133.065 80.3206L133.105 81.6216C133.191 84.4195 132.714 86.7435 131.586 88.515C130.444 90.3081 128.69 91.4479 126.409 91.9636C124.253 92.4512 122.448 92.5223 121.095 92.0289C120.402 91.7759 119.823 91.3726 119.396 90.8065C118.971 90.2438 118.727 89.5635 118.632 88.8032L118.599 88.5335L118.738 88.3002C120.166 85.9067 122.629 84.2041 125.994 83.1278C129.264 82.082 131.205 81.3608 131.929 80.956L133.065 80.3206ZM131.523 82.8772C130.393 83.3363 128.698 83.9226 126.475 84.6334C123.477 85.5923 121.439 87.0241 120.243 88.8718C120.326 89.2863 120.47 89.6064 120.657 89.8538C120.879 90.148 121.194 90.3822 121.637 90.5439C122.557 90.8796 123.998 90.8882 126.06 90.4218C127.999 89.9834 129.368 89.0551 130.252 87.6658C131.007 86.4811 131.448 84.9004 131.523 82.8772Z" fill="#FF6B00"/>
<path fill-rule="evenodd" clip-rule="evenodd" d="M133.066 94.3142L133.106 95.6153C133.191 98.4132 132.715 100.737 131.587 102.509C130.445 104.302 128.69 105.442 126.41 105.957C124.261 106.443 122.475 106.555 121.135 106.176C120.45 105.983 119.858 105.655 119.407 105.164C118.953 104.671 118.682 104.06 118.568 103.37L118.524 103.107L118.649 102.871C120.11 100.115 122.592 98.2099 125.995 97.1214C129.265 96.0757 131.206 95.3545 131.93 94.9496L133.066 94.3142ZM131.524 96.8708C130.394 97.3299 128.699 97.9162 126.476 98.6271C123.499 99.5793 121.431 101.168 120.182 103.364C120.266 103.672 120.4 103.909 120.57 104.093C120.785 104.328 121.101 104.524 121.564 104.655C122.52 104.925 123.992 104.883 126.061 104.415C128 103.977 129.368 103.049 130.253 101.659C131.008 100.475 131.449 98.8941 131.524 96.8708Z" fill="#FF6B00"/>
<path fill-rule="evenodd" clip-rule="evenodd" d="M106.168 88.0947L106.128 89.3958C106.043 92.1937 106.519 94.5177 107.647 96.2892C108.789 98.0823 110.543 99.2221 112.824 99.7378C114.964 100.222 116.724 100.33 117.995 99.916C118.652 99.7016 119.206 99.3378 119.589 98.7935C119.97 98.2526 120.134 97.603 120.138 96.9004L120.139 96.7451L120.081 96.601C118.982 93.8669 116.639 91.9894 113.239 90.902C109.969 89.8562 108.028 89.135 107.304 88.7301L106.168 88.0947ZM107.71 90.6514C108.84 91.1104 110.535 91.6968 112.758 92.4076C115.778 93.3735 117.652 94.939 118.552 97.0417C118.53 97.4246 118.431 97.6922 118.297 97.8835C118.147 98.0956 117.905 98.2825 117.505 98.4132C116.659 98.6892 115.252 98.6662 113.173 98.196C111.234 97.7576 109.866 96.8292 108.981 95.44C108.226 94.2553 107.785 92.6746 107.71 90.6514Z" fill="#FF6B00"/>
<path fill-rule="evenodd" clip-rule="evenodd" d="M139.547 156.424V100.337H141.128V156.424C141.128 156.741 141.308 157.153 141.882 157.633C142.452 158.108 143.324 158.572 144.471 158.977C146.758 159.784 149.969 160.298 153.553 160.298C157.138 160.298 160.349 159.784 162.636 158.977C163.783 158.572 164.655 158.108 165.225 157.633C165.799 157.153 165.979 156.741 165.979 156.424V100.45H167.56V156.424C167.56 157.395 167 158.21 166.237 158.847C165.47 159.487 164.406 160.028 163.162 160.468C160.665 161.349 157.268 161.879 153.553 161.879C149.839 161.879 146.442 161.349 143.945 160.468C142.7 160.028 141.637 159.487 140.869 158.847C140.106 158.21 139.547 157.395 139.547 156.424Z" fill="#FF6B00"/>
<path opacity="0.5" fill-rule="evenodd" clip-rule="evenodd" d="M140.869 109.092C140.106 108.455 139.547 107.64 139.547 106.669H141.128C141.128 106.986 141.308 107.399 141.882 107.878C142.452 108.353 143.324 108.817 144.471 109.222C146.758 110.029 149.969 110.543 153.553 110.543C157.138 110.543 160.349 110.029 162.636 109.222C163.783 108.817 164.655 108.353 165.225 107.878C165.799 107.399 165.979 106.986 165.979 106.669H167.56C167.56 107.64 167 108.455 166.237 109.092C165.47 109.732 164.406 110.273 163.162 110.713C160.665 111.594 157.268 112.124 153.553 112.124C149.839 112.124 146.442 111.594 143.945 110.713C142.7 110.273 141.637 109.732 140.869 109.092Z" fill="#FF6B00"/>
<path opacity="0.5" fill-rule="evenodd" clip-rule="evenodd" d="M140.869 115.311C140.106 114.674 139.547 113.859 139.547 112.888H141.128C141.128 113.206 141.308 113.618 141.882 114.097C142.452 114.573 143.324 115.037 144.471 115.441C146.758 116.249 149.969 116.763 153.553 116.763C157.138 116.763 160.349 116.249 162.636 115.441C163.783 115.037 164.655 114.573 165.225 114.097C165.799 113.618 165.979 113.206 165.979 112.888H167.56C167.56 113.859 167 114.674 166.237 115.311C165.47 115.951 164.406 116.493 163.162 116.932C160.665 117.813 157.268 118.343 153.553 118.343C149.839 118.343 146.442 117.813 143.945 116.932C142.7 116.493 141.637 115.951 140.869 115.311Z" fill="#FF6B00"/>
<path opacity="0.5" fill-rule="evenodd" clip-rule="evenodd" d="M140.869 121.53C140.106 120.893 139.547 120.079 139.547 119.108H141.128C141.128 119.425 141.308 119.837 141.882 120.317C142.452 120.792 143.324 121.256 144.471 121.661C146.758 122.468 149.969 122.982 153.553 122.982C157.138 122.982 160.349 122.468 162.636 121.661C163.783 121.256 164.655 120.792 165.225 120.317C165.799 119.837 165.979 119.425 165.979 119.108H167.56C167.56 120.079 167 120.893 166.237 121.53C165.47 122.171 164.406 122.712 163.162 123.151C160.665 124.033 157.268 124.563 153.553 124.563C149.839 124.563 146.442 124.033 143.945 123.151C142.7 122.712 141.637 122.171 140.869 121.53Z" fill="#FF6B00"/>
<path opacity="0.5" fill-rule="evenodd" clip-rule="evenodd" d="M140.869 127.75C140.106 127.113 139.547 126.298 139.547 125.327H141.128C141.128 125.644 141.308 126.057 141.882 126.536C142.452 127.012 143.324 127.475 144.471 127.88C146.758 128.687 149.969 129.201 153.553 129.201C157.138 129.201 160.349 128.687 162.636 127.88C163.783 127.475 164.655 127.012 165.225 126.536C165.799 126.057 165.979 125.644 165.979 125.327H167.56C167.56 126.298 167 127.113 166.237 127.75C165.47 128.39 164.406 128.932 163.162 129.371C160.665 130.252 157.268 130.782 153.553 130.782C149.839 130.782 146.442 130.252 143.945 129.371C142.7 128.932 141.637 128.39 140.869 127.75Z" fill="#FF6B00"/>
<path opacity="0.5" fill-rule="evenodd" clip-rule="evenodd" d="M140.869 133.969C140.106 133.332 139.547 132.517 139.547 131.547H141.128C141.128 131.864 141.308 132.276 141.882 132.755C142.452 133.231 143.324 133.695 144.471 134.1C146.758 134.907 149.969 135.421 153.553 135.421C157.138 135.421 160.349 134.907 162.636 134.1C163.783 133.695 164.655 133.231 165.225 132.755C165.799 132.276 165.979 131.864 165.979 131.547H167.56C167.56 132.517 167 133.332 166.237 133.969C165.47 134.61 164.406 135.151 163.162 135.59C160.665 136.471 157.268 137.001 153.553 137.001C149.839 137.001 146.442 136.471 143.945 135.59C142.7 135.151 141.637 134.61 140.869 133.969Z" fill="#FF6B00"/>
<path opacity="0.5" fill-rule="evenodd" clip-rule="evenodd" d="M140.869 140.188C140.106 139.552 139.547 138.737 139.547 137.766H141.128C141.128 138.083 141.308 138.495 141.882 138.975C142.452 139.45 143.324 139.914 144.471 140.319C146.758 141.126 149.969 141.64 153.553 141.64C157.138 141.64 160.349 141.126 162.636 140.319C163.783 139.914 164.655 139.45 165.225 138.975C165.799 138.495 165.979 138.083 165.979 137.766H167.56C167.56 138.737 167 139.552 166.237 140.188C165.47 140.829 164.406 141.37 163.162 141.81C160.665 142.691 157.268 143.221 153.553 143.221C149.839 143.221 146.442 142.691 143.945 141.81C142.7 141.37 141.637 140.829 140.869 140.188Z" fill="#FF6B00"/>
<path opacity="0.5" fill-rule="evenodd" clip-rule="evenodd" d="M140.869 152.627C140.106 151.99 139.547 151.176 139.547 150.205H141.128C141.128 150.522 141.308 150.934 141.882 151.414C142.452 151.889 143.324 152.353 144.471 152.758C146.758 153.565 149.969 154.079 153.553 154.079C157.138 154.079 160.349 153.565 162.636 152.758C163.783 152.353 164.655 151.889 165.225 151.414C165.799 150.934 165.979 150.522 165.979 150.205H167.56C167.56 151.176 167 151.99 166.237 152.627C165.47 153.268 164.406 153.809 163.162 154.248C160.665 155.129 157.268 155.66 153.553 155.66C149.839 155.66 146.442 155.129 143.945 154.248C142.7 153.809 141.637 153.268 140.869 152.627Z" fill="#FF6B00"/>
<path opacity="0.5" fill-rule="evenodd" clip-rule="evenodd" d="M140.869 146.408C140.106 145.771 139.547 144.956 139.547 143.985H141.128C141.128 144.303 141.308 144.715 141.882 145.194C142.452 145.67 143.324 146.134 144.471 146.538C146.758 147.345 149.969 147.859 153.553 147.859C157.138 147.859 160.349 147.345 162.636 146.538C163.783 146.134 164.655 145.67 165.225 145.194C165.799 144.715 165.979 144.303 165.979 143.985H167.56C167.56 144.956 167 145.771 166.237 146.408C165.47 147.048 164.406 147.59 163.162 148.029C160.665 148.91 157.268 149.44 153.553 149.44C149.839 149.44 146.442 148.91 143.945 148.029C142.7 147.59 141.637 147.048 140.869 146.408Z" fill="#FF6B00"/>
<path fill-rule="evenodd" clip-rule="evenodd" d="M141.882 99.241C141.308 99.7203 141.128 100.132 141.128 100.45C141.128 100.767 141.308 101.179 141.882 101.659C142.452 102.134 143.324 102.598 144.471 103.003C146.758 103.81 149.969 104.324 153.553 104.324C157.138 104.324 160.349 103.81 162.636 103.003C163.783 102.598 164.655 102.134 165.225 101.659C165.799 101.179 165.979 100.767 165.979 100.45C165.979 100.132 165.799 99.7203 165.225 99.241C164.655 98.7654 163.783 98.3016 162.636 97.8968C160.349 97.0896 157.138 96.5756 153.553 96.5756C149.969 96.5756 146.758 97.0896 144.471 97.8968C143.324 98.3016 142.452 98.7654 141.882 99.241ZM143.945 96.4061C146.442 95.525 149.839 94.9949 153.553 94.9949C157.268 94.9949 160.665 95.525 163.162 96.4061C164.406 96.8454 165.47 97.3868 166.237 98.0273C167 98.6641 167.56 99.479 167.56 100.45C167.56 101.421 167 102.235 166.237 102.872C165.47 103.513 164.406 104.054 163.162 104.493C160.665 105.374 157.268 105.905 153.553 105.905C149.839 105.905 146.442 105.374 143.945 104.493C142.7 104.054 141.637 103.513 140.869 102.872C140.106 102.235 139.547 101.421 139.547 100.45C139.547 99.479 140.106 98.6641 140.869 98.0273C141.637 97.3868 142.7 96.8454 143.945 96.4061Z" fill="#FF6B00"/>
<path fill-rule="evenodd" clip-rule="evenodd" d="M153.553 57.3806C153.99 57.3806 154.343 57.7345 154.343 58.171V99.3846C154.343 99.8211 153.99 100.175 153.553 100.175C153.117 100.175 152.763 99.8211 152.763 99.3846V58.171C152.763 57.7345 153.117 57.3806 153.553 57.3806Z" fill="#FF6B00"/>
<path fill-rule="evenodd" clip-rule="evenodd" d="M167.271 67.8818L167.311 69.1829C167.397 71.9808 166.92 74.3048 165.792 76.0763C164.65 77.8694 162.896 79.0092 160.615 79.5249C158.459 80.0125 156.654 80.0835 155.301 79.5901C154.608 79.3372 154.029 78.9339 153.602 78.3677C153.177 77.8051 152.933 77.1247 152.838 76.3645L152.805 76.0948L152.944 75.8614C154.372 73.468 156.835 71.7654 160.2 70.6891C163.47 69.6433 165.411 68.9221 166.135 68.5172L167.271 67.8818ZM165.729 70.4385C164.599 70.8975 162.904 71.4839 160.682 72.1947C157.683 73.1536 155.645 74.5853 154.45 76.4331C154.532 76.8475 154.676 77.1676 154.863 77.415C155.085 77.7093 155.4 77.9435 155.843 78.1051C156.763 78.4409 158.204 78.4495 160.266 77.983C162.205 77.5447 163.574 76.6163 164.458 75.2271C165.213 74.0424 165.654 72.4617 165.729 70.4385Z" fill="#FF6B00"/>
<path fill-rule="evenodd" clip-rule="evenodd" d="M167.272 81.8754L167.312 83.1764C167.398 85.9744 166.921 88.2983 165.793 90.0698C164.651 91.8629 162.897 93.0027 160.616 93.5184C158.467 94.0044 156.681 94.1159 155.341 93.7374C154.656 93.5439 154.064 93.216 153.613 92.7253C153.159 92.2326 152.888 91.6214 152.774 90.9314L152.73 90.668L152.856 90.4321C154.316 87.6765 156.798 85.771 160.201 84.6826C163.471 83.6368 165.412 82.9156 166.136 82.5108L167.272 81.8754ZM165.73 84.432C164.6 84.8911 162.905 85.4774 160.682 86.1882C157.705 87.1404 155.637 88.7292 154.388 90.9249C154.472 91.2333 154.606 91.4699 154.776 91.6547C154.991 91.8888 155.307 92.0853 155.77 92.2161C156.726 92.486 158.198 92.4447 160.267 91.9766C162.206 91.5383 163.575 90.6099 164.459 89.2207C165.214 88.036 165.655 86.4552 165.73 84.432Z" fill="#FF6B00"/>
<path fill-rule="evenodd" clip-rule="evenodd" d="M140.374 75.656L140.334 76.9571C140.249 79.755 140.725 82.079 141.854 83.8505C142.996 85.6435 144.75 86.7833 147.03 87.2991C149.17 87.7829 150.93 87.8918 152.201 87.4773C152.858 87.2629 153.412 86.899 153.795 86.3548C154.176 85.8139 154.34 85.1643 154.344 84.4617L154.345 84.3064L154.287 84.1622C153.188 81.4281 150.846 79.5507 147.445 78.4632C144.175 77.4175 142.234 76.6963 141.51 76.2914L140.374 75.656ZM141.916 78.2126C143.047 78.6717 144.741 79.258 146.964 79.9689C149.984 80.9348 151.858 82.5002 152.758 84.603C152.736 84.9859 152.637 85.2535 152.503 85.4447C152.353 85.6568 152.111 85.8438 151.711 85.9745C150.865 86.2504 149.458 86.2274 147.379 85.7572C145.44 85.3189 144.072 84.3905 143.187 83.0013C142.432 81.8166 141.991 80.2359 141.916 78.2126Z" fill="#FF6B00"/>
<path fill-rule="evenodd" clip-rule="evenodd" d="M140.374 59.0581L140.334 60.3592C140.249 63.1571 140.725 65.4811 141.854 67.2526C142.996 69.0456 144.75 70.1854 147.03 70.7012C149.17 71.185 150.93 71.2939 152.201 70.8794C152.858 70.665 153.412 70.3011 153.795 69.7569C154.176 69.216 154.34 68.5664 154.344 67.8638L154.345 67.7085L154.287 67.5643C153.188 64.8302 150.846 62.9528 147.445 61.8653C144.175 60.8196 142.234 60.0984 141.51 59.6935L140.374 59.0581ZM141.916 61.6147C143.047 62.0738 144.741 62.6601 146.964 63.371C149.984 64.3369 151.858 65.9023 152.758 68.0051C152.736 68.388 152.637 68.6556 152.503 68.8468C152.353 69.0589 152.111 69.2459 151.711 69.3766C150.865 69.6525 149.458 69.6295 147.379 69.1593C145.44 68.721 144.072 67.7926 143.187 66.4034C142.432 65.2187 141.991 63.638 141.916 61.6147Z" fill="#FF6B00"/>
<path opacity="0.5" fill-rule="evenodd" clip-rule="evenodd" d="M83.5219 69.5929C84.1916 69.0329 85.1885 69.1217 85.7486 69.7914L95.1012 80.9744C95.3391 81.2588 95.4694 81.6178 95.4694 81.9886C95.4694 82.8616 94.7617 83.5693 93.8887 83.5693H90.1583V92.2172C90.1583 93.0903 89.4505 93.798 88.5775 93.798H80.5017C79.6287 93.798 78.9209 93.0903 78.9209 92.2172V83.5693H75.1833C74.8126 83.5693 74.4536 83.439 74.1692 83.2011C73.4995 82.6411 73.4107 81.6441 73.9707 80.9744L83.3234 69.7914C83.3835 69.7195 83.45 69.6531 83.5219 69.5929ZM84.536 70.8055L75.1833 81.9886L80.5017 81.9886V92.2172H88.5775V81.9886L93.8887 81.9886L84.536 70.8055Z" fill="#FF6B00"/>
<path opacity="0.5" fill-rule="evenodd" clip-rule="evenodd" d="M117.728 48.5118C118.398 47.9517 119.395 48.0405 119.955 48.7102L129.307 59.8933C129.545 60.1777 129.675 60.5366 129.675 60.9074C129.675 61.7804 128.968 62.4881 128.095 62.4881H124.364V71.1361C124.364 72.0091 123.657 72.7168 122.784 72.7168H114.708C113.835 72.7168 113.127 72.0091 113.127 71.1361V62.4881H109.389C109.019 62.4881 108.66 62.3578 108.375 62.12C107.706 61.5599 107.617 60.563 108.177 59.8933L117.529 48.7102C117.59 48.6383 117.656 48.5719 117.728 48.5118ZM128.095 60.9074L118.742 49.7243L109.389 60.9074L114.708 60.9074V71.1361H122.784V60.9074L128.095 60.9074Z" fill="#FF6B00"/>
<path opacity="0.5" fill-rule="evenodd" clip-rule="evenodd" d="M151.935 25.7464C152.605 25.1863 153.602 25.2752 154.162 25.9449L163.514 37.1279C163.752 37.4123 163.883 37.7712 163.883 38.142C163.883 39.015 163.175 39.7227 162.302 39.7227H158.571V48.3707C158.571 49.2437 157.864 49.9514 156.991 49.9514H148.915C148.042 49.9514 147.334 49.2437 147.334 48.3707V39.7227H143.596C143.226 39.7227 142.867 39.5924 142.582 39.3546C141.913 38.7945 141.824 37.7976 142.384 37.1279L151.737 25.9449C151.797 25.873 151.863 25.8065 151.935 25.7464ZM152.949 26.959L143.596 38.142H148.915V48.3707H156.991V38.142H162.302L152.949 26.959ZM152.442 26.3527L152.949 26.959L152.343 26.4519M152.949 26.959L152.442 26.3527L152.949 26.959Z" fill="#FF6B00"/>
<g opacity="0.5">
<path opacity="0.5" fill-rule="evenodd" clip-rule="evenodd" d="M62.8343 140.687C63.2708 140.687 63.6247 140.333 63.6247 139.897V76.6666C63.6247 76.2301 63.2708 75.8763 62.8343 75.8763C62.3978 75.8763 62.0439 76.2301 62.0439 76.6666V139.897C62.0439 140.333 62.3978 140.687 62.8343 140.687Z" fill="#FF6B00"/>
<path opacity="0.5" fill-rule="evenodd" clip-rule="evenodd" d="M53.3499 158.866C53.7865 158.866 54.1403 158.512 54.1403 158.076V120.137C54.1403 119.701 53.7865 119.347 53.3499 119.347C52.9134 119.347 52.5596 119.701 52.5596 120.137V158.076C52.5596 158.512 52.9134 158.866 53.3499 158.866Z" fill="#FF6B00"/>
<path opacity="0.5" fill-rule="evenodd" clip-rule="evenodd" d="M58.0921 147.01C58.5287 147.01 58.8825 146.656 58.8825 146.22V142.539C58.8825 142.103 58.5287 141.749 58.0921 141.749C57.6556 141.749 57.3018 142.103 57.3018 142.539V146.22C57.3018 146.656 57.6556 147.01 58.0921 147.01Z" fill="#FF6B00"/>
<path opacity="0.5" fill-rule="evenodd" clip-rule="evenodd" d="M58.0921 137.526C58.5287 137.526 58.8825 137.172 58.8825 136.735V99.5876C58.8825 99.1511 58.5287 98.7972 58.0921 98.7972C57.6556 98.7972 57.3018 99.1511 57.3018 99.5876V136.735C57.3018 137.172 57.6556 137.526 58.0921 137.526Z" fill="#FF6B00"/>
</g>
<g opacity="0.5">
<path opacity="0.5" fill-rule="evenodd" clip-rule="evenodd" d="M186.133 82.9897C186.57 82.9897 186.924 82.6359 186.924 82.1994V51.9691C186.924 51.5326 186.57 51.1787 186.133 51.1787C185.697 51.1787 185.343 51.5326 185.343 51.9691V82.1994C185.343 82.6359 185.697 82.9897 186.133 82.9897Z" fill="#FF6B00"/>
<path opacity="0.5" fill-rule="evenodd" clip-rule="evenodd" d="M176.649 101.168C177.085 101.168 177.439 100.815 177.439 100.378V62.4399C177.439 62.0034 177.085 61.6496 176.649 61.6496C176.212 61.6496 175.858 62.0034 175.858 62.4399V100.378C175.858 100.815 176.212 101.168 176.649 101.168Z" fill="#FF6B00"/>
<path opacity="0.5" fill-rule="evenodd" clip-rule="evenodd" d="M181.391 89.3127C181.827 89.3127 182.181 88.9589 182.181 88.5224V84.8419C182.181 84.4054 181.827 84.0515 181.391 84.0515C180.954 84.0515 180.601 84.4054 180.601 84.8419V88.5224C180.601 88.9589 180.954 89.3127 181.391 89.3127Z" fill="#FF6B00"/>
<path opacity="0.5" fill-rule="evenodd" clip-rule="evenodd" d="M181.391 79.8282C181.827 79.8282 182.181 79.4744 182.181 79.0379V41.8901C182.181 41.4536 181.827 41.0997 181.391 41.0997C180.954 41.0997 180.601 41.4536 180.601 41.8901V79.0379C180.601 79.4744 180.954 79.8282 181.391 79.8282Z" fill="#FF6B00"/>
</g>
<defs>
<linearGradient id="paint0_linear_330_9405" x1="68.9753" y1="56.3015" x2="160.995" y2="169.936" gradientUnits="userSpaceOnUse">
<stop stop-color="#FFAA45"/>
<stop offset="1" stop-color="#FF7A00"/>
</linearGradient>
</defs>
</svg>
