<svg width="1440" height="6890" viewBox="0 0 1440 6890" fill="none" xmlns="http://www.w3.org/2000/svg">
<rect width="1440" height="6890" fill="white"/>
<g opacity="1" filter="url(#filter0_f_441:404)">
<path d="M161.984 491.121C75.1837 303.921 418.484 95.7874 477.484 67.6207C521.484 41.6207 652.484 -8.07926 824.484 1.12074C1039.48 12.6207 1237.98 119.121 1237.98 244.621C1237.98 370.121 994.484 386.121 1237.98 660.121C1481.48 934.121 1069.98 1021.62 994.484 1250.62C918.984 1479.62 1369.98 1347.62 1332.48 1545.62C1294.98 1743.62 495.984 1795.62 288.484 1590.12C80.9837 1384.62 522.984 1270.12 503.984 1007.62C484.984 745.121 270.484 725.121 161.984 491.121Z" fill="url(#paint0_linear_441:404)"/>
</g>
<g opacity="1" filter="url(#filter1_f_441:404)">
<path d="M1279.27 2356.13C1368.65 2168.93 1269.48 2065.79 1208.73 2037.62C1163.42 2011.62 1028.52 1961.92 851.403 1971.12C630.005 1982.62 425.598 2089.12 425.598 2214.63C425.598 2340.13 676.344 2356.13 425.598 2630.14C174.852 2904.15 598.598 2991.65 676.344 3220.66C754.091 3449.67 289.67 3317.66 328.286 3515.67C366.902 3713.68 790.647 3721.18 1004.32 3515.67C1218 3310.16 1130.76 3094.54 1150.32 2832.03C1169.89 2569.52 1167.54 2590.14 1279.27 2356.13Z" fill="url(#paint1_linear_441:404)"/>
</g>
<g opacity="1" filter="url(#filter2_f_441:404)">
<path d="M306.302 6464.23C216.311 6649.91 310.833 6754.68 369.342 6783.85C412.891 6810.6 543.021 6862.54 715.153 6856.28C930.318 6848.46 1130.61 6745.37 1132.76 6619.89C1134.91 6494.41 891.716 6474.25 1139.87 6204.45C1388.02 5934.66 978.08 5840.13 906.51 5609.87C834.94 5379.61 1283.61 5519.31 1249.51 5320.7C1215.4 5122.09 804.091 5107.55 593.105 5309.47C382.118 5511.39 719.508 5783.7 696.019 6045.83C672.53 6307.97 418.79 6232.12 306.302 6464.23Z" fill="url(#paint2_linear_441:404)"/>
</g>
<g opacity="1" filter="url(#filter3_f_441:404)">
<path d="M221.302 4882.23C131.311 5067.91 225.833 5172.68 284.342 5201.85C327.891 5228.6 458.021 5280.54 630.153 5274.28C845.318 5266.46 1045.61 5163.37 1047.76 5037.89C1049.91 4912.41 806.716 4892.25 1054.87 4622.45C1303.02 4352.66 893.08 4258.13 821.51 4027.87C749.94 3797.61 1198.61 3937.31 1164.51 3738.7C1130.4 3540.09 719.091 3525.55 508.105 3727.47C297.118 3929.39 634.508 4201.7 611.019 4463.83C587.53 4725.97 333.79 4650.12 221.302 4882.23Z" fill="url(#paint3_linear_441:404)"/>
</g>
<defs>
<filter id="filter0_f_441:404" x="-266" y="-414" width="2014.7" height="2549.32" filterUnits="userSpaceOnUse" color-interpolation-filters="sRGB">
<feFlood flood-opacity="0" result="BackgroundImageFix"/>
<feBlend mode="normal" in="SourceGraphic" in2="BackgroundImageFix" result="shape"/>
<feGaussianBlur stdDeviation="207" result="effect1_foregroundBlur_441:404"/>
</filter>
<filter id="filter1_f_441:404" x="-88" y="1556" width="1817" height="2525" filterUnits="userSpaceOnUse" color-interpolation-filters="sRGB">
<feFlood flood-opacity="0" result="BackgroundImageFix"/>
<feBlend mode="normal" in="SourceGraphic" in2="BackgroundImageFix" result="shape"/>
<feGaussianBlur stdDeviation="207" result="effect1_foregroundBlur_441:404"/>
</filter>
<filter id="filter2_f_441:404" x="-149" y="4739" width="1817.32" height="2541.13" filterUnits="userSpaceOnUse" color-interpolation-filters="sRGB">
<feFlood flood-opacity="0" result="BackgroundImageFix"/>
<feBlend mode="normal" in="SourceGraphic" in2="BackgroundImageFix" result="shape"/>
<feGaussianBlur stdDeviation="207" result="effect1_foregroundBlur_441:404"/>
</filter>
<filter id="filter3_f_441:404" x="-234" y="3157" width="1817.32" height="2541.13" filterUnits="userSpaceOnUse" color-interpolation-filters="sRGB">
<feFlood flood-opacity="0" result="BackgroundImageFix"/>
<feBlend mode="normal" in="SourceGraphic" in2="BackgroundImageFix" result="shape"/>
<feGaussianBlur stdDeviation="207" result="effect1_foregroundBlur_441:404"/>
</filter>
<linearGradient id="paint0_linear_441:404" x1="741.352" y1="0" x2="741.352" y2="1721.32" gradientUnits="userSpaceOnUse">
<stop stop-color="#2287CF"/>
<stop offset="1" stop-color="#FF9F00"/>
</linearGradient>
<linearGradient id="paint1_linear_441:404" x1="820.5" y1="1970" x2="820.5" y2="3667" gradientUnits="userSpaceOnUse">
<stop stop-color="#2287CF"/>
<stop offset="1" stop-color="#FF9F00"/>
</linearGradient>
<linearGradient id="paint2_linear_441:404" x1="745.14" y1="6857.92" x2="774.178" y2="5161.22" gradientUnits="userSpaceOnUse">
<stop stop-color="#2287CF"/>
<stop offset="1" stop-color="#FF9F00"/>
</linearGradient>
<linearGradient id="paint3_linear_441:404" x1="660.14" y1="5275.92" x2="689.178" y2="3579.22" gradientUnits="userSpaceOnUse">
<stop stop-color="#2287CF"/>
<stop offset="1" stop-color="#FF9F00"/>
</linearGradient>
</defs>
</svg>
