<svg width="220" height="49" viewBox="0 0 220 49" fill="none" xmlns="http://www.w3.org/2000/svg">
<path fill-rule="evenodd" clip-rule="evenodd" d="M56.3262 22.4309C53.3262 22.4309 50.8262 24.7309 50.8262 28.0309C50.8262 31.5309 53.3262 33.6309 56.3262 33.6309C59.3262 33.6309 61.7262 31.3309 61.7262 28.0309C61.7262 24.5309 59.3262 22.4309 56.3262 22.4309ZM45.8262 10.4309H50.5262V21.0309C51.6262 19.0309 54.7262 17.9309 56.7262 17.9309C62.3262 17.9309 66.4262 21.3309 66.4262 28.0309C66.4262 34.3309 62.2262 38.1309 56.6262 38.1309C54.3262 38.1309 51.9262 37.3309 50.5262 35.0309L50.2262 37.6309H45.8262V10.4309ZM68.8262 37.6309H73.5262V18.3309H68.8262V37.6309ZM68.3262 13.0309C68.3262 9.33085 73.9262 9.33085 73.9262 13.0309C73.9262 16.7309 68.3262 16.7309 68.3262 13.0309ZM95.3262 37.6309H90.6262V27.5309C90.6262 24.6309 89.0262 22.4309 86.0262 22.4309C83.1262 22.4309 81.1262 24.9309 81.1262 27.8309V37.6309H76.4262V18.3309H80.6262L80.9262 20.9309C82.9262 19.0309 84.8262 18.1309 87.2262 18.1309C91.7262 18.1309 95.3262 21.5309 95.3262 27.5309V37.6309ZM113.126 21.0309L113.326 18.4309H117.826V37.6309H113.426L113.226 34.8309C112.126 37.1309 109.126 38.2309 107.026 38.2309C101.426 38.2309 97.2262 34.7309 97.2262 28.0309C97.2262 21.4309 101.626 17.9309 107.126 17.9309C109.626 17.9309 112.026 19.1309 113.126 21.0309ZM107.526 22.2309C104.426 22.2309 101.926 24.3309 101.926 28.0309C101.926 31.7309 104.426 33.8309 107.526 33.8309C114.926 33.8309 114.926 22.2309 107.526 22.2309ZM120.626 18.4309H125.026L125.326 20.6309C126.826 18.2309 128.726 17.9309 130.726 17.9309C132.726 17.9309 134.626 18.7309 135.626 19.7309L133.526 23.8309C132.526 23.0309 131.626 22.6309 130.126 22.6309C127.626 22.6309 125.426 23.9309 125.426 27.5309V37.6309H120.626V18.4309ZM153.226 18.3309H155.126V37.5309H153.226V33.4309C151.326 36.4309 148.526 37.8309 145.426 37.8309C140.126 37.8309 135.726 33.7309 135.726 27.9309C135.726 22.0309 140.126 18.0309 145.426 18.0309C148.526 18.0309 151.626 19.4309 153.226 22.4309V18.3309ZM145.426 19.9309C141.126 19.9309 137.626 23.1309 137.626 27.9309C137.626 32.7309 141.126 36.0309 145.426 36.0309C156.026 36.0309 156.026 19.9309 145.426 19.9309ZM168.726 36.1309C173.026 36.1309 176.526 33.4309 176.526 28.0309C176.526 22.6309 173.026 19.9309 168.726 19.9309C164.326 19.9309 161.026 23.3309 161.026 28.0309C161.026 32.7309 164.426 36.1309 168.726 36.1309ZM160.926 45.6309H159.126V18.3309H161.026V22.9309C162.526 20.0309 165.626 18.1309 169.326 18.1309C174.526 18.3309 178.626 21.8309 178.626 28.0309C178.626 34.5309 174.326 38.0309 168.926 38.0309C165.726 38.0309 162.626 36.4309 161.026 33.2309L160.926 45.6309ZM191.626 36.1309C195.926 36.1309 199.426 33.4309 199.426 28.0309C199.426 22.6309 195.926 19.9309 191.626 19.9309C187.226 19.9309 183.926 23.3309 183.926 28.0309C183.826 32.7309 187.226 36.1309 191.626 36.1309ZM183.726 45.6309H181.926V18.3309H183.826V22.9309C185.326 20.0309 188.426 18.1309 192.126 18.1309C197.326 18.3309 201.426 21.8309 201.426 28.0309C201.426 34.5309 197.126 38.0309 191.726 38.0309C188.526 38.0309 185.426 36.4309 183.826 33.2309L183.726 45.6309ZM219.026 20.6309L217.826 21.8309C215.926 20.1309 214.026 19.8309 211.926 19.8309C208.926 19.8309 206.126 20.9309 206.226 23.3309C206.326 25.9309 209.626 26.4309 212.026 26.8309C215.426 27.4309 220.126 28.0309 219.926 32.4309C219.826 36.6309 215.426 37.8309 212.126 37.8309C208.726 37.8309 205.426 36.5309 203.826 33.9309L205.226 32.7309C206.826 35.0309 209.626 36.0309 212.226 36.0309C214.526 36.0309 218.026 35.4309 218.126 32.3309C218.226 29.5309 215.026 29.0309 211.926 28.5309C208.226 27.9309 204.526 27.2309 204.526 23.3309C204.526 19.5309 208.226 17.9309 212.126 17.9309C214.626 18.0309 217.126 18.8309 219.026 20.6309Z" fill="#2B185C"/>
<path fill-rule="evenodd" clip-rule="evenodd" d="M20.4 24.257L18.5 25.457C18.4 25.557 18.2 25.557 18.1 25.657L3.9 33.857C1.5 35.257 0.1 37.857 0 40.457V7.95703C0.1 10.557 1.5 13.157 3.9 14.557L18.1 22.757C18.2 22.857 18.4 22.857 18.5 22.957L20.4 24.257Z" fill="#1A95FA"/>
<path fill-rule="evenodd" clip-rule="evenodd" d="M20.4 24.257L18.5 25.457C18.4 25.557 18.2 25.557 18.1 25.657L3.9 33.857C1.5 35.257 0.1 37.857 0 40.457V7.95703C0.1 10.557 1.5 13.157 3.9 14.557L18.1 22.757C18.2 22.857 18.4 22.857 18.5 22.957L20.4 24.257Z" fill="#0998FA"/>
<path fill-rule="evenodd" clip-rule="evenodd" d="M27 11.0705C26.3 9.97049 25.4 8.97049 24.2 8.37049L11.5 1.07049C7.8 -1.12951 3.1 0.170485 1 3.97049C0.3 5.17049 0 6.47049 0 7.77049L0.2 9.27049C0.6 11.4705 2 13.3705 3.9 14.4705L18.1 22.7705C18.2 22.8705 18.4 22.8705 18.5 22.9705L20.4 24.1705L24.4 21.6705C28 19.5705 29.2 14.7705 27 11.0705Z" fill="#5229AA"/>
<path fill-rule="evenodd" clip-rule="evenodd" d="M27 37.3699C26.3 38.4699 25.4 39.4699 24.2 40.0699L11.5 47.3699C7.8 49.4699 3.1 48.1699 1 44.4699C0.3 43.2699 0 41.9699 0 40.5699L0.2 39.0699C0.6 36.8699 2 34.9699 3.9 33.8699L18.1 25.5699C18.2 25.4699 18.4 25.4699 18.5 25.3699L20.4 24.1699L24.4 26.6699C28 28.8699 29.2 33.6699 27 37.3699Z" fill="#31C7FE"/>
</svg>
