<svg width="40" height="40" viewBox="0 0 40 40" fill="none" xmlns="http://www.w3.org/2000/svg">
<circle cx="20" cy="20" r="20" fill="white"/>
<path d="M26.7666 12.3438H24.4385V11.8517C24.4385 11.3785 24.0599 11 23.5868 11C23.1136 11 22.735 11.3785 22.735 11.8517V12.3438H17.2271V11.8517C17.2271 11.3785 16.8486 11 16.3754 11C15.9022 11 15.5237 11.3785 15.5237 11.8517V12.3438H13.2145C12.0032 12.3438 11 13.3281 11 14.5584V26.0852C11 27.2965 11.9842 28.2997 13.2145 28.2997H26.7855C27.9968 28.2997 29 27.3155 29 26.0852V14.5584C28.9811 13.3281 27.9968 12.3438 26.7666 12.3438ZM13.2145 14.0473H15.5426V14.5394C15.5426 15.0126 15.9211 15.3912 16.3943 15.3912C16.8675 15.3912 17.2461 15.0126 17.2461 14.5394V14.0473H22.7539V14.5394C22.7539 15.0126 23.1325 15.3912 23.6057 15.3912C24.0789 15.3912 24.4574 15.0126 24.4574 14.5394V14.0473H26.7855C27.0694 14.0473 27.2965 14.2744 27.2965 14.5584V16.8107H12.7035V14.5584C12.7035 14.2744 12.9306 14.0473 13.2145 14.0473ZM26.7666 26.5962H13.2145C12.9306 26.5962 12.7035 26.3691 12.7035 26.0852V18.4953H27.2965V26.0852C27.2776 26.3691 27.0505 26.5962 26.7666 26.5962Z" fill="#36739F"/>
</svg>
