<svg width="32" height="32" viewBox="0 0 32 32" fill="none" xmlns="http://www.w3.org/2000/svg">
    <path d="M16.0001 0.483643C7.44451 0.483643 0.483887 7.44427 0.483887 15.9999C0.483887 24.5555 7.44451 31.5161 16.0001 31.5161C24.5558 31.5161 31.5164 24.5555 31.5164 15.9999C31.5164 7.44427 24.5558 0.483643 16.0001 0.483643ZM19.8589 16.5461H17.3345C17.3345 20.5793 17.3345 25.5449 17.3345 25.5449H13.5939C13.5939 25.5449 13.5939 20.6274 13.5939 16.5461H11.8158V13.3661H13.5939V11.3093C13.5939 9.83614 14.2939 7.53427 17.3689 7.53427L20.1395 7.54489V10.6318C20.1395 10.6318 18.4551 10.6318 18.1276 10.6318C17.8001 10.6318 17.3351 10.7955 17.3351 11.498V13.3668H20.1851L19.8589 16.5461Z" fill="white"/>
</svg>
