<svg width="511" height="120" viewBox="0 0 511 120" fill="none" xmlns="http://www.w3.org/2000/svg">
<path d="M68.32 31.84V88H54.64V52.88L42.48 88H30.64L18.4 52.8V88H4.72V31.84H21.44L36.72 70.96L51.68 31.84H68.32ZM94.7269 42.8C98.1402 42.8 101.074 43.5733 103.527 45.12C105.98 46.6667 107.794 48.7733 108.967 51.44V43.36H122.567V88H108.967V79.92C107.794 82.5867 105.98 84.6933 103.527 86.24C101.074 87.7867 98.1402 88.56 94.7269 88.56C91.0469 88.56 87.7402 87.6533 84.8069 85.84C81.9269 83.9733 79.6335 81.3067 77.9269 77.84C76.2735 74.3733 75.4469 70.32 75.4469 65.68C75.4469 60.9867 76.2735 56.9333 77.9269 53.52C79.6335 50.0533 81.9269 47.4133 84.8069 45.6C87.7402 43.7333 91.0469 42.8 94.7269 42.8ZM99.1269 54.8C96.1935 54.8 93.8202 55.76 92.0069 57.68C90.2469 59.6 89.3669 62.2667 89.3669 65.68C89.3669 69.0933 90.2469 71.76 92.0069 73.68C93.8202 75.6 96.1935 76.56 99.1269 76.56C102.007 76.56 104.354 75.5733 106.167 73.6C108.034 71.6267 108.967 68.9867 108.967 65.68C108.967 62.32 108.034 59.68 106.167 57.76C104.354 55.7867 102.007 54.8 99.1269 54.8ZM130.706 30.8C130.706 28.72 131.452 27.0133 132.946 25.68C134.439 24.2933 136.412 23.6 138.866 23.6C141.319 23.6 143.292 24.2933 144.786 25.68C146.279 27.0133 147.026 28.72 147.026 30.8C147.026 32.8267 146.279 34.5333 144.786 35.92C143.292 37.2533 141.319 37.92 138.866 37.92C136.412 37.92 134.439 37.2533 132.946 35.92C131.452 34.5333 130.706 32.8267 130.706 30.8ZM145.666 43.36V88H131.986V43.36H145.666ZM183.431 42.88C188.551 42.88 192.604 44.5867 195.591 48C198.631 51.4133 200.151 56.1067 200.151 62.08V88H186.471V63.68C186.471 60.6933 185.671 58.3733 184.071 56.72C182.524 55.0133 180.444 54.16 177.831 54.16C175.057 54.16 172.844 55.04 171.191 56.8C169.591 58.56 168.791 61.0667 168.791 64.32V88H155.111V43.36H168.791V51.52C170.071 48.8533 171.964 46.7467 174.471 45.2C177.031 43.6533 180.017 42.88 183.431 42.88Z" fill="#081F32"/>
<path d="M248.32 42.08C253.44 42.08 257.493 43.7867 260.48 47.2C263.52 50.6133 265.04 55.3067 265.04 61.28V87.2H251.36V62.88C251.36 59.8933 250.56 57.5733 248.96 55.92C247.413 54.2133 245.333 53.36 242.72 53.36C239.947 53.36 237.733 54.24 236.08 56C234.48 57.76 233.68 60.2667 233.68 63.52V87.2H220V28H233.68V50.72C234.96 48.0533 236.853 45.9467 239.36 44.4C241.92 42.8533 244.907 42.08 248.32 42.08Z" fill="url(#paint0_linear)"/>
<path d="M316.463 63.68C316.463 64.8 316.329 66.0267 316.062 67.36H285.103C285.262 70.72 286.116 73.1467 287.662 74.64C289.209 76.08 291.182 76.8 293.582 76.8C295.609 76.8 297.289 76.2933 298.622 75.28C299.956 74.2667 300.836 72.96 301.262 71.36H315.743C315.156 74.5067 313.876 77.3333 311.902 79.84C309.929 82.2933 307.423 84.24 304.382 85.68C301.342 87.0667 297.956 87.76 294.223 87.76C289.849 87.76 285.956 86.8533 282.542 85.04C279.182 83.1733 276.542 80.5067 274.622 77.04C272.702 73.5733 271.743 69.52 271.743 64.88C271.743 60.1867 272.676 56.1333 274.542 52.72C276.462 49.2533 279.129 46.6133 282.542 44.8C285.956 42.9333 289.849 42 294.223 42C298.649 42 302.542 42.9067 305.902 44.72C309.262 46.5333 311.849 49.0933 313.662 52.4C315.529 55.6533 316.463 59.4133 316.463 63.68ZM302.622 61.6C302.676 58.6667 301.876 56.48 300.222 55.04C298.622 53.5467 296.623 52.8 294.223 52.8C291.716 52.8 289.636 53.5467 287.982 55.04C286.329 56.5333 285.396 58.72 285.183 61.6H302.622Z" fill="url(#paint1_linear)"/>
<path d="M340.554 42C343.967 42 346.9 42.7733 349.354 44.32C351.807 45.8667 353.62 47.9733 354.794 50.64V42.56H368.394V87.2H354.794V79.12C353.62 81.7867 351.807 83.8933 349.354 85.44C346.9 86.9867 343.967 87.76 340.554 87.76C336.874 87.76 333.567 86.8533 330.634 85.04C327.754 83.1733 325.46 80.5067 323.754 77.04C322.1 73.5733 321.274 69.52 321.274 64.88C321.274 60.1867 322.1 56.1333 323.754 52.72C325.46 49.2533 327.754 46.6133 330.634 44.8C333.567 42.9333 336.874 42 340.554 42ZM344.954 54C342.02 54 339.647 54.96 337.834 56.88C336.074 58.8 335.194 61.4667 335.194 64.88C335.194 68.2933 336.074 70.96 337.834 72.88C339.647 74.8 342.02 75.76 344.954 75.76C347.834 75.76 350.18 74.7733 351.994 72.8C353.86 70.8267 354.794 68.1867 354.794 64.88C354.794 61.52 353.86 58.88 351.994 56.96C350.18 54.9867 347.834 54 344.954 54Z" fill="url(#paint2_linear)"/>
<path d="M394.773 42C398.186 42 401.119 42.7733 403.572 44.32C406.026 45.8667 407.812 47.9733 408.932 50.64V28H422.613V87.2H408.932V79.12C407.812 81.7867 406.026 83.8933 403.572 85.44C401.119 86.9867 398.186 87.76 394.773 87.76C391.092 87.76 387.786 86.8533 384.852 85.04C381.972 83.1733 379.679 80.5067 377.973 77.04C376.319 73.5733 375.492 69.52 375.492 64.88C375.492 60.1867 376.319 56.1333 377.973 52.72C379.679 49.2533 381.972 46.6133 384.852 44.8C387.786 42.9333 391.092 42 394.773 42ZM399.173 54C396.239 54 393.866 54.96 392.053 56.88C390.293 58.8 389.413 61.4667 389.413 64.88C389.413 68.2933 390.293 70.96 392.053 72.88C393.866 74.8 396.239 75.76 399.173 75.76C402.053 75.76 404.399 74.7733 406.212 72.8C408.079 70.8267 409.012 68.1867 409.012 64.88C409.012 61.52 408.079 58.88 406.212 56.96C404.399 54.9867 402.053 54 399.173 54Z" fill="url(#paint3_linear)"/>
<path d="M474.431 63.68C474.431 64.8 474.298 66.0267 474.031 67.36H443.071C443.231 70.72 444.085 73.1467 445.631 74.64C447.178 76.08 449.151 76.8 451.551 76.8C453.578 76.8 455.258 76.2933 456.591 75.28C457.925 74.2667 458.805 72.96 459.231 71.36H473.711C473.125 74.5067 471.845 77.3333 469.871 79.84C467.898 82.2933 465.391 84.24 462.351 85.68C459.311 87.0667 455.925 87.76 452.191 87.76C447.818 87.76 443.925 86.8533 440.511 85.04C437.151 83.1733 434.511 80.5067 432.591 77.04C430.671 73.5733 429.711 69.52 429.711 64.88C429.711 60.1867 430.645 56.1333 432.511 52.72C434.431 49.2533 437.098 46.6133 440.511 44.8C443.925 42.9333 447.818 42 452.191 42C456.618 42 460.511 42.9067 463.871 44.72C467.231 46.5333 469.818 49.0933 471.631 52.4C473.498 55.6533 474.431 59.4133 474.431 63.68ZM460.591 61.6C460.645 58.6667 459.845 56.48 458.191 55.04C456.591 53.5467 454.591 52.8 452.191 52.8C449.685 52.8 447.605 53.5467 445.951 55.04C444.298 56.5333 443.365 58.72 443.151 61.6H460.591Z" fill="url(#paint4_linear)"/>
<path d="M495.242 50.96C496.949 48.24 499.136 46.08 501.802 44.48C504.522 42.88 507.456 42.08 510.603 42.08V56.72H506.682C503.056 56.72 500.229 57.4933 498.203 59.04C496.229 60.5867 495.242 63.2 495.242 66.88V87.2H481.562V42.56H495.242V50.96Z" fill="url(#paint5_linear)"/>
<defs>
<linearGradient id="paint0_linear" x1="365.301" y1="28" x2="365.301" y2="87.76" gradientUnits="userSpaceOnUse">
<stop stop-color="#FFAA45"/>
<stop offset="1" stop-color="#FF7A00"/>
</linearGradient>
<linearGradient id="paint1_linear" x1="365.301" y1="28" x2="365.301" y2="87.76" gradientUnits="userSpaceOnUse">
<stop stop-color="#FFAA45"/>
<stop offset="1" stop-color="#FF7A00"/>
</linearGradient>
<linearGradient id="paint2_linear" x1="365.301" y1="28" x2="365.301" y2="87.76" gradientUnits="userSpaceOnUse">
<stop stop-color="#FFAA45"/>
<stop offset="1" stop-color="#FF7A00"/>
</linearGradient>
<linearGradient id="paint3_linear" x1="365.301" y1="28" x2="365.301" y2="87.76" gradientUnits="userSpaceOnUse">
<stop stop-color="#FFAA45"/>
<stop offset="1" stop-color="#FF7A00"/>
</linearGradient>
<linearGradient id="paint4_linear" x1="365.301" y1="28" x2="365.301" y2="87.76" gradientUnits="userSpaceOnUse">
<stop stop-color="#FFAA45"/>
<stop offset="1" stop-color="#FF7A00"/>
</linearGradient>
<linearGradient id="paint5_linear" x1="365.301" y1="28" x2="365.301" y2="87.76" gradientUnits="userSpaceOnUse">
<stop stop-color="#FFAA45"/>
<stop offset="1" stop-color="#FF7A00"/>
</linearGradient>
</defs>
</svg>
