<svg width="175" height="151" viewBox="0 0 175 151" fill="none" xmlns="http://www.w3.org/2000/svg">
<path opacity="0.1" fill-rule="evenodd" clip-rule="evenodd" d="M70.6438 11.4982C88.7157 23.5437 91.2919 12.2213 120.635 12.2213C149.978 12.2213 163.902 21.2725 169.937 43.6372C175.971 66.0019 180.431 134.427 143.788 147.99C107.146 161.552 79.2329 114.63 46.5 118.5C13.7671 122.369 4.70041 90.0863 8 71C13 42.0863 43.4757 41.5282 34.5 23.4999C25.5243 5.4716 52.5719 -0.547326 70.6438 11.4982Z" fill="url(#paint0_linear_504_588)"/>
<path fill-rule="evenodd" clip-rule="evenodd" d="M43.5649 89.0004C44.0432 91.1107 44.4043 92.8426 44.6471 94.193C44.89 95.5446 45.0231 96.5597 45.0231 97.1945C45.0231 98.8257 44.6992 100.421 44.059 101.976L53.6481 100.7L53.8397 102.139L41.542 103.776L42.1967 102.533C43.1184 100.783 43.5715 99.0061 43.5715 97.1945C43.5715 96.7031 43.4616 95.8029 43.2184 94.4498C42.978 93.1128 42.6161 91.3777 42.1311 89.2414L42.1131 89.1621V89.0807C42.1131 79.8612 49.587 72.3872 58.8066 72.3872C68.0262 72.3872 75.5002 79.8612 75.5002 89.0807V89.1797L75.4737 89.275C74.3868 93.189 73.8735 95.803 73.8735 97.1945C73.8735 98.5987 74.3654 100.376 75.4268 102.553L76.0167 103.763L63.4049 102.139L63.5903 100.7L73.5728 101.985C72.8198 100.203 72.4219 98.6011 72.4219 97.1945C72.4219 95.5912 72.9837 92.8289 74.0483 88.9831C73.9957 80.6102 67.1919 73.8388 58.8066 73.8388C50.4155 73.8388 43.6082 80.6195 43.5649 89.0004Z" fill="#FF6B00"/>
<path fill-rule="evenodd" clip-rule="evenodd" d="M93.352 72.3875C93.359 72.3873 93.366 72.3872 93.373 72.3872H98.7258C102.333 72.3872 105.258 75.3118 105.258 78.9195V89.3076C105.258 94.3934 101.135 98.5162 96.0494 98.5162C90.9636 98.5162 86.8407 94.3934 86.8407 89.3076V83.5084H82.0637C81.8328 83.5084 81.6156 83.3985 81.4788 83.2125C81.3421 83.0264 81.302 82.7863 81.371 82.5659C82.4576 79.0934 84.0146 76.4986 86.1 74.8859C88.1565 73.2956 90.5841 72.4675 93.352 72.3875ZM95.3637 82.0568C95.7646 82.0568 96.0895 82.3818 96.0895 82.7826C96.0895 83.1835 95.7646 83.5084 95.3637 83.5084H88.2923V89.3076C88.2923 93.5917 91.7653 97.0646 96.0494 97.0646C100.333 97.0646 103.806 93.5917 103.806 89.3076V78.9195C103.806 76.1135 101.532 73.8388 98.7258 73.8388H93.3836C90.9011 73.9125 88.7794 74.649 86.988 76.0343C85.3957 77.2656 84.076 79.2476 83.0717 82.0568H95.3637Z" fill="#FF6B00"/>
<path fill-rule="evenodd" clip-rule="evenodd" d="M132.113 73.8388C128.906 73.8388 126.306 76.4385 126.306 79.6453V89.4436C126.306 93.6526 129.718 97.0646 133.927 97.0646C138.136 97.0646 141.548 93.6526 141.548 89.4436V79.6453C141.548 76.4385 138.948 73.8388 135.742 73.8388H132.113ZM124.854 79.6453C124.854 75.6368 128.104 72.3872 132.113 72.3872H135.742C139.75 72.3872 143 75.6368 143 79.6453V89.4436C143 94.4543 138.938 98.5162 133.927 98.5162C128.916 98.5162 124.854 94.4543 124.854 89.4436V79.6453Z" fill="#FF6B00"/>
<path fill-rule="evenodd" clip-rule="evenodd" d="M56.9727 127.548V113.89H58.4243V127.548H56.9727Z" fill="#FFB176"/>
<path fill-rule="evenodd" clip-rule="evenodd" d="M94.5156 107.952H95.9672V116.108L96.4995 117.053L96.9457 116.132V107.952H98.3974V116.465L96.5963 120.182L94.5156 116.489V107.952Z" fill="#FFB176"/>
<path fill-rule="evenodd" clip-rule="evenodd" d="M132.258 107.952H133.709V116.108L134.242 117.053L134.688 116.132V107.952H136.14V116.465L134.338 120.182L132.258 116.489V107.952Z" fill="#FFB176"/>
<path fill-rule="evenodd" clip-rule="evenodd" d="M59.1504 127.548V113.89H60.602V127.548H59.1504Z" fill="#FFB176"/>
<path fill-rule="evenodd" clip-rule="evenodd" d="M50.8227 85.0845V91.6208C50.8227 95.8298 54.2347 99.2418 58.4437 99.2418C62.6526 99.2418 66.0646 95.8298 66.0646 91.6208V90.7805H67.5163V91.6208C67.5163 96.6315 63.4543 100.693 58.4437 100.693C53.433 100.693 49.3711 96.6315 49.3711 91.6208V85.0845H50.8227Z" fill="#FF6B00"/>
<path fill-rule="evenodd" clip-rule="evenodd" d="M140.632 80.3315C140.852 80.6668 140.758 81.1167 140.423 81.3364L134.325 85.3327C134.094 85.4841 133.797 85.4913 133.559 85.3512L127.166 81.589C126.821 81.3857 126.706 80.9408 126.909 80.5954C127.112 80.2499 127.557 80.1347 127.903 80.338L133.906 83.8714L139.628 80.1222C139.963 79.9025 140.413 79.9962 140.632 80.3315Z" fill="#FF6B00"/>
<path fill-rule="evenodd" clip-rule="evenodd" d="M48.5731 83.044C48.9088 82.8248 49.3585 82.9192 49.5777 83.2548C51.0214 85.4652 53.5787 87.0032 57.4059 87.7756C58.819 88.0608 60.0095 88.2208 61.0913 88.3662L61.1807 88.3783C62.2784 88.5259 63.2889 88.664 64.2749 88.9137C66.2948 89.4251 68.1558 90.3897 70.6963 92.7194C70.9918 92.9903 71.0117 93.4494 70.7407 93.7449C70.4698 94.0403 70.0107 94.0602 69.7153 93.7893C67.3092 91.5829 65.6553 90.7606 63.9186 90.3209C63.0262 90.0949 62.0979 89.9663 60.9872 89.8169C60.9547 89.8125 60.922 89.8082 60.8892 89.8037C59.8099 89.6587 58.5791 89.4933 57.1187 89.1985C53.0609 88.3796 50.0901 86.6939 48.3623 84.0486C48.1432 83.7129 48.2375 83.2632 48.5731 83.044Z" fill="#FF6B00"/>
<path fill-rule="evenodd" clip-rule="evenodd" d="M54.4516 98.5161V105.321C54.4516 105.765 54.6082 106.525 54.9164 107.467C55.218 108.389 55.6433 109.421 56.1318 110.385C56.6228 111.353 57.1631 112.224 57.6866 112.841C57.9485 113.15 58.1888 113.374 58.3979 113.516C58.6108 113.661 58.7436 113.689 58.8065 113.689C58.8636 113.689 58.9795 113.665 59.1634 113.53C59.347 113.396 59.5574 113.18 59.7851 112.876C60.2404 112.267 60.6926 111.403 61.0954 110.434C61.4955 109.472 61.8336 108.439 62.0709 107.513C62.3116 106.573 62.4355 105.792 62.4355 105.321V98.5161H63.8871V105.321C63.8871 105.976 63.7272 106.896 63.4771 107.873C63.2235 108.863 62.8637 109.962 62.4357 110.992C62.0103 112.015 61.5041 113.001 60.9475 113.745C60.6692 114.117 60.3602 114.453 60.0207 114.702C59.6815 114.95 59.2704 115.14 58.8065 115.14C58.3482 115.14 57.9314 114.954 57.5815 114.716C57.2277 114.476 56.892 114.148 56.5798 113.78C55.9553 113.044 55.3557 112.064 54.8371 111.041C54.316 110.013 53.862 108.913 53.5367 107.918C53.2179 106.944 53 106.004 53 105.321V98.5161H54.4516Z" fill="#FF6B00"/>
<path fill-rule="evenodd" clip-rule="evenodd" d="M92.1938 96.3386V103.597C92.1938 105.702 93.6526 107.226 95.2422 107.226H97.1293C98.7188 107.226 100.178 105.702 100.178 103.597V96.3386H101.629V103.597C101.629 106.302 99.7086 108.677 97.1293 108.677H95.2422C92.6629 108.677 90.7422 106.302 90.7422 103.597V96.3386H92.1938Z" fill="#FF6B00"/>
<path fill-rule="evenodd" clip-rule="evenodd" d="M129.935 96.3386V103.597C129.935 105.702 131.394 107.226 132.983 107.226H134.87C136.46 107.226 137.919 105.702 137.919 103.597V96.3386H139.37V103.597C139.37 106.302 137.45 108.677 134.87 108.677H132.983C130.404 108.677 128.483 106.302 128.483 103.597V96.3386H129.935Z" fill="#FF6B00"/>
<path fill-rule="evenodd" clip-rule="evenodd" d="M47.1931 105.774C43.1846 105.774 39.935 109.024 39.935 113.032V126.823H78.4028V128.274H38.4834V113.032C38.4834 108.222 42.3829 104.323 47.1931 104.323H53.6997V105.774H47.1931ZM70.4189 105.774H63.2075V104.323H70.4189C73.6849 104.323 76.53 106.12 78.0201 108.777L76.754 109.487C75.5103 107.27 73.1388 105.774 70.4189 105.774Z" fill="#FF6B00"/>
<path fill-rule="evenodd" clip-rule="evenodd" d="M84.9353 104.322C80.9267 104.322 77.6772 107.572 77.6772 111.581V126.822H115.419V111.581C115.419 107.572 112.17 104.322 108.161 104.322H100.95V102.871H108.161C112.971 102.871 116.871 106.77 116.871 111.581V128.274H76.2256V111.581C76.2256 106.77 80.125 102.871 84.9353 102.871H91.4418V104.322H84.9353Z" fill="#FF6B00"/>
<path fill-rule="evenodd" clip-rule="evenodd" d="M122.677 104.322C119.777 104.322 117.272 106.024 116.11 108.487L114.797 107.867C116.19 104.916 119.194 102.871 122.677 102.871H129.184V104.322H122.677ZM145.903 104.322H138.692V102.871H145.903C150.713 102.871 154.613 106.77 154.613 111.581V128.274H114.693V126.822H153.161V111.581C153.161 107.572 149.912 104.322 145.903 104.322Z" fill="#FF6B00"/>
<path fill-rule="evenodd" clip-rule="evenodd" d="M47.0688 117.734V127.548H45.6172V117.734H47.0688Z" fill="#FF6B00"/>
<path fill-rule="evenodd" clip-rule="evenodd" d="M72.4721 117.734V127.548H71.0205V117.734H72.4721Z" fill="#FF6B00"/>
<path fill-rule="evenodd" clip-rule="evenodd" d="M84.977 117.734V127.548H83.5254V117.734H84.977Z" fill="#FF6B00"/>
<path fill-rule="evenodd" clip-rule="evenodd" d="M109.655 117.734V127.548H108.203V117.734H109.655Z" fill="#FF6B00"/>
<path fill-rule="evenodd" clip-rule="evenodd" d="M121.994 117.734V127.548H120.542V117.734H121.994Z" fill="#FF6B00"/>
<path fill-rule="evenodd" clip-rule="evenodd" d="M147.397 117.734V127.548H145.945V117.734H147.397Z" fill="#FF6B00"/>
<path fill-rule="evenodd" clip-rule="evenodd" d="M90.0161 44.8745C90.0161 45.4603 90.3682 45.9887 90.9088 46.2142L90.9088 46.2142C92.6797 46.953 94.4371 47.3172 96.1854 47.3172C97.9338 47.3172 99.6911 46.953 101.462 46.2142C102.003 45.9887 102.355 45.4603 102.355 44.8745H103.806C103.806 46.0461 103.102 47.1029 102.021 47.554C100.088 48.3604 98.1411 48.7688 96.1854 48.7688C94.2297 48.7688 92.283 48.3604 90.3499 47.554C89.2686 47.1029 88.5645 46.0461 88.5645 44.8745H90.0161Z" fill="#FFB176"/>
<path fill-rule="evenodd" clip-rule="evenodd" d="M90.0161 40.5195C90.0161 41.1053 90.3682 41.6337 90.9088 41.8592L90.9088 41.8593C92.6797 42.598 94.4371 42.9622 96.1854 42.9622C97.9338 42.9622 99.6911 42.598 101.462 41.8593C102.003 41.6337 102.355 41.1053 102.355 40.5195H103.806C103.806 41.6911 103.102 42.7479 102.021 43.199C100.088 44.0054 98.1411 44.4138 96.1854 44.4138C94.2297 44.4138 92.283 44.0054 90.3499 43.199C89.2686 42.7479 88.5645 41.6911 88.5645 40.5195H90.0161Z" fill="#FFB176"/>
<path fill-rule="evenodd" clip-rule="evenodd" d="M90.0161 38.2742V48.5034C90.0161 49.0892 90.3682 49.6176 90.9088 49.8431L90.6365 50.496L90.9088 49.8432C92.6797 50.5819 94.4371 50.9461 96.1854 50.9461C97.9338 50.9461 99.6911 50.5819 101.462 49.8432C102.003 49.6176 102.355 49.0892 102.355 48.5034V38.2742H103.806V48.5034C103.806 49.675 103.102 50.7318 102.021 51.1829C100.088 51.9893 98.1411 52.3977 96.1854 52.3977C94.2297 52.3977 92.283 51.9893 90.3499 51.1829L90.6294 50.513L90.3499 51.1829C89.2686 50.7318 88.5645 49.675 88.5645 48.5034V38.2742H90.0161Z" fill="#FF6B00"/>
<path fill-rule="evenodd" clip-rule="evenodd" d="M90.3975 28.3672C90.3975 27.9663 90.7224 27.6414 91.1233 27.6414H101.388C101.789 27.6414 102.114 27.9663 102.114 28.3672C102.114 28.768 101.789 29.093 101.388 29.093H96.9113V39.7258C96.9113 40.1267 96.5864 40.4517 96.1855 40.4517C95.7847 40.4517 95.4597 40.1267 95.4597 39.7258V29.093H91.1233C90.7224 29.093 90.3975 28.768 90.3975 28.3672Z" fill="#FFB176"/>
<path fill-rule="evenodd" clip-rule="evenodd" d="M96.1859 10.6936C88.3693 10.6936 82.0327 17.0302 82.0327 24.8468C82.0327 32.6634 88.3693 39 96.1859 39C104.003 39 110.339 32.6634 110.339 24.8468C110.339 17.0302 104.003 10.6936 96.1859 10.6936ZM80.5811 24.8468C80.5811 16.2285 87.5676 9.24194 96.1859 9.24194C104.804 9.24194 111.791 16.2285 111.791 24.8468C111.791 33.4651 104.804 40.4516 96.1859 40.4516C87.5676 40.4516 80.5811 33.4651 80.5811 24.8468Z" fill="#FF6B00"/>
<path fill-rule="evenodd" clip-rule="evenodd" d="M70.6973 26.3769C70.6973 25.9761 71.0222 25.6511 71.4231 25.6511H76.1569C76.5578 25.6511 76.8827 25.9761 76.8827 26.3769C76.8827 26.7778 76.5578 27.1027 76.1569 27.1027H71.4231C71.0222 27.1027 70.6973 26.7778 70.6973 26.3769Z" fill="#FFB176"/>
<path fill-rule="evenodd" clip-rule="evenodd" d="M115.697 26.3769C115.697 25.9761 116.022 25.6511 116.423 25.6511H121.157C121.558 25.6511 121.883 25.9761 121.883 26.3769C121.883 26.7778 121.558 27.1027 121.157 27.1027H116.423C116.022 27.1027 115.697 26.7778 115.697 26.3769Z" fill="#FFB176"/>
<path fill-rule="evenodd" clip-rule="evenodd" d="M78.7377 7.68706C79.0324 7.41535 79.4916 7.43399 79.7633 7.72871L82.597 10.8023C82.8687 11.097 82.8501 11.5561 82.5554 11.8279C82.2607 12.0996 81.8015 12.0809 81.5298 11.7862L78.6961 8.71266C78.4244 8.41795 78.443 7.95877 78.7377 7.68706Z" fill="#FFB176"/>
<path fill-rule="evenodd" clip-rule="evenodd" d="M113.765 7.68706C113.47 7.41535 113.011 7.43399 112.74 7.72871L109.906 10.8023C109.634 11.097 109.653 11.5561 109.948 11.8279C110.242 12.0996 110.701 12.0809 110.973 11.7862L113.807 8.71266C114.079 8.41795 114.06 7.95877 113.765 7.68706Z" fill="#FFB176"/>
<path fill-rule="evenodd" clip-rule="evenodd" d="M96.2551 0.812744C96.656 0.812744 96.9809 1.1377 96.9809 1.53855V5.33449C96.9809 5.73534 96.656 6.0603 96.2551 6.0603C95.8543 6.0603 95.5293 5.73534 95.5293 5.33449V1.53855C95.5293 1.1377 95.8543 0.812744 96.2551 0.812744Z" fill="#FFB176"/>
<path fill-rule="evenodd" clip-rule="evenodd" d="M57.6992 69.1727V52.5603H59.1508V69.1727H57.6992Z" fill="#FFD3B3"/>
<path fill-rule="evenodd" clip-rule="evenodd" d="M133.183 69.1727V52.5603H134.634V69.1727H133.183Z" fill="#FFD3B3"/>
<path fill-rule="evenodd" clip-rule="evenodd" d="M95.4404 70.6242V63.4473H96.892V70.6242H95.4404Z" fill="#FFD3B3"/>
<path d="M170.312 49.9574C171.021 49.9574 171.673 49.8202 172.268 49.5456C172.863 49.2711 173.343 48.8936 173.709 48.4132C174.075 47.9327 174.258 47.3837 174.258 46.766C174.258 46.3198 174.181 45.9309 174.026 45.5992C173.872 45.2674 173.64 44.9757 173.331 44.7241C173.617 44.4496 173.843 44.1378 174.009 43.789C174.175 43.4401 174.258 43.0597 174.258 42.6479C174.258 41.9272 174.058 41.3496 173.658 40.9149C173.257 40.4802 172.662 40.0856 171.873 39.731L170.294 39.0103C169.825 38.793 169.425 38.5642 169.093 38.324C168.762 38.0837 168.596 37.7348 168.596 37.2773C168.596 36.8655 168.722 36.528 168.973 36.2649C169.225 36.0018 169.537 35.8102 169.908 35.6901C170.28 35.57 170.638 35.51 170.981 35.51C171.518 35.51 172.016 35.6158 172.474 35.8274C172.931 36.039 173.32 36.2649 173.64 36.5051V34.9094C173.309 34.6921 172.923 34.4862 172.482 34.2917C172.042 34.0972 171.484 34 170.809 34C170.134 34 169.505 34.143 168.922 34.429C168.338 34.7149 167.872 35.101 167.523 35.5872C167.174 36.0733 167 36.6195 167 37.2258C167 37.6491 167.06 38.0351 167.18 38.384C167.3 38.7329 167.509 39.0561 167.806 39.3535C167.555 39.628 167.357 39.934 167.214 40.2714C167.071 40.6089 167 40.9664 167 41.3439C167 41.9844 167.149 42.5507 167.446 43.0426C167.744 43.5344 168.304 43.9634 169.128 44.3294L171.032 45.1874C171.272 45.2903 171.518 45.4162 171.77 45.5649C172.022 45.7136 172.236 45.8909 172.414 46.0968C172.591 46.3027 172.679 46.5486 172.679 46.8346C172.679 47.3379 172.462 47.7326 172.027 48.0185C171.593 48.3045 171.089 48.4475 170.517 48.4475C169.785 48.4475 169.131 48.3245 168.553 48.0786C167.975 47.8326 167.463 47.5553 167.017 47.2464V48.8421C167.429 49.1281 167.915 49.3855 168.476 49.6143C169.036 49.8431 169.648 49.9574 170.312 49.9574ZM172.01 43.9176C171.965 43.8948 171.919 43.8719 171.873 43.849L170.294 43.1283C169.825 42.911 169.425 42.6822 169.093 42.442C168.762 42.2018 168.596 41.8529 168.596 41.3953C168.596 41.1437 168.647 40.9206 168.75 40.7262C168.853 40.5317 168.99 40.3658 169.162 40.2286L171.032 41.0693C171.272 41.1723 171.518 41.2981 171.77 41.4468C172.022 41.5955 172.236 41.7728 172.414 41.9787C172.591 42.1846 172.679 42.4306 172.679 42.7165C172.679 42.9796 172.619 43.2113 172.499 43.4115C172.379 43.6116 172.216 43.7804 172.01 43.9176Z" fill="#FFD3B3"/>
<path d="M28.3116 74.9574C29.0208 74.9574 29.6728 74.8202 30.2677 74.5456C30.8625 74.2711 31.3429 73.8936 31.709 73.4132C32.075 72.9327 32.2581 72.3837 32.2581 71.766C32.2581 71.3198 32.1808 70.9309 32.0264 70.5992C31.872 70.2674 31.6404 69.9757 31.3315 69.7241C31.6175 69.4496 31.8434 69.1378 32.0093 68.789C32.1751 68.4401 32.2581 68.0597 32.2581 67.6479C32.2581 66.9272 32.0579 66.3496 31.6575 65.9149C31.2571 65.4802 30.6623 65.0856 29.873 64.731L28.2944 64.0103C27.8254 63.793 27.4251 63.5642 27.0933 63.324C26.7616 63.0837 26.5957 62.7348 26.5957 62.2773C26.5957 61.8655 26.7216 61.528 26.9732 61.2649C27.2249 61.0018 27.5366 60.8102 27.9084 60.6901C28.2801 60.57 28.6376 60.51 28.9808 60.51C29.5184 60.51 30.016 60.6158 30.4736 60.8274C30.9311 61.039 31.3201 61.2649 31.6404 61.5051V59.9094C31.3086 59.6921 30.9226 59.4862 30.4822 59.2917C30.0418 59.0972 29.4841 59 28.8092 59C28.1343 59 27.5051 59.143 26.9218 59.429C26.3384 59.7149 25.8722 60.101 25.5233 60.5872C25.1744 61.0733 25 61.6195 25 62.2258C25 62.6491 25.0601 63.0351 25.1802 63.384C25.3003 63.7329 25.509 64.0561 25.8065 64.3535C25.5548 64.628 25.3575 64.934 25.2145 65.2714C25.0715 65.6089 25 65.9664 25 66.3439C25 66.9844 25.1487 67.5507 25.4461 68.0426C25.7435 68.5344 26.304 68.9634 27.1277 69.3294L29.0323 70.1874C29.2725 70.2903 29.5184 70.4162 29.7701 70.5649C30.0217 70.7136 30.2362 70.8909 30.4135 71.0968C30.5908 71.3027 30.6795 71.5486 30.6795 71.8346C30.6795 72.3379 30.4621 72.7326 30.0275 73.0185C29.5928 73.3045 29.0895 73.4475 28.5175 73.4475C27.7854 73.4475 27.1305 73.3245 26.5528 73.0786C25.9752 72.8326 25.4633 72.5553 25.0172 72.2464V73.8421C25.429 74.1281 25.9151 74.3855 26.4756 74.6143C27.0361 74.8431 27.6481 74.9574 28.3116 74.9574ZM30.0103 68.9176C29.9645 68.8948 29.9188 68.8719 29.873 68.849L28.2944 68.1283C27.8254 67.911 27.4251 67.6822 27.0933 67.442C26.7616 67.2018 26.5957 66.8529 26.5957 66.3953C26.5957 66.1437 26.6472 65.9206 26.7502 65.7262C26.8531 65.5317 26.9904 65.3658 27.162 65.2286L29.0323 66.0693C29.2725 66.1723 29.5184 66.2981 29.7701 66.4468C30.0217 66.5955 30.2362 66.7728 30.4135 66.9787C30.5908 67.1846 30.6795 67.4306 30.6795 67.7165C30.6795 67.9796 30.6194 68.2113 30.4993 68.4115C30.3792 68.6116 30.2162 68.7804 30.0103 68.9176Z" fill="#FFB176"/>
<path d="M160.649 83.7659C161.217 83.7659 161.738 83.6561 162.214 83.4365C162.69 83.2169 163.074 82.9149 163.367 82.5305C163.66 82.1462 163.806 81.7069 163.806 81.2128C163.806 80.8559 163.745 80.5447 163.621 80.2793C163.498 80.0139 163.312 79.7806 163.065 79.5793C163.294 79.3596 163.475 79.1103 163.607 78.8312C163.74 78.552 163.806 78.2478 163.806 77.9183C163.806 77.3418 163.646 76.8797 163.326 76.5319C163.006 76.1842 162.53 75.8684 161.898 75.5848L160.636 75.0082C160.26 74.8344 159.94 74.6513 159.675 74.4592C159.409 74.267 159.277 73.9879 159.277 73.6218C159.277 73.2924 159.377 73.0224 159.579 72.8119C159.78 72.6015 160.029 72.4482 160.327 72.3521C160.624 72.256 160.91 72.208 161.185 72.208C161.615 72.208 162.013 72.2926 162.379 72.4619C162.745 72.6312 163.056 72.8119 163.312 73.0041V71.7275C163.047 71.5536 162.738 71.3889 162.386 71.2334C162.033 71.0778 161.587 71 161.047 71C160.507 71 160.004 71.1144 159.537 71.3432C159.071 71.572 158.698 71.8808 158.419 72.2697C158.14 72.6587 158 73.0956 158 73.5806C158 73.9192 158.048 74.2281 158.144 74.5072C158.24 74.7863 158.407 75.0448 158.645 75.2828C158.444 75.5024 158.286 75.7472 158.172 76.0172C158.057 76.2871 158 76.5731 158 76.8751C158 77.3875 158.119 77.8405 158.357 78.234C158.595 78.6275 159.043 78.9707 159.702 79.2635L161.226 79.9499C161.418 80.0323 161.615 80.1329 161.816 80.2519C162.017 80.3709 162.189 80.5127 162.331 80.6774C162.473 80.8421 162.544 81.0389 162.544 81.2677C162.544 81.6703 162.37 81.986 162.022 82.2148C161.674 82.4436 161.272 82.558 160.814 82.558C160.228 82.558 159.704 82.4596 159.242 82.2629C158.78 82.0661 158.371 81.8442 158.014 81.5971V82.8737C158.343 83.1025 158.732 83.3084 159.181 83.4914C159.629 83.6744 160.119 83.7659 160.649 83.7659ZM162.008 78.9341C161.972 78.9158 161.935 78.8975 161.898 78.8792L160.636 78.3027C160.26 78.1288 159.94 77.9458 159.675 77.7536C159.409 77.5614 159.277 77.2823 159.277 76.9163C159.277 76.7149 159.318 76.5365 159.4 76.3809C159.482 76.2253 159.592 76.0927 159.73 75.9828L161.226 76.6555C161.418 76.7378 161.615 76.8385 161.816 76.9574C162.017 77.0764 162.189 77.2183 162.331 77.383C162.473 77.5477 162.544 77.7445 162.544 77.9732C162.544 78.1837 162.496 78.369 162.399 78.5292C162.303 78.6893 162.173 78.8243 162.008 78.9341Z" fill="#FFB176"/>
<path d="M2.64928 107.766C3.21665 107.766 3.73827 107.656 4.21414 107.437C4.69 107.217 5.07435 106.915 5.36719 106.531C5.66003 106.146 5.80645 105.707 5.80645 105.213C5.80645 104.856 5.74468 104.545 5.62114 104.279C5.4976 104.014 5.31228 103.781 5.0652 103.579C5.29398 103.36 5.47472 103.11 5.60741 102.831C5.7401 102.552 5.80645 102.248 5.80645 101.918C5.80645 101.342 5.6463 100.88 5.32601 100.532C5.00572 100.184 4.52986 99.8685 3.89842 99.5848L2.63555 99.0082C2.26035 98.8344 1.94006 98.6513 1.67467 98.4592C1.40929 98.267 1.2766 97.9879 1.2766 97.6218C1.2766 97.2924 1.37726 97.0224 1.57859 96.8119C1.77991 96.6015 2.02928 96.4482 2.3267 96.3521C2.62411 96.256 2.91009 96.208 3.18463 96.208C3.61473 96.208 4.01281 96.2926 4.37886 96.4619C4.74491 96.6312 5.05605 96.8119 5.31228 97.0041V95.7275C5.0469 95.5536 4.73805 95.3889 4.38572 95.2334C4.0334 95.0778 3.58728 95 3.04736 95C2.50744 95 2.00412 95.1144 1.53741 95.3432C1.07069 95.572 0.697781 95.8808 0.418668 96.2697C0.139556 96.6587 0 97.0956 0 97.5806C0 97.9192 0.0480439 98.2281 0.144132 98.5072C0.24022 98.7863 0.407229 99.0448 0.645161 99.2828C0.443834 99.5024 0.285976 99.7472 0.171585 100.017C0.0571951 100.287 0 100.573 0 100.875C0 101.388 0.118966 101.841 0.356898 102.234C0.594829 102.628 1.04324 102.971 1.70213 103.264L3.22581 103.95C3.41798 104.032 3.61473 104.133 3.81606 104.252C4.01739 104.371 4.18897 104.513 4.33082 104.677C4.47266 104.842 4.54358 105.039 4.54358 105.268C4.54358 105.67 4.36971 105.986 4.02196 106.215C3.67422 106.444 3.27156 106.558 2.814 106.558C2.22832 106.558 1.70442 106.46 1.24228 106.263C0.780142 106.066 0.370625 105.844 0.0137268 105.597V106.874C0.343171 107.103 0.732098 107.308 1.18051 107.491C1.62892 107.674 2.11851 107.766 2.64928 107.766ZM4.00824 102.934C3.97163 102.916 3.93503 102.898 3.89842 102.879L2.63555 102.303C2.26035 102.129 1.94006 101.946 1.67467 101.754C1.40929 101.561 1.2766 101.282 1.2766 100.916C1.2766 100.715 1.31778 100.536 1.40014 100.381C1.4825 100.225 1.59231 100.093 1.72958 99.9828L3.22581 100.655C3.41798 100.738 3.61473 100.838 3.81606 100.957C4.01739 101.076 4.18897 101.218 4.33082 101.383C4.47266 101.548 4.54358 101.744 4.54358 101.973C4.54358 102.184 4.49554 102.369 4.39945 102.529C4.30336 102.689 4.17296 102.824 4.00824 102.934Z" fill="#FFD3B3"/>
<path fill-rule="evenodd" clip-rule="evenodd" d="M42.1133 10.6936C42.1133 10.2927 42.4382 9.96777 42.8391 9.96777H61.9632C62.364 9.96777 62.689 10.2927 62.689 10.6936C62.689 11.0944 62.364 11.4194 61.9632 11.4194H42.8391C42.4382 11.4194 42.1133 11.0944 42.1133 10.6936Z" fill="#FFD3B3"/>
<path fill-rule="evenodd" clip-rule="evenodd" d="M130.307 10.6936C130.307 10.2927 130.632 9.96777 131.032 9.96777H150.157C150.557 9.96777 150.882 10.2927 150.882 10.6936C150.882 11.0944 150.557 11.4194 150.157 11.4194H131.032C130.632 11.4194 130.307 11.0944 130.307 10.6936Z" fill="#FFD3B3"/>
<path fill-rule="evenodd" clip-rule="evenodd" d="M42.1133 17.9516C42.1133 17.5508 42.4382 17.2258 42.8391 17.2258H53.7262C54.127 17.2258 54.452 17.5508 54.452 17.9516C54.452 18.3525 54.127 18.6774 53.7262 18.6774H42.8391C42.4382 18.6774 42.1133 18.3525 42.1133 17.9516Z" fill="#FFD3B3"/>
<path fill-rule="evenodd" clip-rule="evenodd" d="M138.646 17.9516C138.646 17.5508 138.97 17.2258 139.371 17.2258H150.258C150.659 17.2258 150.984 17.5508 150.984 17.9516C150.984 18.3525 150.659 18.6774 150.258 18.6774H139.371C138.97 18.6774 138.646 18.3525 138.646 17.9516Z" fill="#FFD3B3"/>
<path d="M34.0421 2.88696C31.0885 8.66956 30.8739 14.943 33.3982 21.7073C35.9225 28.4715 41.4889 32.8771 50.0971 34.924C50.8811 41.5776 54.1409 45.9785 59.8766 48.1267C65.6123 50.2748 70.5783 49.464 74.7746 45.6943C76.4491 51.4629 79.1509 55.4507 82.88 57.6578C86.6091 59.8648 91.0444 60.9683 96.1858 60.9683C101.327 60.9683 91.1086 60.9683 96.2501 60.9683C101.392 60.9683 105.827 59.8648 109.556 57.6578C113.285 55.4507 115.987 51.4629 117.661 45.6943C121.858 49.464 126.824 50.2748 132.559 48.1267C138.295 45.9785 141.555 41.5776 142.339 34.924C150.947 32.8771 156.513 28.4715 159.038 21.7073C161.562 14.943 161.347 8.66956 158.394 2.88696" stroke="#FF6B00" stroke-width="1.5" stroke-linecap="round"/>
<defs>
<linearGradient id="paint0_linear_504_588" x1="90.6822" y1="5.22852" x2="90.6822" y2="150.458" gradientUnits="userSpaceOnUse">
<stop stop-color="#FFAA45"/>
<stop offset="1" stop-color="#FF7A00"/>
</linearGradient>
</defs>
</svg>
