<svg width="160" height="194" viewBox="0 0 160 194" fill="none" xmlns="http://www.w3.org/2000/svg">
<g clip-path="url(#clip0)">
<path opacity="0.1" fill-rule="evenodd" clip-rule="evenodd" d="M84.236 48.7528C111.283 92.7392 142.458 54.0394 155.112 84.7434C167.766 115.447 150.756 153.391 93.0565 163.93C35.3575 174.47 9.41252 134.804 9.41252 90.7937C9.41252 46.7833 57.1891 4.76647 84.236 48.7528Z" fill="url(#paint0_linear)"/>
<path fill-rule="evenodd" clip-rule="evenodd" d="M45.3865 87.9448C46.4565 87.5163 47.6712 88.0364 48.0997 89.1064L48.2703 89.5324L48.2697 89.533C52.3627 99.8466 54.4367 108.439 54.4367 115.286C54.4367 122.81 53.5432 130.649 51.7598 138.801L51.6402 139.348H41.3498L41.2069 138.841C39.0224 131.094 37.9297 123.242 37.9297 115.286C37.9297 107.983 40.0474 99.2438 44.2327 89.0871C44.4473 88.5662 44.8635 88.1542 45.3865 87.9448ZM46.8069 89.6207C46.663 89.266 46.2594 89.094 45.9037 89.2364C45.7293 89.3062 45.5906 89.4435 45.5191 89.6172C41.3704 99.6849 39.321 108.235 39.321 115.286C39.321 122.939 40.3486 130.496 42.4047 137.957H50.5191C52.2044 130.088 53.0454 122.532 53.0454 115.286C53.0454 108.601 50.9853 100.056 46.8081 89.6236L46.8069 89.6207Z" fill="#FF6B00"/>
<path fill-rule="evenodd" clip-rule="evenodd" d="M119.126 87.9448C120.196 87.5163 121.411 88.0364 121.839 89.1064L121.889 89.2309C126.061 99.6788 128.176 108.373 128.176 115.286C128.176 122.81 127.282 130.649 125.499 138.801L125.379 139.348H115.089L114.946 138.841C112.762 131.094 111.669 123.242 111.669 115.286C111.669 107.983 113.787 99.2438 117.972 89.0871C118.187 88.5662 118.603 88.1542 119.126 87.9448ZM120.547 89.622C120.403 89.2664 119.999 89.0938 119.643 89.2364C119.469 89.3062 119.33 89.4435 119.258 89.6172C115.11 99.6849 113.06 108.235 113.06 115.286C113.06 122.939 114.088 130.496 116.144 137.957H124.258C125.944 130.088 126.785 122.532 126.785 115.286C126.785 108.601 124.725 100.056 120.547 89.6236C120.547 89.6231 120.547 89.6226 120.547 89.622Z" fill="#FF6B00"/>
<path fill-rule="evenodd" clip-rule="evenodd" d="M82.2456 26.1366C83.2331 25.5422 84.5155 25.861 85.1098 26.8485L85.4978 27.493L85.4967 27.4935C94.4414 42.4594 100.119 55.6373 102.493 67.018C106.25 85.0297 103.728 106.619 102.502 116.16C101.677 122.582 99.8642 130.152 97.0726 138.864L96.9177 139.348H70.6724L70.4952 138.917C67.2366 130.99 65.0032 123.413 63.8011 116.186C62.0028 105.374 61.0078 83.4999 63.8015 67.0437C65.6061 56.4139 71.5454 43.0005 81.5468 26.827C81.7214 26.5446 81.961 26.3079 82.2456 26.1366ZM83.9156 27.5623C83.7165 27.236 83.291 27.1313 82.963 27.3286C82.8682 27.3857 82.7883 27.4646 82.7301 27.5588C72.7609 43.6802 66.9328 56.9115 65.1732 67.2765C62.4101 83.5525 63.3956 105.268 65.1736 115.958C66.3341 122.935 68.4762 130.268 71.6056 137.956H95.9019C98.5896 129.499 100.327 122.177 101.122 115.983C102.35 106.426 104.835 85.0554 101.131 67.3021C98.7673 55.9688 93.0425 42.7266 83.9178 27.566L83.9156 27.5623Z" fill="#FF6B00"/>
<g opacity="0.3">
<path fill-rule="evenodd" clip-rule="evenodd" d="M96.1213 19.536C95.843 18.0197 96.0346 16.6992 96.7902 15.6966C97.5078 14.7443 98.6642 14.2097 100.139 14.0509C101.613 13.8921 103.416 14.1072 105.447 14.664L105.447 14.6642L105.843 14.7761C106.242 14.8924 106.649 15.0216 107.065 15.1634L107.065 15.1636L107.483 15.3096L107.906 15.4639L108.333 15.6263C108.405 15.6541 108.476 15.6822 108.549 15.7107L108.549 15.711L108.746 15.79C110.594 14.8783 112.675 14.366 114.876 14.366C122.541 14.366 128.755 20.5797 128.755 28.2447C128.755 29.006 128.693 29.753 128.576 30.481L128.734 30.6759L128.735 30.6769L129.017 31.0334L129.018 31.0345L129.292 31.3888L129.293 31.39L129.557 31.7422L129.558 31.7428C129.645 31.8603 129.73 31.9773 129.814 32.094L129.815 32.0947L130.061 32.4422L130.062 32.4435L130.3 32.7885L130.301 32.7899L130.529 33.1323L130.529 33.133C130.567 33.1901 130.604 33.247 130.64 33.3039L130.641 33.3046L130.855 33.6428L130.855 33.6435C130.926 33.7563 130.994 33.8686 131.061 33.9803L131.062 33.9812L131.257 34.3133L131.257 34.3141C131.449 34.6464 131.626 34.974 131.789 35.2964L131.789 35.2974L131.946 35.616L131.946 35.617C131.997 35.7233 132.047 35.829 132.094 35.9341L132.095 35.9352L132.232 36.2463L132.232 36.2475C133.315 38.7843 133.416 40.966 132.296 42.452C131.54 43.4547 130.324 44.0029 128.79 44.1533C127.256 44.3037 125.393 44.0583 123.325 43.4634C121.827 43.0326 120.218 42.4176 118.543 41.6337C117.375 41.9529 116.146 42.1233 114.876 42.1233C107.216 42.1233 101.006 35.9181 100.998 28.2603C99.9412 27.0135 99.0324 25.7834 98.2906 24.5985C97.1487 22.7744 96.3994 21.0519 96.1213 19.536ZM102.192 29.6087C102.872 36.0126 108.292 41.0013 114.876 41.0013C115.575 41.0013 116.261 40.945 116.93 40.8368C114.456 39.5517 111.875 37.9244 109.323 36.0013C106.597 33.9472 104.187 31.7682 102.192 29.6087ZM118.723 40.411C115.952 39.0844 112.975 37.2814 110.031 35.0623C106.908 32.7089 104.224 30.1919 102.128 27.7641C102.381 20.9415 107.992 15.4881 114.876 15.4881C121.921 15.4881 127.633 21.1994 127.633 28.2447C127.633 33.9493 123.888 38.7793 118.723 40.411ZM120.181 41.0734C121.275 41.543 122.328 41.9321 123.323 42.2366C125.264 42.8301 126.983 43.1004 128.363 43.0229C129.745 42.9454 130.772 42.5211 131.357 41.7445C132.208 40.6149 132.081 38.7249 130.99 36.3515L130.99 36.351L130.843 36.0414L130.842 36.0393L130.685 35.7249L130.685 35.7243C130.495 35.3538 130.284 34.9736 130.051 34.585L129.846 34.2492C129.706 34.0246 129.559 33.7969 129.405 33.5672L129.169 33.22C129.049 33.046 128.924 32.8704 128.797 32.6938L128.536 32.339L128.535 32.3378L128.264 31.9809L128.263 31.9797L128.251 31.9638C127.104 36.0964 124.093 39.4537 120.181 41.0734ZM101.103 26.5246C100.493 25.7538 99.9476 24.9968 99.4704 24.2621C98.3649 22.5601 97.6314 20.9828 97.3253 19.6341C97.0189 18.2843 97.1439 17.1807 97.7291 16.4041C98.2327 15.7358 99.1177 15.3336 100.33 15.2149C101.541 15.0963 103.065 15.2627 104.819 15.7156L105.205 15.8191C105.27 15.8369 105.335 15.8553 105.4 15.874L105.797 15.9909C105.93 16.0313 106.065 16.0733 106.2 16.1167L106.61 16.2517C106.876 16.3414 107.146 16.4368 107.419 16.5376C104.015 18.7105 101.622 22.3272 101.103 26.5246Z" fill="#FF6B00"/>
<path d="M96.7902 15.6966L96.91 15.7868L96.7902 15.6966ZM96.1213 19.536L95.9737 19.5631H95.9737L96.1213 19.536ZM100.139 14.0509L100.155 14.2L100.139 14.0509ZM105.447 14.664L105.407 14.8086L105.407 14.8086L105.447 14.664ZM105.447 14.6642L105.488 14.5199L105.487 14.5195L105.447 14.6642ZM105.843 14.7761L105.885 14.6321L105.884 14.6317L105.843 14.7761ZM107.065 15.1634L107.016 15.3053L107.016 15.3053L107.065 15.1634ZM107.065 15.1636L107.115 15.022L107.114 15.0217L107.065 15.1636ZM107.483 15.3096L107.534 15.1687L107.533 15.168L107.483 15.3096ZM107.906 15.4639L107.959 15.3237L107.957 15.323L107.906 15.4639ZM108.333 15.6263L108.387 15.4864L108.386 15.4861L108.333 15.6263ZM108.549 15.7107L108.493 15.8502L108.493 15.8502L108.549 15.7107ZM108.549 15.711L108.605 15.5718L108.604 15.5715L108.549 15.711ZM108.746 15.79L108.69 15.9291L108.752 15.9542L108.812 15.9245L108.746 15.79ZM128.576 30.481L128.427 30.457L128.417 30.5234L128.459 30.5756L128.576 30.481ZM128.734 30.6759L128.851 30.5819L128.85 30.5812L128.734 30.6759ZM128.735 30.6769L128.852 30.5838L128.852 30.583L128.735 30.6769ZM129.017 31.0334L129.136 30.9411L129.135 30.9402L129.017 31.0334ZM129.018 31.0345L129.137 30.9428L129.137 30.9422L129.018 31.0345ZM129.292 31.3888L129.411 31.2979L129.411 31.2972L129.292 31.3888ZM129.293 31.39L129.413 31.2999L129.412 31.2991L129.293 31.39ZM129.557 31.7422L129.678 31.6525L129.677 31.6521L129.557 31.7422ZM129.558 31.7428L129.678 31.6535L129.678 31.6531L129.558 31.7428ZM129.814 32.094L129.936 32.0065L129.936 32.0064L129.814 32.094ZM129.815 32.0947L129.937 32.0079L129.937 32.0072L129.815 32.0947ZM130.061 32.4422L130.184 32.3563L130.184 32.3554L130.061 32.4422ZM130.062 32.4435L130.186 32.3585L130.185 32.3576L130.062 32.4435ZM130.3 32.7885L130.424 32.7046L130.423 32.7035L130.3 32.7885ZM130.301 32.7899L130.426 32.7067L130.425 32.706L130.301 32.7899ZM130.529 33.1323L130.654 33.0498L130.654 33.0491L130.529 33.1323ZM130.529 33.133L130.655 33.0508L130.655 33.0506L130.529 33.133ZM130.64 33.3039L130.767 33.2232L130.766 33.2226L130.64 33.3039ZM130.641 33.3046L130.768 33.2244L130.767 33.224L130.641 33.3046ZM130.855 33.6428L130.982 33.5631L130.982 33.5625L130.855 33.6428ZM130.855 33.6435L130.983 33.5643L130.983 33.5639L130.855 33.6435ZM131.061 33.9803L131.19 33.9039L131.19 33.9032L131.061 33.9803ZM131.062 33.9812L131.191 33.9051L131.191 33.9047L131.062 33.9812ZM131.257 34.3133L131.387 34.2383L131.386 34.2373L131.257 34.3133ZM131.257 34.3141L131.387 34.2392L131.387 34.2391L131.257 34.3141ZM131.789 35.2964L131.923 35.2296L131.923 35.2288L131.789 35.2964ZM131.789 35.2974L131.924 35.2312L131.924 35.2306L131.789 35.2974ZM131.946 35.616L132.081 35.551L132.081 35.5498L131.946 35.616ZM131.946 35.617L132.082 35.5522L132.082 35.552L131.946 35.617ZM132.094 35.9341L132.231 35.8732L132.231 35.8721L132.094 35.9341ZM132.095 35.9352L132.232 35.8748L132.232 35.8744L132.095 35.9352ZM132.232 36.2463L132.369 36.1863L132.369 36.1859L132.232 36.2463ZM132.232 36.2475L132.37 36.1886L132.37 36.1875L132.232 36.2475ZM132.296 42.452L132.176 42.3617L132.296 42.452ZM128.79 44.1533L128.804 44.3026L128.79 44.1533ZM123.325 43.4634L123.284 43.6076L123.325 43.4634ZM118.543 41.6337L118.607 41.4978L118.557 41.4745L118.504 41.489L118.543 41.6337ZM100.998 28.2603L101.148 28.2601L101.147 28.2052L101.112 28.1633L100.998 28.2603ZM98.2906 24.5985L98.1635 24.6781L98.2906 24.5985ZM102.192 29.6087L102.302 29.5069L101.995 29.1744L102.042 29.6245L102.192 29.6087ZM116.93 40.8368L116.954 40.9849L117.401 40.9125L116.999 40.7037L116.93 40.8368ZM109.323 36.0013L109.413 35.8815L109.323 36.0013ZM118.723 40.411L118.658 40.5463L118.712 40.5719L118.768 40.554L118.723 40.411ZM110.031 35.0623L110.121 34.9425L110.031 35.0623ZM102.128 27.7641L101.979 27.7585L101.976 27.8175L102.015 27.8621L102.128 27.7641ZM123.323 42.2366L123.367 42.0932L123.323 42.2366ZM120.181 41.0734L120.124 40.9348L119.795 41.0709L120.122 41.2112L120.181 41.0734ZM128.363 43.0229L128.372 43.1727L128.363 43.0229ZM131.357 41.7445L131.237 41.6542L131.357 41.7445ZM130.99 36.3515L131.126 36.2888L131.126 36.2883L130.99 36.3515ZM130.99 36.351L131.126 36.2877L131.126 36.2868L130.99 36.351ZM130.843 36.0414L130.979 35.9773L130.978 35.9759L130.843 36.0414ZM130.842 36.0393L130.977 35.9737L130.977 35.9722L130.842 36.0393ZM130.685 35.7249L130.82 35.6578L130.819 35.6569L130.685 35.7249ZM130.685 35.7243L130.819 35.6563L130.819 35.6559L130.685 35.7243ZM130.051 34.585L130.18 34.508L130.179 34.5068L130.051 34.585ZM129.846 34.2492L129.974 34.171L129.973 34.17L129.846 34.2492ZM129.405 33.5672L129.53 33.4838L129.529 33.4828L129.405 33.5672ZM129.169 33.22L129.293 33.1357L129.293 33.1347L129.169 33.22ZM128.797 32.6938L128.918 32.6058L128.917 32.6049L128.797 32.6938ZM128.536 32.339L128.656 32.2501L128.656 32.2494L128.536 32.339ZM128.535 32.3378L128.655 32.2481L128.654 32.2472L128.535 32.3378ZM128.264 31.9809L128.384 31.8903L128.383 31.8895L128.264 31.9809ZM128.263 31.9797L128.382 31.8883L128.382 31.8874L128.263 31.9797ZM128.251 31.9638L128.369 31.8716L128.186 31.6366L128.106 31.9237L128.251 31.9638ZM101.103 26.5246L100.985 26.6176L101.208 26.899L101.252 26.543L101.103 26.5246ZM99.4704 24.2621L99.5962 24.1804L99.4704 24.2621ZM97.3253 19.6341L97.179 19.6673H97.179L97.3253 19.6341ZM97.7291 16.4041L97.8489 16.4944L97.7291 16.4041ZM100.33 15.2149L100.316 15.0656L100.33 15.2149ZM104.819 15.7156L104.858 15.5707L104.856 15.5704L104.819 15.7156ZM105.205 15.8191L105.245 15.6745L105.244 15.6742L105.205 15.8191ZM105.4 15.874L105.443 15.7301L105.442 15.7297L105.4 15.874ZM105.797 15.9909L105.841 15.8474L105.84 15.847L105.797 15.9909ZM106.2 16.1167L106.247 15.9742L106.246 15.9739L106.2 16.1167ZM106.61 16.2517L106.658 16.1096L106.657 16.1093L106.61 16.2517ZM107.419 16.5376L107.5 16.6641L107.754 16.5015L107.471 16.3969L107.419 16.5376ZM96.6704 15.6063C95.8815 16.6532 95.6907 18.0209 95.9737 19.5631L96.2688 19.509C95.9952 18.0184 96.1878 16.7452 96.91 15.7868L96.6704 15.6063ZM100.123 13.9017C98.6222 14.0633 97.4209 14.6104 96.6704 15.6063L96.91 15.7868C97.5947 14.8782 98.7063 14.356 100.155 14.2L100.123 13.9017ZM105.486 14.5193C103.445 13.9597 101.622 13.7403 100.123 13.9017L100.155 14.2C101.604 14.044 103.387 14.2547 105.407 14.8086L105.486 14.5193ZM105.487 14.5195L105.486 14.5193L105.407 14.8086L105.408 14.8089L105.487 14.5195ZM105.884 14.6317L105.488 14.5199L105.407 14.8085L105.802 14.9204L105.884 14.6317ZM107.113 15.0214C106.696 14.879 106.286 14.7491 105.885 14.6321L105.801 14.9201C106.197 15.0358 106.603 15.1643 107.016 15.3053L107.113 15.0214ZM107.114 15.0217L107.113 15.0214L107.016 15.3053L107.017 15.3056L107.114 15.0217ZM107.533 15.168L107.115 15.022L107.016 15.3053L107.434 15.4512L107.533 15.168ZM107.957 15.323L107.534 15.1687L107.432 15.4505L107.854 15.6048L107.957 15.323ZM108.386 15.4861L107.959 15.3237L107.853 15.6041L108.28 15.7665L108.386 15.4861ZM108.604 15.5712C108.531 15.5426 108.459 15.5143 108.387 15.4864L108.279 15.7661C108.35 15.7938 108.422 15.8218 108.493 15.8502L108.604 15.5712ZM108.604 15.5715L108.604 15.5712L108.493 15.8502L108.494 15.8505L108.604 15.5715ZM108.802 15.6509L108.605 15.5718L108.493 15.8501L108.69 15.9291L108.802 15.6509ZM108.812 15.9245C110.64 15.0227 112.699 14.516 114.876 14.516V14.216C112.652 14.216 110.548 14.7338 108.679 15.6555L108.812 15.9245ZM114.876 14.516C122.458 14.516 128.605 20.6626 128.605 28.2447H128.905C128.905 20.4969 122.624 14.216 114.876 14.216V14.516ZM128.605 28.2447C128.605 28.9979 128.544 29.7369 128.427 30.457L128.724 30.505C128.843 29.7691 128.905 29.0141 128.905 28.2447H128.605ZM128.85 30.5812L128.692 30.3864L128.459 30.5756L128.618 30.7705L128.85 30.5812ZM128.852 30.583L128.851 30.5819L128.617 30.7698L128.618 30.7709L128.852 30.583ZM129.135 30.9402L128.852 30.5838L128.617 30.7701L128.9 31.1265L129.135 30.9402ZM129.137 30.9422L129.136 30.9411L128.899 31.1256L128.9 31.1267L129.137 30.9422ZM129.411 31.2972L129.137 30.9428L128.9 31.1262L129.173 31.4805L129.411 31.2972ZM129.412 31.2991L129.411 31.2979L129.173 31.4798L129.174 31.4809L129.412 31.2991ZM129.677 31.6521L129.413 31.2999L129.173 31.4801L129.438 31.8323L129.677 31.6521ZM129.678 31.6531L129.678 31.6525L129.437 31.832L129.438 31.8326L129.678 31.6531ZM129.936 32.0064C129.852 31.8891 129.766 31.7715 129.678 31.6535L129.437 31.8321C129.524 31.949 129.609 32.0655 129.693 32.1817L129.936 32.0064ZM129.937 32.0072L129.936 32.0065L129.693 32.1815L129.693 32.1821L129.937 32.0072ZM130.184 32.3554L129.937 32.0079L129.693 32.1814L129.939 32.529L130.184 32.3554ZM130.185 32.3576L130.184 32.3563L129.938 32.5281L129.939 32.5294L130.185 32.3576ZM130.423 32.7035L130.186 32.3585L129.939 32.5285L130.176 32.8736L130.423 32.7035ZM130.425 32.706L130.424 32.7046L130.175 32.8724L130.176 32.8738L130.425 32.706ZM130.654 33.0491L130.426 32.7067L130.176 32.8731L130.404 33.2155L130.654 33.0491ZM130.655 33.0506L130.654 33.0498L130.404 33.2147L130.404 33.2154L130.655 33.0506ZM130.766 33.2226C130.73 33.1654 130.692 33.1082 130.655 33.0508L130.404 33.2152C130.441 33.272 130.478 33.3286 130.514 33.3851L130.766 33.2226ZM130.767 33.224L130.767 33.2232L130.514 33.3845L130.514 33.3853L130.767 33.224ZM130.982 33.5625L130.768 33.2244L130.514 33.3849L130.728 33.723L130.982 33.5625ZM130.983 33.5639L130.982 33.5631L130.728 33.7224L130.728 33.7232L130.983 33.5639ZM131.19 33.9032C131.122 33.7907 131.053 33.6777 130.983 33.5643L130.728 33.7228C130.798 33.8348 130.866 33.9464 130.933 34.0575L131.19 33.9032ZM131.191 33.9047L131.19 33.9039L130.932 34.0568L130.933 34.0576L131.191 33.9047ZM131.386 34.2373L131.191 33.9051L130.932 34.0572L131.128 34.3893L131.386 34.2373ZM131.387 34.2391L131.387 34.2383L131.127 34.3883L131.128 34.3891L131.387 34.2391ZM131.923 35.2288C131.759 34.9038 131.58 34.5737 131.387 34.2392L131.127 34.389C131.318 34.719 131.494 35.0442 131.655 35.3639L131.923 35.2288ZM131.924 35.2306L131.923 35.2296L131.654 35.3631L131.655 35.3642L131.924 35.2306ZM132.081 35.5498L131.924 35.2312L131.655 35.3636L131.811 35.6822L132.081 35.5498ZM132.082 35.552L132.081 35.551L131.811 35.681L131.811 35.682L132.082 35.552ZM132.231 35.8721C132.183 35.7661 132.133 35.6594 132.082 35.5522L131.811 35.6818C131.862 35.7872 131.91 35.8919 131.958 35.996L132.231 35.8721ZM132.232 35.8744L132.231 35.8733L131.957 35.9949L131.958 35.996L132.232 35.8744ZM132.369 36.1859L132.232 35.8748L131.957 35.9956L132.094 36.3068L132.369 36.1859ZM132.37 36.1875L132.369 36.1863L132.094 36.3063L132.095 36.3075L132.37 36.1875ZM132.416 42.5423C133.585 40.9907 133.46 38.7413 132.37 36.1886L132.094 36.3064C133.171 38.8272 133.246 40.9413 132.176 42.3617L132.416 42.5423ZM128.804 44.3026C130.365 44.1496 131.627 43.5892 132.416 42.5423L132.176 42.3617C131.454 43.3201 130.283 43.8561 128.775 44.004L128.804 44.3026ZM123.284 43.6076C125.363 44.2055 127.245 44.4555 128.804 44.3026L128.775 44.004C127.266 44.152 125.424 43.9111 123.367 43.3193L123.284 43.6076ZM118.48 41.7695C120.161 42.5562 121.777 43.1742 123.284 43.6076L123.367 43.3193C121.878 42.891 120.276 42.2789 118.607 41.4978L118.48 41.7695ZM118.504 41.489C117.348 41.8047 116.132 41.9733 114.876 41.9733V42.2733C116.159 42.2733 117.402 42.1011 118.583 41.7784L118.504 41.489ZM114.876 41.9733C107.299 41.9733 101.156 35.8351 101.148 28.2601L100.848 28.2604C100.856 36.001 107.134 42.2733 114.876 42.2733V41.9733ZM98.1635 24.6781C98.9096 25.87 99.8229 27.1058 100.883 28.3572L101.112 28.1633C100.06 26.9211 99.1551 25.6968 98.4177 24.5189L98.1635 24.6781ZM95.9737 19.5631C96.2565 21.1041 97.0157 22.8447 98.1635 24.6781L98.4177 24.5189C97.2816 22.7041 96.5424 20.9997 96.2688 19.509L95.9737 19.5631ZM102.042 29.6245C102.731 36.1039 108.214 41.1513 114.876 41.1513V40.8513C108.369 40.8513 103.013 35.9213 102.341 29.5928L102.042 29.6245ZM114.876 41.1513C115.583 41.1513 116.278 41.0944 116.954 40.9849L116.906 40.6887C116.245 40.7957 115.567 40.8513 114.876 40.8513V41.1513ZM109.233 36.1211C111.791 38.0489 114.379 39.6807 116.861 40.9699L116.999 40.7037C114.534 39.4227 111.959 37.8 109.413 35.8815L109.233 36.1211ZM102.081 29.7105C104.083 31.877 106.5 34.062 109.233 36.1211L109.413 35.8815C106.694 33.8323 104.29 31.6593 102.302 29.5069L102.081 29.7105ZM118.788 40.2757C116.027 38.9537 113.058 37.156 110.121 34.9425L109.94 35.1821C112.893 37.4067 115.878 39.2151 118.658 40.5463L118.788 40.2757ZM110.121 34.9425C107.006 32.5949 104.33 30.0851 102.242 27.6661L102.015 27.8621C104.118 30.2986 106.81 32.8228 109.94 35.1821L110.121 34.9425ZM114.876 15.3381C107.911 15.3381 102.234 20.8556 101.979 27.7585L102.278 27.7696C102.528 21.0274 108.073 15.6381 114.876 15.6381V15.3381ZM127.783 28.2447C127.783 21.1166 122.004 15.3381 114.876 15.3381V15.6381C121.839 15.6381 127.483 21.2823 127.483 28.2447H127.783ZM118.768 40.554C123.994 38.9032 127.783 34.0166 127.783 28.2447H127.483C127.483 33.882 123.782 38.6554 118.678 40.2679L118.768 40.554ZM123.367 42.0932C122.377 41.7905 121.33 41.4033 120.24 40.9356L120.122 41.2112C121.22 41.6827 122.278 42.0738 123.279 42.3801L123.367 42.0932ZM128.355 42.8732C126.998 42.9493 125.299 42.6838 123.367 42.0932L123.279 42.3801C125.23 42.9765 126.967 43.2515 128.372 43.1727L128.355 42.8732ZM131.237 41.6542C130.689 42.3813 129.715 42.7969 128.355 42.8732L128.372 43.1727C129.776 43.0939 130.854 42.6609 131.477 41.8347L131.237 41.6542ZM130.854 36.4142C131.941 38.7798 132.034 40.5963 131.237 41.6542L131.477 41.8347C132.382 40.6334 132.221 38.6701 131.126 36.2888L130.854 36.4142ZM130.854 36.4142L130.854 36.4147L131.126 36.2883L131.126 36.2877L130.854 36.4142ZM130.708 36.1056L130.854 36.4151L131.126 36.2868L130.979 35.9773L130.708 36.1056ZM130.708 36.1048L130.709 36.107L130.978 35.9759L130.977 35.9737L130.708 36.1048ZM130.551 35.7919L130.708 36.1063L130.977 35.9722L130.82 35.6578L130.551 35.7919ZM130.551 35.7923L130.552 35.7929L130.819 35.6569L130.819 35.6563L130.551 35.7923ZM129.922 34.6621C130.153 35.0481 130.363 35.4253 130.552 35.7927L130.819 35.6559C130.627 35.2822 130.414 34.8992 130.18 34.508L129.922 34.6621ZM129.718 34.3274L129.923 34.6632L130.179 34.5068L129.974 34.1711L129.718 34.3274ZM129.281 33.6505C129.433 33.8789 129.579 34.1053 129.718 34.3285L129.973 34.17C129.832 33.9439 129.684 33.7148 129.53 33.4838L129.281 33.6505ZM129.045 33.3044L129.281 33.6515L129.529 33.4828L129.293 33.1357L129.045 33.3044ZM128.675 32.7818C128.802 32.9575 128.926 33.1322 129.046 33.3053L129.293 33.1347C129.172 32.9597 129.047 32.7832 128.918 32.6058L128.675 32.7818ZM128.415 32.4279L128.676 32.7827L128.917 32.6049L128.656 32.2501L128.415 32.4279ZM128.414 32.4274L128.415 32.4286L128.656 32.2494L128.655 32.2481L128.414 32.4274ZM128.145 32.0715L128.415 32.4283L128.654 32.2472L128.384 31.8903L128.145 32.0715ZM128.144 32.071L128.145 32.0722L128.383 31.8895L128.382 31.8883L128.144 32.071ZM128.133 32.056L128.145 32.0719L128.382 31.8874L128.369 31.8716L128.133 32.056ZM128.106 31.9237C126.972 36.0114 123.994 39.3326 120.124 40.9348L120.238 41.212C124.193 39.5748 127.236 36.1815 128.395 32.0039L128.106 31.9237ZM101.221 26.4315C100.614 25.664 100.071 24.9108 99.5962 24.1804L99.3446 24.3438C99.8246 25.0828 100.373 25.8436 100.985 26.6176L101.221 26.4315ZM99.5962 24.1804C98.4961 22.4867 97.7724 20.9261 97.4716 19.6009L97.179 19.6673C97.4905 21.0394 98.2337 22.6335 99.3446 24.3438L99.5962 24.1804ZM97.4716 19.6009C97.1702 18.2729 97.301 17.2214 97.8489 16.4944L97.6093 16.3138C96.9868 17.1399 96.8677 18.2956 97.179 19.6673L97.4716 19.6009ZM97.8489 16.4944C98.3174 15.8727 99.1544 15.4808 100.345 15.3642L100.316 15.0656C99.0811 15.1865 98.148 15.5989 97.6093 16.3138L97.8489 16.4944ZM100.345 15.3642C101.533 15.2479 103.037 15.4105 104.781 15.8609L104.856 15.5704C103.092 15.1149 101.55 14.9447 100.316 15.0656L100.345 15.3642ZM104.78 15.8605L105.167 15.964L105.244 15.6742L104.858 15.5707L104.78 15.8605ZM105.165 15.9636C105.23 15.9814 105.294 15.9997 105.359 16.0182L105.442 15.7297C105.376 15.711 105.31 15.6925 105.245 15.6745L105.165 15.9636ZM105.358 16.0178L105.755 16.1348L105.84 15.847L105.443 15.7301L105.358 16.0178ZM105.754 16.1345C105.886 16.1746 106.02 16.2164 106.154 16.2595L106.246 15.9739C106.11 15.9303 105.975 15.888 105.841 15.8474L105.754 16.1345ZM106.153 16.2592L106.563 16.3942L106.657 16.1093L106.247 15.9742L106.153 16.2592ZM106.562 16.3939C106.827 16.4831 107.095 16.578 107.367 16.6784L107.471 16.3969C107.196 16.2956 106.925 16.1997 106.658 16.1096L106.562 16.3939ZM101.252 26.543C101.765 22.3914 104.132 18.8136 107.5 16.6641L107.338 16.4112C103.898 18.6073 101.479 22.263 100.954 26.5062L101.252 26.543Z" fill="#FF6B00"/>
<path fill-rule="evenodd" clip-rule="evenodd" d="M117.255 20.2444C116.776 20.2444 116.389 20.632 116.389 21.1102C116.389 21.5884 116.776 21.9761 117.255 21.9761C117.733 21.9761 118.12 21.5884 118.12 21.1102C118.12 20.632 117.733 20.2444 117.255 20.2444ZM115.267 21.1102C115.267 20.0123 116.157 19.1223 117.255 19.1223C118.352 19.1223 119.242 20.0123 119.242 21.1102C119.242 22.2081 118.352 23.0981 117.255 23.0981C116.157 23.0981 115.267 22.2081 115.267 21.1102Z" fill="#FF6B00" stroke="#FF6B00" stroke-width="0.3"/>
<path fill-rule="evenodd" clip-rule="evenodd" d="M119.157 25.9519C118.679 25.9519 118.291 26.3396 118.291 26.8178C118.291 27.296 118.679 27.6836 119.157 27.6836C119.635 27.6836 120.023 27.296 120.023 26.8178C120.023 26.3396 119.635 25.9519 119.157 25.9519ZM117.169 26.8178C117.169 25.7199 118.059 24.8298 119.157 24.8298C120.255 24.8298 121.145 25.7199 121.145 26.8178C121.145 27.9156 120.255 28.8057 119.157 28.8057C118.059 28.8057 117.169 27.9156 117.169 26.8178Z" fill="#FF6B00" stroke="#FF6B00" stroke-width="0.3"/>
<path fill-rule="evenodd" clip-rule="evenodd" d="M112.022 23.5737C111.019 23.5737 110.205 24.3873 110.205 25.3908C110.205 26.3944 111.019 27.208 112.022 27.208C113.026 27.208 113.839 26.3944 113.839 25.3908C113.839 24.3873 113.026 23.5737 112.022 23.5737ZM109.083 25.3908C109.083 23.7676 110.399 22.4517 112.022 22.4517C113.645 22.4517 114.961 23.7676 114.961 25.3908C114.961 27.0141 113.645 28.33 112.022 28.33C110.399 28.33 109.083 27.0141 109.083 25.3908Z" fill="#FF6B00" stroke="#FF6B00" stroke-width="0.3"/>
</g>
<path fill-rule="evenodd" clip-rule="evenodd" d="M70.4557 137.739H97.1976L101.14 149.565H66.5137L70.4557 137.739ZM71.4585 139.131L68.444 148.174H99.2093L96.1948 139.131H71.4585Z" fill="#FF6B00"/>
<path fill-rule="evenodd" clip-rule="evenodd" d="M83.4786 61.2175C78.6761 61.2175 74.7829 65.1107 74.7829 69.9131C74.7829 74.7156 78.6761 78.6088 83.4786 78.6088C88.281 78.6088 92.1742 74.7156 92.1742 69.9131C92.1742 65.1107 88.281 61.2175 83.4786 61.2175ZM73.3916 69.9131C73.3916 64.3423 77.9077 59.8262 83.4786 59.8262C89.0494 59.8262 93.5655 64.3423 93.5655 69.9131C93.5655 75.484 89.0494 80.0001 83.4786 80.0001C77.9077 80.0001 73.3916 75.484 73.3916 69.9131Z" fill="#FF6B00"/>
<path fill-rule="evenodd" clip-rule="evenodd" d="M83.4788 64.6957C80.5973 64.6957 78.2614 67.0317 78.2614 69.9131C78.2614 72.7946 80.5973 75.1305 83.4788 75.1305C86.3603 75.1305 88.6962 72.7946 88.6962 69.9131C88.6962 67.0317 86.3603 64.6957 83.4788 64.6957ZM76.8701 69.9131C76.8701 66.2633 79.8289 63.3044 83.4788 63.3044C87.1287 63.3044 90.0875 66.2633 90.0875 69.9131C90.0875 73.563 87.1287 76.5218 83.4788 76.5218C79.8289 76.5218 76.8701 73.563 76.8701 69.9131Z" fill="#FF6B00"/>
<path fill-rule="evenodd" clip-rule="evenodd" d="M86.2613 66.0871C85.3008 66.0871 84.5222 66.8657 84.5222 67.8262C84.5222 68.7867 85.3008 69.5653 86.2613 69.5653C87.2218 69.5653 88.0004 68.7867 88.0004 67.8262C88.0004 66.8657 87.2218 66.0871 86.2613 66.0871ZM83.1309 67.8262C83.1309 66.0973 84.5324 64.6958 86.2613 64.6958C87.9902 64.6958 89.3917 66.0973 89.3917 67.8262C89.3917 69.5551 87.9902 70.9566 86.2613 70.9566C84.5324 70.9566 83.1309 69.5551 83.1309 67.8262Z" fill="#FF6B00"/>
<path fill-rule="evenodd" clip-rule="evenodd" d="M63.1829 97.0886L54.1395 110.306L52.9912 109.52L62.0347 96.303L63.1829 97.0886Z" fill="#FF6B00"/>
<path fill-rule="evenodd" clip-rule="evenodd" d="M103.079 97.0886L112.122 110.306L113.271 109.52L104.227 96.303L103.079 97.0886Z" fill="#FF6B00"/>
<path fill-rule="evenodd" clip-rule="evenodd" d="M101.032 116.62L113.019 130.974L114.087 130.082L102.1 115.728L101.032 116.62Z" fill="#FF6B00"/>
<path fill-rule="evenodd" clip-rule="evenodd" d="M65.2297 116.62L53.2427 130.974L52.1748 130.082L64.1618 115.728L65.2297 116.62Z" fill="#FF6B00"/>
<path fill-rule="evenodd" clip-rule="evenodd" d="M83.131 53.4284C77.5999 53.4284 72.7611 53.859 68.6085 54.7133L68.3281 53.3505C72.5953 52.4726 77.5317 52.0371 83.131 52.0371C88.7313 52.0371 93.8085 52.4728 98.3589 53.3488L98.0959 54.715C93.6482 53.8588 88.6611 53.4284 83.131 53.4284Z" fill="#FF6B00"/>
<path opacity="0.3" d="M38.2761 78.7042L40.1807 78.1802L38.2805 77.6372C36.191 77.04 34.5578 75.4066 33.961 73.3171L33.4287 71.4536L32.8944 73.3212C32.2971 75.4094 30.6641 77.0414 28.5755 77.6374L26.76 78.1554L28.7612 78.7589C30.7598 79.3939 32.3157 80.9946 32.8956 83.0232L33.419 84.854L33.997 82.9014C34.6022 80.8569 36.2202 79.2698 38.2761 78.7042ZM33.4283 74.9696L33.515 75.1334C34.1945 76.3785 35.2191 77.4033 36.4641 78.0829L36.6182 78.1634L36.4494 78.2519C35.1882 78.9343 34.1541 79.9764 33.4816 81.2462L33.4228 81.3604L33.4186 81.3516C32.7521 80.0629 31.7202 78.998 30.4545 78.2914L30.2278 78.1701L30.391 78.0841C31.6357 77.4052 32.6603 76.3813 33.34 75.1371L33.4283 74.9696Z" fill="#FF6B00"/>
<path opacity="0.3" d="M52.5153 59.4972L54.7435 58.8842L52.5205 58.2488C50.0761 57.5503 48.1655 55.6394 47.4672 53.1949L46.8445 51.0149L46.2195 53.1997C45.5206 55.6427 43.6102 57.5518 41.1668 58.2491L39.0429 58.8551L41.3841 59.5611C43.7222 60.304 45.5424 62.1766 46.2209 64.5498L46.8332 66.6917L47.5094 64.4074C48.2174 62.0155 50.1103 60.1589 52.5153 59.4972ZM46.844 55.1281L46.9455 55.3198C47.7404 56.7764 48.9391 57.9752 50.3956 58.7703L50.5758 58.8645L50.3784 58.968C48.9029 59.7664 47.6931 60.9855 46.9063 62.471L46.8376 62.6045L46.8327 62.5942C46.053 61.0867 44.8458 59.8409 43.3651 59.0142L43.0999 58.8723L43.2908 58.7717C44.7469 57.9775 45.9456 56.7797 46.7407 55.324L46.844 55.1281Z" fill="#FF6B00"/>
<path opacity="0.3" d="M132.052 61.2596L133.919 60.7458L132.056 60.2134C130.008 59.6279 128.406 58.0263 127.821 55.9776L127.299 54.1504L126.775 55.9816C126.189 58.0291 124.588 59.6292 122.54 60.2136L120.76 60.7215L122.723 61.3132C124.682 61.9358 126.208 63.5053 126.776 65.4944L127.29 67.2895L127.856 65.375C128.45 63.3703 130.036 61.8142 132.052 61.2596ZM127.299 57.5978L127.384 57.7585C128.05 58.9793 129.055 59.984 130.275 60.6504L130.426 60.7294L130.261 60.8161C129.024 61.4852 128.01 62.507 127.351 63.752L127.293 63.864L127.289 63.8554C126.636 62.5919 125.624 61.5477 124.383 60.8548L124.161 60.7359L124.321 60.6516C125.541 59.9859 126.546 58.982 127.212 57.762L127.299 57.5978Z" fill="#FF6B00"/>
<g opacity="0.5">
<path opacity="0.5" fill-rule="evenodd" clip-rule="evenodd" d="M41.9359 148.54C42.3201 148.54 42.6315 148.851 42.6315 149.236V162.799C42.6315 163.183 42.3201 163.494 41.9359 163.494C41.5517 163.494 41.2402 163.183 41.2402 162.799V149.236C41.2402 148.851 41.5517 148.54 41.9359 148.54Z" fill="#FF6B00"/>
<path opacity="0.5" fill-rule="evenodd" clip-rule="evenodd" d="M46.641 157.319C47.0252 157.319 47.3366 157.63 47.3366 158.015V172.954C47.3366 173.338 47.0252 173.65 46.641 173.65C46.2568 173.65 45.9453 173.338 45.9453 172.954V158.015C45.9453 157.63 46.2568 157.319 46.641 157.319Z" fill="#FF6B00"/>
<path opacity="0.5" fill-rule="evenodd" clip-rule="evenodd" d="M46.644 176.102C47.0282 176.103 47.3383 176.416 47.3365 176.8L47.3054 183.655C47.3036 184.04 46.9907 184.35 46.6066 184.348C46.2224 184.346 45.9123 184.033 45.9141 183.649L45.9452 176.794C45.947 176.41 46.2598 176.1 46.644 176.102Z" fill="#FF6B00"/>
<path opacity="0.5" fill-rule="evenodd" clip-rule="evenodd" d="M46.641 150.296C47.0252 150.296 47.3366 150.608 47.3366 150.992V154.418C47.3366 154.802 47.0252 155.114 46.641 155.114C46.2568 155.114 45.9453 154.802 45.9453 154.418V150.992C45.9453 150.608 46.2568 150.296 46.641 150.296Z" fill="#FF6B00"/>
<path opacity="0.5" fill-rule="evenodd" clip-rule="evenodd" d="M51.2806 148.54C51.6648 148.54 51.9763 148.851 51.9763 149.236V171.146C51.9763 171.531 51.6648 171.842 51.2806 171.842C50.8964 171.842 50.585 171.531 50.585 171.146V149.236C50.585 148.851 50.8964 148.54 51.2806 148.54Z" fill="#FF6B00"/>
<path opacity="0.5" fill-rule="evenodd" clip-rule="evenodd" d="M51.2845 173.676C51.6687 173.676 51.9802 173.987 51.9802 174.371V180.174C51.9802 180.558 51.6687 180.87 51.2845 180.87C50.9003 180.87 50.5889 180.558 50.5889 180.174V174.371C50.5889 173.987 50.9003 173.676 51.2845 173.676Z" fill="#FF6B00"/>
<path opacity="0.5" fill-rule="evenodd" clip-rule="evenodd" d="M41.936 165.221C42.3202 165.221 42.6317 165.532 42.6317 165.917V181.037C42.6317 183.939 40.614 186.765 37.9791 188.174C35.2915 189.61 31.8537 189.626 29.0831 186.751C26.378 183.945 26.0591 180.826 26.8982 178.392C27.3127 177.19 28.0086 176.157 28.8292 175.418C29.6416 174.686 30.6288 174.197 31.6251 174.197C33.3688 174.197 35.0787 175.037 35.9401 176.414C36.378 177.113 36.5908 177.947 36.4622 178.845C36.3343 179.739 35.8771 180.643 35.0691 181.511C34.8072 181.792 34.3671 181.807 34.0859 181.546C33.8047 181.284 33.789 180.844 34.0508 180.562C34.7103 179.854 35.0057 179.202 35.0849 178.648C35.1635 178.099 35.0378 177.594 34.7608 177.152C34.1926 176.244 32.9676 175.588 31.6251 175.588C31.0781 175.588 30.4082 175.868 29.7605 176.451C29.1211 177.027 28.554 177.858 28.2136 178.845C27.5429 180.791 27.7467 183.36 30.0848 185.786C32.3574 188.143 35.0956 188.137 37.3233 186.946C39.6036 185.728 41.2404 183.323 41.2404 181.037V165.917C41.2404 165.532 41.5518 165.221 41.936 165.221Z" fill="#FF6B00"/>
<path opacity="0.5" fill-rule="evenodd" clip-rule="evenodd" d="M41.8521 189.484C42.0923 189.784 42.044 190.222 41.7442 190.462C40.7345 191.271 39.9583 191.874 39.1021 192.322C38.2302 192.778 37.3063 193.059 36.002 193.287C34.098 193.619 32.1136 193.073 30.0819 191.779C29.7578 191.573 29.6624 191.143 29.8687 190.819C30.075 190.495 30.505 190.399 30.8291 190.606C32.6706 191.778 34.3041 192.171 35.7627 191.916C36.9804 191.704 37.754 191.457 38.4571 191.09C39.1759 190.713 39.8522 190.195 40.8742 189.376C41.174 189.136 41.6118 189.184 41.8521 189.484Z" fill="#FF6B00"/>
</g>
<g opacity="0.5">
<path opacity="0.5" fill-rule="evenodd" clip-rule="evenodd" d="M125.227 148.54C124.843 148.54 124.532 148.851 124.532 149.236V162.799C124.532 163.183 124.843 163.494 125.227 163.494C125.611 163.494 125.923 163.183 125.923 162.799V149.236C125.923 148.851 125.611 148.54 125.227 148.54Z" fill="#FF6B00"/>
<path opacity="0.5" fill-rule="evenodd" clip-rule="evenodd" d="M120.522 157.319C120.138 157.319 119.826 157.63 119.826 158.015V172.954C119.826 173.338 120.138 173.65 120.522 173.65C120.906 173.65 121.218 173.338 121.218 172.954V158.015C121.218 157.63 120.906 157.319 120.522 157.319Z" fill="#FF6B00"/>
<path opacity="0.5" fill-rule="evenodd" clip-rule="evenodd" d="M120.519 176.102C120.135 176.103 119.825 176.416 119.827 176.8L119.858 183.655C119.859 184.04 120.172 184.35 120.557 184.348C120.941 184.346 121.251 184.033 121.249 183.649L121.218 176.794C121.216 176.41 120.903 176.1 120.519 176.102Z" fill="#FF6B00"/>
<path opacity="0.5" fill-rule="evenodd" clip-rule="evenodd" d="M120.522 150.296C120.138 150.296 119.826 150.608 119.826 150.992V154.418C119.826 154.802 120.138 155.114 120.522 155.114C120.906 155.114 121.218 154.802 121.218 154.418V150.992C121.218 150.608 120.906 150.296 120.522 150.296Z" fill="#FF6B00"/>
<path opacity="0.5" fill-rule="evenodd" clip-rule="evenodd" d="M115.882 148.54C115.498 148.54 115.187 148.851 115.187 149.236V171.146C115.187 171.531 115.498 171.842 115.882 171.842C116.267 171.842 116.578 171.531 116.578 171.146V149.236C116.578 148.851 116.267 148.54 115.882 148.54Z" fill="#FF6B00"/>
<path opacity="0.5" fill-rule="evenodd" clip-rule="evenodd" d="M115.879 173.676C115.494 173.676 115.183 173.987 115.183 174.371V180.174C115.183 180.558 115.494 180.87 115.879 180.87C116.263 180.87 116.574 180.558 116.574 180.174V174.371C116.574 173.987 116.263 173.676 115.879 173.676Z" fill="#FF6B00"/>
<path opacity="0.5" fill-rule="evenodd" clip-rule="evenodd" d="M125.227 165.221C124.843 165.221 124.531 165.532 124.531 165.917V181.037C124.531 183.939 126.549 186.765 129.184 188.174C131.872 189.61 135.309 189.626 138.08 186.751C140.785 183.945 141.104 180.826 140.265 178.392C139.85 177.19 139.155 176.157 138.334 175.418C137.521 174.686 136.534 174.197 135.538 174.197C133.794 174.197 132.084 175.037 131.223 176.414C130.785 177.113 130.572 177.947 130.701 178.845C130.829 179.739 131.286 180.643 132.094 181.511C132.356 181.792 132.796 181.807 133.077 181.546C133.358 181.284 133.374 180.844 133.112 180.562C132.453 179.854 132.157 179.202 132.078 178.648C132 178.099 132.125 177.594 132.402 177.152C132.97 176.244 134.195 175.588 135.538 175.588C136.085 175.588 136.755 175.868 137.403 176.451C138.042 177.027 138.609 177.858 138.949 178.845C139.62 180.791 139.416 183.36 137.078 185.786C134.806 188.143 132.067 188.137 129.84 186.946C127.559 185.728 125.923 183.323 125.923 181.037V165.917C125.923 165.532 125.611 165.221 125.227 165.221Z" fill="#FF6B00"/>
<path opacity="0.5" fill-rule="evenodd" clip-rule="evenodd" d="M125.311 189.484C125.071 189.784 125.119 190.222 125.419 190.462C126.429 191.271 127.205 191.874 128.061 192.322C128.933 192.778 129.857 193.059 131.161 193.287C133.065 193.619 135.05 193.073 137.081 191.779C137.405 191.573 137.501 191.143 137.294 190.819C137.088 190.495 136.658 190.399 136.334 190.606C134.492 191.778 132.859 192.171 131.4 191.916C130.183 191.704 129.409 191.457 128.706 191.09C127.987 190.713 127.311 190.195 126.289 189.376C125.989 189.136 125.551 189.184 125.311 189.484Z" fill="#FF6B00"/>
</g>
<g opacity="0.5">
<path opacity="0.5" fill-rule="evenodd" clip-rule="evenodd" d="M67.4789 159.496C67.8631 159.496 68.1745 159.807 68.1745 160.191V181.984C68.1745 182.369 67.8631 182.68 67.4789 182.68C67.0947 182.68 66.7832 182.369 66.7832 181.984V160.191C66.7832 159.807 67.0947 159.496 67.4789 159.496Z" fill="#FF6B00"/>
<path opacity="0.5" fill-rule="evenodd" clip-rule="evenodd" d="M99.4789 159.496C99.8631 159.496 100.175 159.807 100.175 160.191V181.984C100.175 182.369 99.8631 182.68 99.4789 182.68C99.0947 182.68 98.7832 182.369 98.7832 181.984V160.191C98.7832 159.807 99.0947 159.496 99.4789 159.496Z" fill="#FF6B00"/>
<path opacity="0.5" fill-rule="evenodd" clip-rule="evenodd" d="M71.6527 166.452C72.0369 166.452 72.3483 166.764 72.3483 167.148V188.941C72.3483 189.325 72.0369 189.636 71.6527 189.636C71.2685 189.636 70.957 189.325 70.957 188.941V167.148C70.957 166.764 71.2685 166.452 71.6527 166.452Z" fill="#FF6B00"/>
<path opacity="0.5" fill-rule="evenodd" clip-rule="evenodd" d="M75.8265 159.496C76.2107 159.496 76.5222 159.807 76.5222 160.191V175.028C76.5222 175.412 76.2107 175.723 75.8265 175.723C75.4423 175.723 75.1309 175.412 75.1309 175.028V160.191C75.1309 159.807 75.4423 159.496 75.8265 159.496Z" fill="#FF6B00"/>
<path opacity="0.5" fill-rule="evenodd" clip-rule="evenodd" d="M91.1312 159.496C91.5154 159.496 91.8268 159.807 91.8268 160.191V175.028C91.8268 175.412 91.5154 175.723 91.1312 175.723C90.747 175.723 90.4355 175.412 90.4355 175.028V160.191C90.4355 159.807 90.747 159.496 91.1312 159.496Z" fill="#FF6B00"/>
<path opacity="0.5" fill-rule="evenodd" clip-rule="evenodd" d="M71.6527 159.496C72.0369 159.496 72.3483 159.807 72.3483 160.191V162.783C72.3483 163.167 72.0369 163.478 71.6527 163.478C71.2685 163.478 70.957 163.167 70.957 162.783V160.191C70.957 159.807 71.2685 159.496 71.6527 159.496Z" fill="#FF6B00"/>
<path opacity="0.5" fill-rule="evenodd" clip-rule="evenodd" d="M95.305 159.496C95.6892 159.496 96.0007 159.807 96.0007 160.191V162.783C96.0007 163.167 95.6892 163.478 95.305 163.478C94.9208 163.478 94.6094 163.167 94.6094 162.783V160.191C94.6094 159.807 94.9208 159.496 95.305 159.496Z" fill="#FF6B00"/>
<path opacity="0.5" fill-rule="evenodd" clip-rule="evenodd" d="M83.4789 159.496C83.863 159.496 84.1745 159.807 84.1745 160.191V162.783C84.1745 163.167 83.863 163.478 83.4789 163.478C83.0947 163.478 82.7832 163.167 82.7832 162.783V160.191C82.7832 159.807 83.0947 159.496 83.4789 159.496Z" fill="#FF6B00"/>
<path opacity="0.5" fill-rule="evenodd" clip-rule="evenodd" d="M95.305 166.452C95.6892 166.452 96.0007 166.764 96.0007 167.148V188.941C96.0007 189.325 95.6892 189.636 95.305 189.636C94.9208 189.636 94.6094 189.325 94.6094 188.941V167.148C94.6094 166.764 94.9208 166.452 95.305 166.452Z" fill="#FF6B00"/>
<path opacity="0.5" fill-rule="evenodd" clip-rule="evenodd" d="M83.4789 166.452C83.863 166.452 84.1745 166.764 84.1745 167.148V178.506C84.1745 178.89 83.863 179.202 83.4789 179.202C83.0947 179.202 82.7832 178.89 82.7832 178.506V167.148C82.7832 166.764 83.0947 166.452 83.4789 166.452Z" fill="#FF6B00"/>
</g>
<path opacity="0.5" fill-rule="evenodd" clip-rule="evenodd" d="M83.4789 79.3044C83.863 79.3044 84.1745 79.6159 84.1745 80.0001V138.435C84.1745 138.819 83.863 139.131 83.4789 139.131C83.0947 139.131 82.7832 138.819 82.7832 138.435V80.0001C82.7832 79.6159 83.0947 79.3044 83.4789 79.3044Z" fill="#FF6B00"/>
<path opacity="0.5" fill-rule="evenodd" clip-rule="evenodd" d="M83.4789 52.1304C83.863 52.1304 84.1745 52.4418 84.1745 52.826V60.5217C84.1745 60.9059 83.863 61.2173 83.4789 61.2173C83.0947 61.2173 82.7832 60.9059 82.7832 60.5217V52.826C82.7832 52.4418 83.0947 52.1304 83.4789 52.1304Z" fill="#FF6B00"/>
<path fill-rule="evenodd" clip-rule="evenodd" d="M42.0875 139.339C41.127 139.339 40.3483 140.118 40.3483 141.078C40.3483 142.039 41.127 142.818 42.0875 142.818H51.1309C52.0914 142.818 52.8701 142.039 52.8701 141.078C52.8701 140.118 52.0914 139.339 51.1309 139.339H42.0875ZM38.957 141.078C38.957 139.35 40.3586 137.948 42.0875 137.948H51.1309C52.8598 137.948 54.2614 139.35 54.2614 141.078C54.2614 142.807 52.8598 144.209 51.1309 144.209H42.0875C40.3586 144.209 38.957 142.807 38.957 141.078Z" fill="#FF6B00"/>
<path fill-rule="evenodd" clip-rule="evenodd" d="M115.827 139.339C114.866 139.339 114.088 140.118 114.088 141.078C114.088 142.039 114.866 142.818 115.827 142.818H124.87C125.831 142.818 126.609 142.039 126.609 141.078C126.609 140.118 125.831 139.339 124.87 139.339H115.827ZM112.696 141.078C112.696 139.35 114.098 137.948 115.827 137.948H124.87C126.599 137.948 128.001 139.35 128.001 141.078C128.001 142.807 126.599 144.209 124.87 144.209H115.827C114.098 144.209 112.696 142.807 112.696 141.078Z" fill="#FF6B00"/>
<path fill-rule="evenodd" clip-rule="evenodd" d="M67.1304 149.774C66.1699 149.774 65.3913 150.553 65.3913 151.513C65.3913 152.473 66.1699 153.252 67.1304 153.252H100.522C101.482 153.252 102.261 152.473 102.261 151.513C102.261 150.553 101.482 149.774 100.522 149.774H67.1304ZM64 151.513C64 149.784 65.4015 148.383 67.1304 148.383H100.522C102.251 148.383 103.652 149.784 103.652 151.513C103.652 153.242 102.251 154.643 100.522 154.643H67.1304C65.4015 154.643 64 153.242 64 151.513Z" fill="#FF6B00"/>
</g>
<defs>
<linearGradient id="paint0_linear" x1="84.236" y1="30.1177" x2="84.236" y2="165.647" gradientUnits="userSpaceOnUse">
<stop stop-color="#FFAA45"/>
<stop offset="1" stop-color="#FF7A00"/>
</linearGradient>
<clipPath id="clip0">
<rect width="160" height="193.391" fill="white"/>
</clipPath>
</defs>
</svg>
