<svg width="32" height="32" viewBox="0 0 32 32" fill="none" xmlns="http://www.w3.org/2000/svg">
    <path d="M16.0001 0.483643C7.44451 0.483643 0.483887 7.44427 0.483887 15.9999C0.483887 24.5555 7.44451 31.5161 16.0001 31.5161C24.5558 31.5161 31.5164 24.5555 31.5164 15.9999C31.5164 7.44427 24.5558 0.483643 16.0001 0.483643ZM22.922 12.4486C22.9289 12.6024 22.9326 12.7574 22.9326 12.9124C22.9326 17.6318 19.3408 23.073 12.7708 23.073C10.7539 23.073 8.87639 22.4824 7.29639 21.4686C7.57576 21.5018 7.86014 21.5186 8.14826 21.5186C9.82201 21.5186 11.3614 20.9474 12.5839 19.9899C11.0214 19.9611 9.70201 18.9286 9.24764 17.5093C9.46514 17.5518 9.68951 17.5736 9.91889 17.5736C10.2445 17.5736 10.5608 17.5299 10.8601 17.4486C9.22639 17.1205 7.99576 15.6774 7.99576 13.9474C7.99576 13.9324 7.99576 13.9168 7.99639 13.9024C8.47764 14.1693 9.02826 14.3305 9.61326 14.3486C8.65576 13.7093 8.02514 12.6155 8.02514 11.3768C8.02514 10.7218 8.20076 10.108 8.50826 9.58052C10.2689 11.7418 12.9014 13.163 15.8689 13.313C15.8076 13.0511 15.777 12.7793 15.777 12.4986C15.777 10.5268 17.3758 8.92739 19.3483 8.92739C20.3751 8.92739 21.3033 9.36114 21.9545 10.0549C22.7689 9.89489 23.5326 9.59864 24.2233 9.18802C23.9558 10.0224 23.3901 10.7218 22.652 11.1643C23.3751 11.078 24.0639 10.8868 24.7033 10.6024C24.2258 11.3174 23.6195 11.9468 22.922 12.4486Z" fill="white"/>
</svg>
