<svg width="620" height="276" viewBox="0 0 620 276" fill="none" xmlns="http://www.w3.org/2000/svg">
<path fill-rule="evenodd" clip-rule="evenodd" d="M-9.07031 63.3939C-9.07031 41.2042 8.90188 23.2158 31.0717 23.2158C53.2415 23.2158 71.2137 41.2042 71.2137 63.3939V64.0472H-9.07031V63.3939ZM-7.75951 62.7406H69.9029C69.5544 41.5738 52.3026 24.5224 31.0717 24.5224C9.84084 24.5224 -7.41102 41.5738 -7.75951 62.7406Z" fill="#36739F"/>
<path fill-rule="evenodd" clip-rule="evenodd" d="M22.2598 23.8689C22.2598 18.8176 26.351 14.7227 31.3978 14.7227C36.4446 14.7227 40.5358 18.8176 40.5358 23.8689V24.5222H22.2598V23.8689ZM23.592 23.2156H39.2036C38.8719 19.1915 35.5038 16.0293 31.3978 16.0293C27.2918 16.0293 23.9237 19.1915 23.592 23.2156Z" fill="#36739F"/>
<path fill-rule="evenodd" clip-rule="evenodd" d="M30.4189 63.3939V23.8691H31.7244V63.3939H30.4189Z" fill="#36739F"/>
<path fill-rule="evenodd" clip-rule="evenodd" d="M19.5602 42.6918C20.9006 37.0866 24.5975 30.6705 30.5683 23.4526L31.5738 24.2859C25.6565 31.4391 22.1027 37.6728 20.8298 42.9959C19.5419 48.3816 19.0516 55.1669 19.3762 63.3682L18.0717 63.4199C17.7445 55.1493 18.2348 48.2344 19.5602 42.6918Z" fill="#36739F"/>
<path fill-rule="evenodd" clip-rule="evenodd" d="M42.5394 42.6918C41.199 37.0866 37.5021 30.6705 31.5312 23.4526L30.5257 24.2859C36.4431 31.4391 39.9969 37.6728 41.2698 42.9959C42.5577 48.3816 43.048 55.1669 42.7234 63.3682L44.0279 63.4199C44.3552 55.1493 43.8648 48.2344 42.5394 42.6918Z" fill="#36739F"/>
<path fill-rule="evenodd" clip-rule="evenodd" d="M9.16658 41.9615C11.8118 35.0408 18.6595 29.0535 29.4872 23.9316L30.045 25.113C19.3312 30.1809 12.8523 35.9754 10.3858 42.4284C7.86889 49.0134 6.94472 56.197 7.62575 63.9902L6.32529 64.104C5.62885 56.1346 6.57181 48.7501 9.16658 41.9615Z" fill="#36739F"/>
<path fill-rule="evenodd" clip-rule="evenodd" d="M52.8119 41.9615C50.1667 35.0408 43.319 29.0535 32.4913 23.9316L31.9335 25.113C42.6472 30.1809 49.1262 35.9754 51.5927 42.4284C54.1096 49.0134 55.0338 56.197 54.3528 63.9902L55.6532 64.104C56.3497 56.1346 55.4067 48.7501 52.8119 41.9615Z" fill="#36739F"/>
<path fill-rule="evenodd" clip-rule="evenodd" d="M73.498 211.367H98.954C101.477 211.367 103.523 209.319 103.523 206.794V203.527H73.498V211.367ZM74.8035 210.06V204.834H102.218V206.794C102.218 208.598 100.756 210.06 98.954 210.06H74.8035Z" fill="#36739F"/>
<path fill-rule="evenodd" clip-rule="evenodd" d="M-7.76497 217.247C-9.5674 217.247 -11.0286 215.784 -11.0286 213.98V211.367H73.4982V213.98C73.4982 215.784 72.037 217.247 70.2346 217.247H-7.76497ZM-12.334 213.98C-12.334 216.506 -10.2884 218.553 -7.76497 218.553H70.2346C72.758 218.553 74.8036 216.506 74.8036 213.98V210.06H-12.334V213.98Z" fill="#36739F"/>
<path fill-rule="evenodd" clip-rule="evenodd" d="M30.7451 87.8925C28.5822 87.8925 26.8289 89.6475 26.8289 91.8124C26.8289 93.9772 28.5822 95.7322 30.7451 95.7322C32.9081 95.7322 34.6614 93.9772 34.6614 91.8124C34.6614 89.6475 32.9081 87.8925 30.7451 87.8925ZM25.5234 91.8124C25.5234 88.9259 27.8613 86.5859 30.7451 86.5859C33.629 86.5859 35.9669 88.9259 35.9669 91.8124C35.9669 94.6988 33.629 97.0388 30.7451 97.0388C27.8613 97.0388 25.5234 94.6988 25.5234 91.8124Z" fill="#36739F"/>
<path fill-rule="evenodd" clip-rule="evenodd" d="M5.61562 110.758C2.191 110.758 -0.585192 113.537 -0.585192 116.965V129.051H11.8164V116.965C11.8164 113.537 9.04023 110.758 5.61562 110.758ZM-1.89062 116.965C-1.89062 112.815 1.47003 109.452 5.61562 109.452C9.7612 109.452 13.1219 112.815 13.1219 116.965V130.357H-1.89062V116.965Z" fill="#36739F"/>
<path fill-rule="evenodd" clip-rule="evenodd" d="M31.0716 110.758C27.647 110.758 24.8709 113.537 24.8709 116.965V129.051H37.2724V116.965C37.2724 113.537 34.4962 110.758 31.0716 110.758ZM23.5654 116.965C23.5654 112.815 26.9261 109.452 31.0716 109.452C35.2172 109.452 38.5779 112.815 38.5779 116.965V130.357H23.5654V116.965Z" fill="#36739F"/>
<path fill-rule="evenodd" clip-rule="evenodd" d="M56.5277 110.758C53.1031 110.758 50.3269 113.537 50.3269 116.965V129.051H62.7285V116.965C62.7285 113.537 59.9523 110.758 56.5277 110.758ZM49.0215 116.965C49.0215 112.815 52.3821 109.452 56.5277 109.452C60.6733 109.452 64.0339 112.815 64.0339 116.965V130.357H49.0215V116.965Z" fill="#36739F"/>
<path fill-rule="evenodd" clip-rule="evenodd" d="M5.61562 149.957C2.191 149.957 -0.585192 152.735 -0.585192 156.163V168.249H11.8164V156.163C11.8164 152.735 9.04023 149.957 5.61562 149.957ZM-1.89062 156.163C-1.89062 152.014 1.47003 148.65 5.61562 148.65C9.7612 148.65 13.1219 152.014 13.1219 156.163V169.556H-1.89062V156.163Z" fill="#36739F"/>
<path fill-rule="evenodd" clip-rule="evenodd" d="M31.0716 149.957C27.647 149.957 24.8709 152.735 24.8709 156.163V168.249H37.2724V156.163C37.2724 152.735 34.4962 149.957 31.0716 149.957ZM23.5654 156.163C23.5654 152.014 26.9261 148.65 31.0716 148.65C35.2172 148.65 38.5779 152.014 38.5779 156.163V169.556H23.5654V156.163Z" fill="#36739F"/>
<path fill-rule="evenodd" clip-rule="evenodd" d="M56.5277 149.957C53.1031 149.957 50.3269 152.735 50.3269 156.163V168.249H62.7285V156.163C62.7285 152.735 59.9523 149.957 56.5277 149.957ZM49.0215 156.163C49.0215 152.014 52.3821 148.65 56.5277 148.65C60.6733 148.65 64.0339 152.014 64.0339 156.163V169.556H49.0215V156.163Z" fill="#36739F"/>
<path fill-rule="evenodd" clip-rule="evenodd" d="M5.61562 181.315C2.191 181.315 -0.585192 184.094 -0.585192 187.521V199.607H11.8164V187.521C11.8164 184.094 9.04023 181.315 5.61562 181.315ZM-1.89062 187.521C-1.89062 183.372 1.47003 180.008 5.61562 180.008C9.7612 180.008 13.1219 183.372 13.1219 187.521V200.914H-1.89062V187.521Z" fill="#36739F"/>
<path fill-rule="evenodd" clip-rule="evenodd" d="M56.5277 181.315C53.1031 181.315 50.3269 184.094 50.3269 187.521V199.607H62.7285V187.521C62.7285 184.094 59.9523 181.315 56.5277 181.315ZM49.0215 187.521C49.0215 183.372 52.3821 180.008 56.5277 180.008C60.6733 180.008 64.0339 183.372 64.0339 187.521V200.914H49.0215V187.521Z" fill="#36739F"/>
<path fill-rule="evenodd" clip-rule="evenodd" d="M5.61562 70.2534C2.191 70.2534 -0.585192 73.0321 -0.585192 76.4597V99.652H-1.89062V76.4597C-1.89062 72.3104 1.47003 68.9468 5.61562 68.9468C9.7612 68.9468 13.1219 72.3104 13.1219 76.4597V91.2179H11.8164V76.4597C11.8164 73.0321 9.04023 70.2534 5.61562 70.2534Z" fill="#36739F"/>
<path fill-rule="evenodd" clip-rule="evenodd" d="M31.0716 70.2534C27.647 70.2534 24.8709 73.0321 24.8709 76.4598V83.8246H23.5654V76.4598C23.5654 72.3105 26.9261 68.9468 31.0716 68.9468C35.2172 68.9468 38.5779 72.3105 38.5779 76.4598V83.6587H37.2724V76.4598C37.2724 73.0321 34.4962 70.2534 31.0716 70.2534Z" fill="#36739F"/>
<path fill-rule="evenodd" clip-rule="evenodd" d="M56.5277 71.56C53.1031 71.56 50.3269 74.3387 50.3269 77.7664V90.9078H49.0215V77.7664C49.0215 73.6171 52.3821 70.2534 56.5277 70.2534C60.6733 70.2534 64.0339 73.6171 64.0339 77.7664V99.652H62.7285V77.7664C62.7285 74.3387 59.9523 71.56 56.5277 71.56Z" fill="#36739F"/>
<path opacity="0.3" fill-rule="evenodd" clip-rule="evenodd" d="M30.745 5.5766V15.3762H32.0504V5.5766H35.9667V4.27H32.0504V0H30.745V4.27H26.8286V5.5766H30.745ZM-26.6941 51.9611V47.691H-25.3887V51.9611H-21.4723V53.2677H-25.3887V63.0672H-26.6941V53.2677H-30.6104V51.9611H-26.6941ZM87.8575 51.9611V47.691H89.163V51.9611H93.0793V53.2677H89.163V63.0672H87.8575V53.2677H83.9412V51.9611H87.8575Z" fill="#36739F"/>
<path fill-rule="evenodd" clip-rule="evenodd" d="M88.8968 63.8587C88.2082 63.6448 87.4768 64.0301 87.2631 64.7193L77.647 95.7324H99.3728L89.7567 64.7193C89.6292 64.3082 89.3076 63.9863 88.8968 63.8587ZM86.0163 64.332C86.4437 62.9536 87.9066 62.183 89.2837 62.6108C90.1053 62.866 90.7485 63.5098 91.0034 64.332L101.145 97.039H75.875L86.0163 64.332Z" fill="#36739F"/>
<path fill-rule="evenodd" clip-rule="evenodd" d="M79.3725 97.039C76.8491 97.039 74.8035 99.0865 74.8035 101.612V203.527H102.218V101.612C102.218 99.0865 100.172 97.039 97.6485 97.039H79.3725ZM73.498 101.612C73.498 98.3649 76.1281 95.7324 79.3725 95.7324H97.6485C100.893 95.7324 103.523 98.3649 103.523 101.612V204.834H73.498V101.612Z" fill="#36739F"/>
<path fill-rule="evenodd" clip-rule="evenodd" d="M88.5098 135.583C86.3469 135.583 84.5935 137.338 84.5935 139.503C84.5935 141.668 86.3469 143.423 88.5098 143.423C90.6727 143.423 92.4261 141.668 92.4261 139.503C92.4261 137.338 90.6727 135.583 88.5098 135.583ZM83.2881 139.503C83.2881 136.617 85.6259 134.277 88.5098 134.277C91.3937 134.277 93.7316 136.617 93.7316 139.503C93.7316 142.39 91.3937 144.73 88.5098 144.73C85.6259 144.73 83.2881 142.39 83.2881 139.503Z" fill="#36739F"/>
<path fill-rule="evenodd" clip-rule="evenodd" d="M88.5098 82.6665C86.3469 82.6665 84.5935 84.4214 84.5935 86.5863C84.5935 88.7511 86.3469 90.5061 88.5098 90.5061C90.6727 90.5061 92.4261 88.7511 92.4261 86.5863C92.4261 84.4214 90.6727 82.6665 88.5098 82.6665ZM83.2881 86.5863C83.2881 83.6998 85.6259 81.3599 88.5098 81.3599C91.3937 81.3599 93.7316 83.6998 93.7316 86.5863C93.7316 89.4727 91.3937 91.8127 88.5098 91.8127C85.6259 91.8127 83.2881 89.4727 83.2881 86.5863Z" fill="#36739F"/>
<path fill-rule="evenodd" clip-rule="evenodd" d="M88.5098 185.888C86.3469 185.888 84.5935 187.643 84.5935 189.808C84.5935 191.973 86.3469 193.728 88.5098 193.728C90.6727 193.728 92.4261 191.973 92.4261 189.808C92.4261 187.643 90.6727 185.888 88.5098 185.888ZM83.2881 189.808C83.2881 186.921 85.6259 184.582 88.5098 184.582C91.3937 184.582 93.7316 186.921 93.7316 189.808C93.7316 192.694 91.3937 195.034 88.5098 195.034C85.6259 195.034 83.2881 192.694 83.2881 189.808Z" fill="#36739F"/>
<path fill-rule="evenodd" clip-rule="evenodd" d="M88.8363 102.918C85.4117 102.918 82.6355 105.697 82.6355 109.125V121.211H95.0372V109.125C95.0372 105.697 92.261 102.918 88.8363 102.918ZM81.3301 109.125C81.3301 104.975 84.6908 101.612 88.8363 101.612C92.9819 101.612 96.3426 104.975 96.3426 109.125V122.517H81.3301V109.125Z" fill="#36739F"/>
<path fill-rule="evenodd" clip-rule="evenodd" d="M88.8363 155.183C85.4117 155.183 82.6355 157.961 82.6355 161.389V173.475H95.0372V161.389C95.0372 157.961 92.261 155.183 88.8363 155.183ZM81.3301 161.389C81.3301 157.24 84.6908 153.876 88.8363 153.876C92.9819 153.876 96.3426 157.24 96.3426 161.389V174.782H81.3301V161.389Z" fill="#36739F"/>
<path fill-rule="evenodd" clip-rule="evenodd" d="M102.87 122.518H74.1504V121.211H102.87V122.518Z" fill="#36739F"/>
<path fill-rule="evenodd" clip-rule="evenodd" d="M-9.07031 63.0674H71.2137V95.0792C71.2137 98.3264 68.5836 100.959 65.3393 100.959H-3.19587C-6.44024 100.959 -9.07031 98.3264 -9.07031 95.0792V63.0674ZM-7.76488 64.374V95.0792C-7.76488 97.6048 -5.71927 99.6523 -3.19587 99.6523H65.3393C67.8627 99.6523 69.9083 97.6048 69.9083 95.0792V64.374H-7.76488Z" fill="#36739F"/>
<path fill-rule="evenodd" clip-rule="evenodd" d="M74.4765 140.157H-11.0293V138.85H74.4765V140.157Z" fill="#36739F"/>
<path fill-rule="evenodd" clip-rule="evenodd" d="M-12.334 204.181H-11.0286V210.06H73.4982V204.181H74.8036V211.367H-12.334V204.181Z" fill="#36739F"/>
<path fill-rule="evenodd" clip-rule="evenodd" d="M76.4349 97.039H70.5605V95.7324H76.4349V97.039Z" fill="#36739F"/>
<path fill-rule="evenodd" clip-rule="evenodd" d="M34.2154 82.1675C32.2957 80.95 29.8465 80.95 27.9268 82.1675L0.35843 99.6523H61.7838L34.2154 82.1675ZM27.2281 81.0638C29.5744 79.5757 32.5678 79.5757 34.9141 81.0638L66.2828 100.959H-4.14062L27.2281 81.0638Z" fill="#36739F"/>
<path fill-rule="evenodd" clip-rule="evenodd" d="M33.8651 177.036C32.1221 176.093 30.0214 176.093 28.2783 177.036L19.6492 181.704V210.06H42.4943V181.704L33.8651 177.036ZM27.6576 175.886C29.788 174.734 32.3555 174.734 34.4859 175.886L43.7997 180.925V211.367H18.3438V180.925L27.6576 175.886Z" fill="#36739F"/>
<path fill-rule="evenodd" clip-rule="evenodd" d="M18.3438 63.0674H43.7997V86.5863H42.4943V64.374H19.6492V86.5863H18.3438V63.0674Z" fill="#36739F"/>
<path fill-rule="evenodd" clip-rule="evenodd" d="M30.4189 210.713V176.088H31.7244V210.713H30.4189Z" fill="#36739F"/>
<path fill-rule="evenodd" clip-rule="evenodd" d="M86.5518 121.864V102.265H87.8573V121.864H86.5518Z" fill="#36739F"/>
<path fill-rule="evenodd" clip-rule="evenodd" d="M89.8154 121.864V102.265H91.1208V121.864H89.8154Z" fill="#36739F"/>
<path fill-rule="evenodd" clip-rule="evenodd" d="M86.5518 174.128V154.529H87.8573V174.128H86.5518Z" fill="#36739F"/>
<path fill-rule="evenodd" clip-rule="evenodd" d="M89.8154 174.128V154.529H91.1208V174.128H89.8154Z" fill="#36739F"/>
<path fill-rule="evenodd" clip-rule="evenodd" d="M54.2432 168.902V149.303H55.5486V168.902H54.2432Z" fill="#36739F"/>
<path fill-rule="evenodd" clip-rule="evenodd" d="M57.5068 168.902V149.303H58.8123V168.902H57.5068Z" fill="#36739F"/>
<path fill-rule="evenodd" clip-rule="evenodd" d="M54.2432 200.261V180.662H55.5486V200.261H54.2432Z" fill="#36739F"/>
<path fill-rule="evenodd" clip-rule="evenodd" d="M57.5068 200.261V180.662H58.8123V200.261H57.5068Z" fill="#36739F"/>
<path fill-rule="evenodd" clip-rule="evenodd" d="M54.2432 129.704V110.105H55.5486V129.704H54.2432Z" fill="#36739F"/>
<path fill-rule="evenodd" clip-rule="evenodd" d="M57.5068 129.704V110.105H58.8123V129.704H57.5068Z" fill="#36739F"/>
<path fill-rule="evenodd" clip-rule="evenodd" d="M54.2432 94.4256V70.9067H55.5486V94.4256H54.2432Z" fill="#36739F"/>
<path fill-rule="evenodd" clip-rule="evenodd" d="M57.5068 96.3855V70.9067H58.8123V96.3855H57.5068Z" fill="#36739F"/>
<path fill-rule="evenodd" clip-rule="evenodd" d="M3.33105 129.704V110.105H4.63647V129.704H3.33105Z" fill="#36739F"/>
<path fill-rule="evenodd" clip-rule="evenodd" d="M6.59473 129.704V110.105H7.90021V129.704H6.59473Z" fill="#36739F"/>
<path fill-rule="evenodd" clip-rule="evenodd" d="M3.33105 96.3855V70.2534H4.63647V96.3855H3.33105Z" fill="#36739F"/>
<path fill-rule="evenodd" clip-rule="evenodd" d="M6.59473 94.4256V70.2534H7.90021V94.4256H6.59473Z" fill="#36739F"/>
<path fill-rule="evenodd" clip-rule="evenodd" d="M3.33105 168.902V149.303H4.63647V168.902H3.33105Z" fill="#36739F"/>
<path fill-rule="evenodd" clip-rule="evenodd" d="M6.59473 168.902V149.303H7.90021V168.902H6.59473Z" fill="#36739F"/>
<path fill-rule="evenodd" clip-rule="evenodd" d="M3.33105 200.914V181.315H4.63647V200.914H3.33105Z" fill="#36739F"/>
<path fill-rule="evenodd" clip-rule="evenodd" d="M6.59473 200.914V181.315H7.90021V200.914H6.59473Z" fill="#36739F"/>
<path fill-rule="evenodd" clip-rule="evenodd" d="M28.7871 168.902V149.303H30.0926V168.902H28.7871Z" fill="#36739F"/>
<path fill-rule="evenodd" clip-rule="evenodd" d="M32.0508 168.902V149.303H33.3562V168.902H32.0508Z" fill="#36739F"/>
<path fill-rule="evenodd" clip-rule="evenodd" d="M28.7871 129.704V110.105H30.0926V129.704H28.7871Z" fill="#36739F"/>
<path fill-rule="evenodd" clip-rule="evenodd" d="M32.0508 129.704V110.105H33.3562V129.704H32.0508Z" fill="#36739F"/>
<path fill-rule="evenodd" clip-rule="evenodd" d="M28.7871 80.7063V69.6001H30.0926V80.7063H28.7871Z" fill="#36739F"/>
<path fill-rule="evenodd" clip-rule="evenodd" d="M32.0508 80.7063V69.6001H33.3562V80.7063H32.0508Z" fill="#36739F"/>
<path fill-rule="evenodd" clip-rule="evenodd" d="M-45.514 142.79L-4.8913 161.369L8.55267 167.424L25.0257 183.71H111.303L112.335 228.659H-49.5391L-45.514 142.79Z" fill="white"/>
<path fill-rule="evenodd" clip-rule="evenodd" d="M-37.3224 164.255C-37.1756 163.926 -36.7897 163.778 -36.4604 163.925L35.0618 195.839V249.089L-37.3789 257.16V164.521C-37.3789 164.43 -37.3597 164.339 -37.3224 164.255ZM-35.9289 162.731C-36.9166 162.291 -38.0743 162.735 -38.5147 163.723C-38.6265 163.975 -38.6844 164.246 -38.6844 164.521V257.16C-38.6844 257.882 -38.0999 258.467 -37.3789 258.467C-37.3307 258.467 -37.2825 258.464 -37.2345 258.459L36.3672 250.259V194.991L-35.9289 162.731Z" fill="#36739F"/>
<path fill-rule="evenodd" clip-rule="evenodd" d="M2.06731 234.61C2.09851 234.25 2.41494 233.984 2.77407 234.015L7.06514 234.388C7.40246 234.418 7.66136 234.7 7.66136 235.039V246.447C7.66136 246.786 7.40246 247.068 7.06514 247.098L2.77407 247.471C2.75527 247.472 2.73642 247.473 2.71758 247.473C2.3571 247.473 2.06486 247.181 2.06486 246.82V234.666C2.06486 234.647 2.06568 234.628 2.06731 234.61ZM2.88706 232.714C1.80966 232.62 0.860378 233.418 0.766777 234.496C0.761879 234.553 0.75943 234.609 0.75943 234.666V246.82C0.75943 247.902 1.63612 248.78 2.71758 248.78C2.77417 248.78 2.83072 248.777 2.88706 248.772L7.17813 248.399C8.19008 248.311 8.9668 247.463 8.9668 246.447V235.039C8.9668 234.023 8.19008 233.175 7.17813 233.087L2.88706 232.714Z" fill="#36739F"/>
<path fill-rule="evenodd" clip-rule="evenodd" d="M15.4432 236.038C15.4741 235.678 15.7903 235.412 16.1495 235.443L19.1856 235.704C19.5232 235.733 19.7825 236.016 19.7825 236.355V245.131C19.7825 245.47 19.5232 245.753 19.1856 245.782L16.1495 246.043L16.2054 246.694L16.1495 246.043C16.1308 246.045 16.1122 246.046 16.0936 246.046C15.7331 246.046 15.4408 245.753 15.4408 245.392V236.094C15.4408 236.075 15.4416 236.056 15.4432 236.038ZM16.2613 234.141C15.1838 234.048 14.2352 234.848 14.1426 235.926C14.1378 235.982 14.1354 236.038 14.1354 236.094V245.392C14.1354 246.475 15.0121 247.352 16.0936 247.352C16.1496 247.352 16.2055 247.35 16.2613 247.345L19.2974 247.084C20.3102 246.997 21.0879 246.149 21.0879 245.131V236.355C21.0879 235.338 20.3102 234.489 19.2974 234.402L16.2613 234.141Z" fill="#36739F"/>
<path fill-rule="evenodd" clip-rule="evenodd" d="M26.4222 236.752C26.453 236.393 26.7692 236.126 27.1284 236.157L29.168 236.333L29.168 236.333C29.5056 236.362 29.7649 236.645 29.7649 236.984V243.788C29.7649 244.127 29.5056 244.41 29.168 244.439L27.1284 244.614C27.1097 244.616 27.0911 244.617 27.0725 244.617C26.712 244.617 26.4198 244.324 26.4198 243.963V236.808C26.4198 236.789 26.4206 236.771 26.4222 236.752ZM27.2402 234.855C26.1627 234.763 25.2141 235.562 25.1215 236.64C25.1167 236.696 25.1143 236.752 25.1143 236.808V243.963C25.1143 245.046 25.991 245.923 27.0725 245.923C27.1285 245.923 27.1845 245.921 27.2402 245.916L29.2798 245.741C30.2926 245.653 31.0703 244.805 31.0703 243.788V236.984C31.0703 235.966 30.2926 235.118 29.2798 235.031L29.2239 235.682" fill="#36739F"/>
<path fill-rule="evenodd" clip-rule="evenodd" d="M2.07285 211.919C2.12907 211.563 2.46329 211.32 2.81937 211.376L7.11043 212.054C7.42769 212.104 7.66136 212.378 7.66136 212.699V223.33C7.66136 223.353 7.66016 223.376 7.65777 223.398C7.61997 223.757 7.29872 224.018 6.94022 223.98L2.64916 223.527C2.317 223.492 2.06486 223.212 2.06486 222.877V212.021C2.06486 211.987 2.06753 211.953 2.07285 211.919ZM3.02294 210.085C1.95472 209.917 0.952033 210.646 0.783385 211.716C0.767439 211.817 0.75943 211.919 0.75943 212.021V222.877C0.75943 223.88 1.51583 224.721 2.5123 224.826L6.80337 225.279C7.87886 225.393 8.84263 224.612 8.95601 223.535L8.30689 223.467L8.95601 223.535C8.9632 223.467 8.9668 223.399 8.9668 223.33V212.699C8.9668 211.735 8.26579 210.914 7.31401 210.763L3.02294 210.085L2.92115 210.731L3.02294 210.085Z" fill="#36739F"/>
<path fill-rule="evenodd" clip-rule="evenodd" d="M15.4495 214.183C15.5081 213.827 15.8439 213.586 16.1996 213.645L19.2358 214.145C19.5511 214.197 19.7825 214.47 19.7825 214.79V224.492C19.7825 224.514 19.7814 224.536 19.7792 224.557C19.7433 224.916 19.4235 225.178 19.0648 225.142L16.0286 224.839C15.6949 224.805 15.4408 224.524 15.4408 224.189V214.289C15.4408 214.254 15.4437 214.218 15.4495 214.183ZM16.4116 212.355C15.3445 212.18 14.3371 212.903 14.1614 213.971C14.1441 214.076 14.1354 214.183 14.1354 214.289V224.189C14.1354 225.195 14.8977 226.039 15.8987 226.139L18.9349 226.443C20.011 226.55 20.9706 225.764 21.0782 224.687C21.0846 224.623 21.0879 224.558 21.0879 224.492V214.79C21.0879 213.83 20.3938 213.012 19.4478 212.856L16.4116 212.355Z" fill="#36739F"/>
<path fill-rule="evenodd" clip-rule="evenodd" d="M26.4288 216.043C26.4884 215.687 26.825 215.447 27.1805 215.507L29.2202 215.849C29.5346 215.902 29.7649 216.175 29.7649 216.494V225.332C29.7649 225.351 29.7641 225.369 29.7626 225.387C29.7325 225.747 29.4169 226.014 29.0577 225.983L27.0181 225.813C26.6798 225.784 26.4198 225.501 26.4198 225.162V216.151C26.4198 216.115 26.4228 216.079 26.4288 216.043ZM27.3966 214.218C26.33 214.039 25.3203 214.759 25.1413 215.827C25.1234 215.934 25.1143 216.042 25.1143 216.151V225.162C25.1143 226.181 25.8946 227.03 26.9092 227.115L28.9488 227.286C30.0265 227.376 30.9733 226.575 31.0635 225.496C31.068 225.442 31.0703 225.387 31.0703 225.332V216.494C31.0703 215.536 30.3794 214.719 29.4362 214.561L27.3966 214.218Z" fill="#36739F"/>
<path fill-rule="evenodd" clip-rule="evenodd" d="M2.59306 187.494C2.72295 187.157 3.10085 186.99 3.43712 187.12L7.49286 188.688C7.74448 188.785 7.91039 189.027 7.91039 189.297V199.179C7.91039 199.222 7.90616 199.265 7.89775 199.307C7.82714 199.661 7.48333 199.89 7.12983 199.82L3.07408 199.009C2.76891 198.948 2.54922 198.68 2.54922 198.368V187.729C2.54922 187.648 2.56408 187.569 2.59306 187.494ZM3.90749 185.901C2.89868 185.511 1.76499 186.013 1.37532 187.023C1.28838 187.248 1.24379 187.487 1.24379 187.729V198.368C1.24379 199.303 1.90287 200.107 2.81837 200.29L6.87412 201.101C7.93462 201.313 8.96605 200.625 9.17789 199.563C9.20312 199.437 9.21582 199.308 9.21582 199.179V189.297C9.21582 188.487 8.71808 187.761 7.96323 187.469L3.90749 185.901Z" fill="#36739F"/>
<path fill-rule="evenodd" clip-rule="evenodd" d="M15.4271 192.769C15.557 192.433 15.9349 192.265 16.2712 192.395L19.5427 193.66L19.7778 193.051L19.5427 193.66C19.7943 193.758 19.9602 194 19.9602 194.27V202.696C19.9602 202.739 19.956 202.782 19.9475 202.824C19.8769 203.178 19.5331 203.408 19.1796 203.337L15.9082 202.683C15.603 202.622 15.3833 202.354 15.3833 202.042V193.005C15.3833 192.924 15.3982 192.845 15.4271 192.769ZM16.7416 191.177C15.7327 190.787 14.5991 191.289 14.2094 192.299C14.1224 192.524 14.0779 192.763 14.0779 193.005V202.042C14.0779 202.977 14.7369 203.781 15.6524 203.964L18.9239 204.618C19.9844 204.83 21.0159 204.142 21.2277 203.08C21.2529 202.954 21.2656 202.825 21.2656 202.696V194.27C21.2656 193.46 20.7679 192.733 20.013 192.441L16.7416 191.177Z" fill="#36739F"/>
<path fill-rule="evenodd" clip-rule="evenodd" d="M26.1226 197.166C26.2525 196.83 26.6304 196.662 26.9666 196.792L29.4538 197.754C29.7054 197.851 29.8713 198.093 29.8713 198.363V205.335C29.8713 205.378 29.8671 205.42 29.8587 205.463C29.7881 205.816 29.4443 206.046 29.0908 205.975L26.6036 205.478L26.4758 206.119L26.6036 205.478C26.2984 205.417 26.0787 205.149 26.0787 204.837V197.402C26.0787 197.321 26.0936 197.242 26.1226 197.166ZM27.437 195.574C26.4282 195.184 25.2945 195.686 24.9048 196.696C24.8179 196.921 24.7733 197.16 24.7733 197.402V204.837C24.7733 205.772 25.4324 206.576 26.3479 206.759L28.835 207.257C29.8956 207.469 30.927 206.78 31.1388 205.719C31.1641 205.592 31.1768 205.464 31.1768 205.335V198.363C31.1768 197.553 30.679 196.827 29.9242 196.535L27.437 195.574Z" fill="#36739F"/>
<path fill-rule="evenodd" clip-rule="evenodd" d="M-29.3077 197.787H-38.0427V199.093H-29.4437L35.5796 212.799L35.8486 211.52L-29.3077 197.787Z" fill="#36739F"/>
<path fill-rule="evenodd" clip-rule="evenodd" d="M-29.3457 225.225H-38.0422V226.532H-29.4045L35.6561 232.409L35.7734 231.107L-29.3457 225.225Z" fill="#36739F"/>
<path fill-rule="evenodd" clip-rule="evenodd" d="M-39.0487 156.48C-38.4745 156.48 -37.9074 156.607 -37.3875 156.851L33.9342 190.288C34.6223 190.611 35.0618 191.303 35.0618 192.063V195.496H36.3672V192.063C36.3672 190.796 35.6347 189.643 34.488 189.105L-36.8337 155.667C-37.527 155.342 -38.2831 155.174 -39.0487 155.174H-45.875V156.48H-39.0487Z" fill="#36739F"/>
<path fill-rule="evenodd" clip-rule="evenodd" d="M-196 248.944L-121.554 257.237H-38.0789L36.3669 248.944V251.739C36.3669 253.378 35.1536 254.763 33.5302 254.977L-37.9999 264.423H-121.633L-193.163 254.977C-194.787 254.763 -196 253.378 -196 251.739V248.944ZM-194.695 250.404V251.739C-194.695 252.722 -193.967 253.553 -192.993 253.682L-121.548 263.117H-38.0856L33.3595 253.682C34.3335 253.553 35.0615 252.722 35.0615 251.739V250.404L-38.0065 258.544H-121.627L-194.695 250.404Z" fill="#36739F"/>
<path fill-rule="evenodd" clip-rule="evenodd" d="M14.3876 177.467L28.3072 184.392L51.6319 183.581L40.5357 262.631H0.0673828V202.369C3.21601 198.119 6.41201 195.341 9.65535 194.034C12.8987 192.728 14.4761 187.205 14.3876 177.467Z" fill="white"/>
<path fill-rule="evenodd" clip-rule="evenodd" d="M300.766 125.378C301.847 123.693 303.709 122.675 305.709 122.675H326.557V275.612H257.248L257.212 274.996C256.045 254.651 258.409 231.706 264.289 206.166C270.023 181.263 282.191 154.332 300.766 125.378ZM305.709 123.981C304.154 123.981 302.705 124.774 301.864 126.084C283.344 154.953 271.252 181.744 265.561 206.46C259.761 231.653 257.405 254.266 258.481 274.306H325.252V123.981H305.709Z" fill="#36739F"/>
<path fill-rule="evenodd" clip-rule="evenodd" d="M386.733 125.532C387.813 123.847 389.676 122.829 391.676 122.829H412.524V275.766H343.214L343.179 275.15C342.012 254.805 344.376 231.859 350.256 206.32C355.99 181.416 368.158 154.486 386.733 125.532ZM391.676 124.135C390.12 124.135 388.672 124.927 387.831 126.237C369.311 155.107 357.219 181.898 351.528 206.613C345.727 231.807 343.372 254.42 344.448 274.459H411.218V124.135H391.676Z" fill="#36739F"/>
<path fill-rule="evenodd" clip-rule="evenodd" d="M472.7 125.378C473.78 123.693 475.643 122.675 477.643 122.675H498.491V275.612H429.181L429.146 274.996C427.979 254.651 430.343 231.706 436.223 206.166C441.957 181.263 454.125 154.332 472.7 125.378ZM477.643 123.981C476.087 123.981 474.639 124.774 473.798 126.084C455.278 154.953 443.186 181.744 437.495 206.46C431.694 231.653 429.339 254.266 430.415 274.306H497.185V123.981H477.643Z" fill="#36739F"/>
<path fill-rule="evenodd" clip-rule="evenodd" d="M293.941 114.171C295.367 111.851 297.893 110.438 300.614 110.438H320.03C323.635 110.438 326.557 113.362 326.557 116.971V123.328H325.252V116.971C325.252 114.084 322.914 111.744 320.03 111.744H300.614C298.346 111.744 296.241 112.922 295.053 114.855L277.64 143.198H160.887L166.91 132.828C167.494 131.822 168.569 131.203 169.732 131.203H283.3V131.492L293.941 114.171ZM282.674 132.51H169.732C169.034 132.51 168.389 132.881 168.039 133.484L163.156 141.891H276.91L282.674 132.51Z" fill="#36739F"/>
<path fill-rule="evenodd" clip-rule="evenodd" d="M379.836 114.324C381.261 112.005 383.787 110.591 386.508 110.591H405.924C409.529 110.591 412.451 113.516 412.451 117.124V123.482H411.146V117.124C411.146 114.238 408.808 111.898 405.924 111.898H386.508C384.24 111.898 382.135 113.076 380.948 115.009L363.534 143.352H325.967L325.653 132.982C326.238 131.976 325.2 131.357 326.362 131.357H369.194V131.645L379.836 114.324ZM368.568 132.663H326.362C325.665 132.663 326.076 133.035 325.726 133.638L326.124 142.045H362.804L368.568 132.663Z" fill="#36739F"/>
<path fill-rule="evenodd" clip-rule="evenodd" d="M465.836 114.324C467.261 112.005 469.787 110.591 472.508 110.591H491.924C495.529 110.591 498.451 113.516 498.451 117.124V123.482H497.146V117.124C497.146 114.238 494.808 111.898 491.924 111.898H472.508C470.24 111.898 468.135 113.076 466.948 115.009L449.534 143.352H411.967L411.653 132.982C412.238 131.976 411.2 131.357 412.362 131.357H455.194V131.645L465.836 114.324ZM454.568 132.663H412.362C411.665 132.663 412.076 133.035 411.726 133.638L412.124 142.045H448.804L454.568 132.663Z" fill="#36739F"/>
<path fill-rule="evenodd" clip-rule="evenodd" d="M325.154 248.036H344.77L344.735 248.723C344.544 252.415 344.418 255.144 344.355 256.912C344.292 258.679 344.239 260.999 344.195 263.871L344.185 264.515H334.571C333.489 264.515 332.612 265.392 332.612 266.475V275.766H325.154V248.036ZM326.46 249.342V274.459H331.307V266.475C331.307 264.671 332.768 263.208 334.571 263.208H342.9C342.942 260.625 342.992 258.511 343.05 256.866C343.11 255.199 343.225 252.69 343.396 249.342H326.46Z" fill="#36739F"/>
<path fill-rule="evenodd" clip-rule="evenodd" d="M223.373 247.882H258.803L258.768 248.569C258.577 252.261 258.451 254.99 258.388 256.758C258.325 258.526 258.272 260.845 258.228 263.718L258.218 264.361H248.604C247.522 264.361 246.646 265.238 246.646 266.321V275.612H223.373V247.882ZM224.678 249.188V274.305H245.34V266.321C245.34 264.517 246.801 263.054 248.604 263.054H256.933C256.975 260.472 257.025 258.357 257.083 256.712C257.143 255.045 257.258 252.536 257.429 249.188H224.678Z" fill="#36739F"/>
<path fill-rule="evenodd" clip-rule="evenodd" d="M411.121 247.882H430.737L430.701 248.569C430.511 252.261 430.385 254.99 430.322 256.758C430.259 258.526 430.205 260.845 430.162 263.718L430.152 264.361H420.537C419.456 264.361 418.579 265.238 418.579 266.321V275.612H411.121V247.882ZM412.427 249.188V274.305H417.274V266.321C417.274 264.517 418.735 263.054 420.537 263.054H428.866C428.908 260.472 428.958 258.357 429.017 256.712C429.076 255.045 429.191 252.536 429.362 249.188H412.427Z" fill="#36739F"/>
<path fill-rule="evenodd" clip-rule="evenodd" d="M440.276 162.432H411.773V161.125H442.368L441.907 162.066C433.496 179.229 427.742 195.182 424.634 209.928C421.516 224.721 419.496 237.607 418.569 248.59L417.268 248.48C418.201 237.428 420.232 224.486 423.357 209.658C426.434 195.054 432.078 179.311 440.276 162.432Z" fill="#36739F"/>
<path fill-rule="evenodd" clip-rule="evenodd" d="M354.309 162.585H325.807V161.279H356.401L355.94 162.22C347.529 179.383 341.775 195.336 338.667 210.081C335.55 224.874 333.529 237.761 332.602 248.744L331.301 248.634C332.234 237.582 334.265 224.64 337.39 209.812C340.468 195.208 346.111 179.465 354.309 162.585Z" fill="#36739F"/>
<path fill-rule="evenodd" clip-rule="evenodd" d="M267.621 162.432H223.304V161.125H269.713L269.252 162.066C260.84 179.229 255.086 195.182 251.979 209.928C248.861 224.721 246.841 237.607 245.913 248.59L244.612 248.48C245.546 237.428 247.576 224.486 250.701 209.658C253.779 195.054 259.422 179.311 267.621 162.432Z" fill="#36739F"/>
<path fill-rule="evenodd" clip-rule="evenodd" d="M325.905 271.595H258.116V270.289H325.905V271.595Z" fill="#36739F"/>
<path fill-rule="evenodd" clip-rule="evenodd" d="M325.905 267.983H258.116V266.676H325.905V267.983Z" fill="#36739F"/>
<path fill-rule="evenodd" clip-rule="evenodd" d="M223.402 179.115H169.263V177.809H223.402V179.115Z" fill="#36739F"/>
<path fill-rule="evenodd" clip-rule="evenodd" d="M223.402 161.053H169.263V159.746H223.402V161.053Z" fill="#36739F"/>
<path fill-rule="evenodd" clip-rule="evenodd" d="M223.402 171.891H169.263V170.584H223.402V171.891Z" fill="#36739F"/>
<path fill-rule="evenodd" clip-rule="evenodd" d="M223.402 153.828H169.263V152.521H223.402V153.828Z" fill="#36739F"/>
<path fill-rule="evenodd" clip-rule="evenodd" d="M223.402 146.603H169.263V145.296H223.402V146.603Z" fill="#36739F"/>
<path fill-rule="evenodd" clip-rule="evenodd" d="M325.905 264.371H258.116V263.064H325.905V264.371Z" fill="#36739F"/>
<path fill-rule="evenodd" clip-rule="evenodd" d="M223.402 164.665H169.263V163.359H223.402V164.665Z" fill="#36739F"/>
<path fill-rule="evenodd" clip-rule="evenodd" d="M223.402 175.503H169.263V174.196H223.402V175.503Z" fill="#36739F"/>
<path fill-rule="evenodd" clip-rule="evenodd" d="M223.402 157.44H169.263V156.134H223.402V157.44Z" fill="#36739F"/>
<path fill-rule="evenodd" clip-rule="evenodd" d="M223.402 168.278H169.263V166.971H223.402V168.278Z" fill="#36739F"/>
<path fill-rule="evenodd" clip-rule="evenodd" d="M223.402 150.215H169.263V148.909H223.402V150.215Z" fill="#36739F"/>
<path fill-rule="evenodd" clip-rule="evenodd" d="M325.905 249.198H258.116V247.891H325.905V249.198Z" fill="#36739F"/>
<path fill-rule="evenodd" clip-rule="evenodd" d="M411.149 271.749H343.36V270.442H411.149V271.749Z" fill="#36739F"/>
<path fill-rule="evenodd" clip-rule="evenodd" d="M411.149 268.137H343.36V266.83H411.149V268.137Z" fill="#36739F"/>
<path fill-rule="evenodd" clip-rule="evenodd" d="M411.149 264.524H343.36V263.217H411.149V264.524Z" fill="#36739F"/>
<path fill-rule="evenodd" clip-rule="evenodd" d="M411.149 249.198H343.36V247.891H411.149V249.198Z" fill="#36739F"/>
<path fill-rule="evenodd" clip-rule="evenodd" d="M497.837 271.595H430.049V270.289H497.837V271.595Z" fill="#36739F"/>
<path fill-rule="evenodd" clip-rule="evenodd" d="M497.837 267.983H430.049V266.676H497.837V267.983Z" fill="#36739F"/>
<path fill-rule="evenodd" clip-rule="evenodd" d="M497.837 264.371H430.049V263.064H497.837V264.371Z" fill="#36739F"/>
<path fill-rule="evenodd" clip-rule="evenodd" d="M497.837 249.198H430.049V247.891H497.837V249.198Z" fill="#36739F"/>
<path fill-rule="evenodd" clip-rule="evenodd" d="M325.271 143.198H291.018V141.892H325.271V143.198Z" fill="#36739F"/>
<path fill-rule="evenodd" clip-rule="evenodd" d="M411.237 143.198H376.984V141.892H411.237V143.198Z" fill="#36739F"/>
<path fill-rule="evenodd" clip-rule="evenodd" d="M497.204 143.198H462.951V141.892H497.204V143.198Z" fill="#36739F"/>
<g opacity="0.5">
<path fill-rule="evenodd" clip-rule="evenodd" d="M276.574 201.758C280.043 186.065 286.578 166.243 296.169 142.302L297.381 142.788C287.803 166.698 281.296 186.446 277.849 202.04C274.398 217.649 272.277 233.159 271.483 248.569L270.18 248.502C270.977 233.017 273.108 217.435 276.574 201.758Z" fill="#36739F"/>
<path fill-rule="evenodd" clip-rule="evenodd" d="M289.698 199.039C291.937 185.132 296.624 166.234 303.749 142.358L305 142.732C297.881 166.588 293.212 185.423 290.987 199.247C288.76 213.075 287.424 229.508 286.982 248.55L285.677 248.52C286.12 229.438 287.459 212.943 289.698 199.039Z" fill="#36739F"/>
<path fill-rule="evenodd" clip-rule="evenodd" d="M302.507 202.433C303.32 186.685 305.884 166.682 310.196 142.431L311.482 142.66C307.175 166.884 304.619 186.828 303.811 202.5C303.001 218.205 302.412 233.558 302.044 248.561L300.739 248.529C301.107 233.514 301.696 218.149 302.507 202.433Z" fill="#36739F"/>
<path fill-rule="evenodd" clip-rule="evenodd" d="M313.994 199.888C314.805 184.174 315.942 165.046 317.407 142.502L318.709 142.587C317.245 165.127 316.108 184.25 315.298 199.956C314.488 215.65 314.228 231.839 314.517 248.524L313.212 248.546C312.922 231.834 313.183 215.614 313.994 199.888Z" fill="#36739F"/>
<path fill-rule="evenodd" clip-rule="evenodd" d="M326.409 166.293L259.383 248.317L258.372 247.49L325.399 165.465L326.409 166.293Z" fill="#36739F"/>
<path fill-rule="evenodd" clip-rule="evenodd" d="M326.319 180.574L272.624 248.939L271.598 248.131L325.293 179.766L326.319 180.574Z" fill="#36739F"/>
<path fill-rule="evenodd" clip-rule="evenodd" d="M325.977 195.451L287.719 248.916L286.657 248.155L324.916 194.69L325.977 195.451Z" fill="#36739F"/>
<path fill-rule="evenodd" clip-rule="evenodd" d="M325.993 212.043L302.172 248.89L301.076 248.181L324.897 211.333L325.993 212.043Z" fill="#36739F"/>
<path fill-rule="evenodd" clip-rule="evenodd" d="M325.999 230.819L315.171 248.159L314.064 247.466L324.892 230.126L325.999 230.819Z" fill="#36739F"/>
<path fill-rule="evenodd" clip-rule="evenodd" d="M326.296 155.243L260.969 229.46L259.989 228.596L325.317 154.379L326.296 155.243Z" fill="#36739F"/>
<path fill-rule="evenodd" clip-rule="evenodd" d="M327.012 142.966L264.572 212.126L263.604 211.25L326.044 142.09L327.012 142.966Z" fill="#36739F"/>
<path fill-rule="evenodd" clip-rule="evenodd" d="M318.695 143.506L268.887 194.803L267.951 193.893L317.759 142.595L318.695 143.506Z" fill="#36739F"/>
<path fill-rule="evenodd" clip-rule="evenodd" d="M311.294 143.519L273.924 179.844L273.015 178.907L310.384 142.582L311.294 143.519Z" fill="#36739F"/>
<path fill-rule="evenodd" clip-rule="evenodd" d="M304.952 142.811L280.409 165.208L279.529 164.243L304.072 141.845L304.952 142.811Z" fill="#36739F"/>
<path fill-rule="evenodd" clip-rule="evenodd" d="M296.311 143.512L286.205 153.627L285.282 152.703L295.388 142.588L296.311 143.512Z" fill="#36739F"/>
<path fill-rule="evenodd" clip-rule="evenodd" d="M325.903 230.604H260.508V229.298H325.903V230.604Z" fill="#36739F"/>
<path fill-rule="evenodd" clip-rule="evenodd" d="M325.904 211.819H263.241V210.513H325.904V211.819Z" fill="#36739F"/>
<path fill-rule="evenodd" clip-rule="evenodd" d="M325.904 195.202H267.727V193.895H325.904V195.202Z" fill="#36739F"/>
<path fill-rule="evenodd" clip-rule="evenodd" d="M325.903 180.029H272.779V178.723H325.903V180.029Z" fill="#36739F"/>
<path fill-rule="evenodd" clip-rule="evenodd" d="M325.904 165.579H279.276V164.272H325.904V165.579Z" fill="#36739F"/>
<path fill-rule="evenodd" clip-rule="evenodd" d="M325.904 154.019H284.879V152.712H325.904V154.019Z" fill="#36739F"/>
</g>
<g opacity="0.5">
<path fill-rule="evenodd" clip-rule="evenodd" d="M362.541 201.912C366.01 186.219 372.545 166.397 382.136 142.456L383.347 142.942C373.77 166.852 367.263 186.6 363.815 202.194C360.365 217.803 358.243 233.313 357.45 248.723L356.146 248.655C356.943 233.171 359.075 217.589 362.541 201.912Z" fill="#36739F"/>
<path fill-rule="evenodd" clip-rule="evenodd" d="M375.665 199.193C377.904 185.286 382.591 166.388 389.716 142.512L390.967 142.886C383.847 166.742 379.179 185.577 376.953 199.401C374.727 213.229 373.391 229.662 372.949 248.704L371.644 248.674C372.087 229.592 373.426 213.097 375.665 199.193Z" fill="#36739F"/>
<path fill-rule="evenodd" clip-rule="evenodd" d="M388.474 202.586C389.286 186.838 391.851 166.835 396.163 142.584L397.449 142.813C393.141 167.037 390.586 186.981 389.778 202.654C388.968 218.358 388.379 233.712 388.011 248.714L386.706 248.682C387.074 233.667 387.663 218.302 388.474 202.586Z" fill="#36739F"/>
<path fill-rule="evenodd" clip-rule="evenodd" d="M399.961 200.042C400.772 184.328 401.909 165.199 403.373 142.656L404.676 142.741C403.212 165.281 402.075 184.403 401.265 200.11C400.455 215.804 400.195 231.993 400.484 248.678L399.179 248.7C398.889 231.988 399.15 215.768 399.961 200.042Z" fill="#36739F"/>
<path fill-rule="evenodd" clip-rule="evenodd" d="M412.376 166.446L345.349 248.471L344.339 247.643L411.365 165.619L412.376 166.446Z" fill="#36739F"/>
<path fill-rule="evenodd" clip-rule="evenodd" d="M412.286 180.727L358.591 249.093L357.564 248.285L411.26 179.92L412.286 180.727Z" fill="#36739F"/>
<path fill-rule="evenodd" clip-rule="evenodd" d="M411.943 195.605L373.685 249.07L372.624 248.309L410.882 194.844L411.943 195.605Z" fill="#36739F"/>
<path fill-rule="evenodd" clip-rule="evenodd" d="M411.96 212.197L388.139 249.044L387.043 248.334L410.864 211.487L411.96 212.197Z" fill="#36739F"/>
<path fill-rule="evenodd" clip-rule="evenodd" d="M411.966 230.973L401.138 248.313L400.031 247.62L410.859 230.28L411.966 230.973Z" fill="#36739F"/>
<path fill-rule="evenodd" clip-rule="evenodd" d="M412.263 155.396L346.936 229.613L345.956 228.75L411.284 154.533L412.263 155.396Z" fill="#36739F"/>
<path fill-rule="evenodd" clip-rule="evenodd" d="M412.979 143.12L350.539 212.28L349.57 211.404L412.011 142.244L412.979 143.12Z" fill="#36739F"/>
<path fill-rule="evenodd" clip-rule="evenodd" d="M404.662 143.659L354.854 194.957L353.918 194.046L403.726 142.749L404.662 143.659Z" fill="#36739F"/>
<path fill-rule="evenodd" clip-rule="evenodd" d="M397.261 143.673L359.891 179.998L358.981 179.061L396.351 142.735L397.261 143.673Z" fill="#36739F"/>
<path fill-rule="evenodd" clip-rule="evenodd" d="M390.919 142.965L366.376 165.362L365.496 164.396L390.039 141.999L390.919 142.965Z" fill="#36739F"/>
<path fill-rule="evenodd" clip-rule="evenodd" d="M382.278 143.666L372.172 153.781L371.249 152.857L381.355 142.742L382.278 143.666Z" fill="#36739F"/>
<path fill-rule="evenodd" clip-rule="evenodd" d="M411.87 230.758H346.475V229.451H411.87V230.758Z" fill="#36739F"/>
<path fill-rule="evenodd" clip-rule="evenodd" d="M411.871 211.973H349.208V210.667H411.871V211.973Z" fill="#36739F"/>
<path fill-rule="evenodd" clip-rule="evenodd" d="M411.87 195.355H353.693V194.049H411.87V195.355Z" fill="#36739F"/>
<path fill-rule="evenodd" clip-rule="evenodd" d="M411.871 180.183H358.747V178.876H411.871V180.183Z" fill="#36739F"/>
<path fill-rule="evenodd" clip-rule="evenodd" d="M411.87 165.733H365.243V164.426H411.87V165.733Z" fill="#36739F"/>
<path fill-rule="evenodd" clip-rule="evenodd" d="M411.871 154.173H370.846V152.866H411.871V154.173Z" fill="#36739F"/>
</g>
<g opacity="0.5">
<path fill-rule="evenodd" clip-rule="evenodd" d="M448.298 201.913C451.767 186.22 458.302 166.398 467.892 142.457L469.104 142.943C459.526 166.853 453.019 186.601 449.572 202.195C446.122 217.804 444 233.314 443.207 248.724L441.903 248.656C442.7 233.172 444.832 217.59 448.298 201.913Z" fill="#36739F"/>
<path fill-rule="evenodd" clip-rule="evenodd" d="M461.421 199.194C463.661 185.287 468.348 166.389 475.473 142.513L476.724 142.887C469.604 166.743 464.936 185.578 462.71 199.402C460.484 213.23 459.148 229.663 458.705 248.705L457.4 248.675C457.844 229.593 459.183 213.098 461.421 199.194Z" fill="#36739F"/>
<path fill-rule="evenodd" clip-rule="evenodd" d="M474.231 202.588C475.043 186.84 477.608 166.837 481.92 142.585L483.205 142.814C478.898 167.038 476.343 186.983 475.535 202.655C474.724 218.36 474.136 233.713 473.768 248.716L472.463 248.684C472.831 233.669 473.42 218.304 474.231 202.588Z" fill="#36739F"/>
<path fill-rule="evenodd" clip-rule="evenodd" d="M485.718 200.043C486.529 184.329 487.666 165.2 489.13 142.657L490.433 142.742C488.969 165.282 487.832 184.404 487.022 200.111C486.212 215.805 485.952 231.994 486.241 248.679L484.936 248.701C484.646 231.989 484.907 215.769 485.718 200.043Z" fill="#36739F"/>
<path fill-rule="evenodd" clip-rule="evenodd" d="M498.133 166.448L431.106 248.472L430.096 247.645L497.122 165.621L498.133 166.448Z" fill="#36739F"/>
<path fill-rule="evenodd" clip-rule="evenodd" d="M498.043 180.728L444.348 249.094L443.321 248.286L497.017 179.921L498.043 180.728Z" fill="#36739F"/>
<path fill-rule="evenodd" clip-rule="evenodd" d="M497.701 195.606L459.442 249.071L458.381 248.31L496.639 194.845L497.701 195.606Z" fill="#36739F"/>
<path fill-rule="evenodd" clip-rule="evenodd" d="M497.717 212.198L473.896 249.045L472.8 248.335L496.621 211.488L497.717 212.198Z" fill="#36739F"/>
<path fill-rule="evenodd" clip-rule="evenodd" d="M497.723 230.974L486.895 248.314L485.788 247.621L496.616 230.281L497.723 230.974Z" fill="#36739F"/>
<path fill-rule="evenodd" clip-rule="evenodd" d="M498.02 155.397L432.692 229.614L431.713 228.751L497.041 154.534L498.02 155.397Z" fill="#36739F"/>
<path fill-rule="evenodd" clip-rule="evenodd" d="M498.736 143.121L436.296 212.281L435.327 211.405L497.767 142.245L498.736 143.121Z" fill="#36739F"/>
<path fill-rule="evenodd" clip-rule="evenodd" d="M490.419 143.661L440.611 194.958L439.675 194.047L489.482 142.75L490.419 143.661Z" fill="#36739F"/>
<path fill-rule="evenodd" clip-rule="evenodd" d="M483.018 143.674L445.648 179.999L444.738 179.062L482.108 142.736L483.018 143.674Z" fill="#36739F"/>
<path fill-rule="evenodd" clip-rule="evenodd" d="M476.675 142.966L452.132 165.363L451.253 164.397L475.796 142L476.675 142.966Z" fill="#36739F"/>
<path fill-rule="evenodd" clip-rule="evenodd" d="M468.035 143.667L457.929 153.782L457.006 152.858L467.112 142.743L468.035 143.667Z" fill="#36739F"/>
<path fill-rule="evenodd" clip-rule="evenodd" d="M497.627 230.759H432.231V229.453H497.627V230.759Z" fill="#36739F"/>
<path fill-rule="evenodd" clip-rule="evenodd" d="M497.627 211.974H434.964V210.667H497.627V211.974Z" fill="#36739F"/>
<path fill-rule="evenodd" clip-rule="evenodd" d="M497.627 195.356H439.45V194.05H497.627V195.356Z" fill="#36739F"/>
<path fill-rule="evenodd" clip-rule="evenodd" d="M497.627 180.184H444.503V178.877H497.627V180.184Z" fill="#36739F"/>
<path fill-rule="evenodd" clip-rule="evenodd" d="M497.628 165.734H451V164.427H497.628V165.734Z" fill="#36739F"/>
<path fill-rule="evenodd" clip-rule="evenodd" d="M497.628 154.174H456.603V152.868H497.628V154.174Z" fill="#36739F"/>
</g>
<path fill-rule="evenodd" clip-rule="evenodd" d="M224.678 142.328V275.612H160.833V143.251H162.138V274.305H223.373V142.328H224.678Z" fill="#36739F"/>
<path fill-rule="evenodd" clip-rule="evenodd" d="M170.317 203.087H181.007V257.136H170.317V203.087ZM171.623 204.394V255.829H179.701V204.394H171.623Z" fill="#36739F"/>
<path fill-rule="evenodd" clip-rule="evenodd" d="M203.522 203.087H214.212V257.136H203.522V203.087ZM204.828 204.394V255.829H212.906V204.394H204.828Z" fill="#36739F"/>
<path fill-rule="evenodd" clip-rule="evenodd" d="M186.92 203.087H197.609V249.792H186.92V203.087ZM188.225 204.394V248.486H196.304V204.394H188.225Z" fill="#36739F"/>
<path fill-rule="evenodd" clip-rule="evenodd" d="M186.92 254.385H197.609V267.974H186.92V254.385ZM188.225 255.691V266.667H196.304V255.691H188.225Z" fill="#36739F"/>
<path fill-rule="evenodd" clip-rule="evenodd" d="M169.332 178.462V143.05H170.637V178.462H169.332Z" fill="#36739F"/>
<path fill-rule="evenodd" clip-rule="evenodd" d="M145.774 14.3759C145.774 13.6543 146.359 13.0693 147.08 13.0693H161.655C162.376 13.0693 162.961 13.6543 162.961 14.3759V18.1268C162.961 18.8485 162.376 19.4334 161.655 19.4334H147.08C146.359 19.4334 145.774 18.8485 145.774 18.1268V14.3759ZM161.655 14.3759H147.08V18.1268H161.655V14.3759Z" fill="#36739F"/>
<path fill-rule="evenodd" clip-rule="evenodd" d="M144.33 42.5537C144.33 41.8321 144.915 41.2471 145.636 41.2471H163.098C163.819 41.2471 164.404 41.8321 164.404 42.5537V46.3046C164.404 47.0262 163.819 47.6112 163.098 47.6112H145.636C144.915 47.6112 144.33 47.0262 144.33 46.3046V42.5537ZM163.098 42.5537H145.636V46.3046H163.098V42.5537Z" fill="#36739F"/>
<path fill-rule="evenodd" clip-rule="evenodd" d="M142.165 109.023C142.165 108.302 142.749 107.717 143.47 107.717H165.264C165.985 107.717 166.57 108.302 166.57 109.023V112.774C166.57 113.496 165.985 114.081 165.264 114.081H143.47C142.749 114.081 142.165 113.496 142.165 112.774V109.023ZM165.264 109.023H143.47V112.774H165.264V109.023Z" fill="#36739F"/>
<path fill-rule="evenodd" clip-rule="evenodd" d="M146.923 41.8643L147.556 18.7622L148.861 18.798L148.228 41.9002L146.923 41.8643ZM145.1 108.368L146.78 47.0925L148.085 47.1283L146.405 108.404L145.1 108.368ZM144.331 136.432L144.96 113.5L146.265 113.536L145.636 136.468L144.331 136.432Z" fill="#36739F"/>
<path fill-rule="evenodd" clip-rule="evenodd" d="M162.151 41.8842L161.517 18.7622L160.212 18.798L160.846 41.92L162.151 41.8842ZM163.974 108.398L162.295 47.1708L160.991 47.2066L162.669 108.434L163.974 108.398ZM165.096 138.217L164.118 113.665L162.814 113.717L163.791 138.269L165.096 138.217Z" fill="#36739F"/>
<path fill-rule="evenodd" clip-rule="evenodd" d="M139.569 235.461C137.737 235.461 136.252 236.948 136.252 238.782V246.437H142.887V238.782C142.887 236.948 141.401 235.461 139.569 235.461ZM134.946 238.782C134.946 236.226 137.016 234.155 139.569 234.155C142.122 234.155 144.192 236.226 144.192 238.782V247.744H134.946V238.782Z" fill="#36739F"/>
<path fill-rule="evenodd" clip-rule="evenodd" d="M119.357 235.461C117.525 235.461 116.04 236.948 116.04 238.782V246.437H122.675V238.782C122.675 236.948 121.189 235.461 119.357 235.461ZM114.734 238.782C114.734 236.226 116.804 234.155 119.357 234.155C121.91 234.155 123.98 236.226 123.98 238.782V247.744H114.734V238.782Z" fill="#36739F"/>
<path fill-rule="evenodd" clip-rule="evenodd" d="M99.1453 235.461C97.3132 235.461 95.8279 236.948 95.8279 238.782V246.437H102.463V238.782C102.463 236.948 100.978 235.461 99.1453 235.461ZM94.5225 238.782C94.5225 236.226 96.5922 234.155 99.1453 234.155C101.698 234.155 103.768 236.226 103.768 238.782V247.744H94.5225V238.782Z" fill="#36739F"/>
<path fill-rule="evenodd" clip-rule="evenodd" d="M43.5633 236.184C41.7311 236.184 40.2459 237.67 40.2459 239.504V247.159H46.8808V239.504C46.8808 237.67 45.3955 236.184 43.5633 236.184ZM38.9404 239.504C38.9404 236.949 41.0102 234.877 43.5633 234.877C46.1165 234.877 48.1862 236.949 48.1862 239.504V248.466H38.9404V239.504Z" fill="#36739F"/>
<path fill-rule="evenodd" clip-rule="evenodd" d="M69.5496 236.184C67.7175 236.184 66.2322 237.67 66.2322 239.504V247.159H72.8671V239.504C72.8671 237.67 71.3818 236.184 69.5496 236.184ZM64.9268 239.504C64.9268 236.949 66.9965 234.877 69.5496 234.877C72.1028 234.877 74.1725 236.949 74.1725 239.504V248.466H64.9268V239.504Z" fill="#36739F"/>
<path fill-rule="evenodd" clip-rule="evenodd" d="M99.1453 257.136C97.3132 257.136 95.8279 258.623 95.8279 260.457V268.112H102.463V260.457C102.463 258.623 100.978 257.136 99.1453 257.136ZM94.5225 260.457C94.5225 257.901 96.5922 255.83 99.1453 255.83C101.698 255.83 103.768 257.901 103.768 260.457V269.419H94.5225V260.457Z" fill="#36739F"/>
<path fill-rule="evenodd" clip-rule="evenodd" d="M43.5633 257.858C41.7311 257.858 40.2459 259.345 40.2459 261.179V268.834H46.8808V261.179C46.8808 259.345 45.3955 257.858 43.5633 257.858ZM38.9404 261.179C38.9404 258.623 41.0102 256.552 43.5633 256.552C46.1165 256.552 48.1862 258.623 48.1862 261.179V270.141H38.9404V261.179Z" fill="#36739F"/>
<path fill-rule="evenodd" clip-rule="evenodd" d="M23.3514 236.184C21.5192 236.184 20.0339 237.67 20.0339 239.504V247.159H26.6689V239.504C26.6689 237.67 25.1836 236.184 23.3514 236.184ZM18.7285 239.504C18.7285 236.949 20.7983 234.877 23.3514 234.877C25.9046 234.877 27.9743 236.949 27.9743 239.504V248.466H18.7285V239.504Z" fill="#36739F"/>
<path fill-rule="evenodd" clip-rule="evenodd" d="M23.3514 257.858C21.5192 257.858 20.0339 259.345 20.0339 261.179V268.834H26.6689V261.179C26.6689 259.345 25.1836 257.858 23.3514 257.858ZM18.7285 261.179C18.7285 258.623 20.7983 256.552 23.3514 256.552C25.9046 256.552 27.9743 258.623 27.9743 261.179V270.141H18.7285V261.179Z" fill="#36739F"/>
<path fill-rule="evenodd" clip-rule="evenodd" d="M69.5496 257.136C67.7175 257.136 66.2322 258.623 66.2322 260.457V274.253H72.8671V260.457C72.8671 258.623 71.3818 257.136 69.5496 257.136ZM64.9268 260.457C64.9268 257.901 66.9965 255.83 69.5496 255.83C72.1028 255.83 74.1725 257.901 74.1725 260.457V275.56H64.9268V260.457Z" fill="#36739F"/>
<path fill-rule="evenodd" clip-rule="evenodd" d="M119.357 257.136C117.525 257.136 116.04 258.623 116.04 260.457V268.112H122.675V260.457C122.675 258.623 121.189 257.136 119.357 257.136ZM114.734 260.457C114.734 257.901 116.804 255.83 119.357 255.83C121.91 255.83 123.98 257.901 123.98 260.457V269.419H114.734V260.457Z" fill="#36739F"/>
<path fill-rule="evenodd" clip-rule="evenodd" d="M139.569 257.136C137.737 257.136 136.252 258.623 136.252 260.457V268.112H142.887V260.457C142.887 258.623 141.401 257.136 139.569 257.136ZM134.946 260.457C134.946 257.901 137.016 255.83 139.569 255.83C142.122 255.83 144.192 257.901 144.192 260.457V269.419H134.946V260.457Z" fill="#36739F"/>
<path fill-rule="evenodd" clip-rule="evenodd" d="M117.596 137.201C116.905 137.201 116.265 137.566 115.912 138.161L112.973 143.12H160.795L164.38 137.201H117.596ZM114.789 137.494C115.377 136.503 116.444 135.895 117.596 135.895H166.698L161.531 144.426H110.681L114.789 137.494Z" fill="#36739F"/>
<path fill-rule="evenodd" clip-rule="evenodd" d="M39.5343 227.652H55.4941V228.959H38.2178V228.305C38.2178 217.171 47.236 208.145 58.3605 208.145H143.409C150.619 208.145 156.463 213.994 156.463 221.211V228.959H82.9726V227.652H155.158V221.211C155.158 214.716 149.898 209.451 143.409 209.451H58.3605C48.1754 209.451 39.8783 217.542 39.5343 227.652Z" fill="#36739F"/>
<path fill-rule="evenodd" clip-rule="evenodd" d="M58.7366 222.456C57.2947 222.456 56.1257 223.626 56.1257 225.069V274.253H82.2506V225.069C82.2506 223.626 81.0817 222.456 79.6398 222.456H58.7366ZM54.8203 225.069C54.8203 222.904 56.5737 221.149 58.7366 221.149H79.6398C81.8027 221.149 83.5561 222.904 83.5561 225.069V275.56H54.8203V225.069Z" fill="#36739F"/>
<path fill-rule="evenodd" clip-rule="evenodd" d="M34.7665 193.556C20.6752 193.556 9.20582 205.486 9.20582 220.259V228.305H7.90039V220.259C7.90039 204.816 19.9033 192.25 34.7665 192.25H129.598C144.461 192.25 156.464 204.816 156.464 220.259V228.305H155.158V220.259C155.158 205.486 143.689 193.556 129.598 193.556H34.7665Z" fill="#36739F"/>
<path fill-rule="evenodd" clip-rule="evenodd" d="M7.90039 227.652H55.4207V228.958H9.20582V274.253H155.158V228.958H82.9236V227.652H156.464V275.56H7.90039V227.652Z" fill="#36739F"/>
<path fill-rule="evenodd" clip-rule="evenodd" d="M155.811 222.456H8.55273V221.149H155.811V222.456Z" fill="#36739F"/>
<path fill-rule="evenodd" clip-rule="evenodd" d="M142.887 143.12H156.464V168.269H142.887V143.12ZM144.192 144.426V166.962H155.158V144.426H144.192Z" fill="#36739F"/>
<path fill-rule="evenodd" clip-rule="evenodd" d="M121.469 169.714C119.667 169.714 118.206 171.176 118.206 172.98V192.903H116.9V172.98C116.9 170.455 118.946 168.407 121.469 168.407H134.57C137.094 168.407 139.139 170.455 139.139 172.98V194.334H137.834V172.98C137.834 171.176 136.373 169.714 134.57 169.714H121.469Z" fill="#36739F"/>
<path fill-rule="evenodd" clip-rule="evenodd" d="M142.887 166.962H156.464V180.551H142.887V166.962ZM144.192 168.269V179.244H155.158V168.269H144.192Z" fill="#36739F"/>
<path fill-rule="evenodd" clip-rule="evenodd" d="M142.887 179.245H156.464V221.803H155.158V180.551H144.192V197.194H142.887V179.245Z" fill="#36739F"/>
<path fill-rule="evenodd" clip-rule="evenodd" d="M110.65 192.903V144.467H111.956V192.903H110.65Z" fill="#36739F"/>
<path opacity="0.3" fill-rule="evenodd" clip-rule="evenodd" d="M178.017 38.9468C180.49 38.0079 183.375 37.4976 186.173 37.4976C197.952 37.4976 206.663 46.4534 207.8 57.8493C209.798 57.439 211.833 57.2332 213.873 57.2355C221.838 57.2357 228.835 60.2673 232.828 64.9031C237.597 57.5018 245.861 53.0612 254.702 53.21C268.51 53.2128 279.846 63.3758 279.849 76.064C279.866 77.4377 279.748 78.8092 279.496 80.1586C285.874 81.3059 290.603 86.8228 290.703 93.3726L290.703 93.3826C290.703 93.4416 290.719 93.5129 290.766 93.685L290.772 93.7064C290.812 93.8504 290.876 94.0821 290.876 94.3348C290.876 94.6956 290.584 94.9881 290.224 94.9881C289.863 94.9881 289.571 94.6956 289.571 94.3348C289.571 94.2758 289.555 94.2044 289.508 94.0324L289.502 94.011C289.462 93.868 289.399 93.6387 289.398 93.3881C289.302 87.255 284.717 82.1244 278.638 81.3481C278.456 81.3249 278.292 81.2261 278.186 81.076C278.081 80.9258 278.043 80.7382 278.083 80.5589C278.408 79.0876 278.563 77.5837 278.543 76.0769L278.543 76.0685C278.543 64.2179 267.914 54.5166 254.697 54.5166L254.686 54.5165C246.001 54.3684 237.902 58.8879 233.462 66.3604C233.351 66.5466 233.155 66.6658 232.939 66.6786C232.723 66.6914 232.515 66.5961 232.383 66.4243C228.813 61.7711 221.933 58.5421 213.872 58.5421H213.872C211.68 58.5396 209.495 58.7881 207.36 59.2828C207.174 59.3259 206.978 59.2853 206.824 59.1716C206.671 59.0579 206.575 58.8826 206.561 58.6919C205.782 47.5453 197.447 38.8042 186.173 38.8042C183.523 38.8042 180.796 39.2893 178.48 40.1685C176.15 41.0526 174.309 42.3066 173.334 43.7907C173.136 44.0921 172.731 44.1757 172.43 43.9774C172.129 43.7791 172.045 43.374 172.243 43.0726C173.43 41.267 175.557 39.8806 178.017 38.9468Z" fill="#36739F"/>
<path opacity="0.3" fill-rule="evenodd" clip-rule="evenodd" d="M139.927 70.8046C139.867 70.4487 139.531 70.2084 139.175 70.2678C131.303 71.5832 127.338 76.7003 125.501 81.796C124.585 84.3351 124.192 86.8758 124.095 88.9601C124.032 90.3135 124.092 91.5121 124.229 92.4075C122.575 92.0334 120.884 91.8448 119.186 91.8461C115.985 91.7969 112.816 92.4787 109.918 93.8397C109.592 93.9929 109.452 94.382 109.605 94.7086C109.758 95.0352 110.147 95.1758 110.473 95.0225C113.192 93.7452 116.167 93.1057 119.171 93.1526L119.182 93.1527C121.126 93.1508 123.061 93.4129 124.935 93.9318C125.172 93.9975 125.426 93.9241 125.591 93.7421C125.757 93.56 125.806 93.3002 125.719 93.07C125.505 92.5059 125.305 91.0286 125.399 89.021C125.491 87.0432 125.865 84.6348 126.729 82.2396C128.45 77.4668 132.098 72.775 139.39 71.5566C139.746 71.4972 139.986 71.1605 139.927 70.8046Z" fill="#36739F"/>
<path opacity="0.3" fill-rule="evenodd" clip-rule="evenodd" d="M528.897 197.45C530.396 195.452 532.331 192.92 535.278 190.935C538.207 188.962 542.173 187.507 547.76 187.749C550.624 187.909 557.305 189.291 562.732 195.494C565.483 198.638 566.807 201.062 567.508 202.915C568.004 204.228 568.184 205.208 568.341 206.067L568.341 206.067C568.412 206.457 568.479 206.822 568.569 207.182L568.686 207.649L569.159 207.737C571.582 208.191 577.719 211.132 581.62 219.322C584.023 224.369 584.044 230.558 582.814 236.152C581.582 241.757 579.13 246.606 576.767 248.97C571.928 253.808 564.615 256.765 555.218 257.754C551.467 258.149 548.652 258.064 546.669 257.806C545.202 257.615 544.227 257.334 543.668 257.105V238.314L558.671 224.465C558.975 224.184 558.994 223.71 558.713 223.405C558.432 223.101 557.958 223.082 557.653 223.363L543.668 236.273V212.774C543.668 212.36 543.332 212.024 542.918 212.024C542.504 212.024 542.168 212.36 542.168 212.774V237.977C542.168 237.983 542.168 237.989 542.168 237.994V245.138L525.82 230.969C525.507 230.698 525.033 230.732 524.762 231.045C524.49 231.358 524.524 231.832 524.837 232.103L542.168 247.123V256.87C539.697 257.384 535.712 257.746 531.307 257.242C526.621 256.706 521.515 255.198 517.255 251.906C506.512 243.605 505.122 232.457 507.993 225.278C510.902 218.006 515.218 215.65 518.034 214.711C520.296 213.957 522.429 214.091 523.15 214.235L524.047 214.415V213.5C524.047 211.664 524.435 208.737 525.248 205.704C526.063 202.665 527.282 199.603 528.897 197.45ZM542.168 258.4C539.531 258.911 535.528 259.234 531.137 258.732C526.273 258.177 520.879 256.602 516.338 253.093C505.082 244.395 503.472 232.543 506.601 224.721C509.692 216.993 514.375 214.35 517.56 213.288C519.51 212.638 521.378 212.566 522.569 212.653C522.664 210.691 523.072 208.028 523.8 205.315C524.636 202.194 525.917 198.922 527.697 196.55C529.198 194.548 531.263 191.83 534.44 189.69C537.636 187.538 541.919 185.994 547.829 186.251L547.838 186.251L547.838 186.251C550.976 186.425 558.092 187.912 563.861 194.506C566.71 197.762 568.137 200.338 568.911 202.385C569.457 203.828 569.685 205.063 569.85 205.956C569.877 206.105 569.903 206.244 569.928 206.373C573.032 207.17 579.092 210.526 582.974 218.678C585.571 224.131 585.55 230.692 584.279 236.473C583.011 242.243 580.464 247.394 577.827 250.03C572.665 255.192 564.979 258.235 555.375 259.246C551.527 259.651 548.592 259.569 546.475 259.294C545.317 259.143 544.381 258.932 543.668 258.7V274.5H593.672L593.671 274.479V260.149C592.913 259.96 592.081 259.725 591.192 259.438C588.395 258.536 585.599 257.319 582.983 255.738C582.4 255.386 581.835 255.022 581.289 254.648C581.634 254.256 581.965 253.851 582.281 253.435C582.768 253.766 583.271 254.088 583.791 254.402C586.294 255.915 588.982 257.085 591.671 257.952C592.379 258.181 593.05 258.375 593.671 258.538V246.934C593.566 246.897 593.467 246.836 593.383 246.752L587.206 240.59C586.905 240.289 586.905 239.801 587.206 239.5C587.508 239.199 587.996 239.199 588.297 239.5L593.671 244.861V222.562C593.671 222.136 594.017 221.791 594.442 221.791C594.868 221.791 595.214 222.136 595.214 222.562V239.719L604.692 230.241C604.993 229.94 605.481 229.94 605.782 230.241C606.084 230.542 606.084 231.03 605.782 231.331L595.502 241.612C595.418 241.696 595.319 241.757 595.214 241.794V258.757C595.366 258.687 595.548 258.603 595.756 258.505C596.543 258.135 597.42 257.7 598.366 257.204C601.066 255.784 603.767 254.157 606.284 252.35C617.709 244.146 621.426 235.458 613.27 226.663C611.149 224.375 610.04 221.997 609.141 218.505C609.011 217.999 608.923 217.633 608.697 216.679C607.915 213.369 607.443 211.905 606.438 210.21C604.389 206.754 600.016 203.971 595.469 203.605C590.597 203.213 585.91 205.46 581.958 210.676C581.594 210.266 581.237 209.877 580.888 209.507C585.124 204.038 590.245 201.618 595.594 202.049C600.652 202.456 605.476 205.526 607.781 209.414C608.891 211.288 609.399 212.861 610.216 216.32C610.44 217.264 610.526 217.624 610.653 218.116C611.493 221.379 612.498 223.534 614.415 225.602C623.403 235.294 619.274 244.944 607.194 253.618C604.614 255.471 601.852 257.135 599.092 258.585C598.125 259.093 597.228 259.538 596.421 259.918C595.935 260.147 595.585 260.303 595.395 260.385L595.214 260.463V274.479L595.213 274.5H612.445V275.614H543.337C543.217 275.695 543.073 275.742 542.918 275.742C542.763 275.742 542.619 275.695 542.499 275.614H497.797V274.5H542.168V258.4Z" fill="#36739F"/>
<path opacity="0.3" fill-rule="evenodd" clip-rule="evenodd" d="M297.064 73.0177C307.245 73.0239 315.949 79.7732 318.673 88.9728C320.314 88.5917 322.031 88.4019 323.745 88.4019C335.032 88.4019 344.481 96.1922 345.196 106.176C350.87 104.901 356.72 107.599 359.708 112.979C359.888 113.302 359.786 113.717 359.48 113.907C359.174 114.096 358.781 113.988 358.601 113.665C355.769 108.567 350.108 106.132 344.764 107.682C344.573 107.737 344.369 107.697 344.211 107.572C344.052 107.448 343.957 107.253 343.952 107.044C343.742 97.6127 334.87 89.7581 323.745 89.7581C321.919 89.7581 320.097 89.9852 318.386 90.4372C318.048 90.5263 317.705 90.3152 317.612 89.9612C315.268 81.0681 306.932 74.3739 297.05 74.3739C297.041 74.3739 297.032 74.3737 297.022 74.3733C294.575 74.2608 292.003 74.7108 289.633 75.5075C289.296 75.621 288.935 75.4238 288.827 75.0669C288.72 74.71 288.906 74.3287 289.244 74.2151C291.724 73.3816 294.442 72.8994 297.064 73.0177Z" fill="#36739F"/>
<path opacity="0.3" fill-rule="evenodd" clip-rule="evenodd" d="M503.282 149.225C509.219 144.582 516.373 142 523.773 142C540.656 142 554.423 154.343 555.098 169.9C556.672 169.792 558.327 169.696 559.896 169.696C567.526 169.696 574.469 171.357 579.53 174.058C584.328 176.619 587.62 180.23 587.898 184.401C592.139 184.735 595.995 187.088 598.266 190.904C598.471 191.248 598.375 191.702 598.052 191.92C597.73 192.137 597.302 192.035 597.098 191.692C594.97 188.115 591.266 185.957 587.206 185.837C586.832 185.826 586.534 185.5 586.534 185.101V184.975C586.534 181.421 583.785 177.975 578.91 175.373C574.078 172.794 567.356 171.167 559.896 171.167C558.139 171.167 556.26 171.292 554.476 171.419C554.287 171.432 554.101 171.362 553.962 171.226C553.822 171.089 553.742 170.898 553.739 170.696C553.508 155.758 540.358 143.472 523.773 143.472C516.677 143.472 509.808 145.948 504.101 150.411C503.793 150.651 503.36 150.581 503.134 150.253C502.908 149.926 502.974 149.465 503.282 149.225Z" fill="#36739F"/>
</svg>
