<svg width="126" height="49" viewBox="0 0 126 49" fill="none" xmlns="http://www.w3.org/2000/svg">
<path fill-rule="evenodd" clip-rule="evenodd" d="M39.4494 15.7976C38.9883 16.4762 38.5726 17.1846 38.2051 17.9181H48.9972V15.6721H39.5332L39.4494 15.7976ZM9.54776 33.2024C10.0089 32.5238 10.4246 31.8154 10.7922 31.0819H0V33.3279H9.46408L9.54776 33.2024ZM33.2024 30.3955C32.4846 30.619 31.7491 30.7805 31.0038 30.8782L34.9546 20.0274C35.5527 18.5452 36.3006 17.1279 37.1867 15.7976C37.1867 15.7976 41.1737 9.96071 42.5799 6.09919C43.9862 2.23767 44.5944 0 44.5944 0H37.6526C37.6526 0 36.6342 2.23209 35.228 6.09919C33.9417 9.63147 33.6153 14.8127 33.5679 15.6721H20.0247C17.335 15.527 15.7948 14.9857 15.7948 14.9857C15.7948 14.9857 9.96071 13.1219 6.09919 13.1219C2.23767 13.1219 0 13.3284 0 13.3284V20.2646C0 20.2646 2.23209 20.4683 6.09919 20.4683C9.96629 20.4683 15.7948 18.6045 15.7948 18.6045C16.5126 18.381 17.2481 18.2195 17.9934 18.1218L14.0427 28.9726C13.4446 30.4548 12.6966 31.8721 11.8106 33.2024C11.8106 33.2024 7.82348 39.0393 6.41726 42.9008C5.01105 46.7623 4.40281 49 4.40281 49H11.339C11.339 49 12.3574 46.7679 13.7637 42.9008C15.0499 39.3685 15.3763 34.1873 15.4377 33.3279H28.9809C31.6706 33.473 33.2107 34.0143 33.2107 34.0143C33.2107 34.0143 39.0449 35.8781 42.9064 35.8781C46.7679 35.8781 49.0056 35.6716 49.0056 35.6716V28.7354C49.0056 28.7354 46.7735 28.5317 42.9064 28.5317C39.0393 28.5317 33.2024 30.3955 33.2024 30.3955ZM28.6852 31.0819H15.7363C15.859 30.4904 16.0376 29.7845 16.2943 28.9726L20.3176 17.9181H33.2665C33.1438 18.5096 32.9652 19.2155 32.7085 20.0274L28.6852 31.0819ZM27.0502 35.5712L22.1647 49H24.3968L29.2767 35.5907L28.9614 35.5712H27.0502ZM21.9471 13.4288L26.827 0H24.5949L19.7094 13.4093L20.0247 13.4288H21.9471ZM60.2163 14.5449C60.2491 13.0641 60.8605 11.6551 61.9193 10.6194C62.9782 9.58378 64.4005 9.00388 65.8816 9.00388C67.3627 9.00388 68.785 9.58378 69.8439 10.6194C70.9028 11.6551 71.5141 13.0641 71.5469 14.5449V22.3377H73.779V14.5393C73.7401 12.4705 72.891 10.4995 71.4142 9.05019C69.9373 7.60087 67.9508 6.78892 65.8816 6.78892C63.8124 6.78892 61.8258 7.60087 60.349 9.05019C58.8722 10.4995 58.0231 12.4705 57.9842 14.5393V22.3377H60.2163V14.5449ZM84.8195 22.3377C86.357 22.3179 87.8543 21.8438 89.1231 20.9751C90.3918 20.1065 91.3754 18.882 91.9499 17.4557C92.5245 16.0295 92.6645 14.4652 92.3522 12.9596C92.0399 11.454 91.2894 10.0744 90.195 8.99426C89.1006 7.91417 87.7112 7.18184 86.2016 6.88942C84.692 6.59699 83.1297 6.75752 81.7112 7.35081C80.2926 7.94411 79.0812 8.94367 78.2293 10.2237C77.3774 11.5038 76.9231 13.0072 76.9235 14.5449C76.9397 16.6245 77.7801 18.6129 79.2603 20.0738C80.7406 21.5347 82.7398 22.3488 84.8195 22.3377ZM84.8195 8.98138C85.9154 9.00117 86.9809 9.3442 87.8826 9.96743C88.7842 10.5907 89.4816 11.4663 89.8873 12.4845C90.2931 13.5027 90.389 14.618 90.1631 15.6905C89.9372 16.763 89.3996 17.7449 88.6177 18.513C87.8358 19.281 86.8444 19.801 85.768 20.0077C84.6917 20.2143 83.5782 20.0984 82.5674 19.6746C81.5567 19.2507 80.6936 18.5377 80.0867 17.6251C79.4797 16.7125 79.1558 15.6409 79.1556 14.5449C79.1696 13.0557 79.7738 11.633 80.8357 10.5889C81.8976 9.54479 83.3303 8.96464 84.8195 8.9758V8.98138ZM122.988 6.74929V14.5449C122.955 16.0256 122.344 17.4347 121.285 18.4703C120.226 19.506 118.804 20.0859 117.323 20.0859C115.842 20.0859 114.42 19.506 113.361 18.4703C112.302 17.4347 111.69 16.0256 111.658 14.5449V6.7437H109.426V14.5393C109.393 16.0201 108.781 17.4291 107.722 18.4647C106.664 19.5004 105.241 20.0803 103.76 20.0803C102.279 20.0803 100.857 19.5004 99.7979 18.4647C98.7391 17.4291 98.1277 16.0201 98.0949 14.5393V6.7437H95.8628V14.5393C95.8935 16.2523 96.4792 17.9091 97.5319 19.2609C98.5845 20.6127 100.047 21.5864 101.701 22.0358C103.354 22.4852 105.109 22.3861 106.701 21.7532C108.293 21.1204 109.637 19.9881 110.53 18.5264C111.422 19.9933 112.766 21.1306 114.361 21.7669C115.955 22.4032 117.713 22.504 119.369 22.054C121.026 21.604 122.491 20.6277 123.545 19.2723C124.598 17.9168 125.182 16.2557 125.209 14.5393V6.7437L122.988 6.74929ZM62.4428 26.6568H57.9786V42.2451H76.212V38.897H62.4428V26.6568ZM104.264 30.0049H118.661L104.264 38.897V42.2451H125.215V38.897H110.818L125.215 30.0049V26.6568H104.264V30.0049ZM93.8288 26.6568H79.2281V42.2451H93.8288C98.4408 42.2451 102.199 38.7491 102.199 34.4496C102.199 30.15 98.4464 26.6512 93.8344 26.6512L93.8288 26.6568ZM92.7127 38.897H83.6923V29.9993H92.7127C95.4777 29.9993 97.7349 31.9943 97.7349 34.444C97.7349 36.8937 95.4833 38.8914 92.7183 38.8914L92.7127 38.897Z" fill="url(#paint0_linear_603_410)"/>
<defs>
<linearGradient id="paint0_linear_603_410" x1="62.6074" y1="0" x2="62.6074" y2="49" gradientUnits="userSpaceOnUse">
<stop stop-color="#FFAA45"/>
<stop offset="1" stop-color="#FF7A00"/>
</linearGradient>
</defs>
</svg>
