<svg width="200" height="160" viewBox="0 0 200 160" fill="none" xmlns="http://www.w3.org/2000/svg">
<g clip-path="url(#clip0_504_689)">
<path opacity="0.1" fill-rule="evenodd" clip-rule="evenodd" d="M84.8393 23.7241C64.6789 51.0485 28.0189 57.6704 19.8404 84.4299C11.6619 111.189 18.449 145.796 79.6254 156.998C140.802 168.199 177.648 110.9 168.059 56.7118C158.47 2.52338 105 -3.60027 84.8393 23.7241Z" fill="url(#paint0_linear_504_689)"/>
<path fill-rule="evenodd" clip-rule="evenodd" d="M99.0909 11.1643C85.2691 11.1643 74.0642 22.4108 74.0642 36.284C74.0642 50.1571 85.2691 61.4036 99.0909 61.4036C112.913 61.4036 124.118 50.1571 124.118 36.284C124.118 22.4108 112.913 11.1643 99.0909 11.1643ZM72.6738 36.284C72.6738 21.64 84.5012 9.7688 99.0909 9.7688C113.681 9.7688 125.508 21.64 125.508 36.284C125.508 50.9279 113.681 62.7991 99.0909 62.7991C84.5012 62.7991 72.6738 50.9279 72.6738 36.284Z" fill="#FF6B00"/>
<path opacity="0.5" fill-rule="evenodd" clip-rule="evenodd" d="M91.9395 27.5379C92.3556 23.9989 93.016 20.8349 93.8534 18.2436C94.5954 15.947 95.4641 14.1391 96.3954 12.92C97.3345 11.6908 98.2517 11.1643 99.0909 11.1643C99.9301 11.1643 100.847 11.6908 101.786 12.92C102.718 14.1391 103.586 15.947 104.329 18.2436C105.166 20.8349 105.826 23.9989 106.242 27.5379C103.967 27.3261 101.568 27.2131 99.0909 27.2131C96.6139 27.2131 94.2147 27.3261 91.9395 27.5379ZM90.523 27.6843C90.9456 23.9422 91.6372 20.5785 92.5308 17.813C93.2984 15.4375 94.2273 13.4646 95.2921 12.0708C96.3491 10.6872 97.6265 9.7688 99.0909 9.7688C100.555 9.7688 101.833 10.6872 102.89 12.0708C103.955 13.4646 104.883 15.4375 105.651 17.813C106.545 20.5785 107.236 23.9422 107.659 27.6843C111.387 28.1085 114.738 28.8027 117.494 29.6996C119.86 30.47 121.826 31.4024 123.215 32.4711C124.593 33.5321 125.508 34.8142 125.508 36.2841C125.508 37.7539 124.593 39.0361 123.215 40.097C121.826 41.1657 119.86 42.0981 117.494 42.8685C114.738 43.7654 111.387 44.4596 107.659 44.8838C107.236 48.6259 106.545 51.9895 105.651 54.7549C104.883 57.1303 103.955 59.1033 102.89 60.4971C101.833 61.8807 100.555 62.7991 99.0909 62.7991C97.6265 62.7991 96.3491 61.8807 95.2921 60.4971C94.2273 59.1033 93.2984 57.1303 92.5308 54.7549C91.6372 51.9895 90.9456 48.6259 90.523 44.8838C86.7947 44.4596 83.4435 43.7654 80.6883 42.8685C78.3216 42.0981 76.356 41.1657 74.9674 40.097C73.5889 39.0361 72.6738 37.7539 72.6738 36.2841C72.6738 34.8142 73.5889 33.5321 74.9674 32.4711C76.356 31.4024 78.3216 30.47 80.6883 29.6996C83.4435 28.8027 86.7947 28.1085 90.523 27.6843ZM90.3772 43.462C86.8512 43.0444 83.699 42.3815 81.1173 41.5411C78.8292 40.7962 77.028 39.9244 75.8134 38.9896C74.5887 38.047 74.0642 37.1264 74.0642 36.2841C74.0642 35.4417 74.5887 34.5211 75.8134 33.5785C77.028 32.6438 78.8292 31.7719 81.1173 31.027C83.699 30.1866 86.8512 29.5237 90.3771 29.1061C90.1661 31.3897 90.0535 33.7978 90.0535 36.2839C90.0535 38.7702 90.1661 41.1784 90.3772 43.462ZM91.7881 43.614C91.5645 41.2956 91.4439 38.8352 91.4439 36.2839C91.4439 33.7328 91.5645 31.2725 91.7881 28.9541C94.0979 28.7297 96.5492 28.6086 99.0909 28.6086C101.633 28.6086 104.084 28.7297 106.394 28.9541C106.617 31.2725 106.738 33.7328 106.738 36.2839C106.738 38.8352 106.617 41.2956 106.394 43.614C104.084 43.8385 101.633 43.9595 99.0909 43.9595C96.5492 43.9595 94.0979 43.8385 91.7881 43.614ZM91.9395 45.0302C92.3556 48.5691 93.0161 51.733 93.8534 54.3243C94.5954 56.6209 95.4641 58.4288 96.3954 59.6479C97.3345 60.8771 98.2517 61.4036 99.0909 61.4036C99.9301 61.4036 100.847 60.8771 101.786 59.6479C102.718 58.4288 103.586 56.6209 104.329 54.3243C105.166 51.733 105.826 48.5691 106.242 45.0302C103.967 45.242 101.568 45.355 99.0909 45.355C96.6139 45.355 94.2147 45.242 91.9395 45.0302ZM107.805 43.462C111.331 43.0444 114.483 42.3815 117.065 41.5411C119.353 40.7962 121.154 39.9244 122.368 38.9896C123.593 38.047 124.118 37.1264 124.118 36.2841C124.118 35.4417 123.593 34.5211 122.368 33.5785C121.154 32.6438 119.353 31.7719 117.065 31.027C114.483 30.1866 111.331 29.5237 107.805 29.1061C108.016 31.3897 108.128 33.7978 108.128 36.2839C108.128 38.7702 108.016 41.1784 107.805 43.462Z" fill="#FF6B00"/>
<path fill-rule="evenodd" clip-rule="evenodd" d="M76.54 60.4036C74.2364 60.4036 72.3689 62.278 72.3689 64.5902C72.3689 66.9024 74.2364 68.7768 76.54 68.7768C78.8437 68.7768 80.7111 66.9024 80.7111 64.5902C80.7111 62.278 78.8437 60.4036 76.54 60.4036ZM70.9785 64.5902C70.9785 61.5073 73.4685 59.0081 76.54 59.0081C79.6116 59.0081 82.1015 61.5073 82.1015 64.5902C82.1015 67.6731 79.6116 70.1723 76.54 70.1723C73.4685 70.1723 70.9785 67.6731 70.9785 64.5902Z" fill="#FF6B00"/>
<path fill-rule="evenodd" clip-rule="evenodd" d="M62.5931 86.5232C61.2493 86.5232 60.1599 87.6166 60.1599 88.9654C60.1599 90.3142 61.2493 91.4076 62.5931 91.4076C63.9369 91.4076 65.0262 90.3142 65.0262 88.9654C65.0262 87.6166 63.9369 86.5232 62.5931 86.5232ZM58.7695 88.9654C58.7695 86.8459 60.4814 85.1277 62.5931 85.1277C64.7047 85.1277 66.4166 86.8459 66.4166 88.9654C66.4166 91.0849 64.7047 92.8031 62.5931 92.8031C60.4814 92.8031 58.7695 91.0849 58.7695 88.9654Z" fill="#FFB176"/>
<path fill-rule="evenodd" clip-rule="evenodd" d="M76.4974 78.1499C75.1536 78.1499 74.0642 79.2433 74.0642 80.5921C74.0642 81.9409 75.1536 83.0343 76.4974 83.0343C77.8412 83.0343 78.9305 81.9409 78.9305 80.5921C78.9305 79.2433 77.8412 78.1499 76.4974 78.1499ZM72.6738 80.5921C72.6738 78.4726 74.3857 76.7544 76.4974 76.7544C78.609 76.7544 80.3209 78.4726 80.3209 80.5921C80.3209 82.7116 78.609 84.4298 76.4974 84.4298C74.3857 84.4298 72.6738 82.7116 72.6738 80.5921Z" fill="#FFB176"/>
<path fill-rule="evenodd" clip-rule="evenodd" d="M89.0101 86.5232C87.6663 86.5232 86.5769 87.6166 86.5769 88.9654C86.5769 90.3142 87.6663 91.4076 89.0101 91.4076C90.3539 91.4076 91.4432 90.3142 91.4432 88.9654C91.4432 87.6166 90.3539 86.5232 89.0101 86.5232ZM85.1865 88.9654C85.1865 86.8459 86.8984 85.1277 89.0101 85.1277C91.1217 85.1277 92.8336 86.8459 92.8336 88.9654C92.8336 91.0849 91.1217 92.8031 89.0101 92.8031C86.8984 92.8031 85.1865 91.0849 85.1865 88.9654Z" fill="#FFB176"/>
<path fill-rule="evenodd" clip-rule="evenodd" d="M102.914 78.8477C101.571 78.8477 100.481 79.9411 100.481 81.2899C100.481 82.6386 101.571 83.732 102.914 83.732C104.258 83.732 105.348 82.6386 105.348 81.2899C105.348 79.9411 104.258 78.8477 102.914 78.8477ZM99.0908 81.2899C99.0908 79.1704 100.803 77.4521 102.914 77.4521C105.026 77.4521 106.738 79.1704 106.738 81.2899C106.738 83.4094 105.026 85.1276 102.914 85.1276C100.803 85.1276 99.0908 83.4094 99.0908 81.2899Z" fill="#FFB176"/>
<path fill-rule="evenodd" clip-rule="evenodd" d="M115.428 86.5232C114.084 86.5232 112.995 87.6166 112.995 88.9654C112.995 90.3142 114.084 91.4076 115.428 91.4076C116.772 91.4076 117.861 90.3142 117.861 88.9654C117.861 87.6166 116.772 86.5232 115.428 86.5232ZM111.604 88.9654C111.604 86.8459 113.316 85.1277 115.428 85.1277C117.54 85.1277 119.252 86.8459 119.252 88.9654C119.252 91.0849 117.54 92.8031 115.428 92.8031C113.316 92.8031 111.604 91.0849 111.604 88.9654Z" fill="#FFB176"/>
<path d="M84.8395 23.7242C85.7994 23.7242 86.5775 22.9432 86.5775 21.9798C86.5775 21.0164 85.7994 20.2354 84.8395 20.2354C83.8797 20.2354 83.1016 21.0164 83.1016 21.9798C83.1016 22.9432 83.8797 23.7242 84.8395 23.7242Z" fill="#FF6B00"/>
<path d="M114.037 23.7242C114.997 23.7242 115.775 22.9432 115.775 21.9798C115.775 21.0164 114.997 20.2354 114.037 20.2354C113.077 20.2354 112.299 21.0164 112.299 21.9798C112.299 22.9432 113.077 23.7242 114.037 23.7242Z" fill="#FF6B00"/>
<path d="M114.037 52.3326C114.997 52.3326 115.775 51.5516 115.775 50.5882C115.775 49.6248 114.997 48.8438 114.037 48.8438C113.077 48.8438 112.299 49.6248 112.299 50.5882C112.299 51.5516 113.077 52.3326 114.037 52.3326Z" fill="#FF6B00"/>
<path d="M84.8395 52.3326C85.7994 52.3326 86.5775 51.5516 86.5775 50.5882C86.5775 49.6248 85.7994 48.8438 84.8395 48.8438C83.8797 48.8438 83.1016 49.6248 83.1016 50.5882C83.1016 51.5516 83.8797 52.3326 84.8395 52.3326Z" fill="#FF6B00"/>
<path fill-rule="evenodd" clip-rule="evenodd" d="M62.4258 36.1047C62.4258 15.873 78.7662 -0.528076 98.9231 -0.528076C107.755 -0.528076 115.857 2.62177 122.17 7.86264L121.283 8.93801C115.21 3.89643 107.42 0.867458 98.9231 0.867458C79.5341 0.867458 63.8162 16.6437 63.8162 36.1047C63.8162 45.8315 67.7417 54.6367 74.0911 61.0135L73.1077 62C66.5084 55.3722 62.4258 46.2163 62.4258 36.1047Z" fill="#FF6B00"/>
<path opacity="0.5" fill-rule="evenodd" clip-rule="evenodd" d="M128.376 14.5449C128.514 14.7379 128.651 14.9323 128.786 15.1281L127.642 15.9217C127.512 15.7333 127.381 15.5463 127.248 15.3607L128.376 14.5449ZM129.572 16.3179C129.826 16.7193 130.072 17.1259 130.311 17.5376L129.109 18.2395C128.879 17.8434 128.642 17.4523 128.398 17.0663L129.572 16.3179ZM131.002 18.7853C131.224 19.2052 131.438 19.6299 131.644 20.0593L130.391 20.6648C130.193 20.2519 129.987 19.8434 129.774 19.4396L131.002 18.7853ZM132.236 21.3575C132.425 21.7933 132.605 22.2336 132.777 22.678L131.481 23.1832C131.316 22.7558 131.142 22.3324 130.961 21.9133L132.236 21.3575ZM133.266 24.0188C133.42 24.468 133.565 24.9211 133.702 25.3779L132.37 25.7795C132.239 25.3402 132.099 24.9045 131.951 24.4726L133.266 24.0188ZM134.084 26.7531C134.203 27.2128 134.312 27.6759 134.413 28.1424L133.054 28.4379C132.957 27.9893 132.852 27.5439 132.738 27.1019L134.084 26.7531ZM134.687 29.5434C134.769 30.0106 134.842 30.4809 134.906 30.954L133.528 31.142C133.467 30.6869 133.396 30.2346 133.317 29.7852L134.687 29.5434ZM135.07 32.372C135.115 32.8439 135.152 33.3184 135.179 33.7953L133.791 33.8756C133.765 33.4167 133.73 32.9601 133.686 32.5061L135.07 32.372ZM135.234 35.2216C135.238 35.4589 135.241 35.6968 135.241 35.9352C135.241 36.1763 135.238 36.4168 135.234 36.6568L133.843 36.6298C133.848 36.3988 133.85 36.1673 133.85 35.9352C133.85 35.7057 133.848 35.4767 133.844 35.2482L135.234 35.2216ZM135.178 38.0927C135.15 38.5731 135.113 39.0511 135.067 39.5264L133.683 39.3912C133.728 38.9339 133.763 38.4741 133.79 38.0118L135.178 38.0927ZM134.9 40.9563C134.835 41.433 134.761 41.9069 134.678 42.3776L133.309 42.1338C133.389 41.6811 133.46 41.2253 133.523 40.7667L134.9 40.9563ZM134.4 43.7885C134.298 44.2581 134.186 44.7243 134.066 45.187L132.721 44.8355C132.836 44.3906 132.943 43.9423 133.041 43.4907L134.4 43.7885ZM133.678 46.5724C133.539 47.0326 133.391 47.489 133.235 47.9414L131.921 47.4842C132.072 47.0492 132.214 46.6103 132.347 46.1678L133.678 46.5724ZM132.739 49.2912C132.564 49.7385 132.381 50.1815 132.19 50.62L130.916 50.06C131.1 49.6383 131.276 49.2123 131.444 48.7822L132.739 49.2912ZM131.589 51.9258C131.38 52.3578 131.162 52.785 130.937 53.2073L129.711 52.5484C129.928 52.1423 130.137 51.7313 130.338 51.3159L131.589 51.9258ZM130.235 54.4621C129.993 54.876 129.743 55.2848 129.485 55.6881L128.315 54.9346C128.563 54.5466 128.804 54.1535 129.037 53.7553L130.235 54.4621ZM128.688 56.8834C128.414 57.2768 128.133 57.6645 127.845 58.0464L126.737 57.2033C127.014 56.8359 127.285 56.4629 127.548 56.0844L128.688 56.8834ZM126.957 59.1754C126.653 59.5461 126.343 59.9107 126.025 60.2689L124.986 59.3416C125.292 58.9969 125.591 58.6461 125.883 58.2895L126.957 59.1754ZM125.052 61.325C124.721 61.6706 124.383 62.0097 124.039 62.3421L123.075 61.3362C123.407 61.0164 123.732 60.6902 124.05 60.3576L125.052 61.325ZM122.987 63.3187C122.63 63.6373 122.267 63.949 121.898 64.2535L121.015 63.1753C121.37 62.8823 121.72 62.5824 122.063 62.2759L122.987 63.3187ZM120.773 65.1448C120.392 65.4343 120.006 65.7165 119.614 65.9912L118.818 64.847C119.195 64.5828 119.567 64.3113 119.933 64.0327L120.773 65.1448ZM118.423 66.7915C118.021 67.0502 117.614 67.3012 117.202 67.5443L116.497 66.341C116.894 66.1071 117.286 65.8657 117.672 65.6168L118.423 66.7915ZM115.951 68.2485C115.531 68.4747 115.105 68.6929 114.675 68.9028L114.067 67.6476C114.481 67.4457 114.89 67.2359 115.295 67.0183L115.951 68.2485ZM113.374 69.5058C112.937 69.6979 112.495 69.8816 112.05 70.0568L111.543 68.7574C111.971 68.5889 112.396 68.4122 112.816 68.2275L113.374 69.5058ZM87.4057 70.7659C87.1619 70.686 86.9193 70.6036 86.6777 70.5187L87.1372 69.2016C87.3695 69.2832 87.6028 69.3625 87.8373 69.4393L87.4057 70.7659ZM110.705 70.555C110.254 70.7118 109.8 70.8601 109.341 70.9995L108.938 69.6639C109.379 69.5298 109.816 69.3873 110.249 69.2365L110.705 70.555ZM90.3651 71.5981C89.8649 71.4801 89.3687 71.3519 88.8766 71.2135L89.2517 69.8697C89.7249 70.0027 90.2021 70.1261 90.6831 70.2395L90.3651 71.5981ZM107.961 71.3895C107.5 71.5099 107.035 71.6215 106.568 71.724L106.271 70.3607C106.721 70.262 107.167 70.1547 107.611 70.0389L107.961 71.3895ZM93.3839 72.1757C92.8753 72.1006 92.37 72.0149 91.8684 71.9189L92.1288 70.5481C92.6112 70.6404 93.0971 70.7228 93.5863 70.7951L93.3839 72.1757ZM105.162 72.0032C104.693 72.0867 104.221 72.1613 103.746 72.2266L103.557 70.844C104.014 70.7812 104.468 70.7095 104.919 70.6291L105.162 72.0032ZM96.4399 72.4962C95.9266 72.4641 95.4161 72.4213 94.9086 72.3681L95.053 70.9802C95.5412 71.0313 96.0324 71.0725 96.5264 71.1033L96.4399 72.4962ZM102.321 72.3941C101.848 72.4404 101.371 72.4776 100.893 72.5055L100.812 71.1123C101.273 71.0854 101.731 71.0497 102.186 71.0052L102.321 72.3941ZM98.7432 72.568C98.4865 72.568 98.2305 72.5653 97.9751 72.56L98.0038 71.1648C98.2496 71.1699 98.4961 71.1724 98.7432 71.1724C98.9744 71.1724 99.2051 71.1702 99.4352 71.1657L99.4621 72.561C99.223 72.5656 98.9834 72.568 98.7432 72.568Z" fill="#FF6B00"/>
<path fill-rule="evenodd" clip-rule="evenodd" d="M120.179 1.18179C120.55 1.08229 120.931 1.30344 121.03 1.67574L122.913 8.74829C122.962 8.93298 122.934 9.12983 122.834 9.29286C122.735 9.45589 122.573 9.57082 122.387 9.6108L115.222 11.1489C114.846 11.2295 114.477 10.9893 114.396 10.6125C114.316 10.2357 114.555 9.86482 114.931 9.78423L121.381 8.39961L119.687 2.03606C119.588 1.66376 119.808 1.28129 120.179 1.18179Z" fill="#FF6B00"/>
<path fill-rule="evenodd" clip-rule="evenodd" d="M122.069 78.1551C122.106 77.7716 122.445 77.4905 122.828 77.5274L129.672 78.1885C129.863 78.207 130.039 78.3046 130.156 78.4579C130.274 78.6113 130.322 78.8066 130.291 78.9974L129.142 85.9397C129.079 86.3199 128.721 86.5769 128.342 86.5137C127.963 86.4505 127.707 86.0911 127.77 85.711L128.608 80.6515L118.254 87.7959C117.938 88.0142 117.505 87.9338 117.287 87.6162C117.07 87.2986 117.15 86.8642 117.466 86.6459L127.934 79.4226L122.694 78.9165C122.312 78.8796 122.032 78.5387 122.069 78.1551Z" fill="#FFB176"/>
<path fill-rule="evenodd" clip-rule="evenodd" d="M73.7421 82.9254L66.0951 87.8098L65.3486 86.6324L72.9957 81.748L73.7421 82.9254Z" fill="#FFB176"/>
<path fill-rule="evenodd" clip-rule="evenodd" d="M79.252 82.9254L86.899 87.8098L87.6455 86.6324L79.9984 81.748L79.252 82.9254Z" fill="#FFB176"/>
<path fill-rule="evenodd" clip-rule="evenodd" d="M100.159 82.9254L92.5121 87.8098L91.7656 86.6324L99.4127 81.748L100.159 82.9254Z" fill="#FFB176"/>
<path fill-rule="evenodd" clip-rule="evenodd" d="M105.669 82.9254L113.316 87.8098L114.062 86.6324L106.415 81.748L105.669 82.9254Z" fill="#FFB176"/>
<path fill-rule="evenodd" clip-rule="evenodd" d="M52.5133 36.9817C52.1294 36.9817 51.8181 37.2941 51.8181 37.6795V96.2919C51.8181 96.6773 52.1294 96.9897 52.5133 96.9897H142.888C143.272 96.9897 143.583 96.6773 143.583 96.2919V37.6795C143.583 37.2941 143.272 36.9817 142.888 36.9817H52.5133ZM52.5133 35.5862C51.3615 35.5862 50.4277 36.5234 50.4277 37.6795V96.2919C50.4277 97.448 51.3615 98.3852 52.5133 98.3852H142.888C144.039 98.3852 144.973 97.448 144.973 96.2919V37.6795C144.973 36.5234 144.039 35.5862 142.888 35.5862H52.5133Z" fill="#FF6B00"/>
<path fill-rule="evenodd" clip-rule="evenodd" d="M45.5611 30.7019C45.1772 30.7019 44.866 31.0143 44.866 31.3997V103.27C44.866 103.655 45.1772 103.967 45.5611 103.967H149.839C150.223 103.967 150.534 103.655 150.534 103.27V31.3997C150.534 31.0143 150.223 30.7019 149.839 30.7019H133.69V29.3064H149.839C150.991 29.3064 151.925 30.2436 151.925 31.3997V103.27C151.925 104.426 150.991 105.363 149.839 105.363H45.5611C44.4093 105.363 43.4756 104.426 43.4756 103.27V31.3997C43.4756 30.2436 44.4093 29.3064 45.5611 29.3064H63.662V30.7019H45.5611Z" fill="#FF6B00"/>
<path fill-rule="evenodd" clip-rule="evenodd" d="M38.6094 103.968H156.096V107.456C156.096 114.008 150.805 119.318 144.278 119.318H50.4276C43.9006 119.318 38.6094 114.008 38.6094 107.456V103.968ZM39.9997 105.363V107.456C39.9997 113.237 44.6684 117.923 50.4276 117.923H144.278C150.037 117.923 154.706 113.237 154.706 107.456V105.363H39.9997Z" fill="#FF6B00"/>
<path fill-rule="evenodd" clip-rule="evenodd" d="M83.7969 108.154H111.604V108.852C111.604 111.549 109.426 113.736 106.738 113.736H88.6632C85.9756 113.736 83.7969 111.549 83.7969 108.852V108.154ZM85.2568 109.55C85.5788 111.142 86.9816 112.341 88.6632 112.341H106.738C108.42 112.341 109.822 111.142 110.144 109.55H85.2568Z" fill="#FF6B00"/>
<path fill-rule="evenodd" clip-rule="evenodd" d="M155.401 109.492H39.3047V108.097H155.401V109.492Z" fill="#FF6B00"/>
<circle opacity="0.3" cx="35.3633" cy="19" r="3" fill="#FF6B00"/>
<circle opacity="0.3" cx="32.3633" cy="34" r="2" fill="#FF6B00"/>
</g>
<circle opacity="0.3" cx="183.636" cy="78.1816" r="2.72727" fill="#FF6B00"/>
<circle opacity="0.3" cx="180.909" cy="91.8182" r="1.81818" fill="#FF6B00"/>
<circle opacity="0.3" cx="5.4549" cy="87.2728" r="1.81818" fill="#FF6B00"/>
<path opacity="0.3" fill-rule="evenodd" clip-rule="evenodd" d="M186.306 104.721C182.287 105.484 179.12 108.651 178.357 112.67C178.397 112.633 178.437 112.597 178.478 112.561C179.078 112.046 179.901 111.616 180.854 111.269C181.791 110.929 182.89 110.655 184.101 110.465C184.291 109.255 184.565 108.155 184.905 107.218C185.252 106.266 185.682 105.442 186.197 104.842C186.233 104.801 186.269 104.761 186.306 104.721ZM178.357 116.421C179.12 120.44 182.287 123.607 186.306 124.37C186.269 124.33 186.233 124.29 186.197 124.249C185.682 123.649 185.252 122.825 184.905 121.873C184.565 120.936 184.291 119.836 184.101 118.626C182.89 118.436 181.791 118.162 180.854 117.822C179.901 117.475 179.078 117.045 178.478 116.53C178.437 116.494 178.397 116.458 178.357 116.421ZM190.057 124.37C194.076 123.607 197.243 120.44 198.006 116.421C197.966 116.458 197.926 116.494 197.885 116.53C197.285 117.045 196.461 117.475 195.509 117.822C194.572 118.162 193.472 118.436 192.262 118.626C192.072 119.836 191.798 120.936 191.458 121.873C191.111 122.825 190.681 123.649 190.166 124.249C190.13 124.29 190.094 124.33 190.057 124.37ZM198.006 112.67C197.243 108.651 194.076 105.484 190.057 104.721C190.094 104.761 190.13 104.801 190.166 104.842C190.681 105.442 191.111 106.266 191.458 107.218C191.798 108.155 192.072 109.255 192.262 110.465C193.472 110.655 194.572 110.929 195.509 111.269C196.461 111.616 197.285 112.046 197.885 112.561C197.926 112.597 197.966 112.633 198.006 112.67ZM188.181 102.727C181.654 102.727 176.363 108.018 176.363 114.545C176.363 121.072 181.654 126.364 188.181 126.364C194.708 126.364 200 121.072 200 114.545C200 108.018 194.708 102.727 188.181 102.727ZM186.315 107.731C186.05 108.461 185.825 109.319 185.654 110.273C186.466 110.198 187.313 110.159 188.181 110.159C189.05 110.159 189.897 110.198 190.709 110.273C190.538 109.319 190.313 108.461 190.048 107.731C189.736 106.874 189.383 106.233 189.028 105.82C188.671 105.405 188.383 105.296 188.181 105.296C187.98 105.296 187.691 105.405 187.335 105.82C186.98 106.233 186.627 106.874 186.315 107.731ZM181.367 116.412C182.097 116.677 182.955 116.902 183.909 117.073C183.834 116.261 183.795 115.414 183.795 114.546C183.795 113.677 183.834 112.83 183.909 112.018C182.955 112.189 182.097 112.414 181.367 112.679C180.51 112.991 179.869 113.344 179.456 113.699C179.041 114.056 178.931 114.344 178.931 114.545C178.931 114.747 179.041 115.035 179.456 115.392C179.869 115.747 180.51 116.1 181.367 116.412ZM185.295 114.546C185.295 115.502 185.345 116.423 185.438 117.289C186.304 117.382 187.224 117.432 188.181 117.432C189.138 117.432 190.059 117.382 190.925 117.289C191.018 116.423 191.068 115.502 191.068 114.546C191.068 113.589 191.018 112.668 190.925 111.802C190.059 111.709 189.138 111.659 188.181 111.659C187.224 111.659 186.304 111.709 185.438 111.802C185.345 112.668 185.295 113.589 185.295 114.546ZM186.315 121.36C186.05 120.63 185.825 119.772 185.654 118.818C186.466 118.893 187.313 118.932 188.181 118.932C189.05 118.932 189.897 118.893 190.709 118.818C190.538 119.772 190.313 120.63 190.048 121.36C189.736 122.217 189.383 122.858 189.028 123.271C188.671 123.686 188.383 123.796 188.181 123.796C187.98 123.796 187.691 123.686 187.335 123.271C186.98 122.858 186.627 122.217 186.315 121.36ZM194.996 116.412C194.266 116.677 193.408 116.902 192.454 117.073C192.529 116.261 192.568 115.414 192.568 114.546C192.568 113.677 192.529 112.83 192.454 112.018C193.408 112.189 194.266 112.414 194.996 112.679C195.853 112.991 196.494 113.344 196.907 113.699C197.322 114.056 197.431 114.344 197.431 114.545C197.431 114.747 197.322 115.035 196.907 115.392C196.494 115.747 195.853 116.1 194.996 116.412Z" fill="#FF6B00"/>
<path opacity="0.3" fill-rule="evenodd" clip-rule="evenodd" d="M9.94262 31.0846C5.92384 31.8472 2.75641 35.0146 1.9938 39.0333C2.03348 38.9965 2.07395 38.9603 2.11513 38.9249C2.71465 38.4095 3.53829 37.9793 4.49085 37.633C5.42747 37.2924 6.52725 37.019 7.73786 36.8287C7.92812 35.6181 8.20151 34.5184 8.54209 33.5818C8.88848 32.6292 9.31866 31.8056 9.83408 31.2061C9.86953 31.1649 9.90571 31.1243 9.94262 31.0846ZM1.99384 42.7849C2.75651 46.8034 5.92372 49.9706 9.94225 50.7333C9.90547 50.6937 9.86941 50.6533 9.83408 50.6123C9.31866 50.0127 8.88848 49.1891 8.54209 48.2365C8.2015 47.2999 7.9281 46.2001 7.73783 44.9895C6.52724 44.7992 5.42746 44.5258 4.49085 44.1852C3.53829 43.8389 2.71465 43.4087 2.11513 42.8932C2.07397 42.8579 2.03351 42.8217 1.99384 42.7849ZM13.6942 50.7333C17.7127 49.9706 20.8798 46.8034 21.6425 42.785C21.6029 42.8218 21.5624 42.8579 21.5213 42.8932C20.9218 43.4087 20.0982 43.8389 19.1456 44.1852C18.209 44.5258 17.1092 44.7992 15.8986 44.9895C15.7084 46.2001 15.435 47.2999 15.0944 48.2365C14.748 49.1891 14.3178 50.0127 13.8024 50.6123C13.7671 50.6533 13.731 50.6937 13.6942 50.7333ZM21.6425 39.0333C20.8799 35.0146 17.7126 31.8472 13.6939 31.0846C13.7308 31.1243 13.7669 31.1649 13.8024 31.2061C14.3178 31.8056 14.748 32.6292 15.0944 33.5818C15.435 34.5184 15.7083 35.6181 15.8986 36.8287C17.1092 37.019 18.209 37.2924 19.1456 37.633C20.0982 37.9793 20.9218 38.4095 21.5213 38.9249C21.5625 38.9603 21.6029 38.9964 21.6425 39.0333ZM11.8182 29.0908C5.29118 29.0908 0 34.382 0 40.909C0 47.436 5.29118 52.7272 11.8182 52.7272C18.3452 52.7272 23.6364 47.436 23.6364 40.909C23.6364 34.382 18.3452 29.0908 11.8182 29.0908ZM9.95178 34.0944C9.68631 34.8244 9.46145 35.6826 9.29098 36.6366C10.1026 36.562 10.9493 36.5227 11.8182 36.5227C12.6871 36.5227 13.5339 36.562 14.3455 36.6366C14.175 35.6826 13.9502 34.8244 13.6847 34.0944C13.373 33.2373 13.0196 32.5965 12.665 32.184C12.3082 31.769 12.0195 31.6592 11.8182 31.6592C11.617 31.6592 11.3283 31.769 10.9715 32.184C10.6168 32.5965 10.2634 33.2373 9.95178 34.0944ZM5.00346 42.7755C5.73352 43.041 6.5917 43.2659 7.54574 43.4364C7.47114 42.6248 7.43187 41.7781 7.43187 40.9092C7.43187 40.0402 7.47114 39.1935 7.54575 38.3818C6.5917 38.5523 5.73352 38.7772 5.00346 39.0426C4.14638 39.3543 3.50555 39.7077 3.09301 40.0624C2.67804 40.4191 2.56822 40.7078 2.56822 40.9091C2.56822 41.1103 2.67804 41.3991 3.09301 41.7558C3.50555 42.1105 4.14638 42.4639 5.00346 42.7755ZM8.93187 40.9092C8.93187 41.8661 8.98206 42.7868 9.07456 43.6528C9.94055 43.7453 10.8612 43.7955 11.8182 43.7955C12.7752 43.7955 13.6959 43.7453 14.5619 43.6528C14.6544 42.7868 14.7046 41.8661 14.7046 40.9092C14.7046 39.9522 14.6544 39.0314 14.5619 38.1654C13.6959 38.0729 12.7752 38.0227 11.8182 38.0227C10.8613 38.0227 9.94056 38.0729 9.07458 38.1654C8.98207 39.0314 8.93187 39.9522 8.93187 40.9092ZM9.95178 47.7239C9.6863 46.9939 9.46143 46.1357 9.29096 45.1816C10.1026 45.2562 10.9493 45.2955 11.8182 45.2955C12.6872 45.2955 13.5339 45.2562 14.3455 45.1816C14.175 46.1357 13.9502 46.9939 13.6847 47.7239C13.373 48.581 13.0196 49.2218 12.665 49.6344C12.3082 50.0493 12.0195 50.1592 11.8182 50.1592C11.617 50.1592 11.3283 50.0493 10.9715 49.6344C10.6168 49.2218 10.2634 48.581 9.95178 47.7239ZM18.633 42.7755C17.9029 43.041 17.0448 43.2659 16.0907 43.4364C16.1653 42.6248 16.2046 41.7781 16.2046 40.9092C16.2046 40.0402 16.1653 39.1935 16.0907 38.3818C17.0448 38.5523 17.9029 38.7772 18.633 39.0426C19.4901 39.3543 20.1309 39.7077 20.5434 40.0624C20.9584 40.4191 21.0682 40.7078 21.0682 40.9091C21.0682 41.1103 20.9584 41.3991 20.5434 41.7558C20.1309 42.1105 19.4901 42.4639 18.633 42.7755Z" fill="#FF6B00"/>
<circle opacity="0.3" cx="4.54563" cy="70.0002" r="2.72727" fill="#FF6B00"/>
<defs>
<linearGradient id="paint0_linear_504_689" x1="93.301" y1="7.86523" x2="93.301" y2="158.413" gradientUnits="userSpaceOnUse">
<stop stop-color="#FFAA45"/>
<stop offset="1" stop-color="#FF7A00"/>
</linearGradient>
<clipPath id="clip0_504_689">
<rect width="153.636" height="159.091" fill="white" transform="translate(16.3633)"/>
</clipPath>
</defs>
</svg>
