<svg width="190" height="180" viewBox="0 0 190 180" fill="none" xmlns="http://www.w3.org/2000/svg">
<g clip-path="url(#clip0_330_9338)">
<path opacity="0.1" fill-rule="evenodd" clip-rule="evenodd" d="M113.062 19.0718C94.1286 31.636 87.12 37.7965 56.3779 37.7965C25.6357 37.7965 11.0472 47.2374 4.72476 70.565C-1.5977 93.8927 -6.26989 141.903 32.12 156.05C70.51 170.196 97.7022 131.354 131.996 135.39C166.29 139.426 178.575 115.993 178.575 93.2792C178.575 70.5651 141.526 50.3949 150.93 31.5903C160.333 12.7858 131.996 6.50769 113.062 19.0718Z" fill="url(#paint0_linear_330_9338)"/>
<path opacity="0.5" fill-rule="evenodd" clip-rule="evenodd" d="M82.9304 57.6229C76.6946 57.6229 71.6394 62.6781 71.6394 68.9139C71.6394 75.1498 76.6946 80.2049 82.9304 80.2049C89.1662 80.2049 94.2214 75.1498 94.2214 68.9139C94.2214 62.6781 89.1662 57.6229 82.9304 57.6229ZM70.082 68.9139C70.082 61.818 75.8344 56.0656 82.9304 56.0656C90.0263 56.0656 95.7788 61.818 95.7788 68.9139C95.7788 76.0099 90.0263 81.7623 82.9304 81.7623C75.8344 81.7623 70.082 76.0099 70.082 68.9139Z" fill="#FF5C00"/>
<path fill-rule="evenodd" clip-rule="evenodd" d="M82.9298 63.0737C79.7043 63.0737 77.0896 65.6885 77.0896 68.9139C77.0896 72.1393 79.7043 74.7541 82.9298 74.7541C86.1552 74.7541 88.7699 72.1393 88.7699 68.9139C88.7699 65.6885 86.1552 63.0737 82.9298 63.0737ZM75.5322 68.9139C75.5322 64.8283 78.8442 61.5164 82.9298 61.5164C87.0153 61.5164 90.3273 64.8283 90.3273 68.9139C90.3273 72.9994 87.0153 76.3114 82.9298 76.3114C78.8442 76.3114 75.5322 72.9994 75.5322 68.9139Z" fill="#FF5C00"/>
<path fill-rule="evenodd" clip-rule="evenodd" d="M68.9208 11.3285C72.7872 4.36327 77.5644 0 82.9304 0C86.6327 0 90.0564 2.0865 93.0711 5.62839C96.0883 9.17339 98.7704 14.2572 101.007 20.4713C105.484 32.9061 108.238 50.0332 108.238 68.9139C108.238 87.7946 105.484 104.922 101.007 117.357C98.7704 123.571 96.0883 128.654 93.0711 132.2C90.0564 135.741 86.6327 137.828 82.9304 137.828C79.2282 137.828 75.8044 135.741 72.7898 132.2C69.7725 128.654 67.0904 123.571 64.8534 117.357C60.3768 104.922 57.623 87.7946 57.623 68.9139C57.623 52.0166 59.8286 36.528 63.4982 24.5506L64.9872 25.0069C61.3714 36.8087 59.1804 52.1395 59.1804 68.9139C59.1804 87.6633 61.9176 104.604 66.3187 116.829C68.5204 122.945 71.1239 127.839 73.9757 131.19C76.8302 134.544 79.8593 136.271 82.9304 136.271C86.0016 136.271 89.0306 134.544 91.8851 131.19C94.737 127.839 97.3404 122.945 99.5422 116.829C103.943 104.604 106.68 87.6633 106.68 68.9139C106.68 50.1646 103.943 33.2241 99.5422 20.9988C97.3404 14.8828 94.737 9.98846 91.8851 6.6378C89.0306 3.28402 86.0016 1.55738 82.9304 1.55738C78.4676 1.55738 74.091 5.2234 70.2825 12.0843L68.9208 11.3285Z" fill="#FF5C00"/>
<path fill-rule="evenodd" clip-rule="evenodd" d="M142.808 46.0532C144.368 41.6715 144.463 37.6632 142.612 34.457C140.761 31.2507 137.242 29.3289 132.667 28.4891C128.089 27.6485 122.345 27.8677 115.845 29.0374C102.838 31.378 86.6282 37.5567 70.277 46.9971C53.9259 56.4374 40.4702 67.3859 31.9396 77.4801C27.6766 82.5245 24.6149 87.3891 23.0535 91.7746C21.4934 96.1563 21.3984 100.165 23.2495 103.371C25.8696 107.909 31.8132 109.879 39.4981 109.845L39.4913 108.288C31.9378 108.321 26.7763 106.365 24.5982 102.592C23.0626 99.9325 23.0435 96.446 24.5207 92.297C25.9965 88.1519 28.9334 83.45 33.1291 78.4853C41.516 68.5612 54.8183 57.7205 71.0557 48.3458C87.2931 38.9711 103.333 32.8713 116.121 30.5702C122.518 29.4189 128.058 29.2264 132.386 30.0209C136.718 30.8161 139.728 32.5759 141.263 35.2356C142.799 37.8953 142.818 41.3819 141.341 45.5308C139.865 49.676 136.928 54.3778 132.732 59.3425C124.345 69.2667 111.043 80.1073 94.8057 89.482C80.0832 97.9821 65.5201 103.792 53.3945 106.517L53.736 108.036C66.0446 105.27 80.7545 99.3928 95.5844 90.8307C111.936 81.3904 125.391 70.442 133.922 60.3478C138.185 55.3034 141.247 50.4388 142.808 46.0532Z" fill="#FF5C00"/>
<path fill-rule="evenodd" clip-rule="evenodd" d="M23.0534 46.0532C21.4933 41.6715 21.3983 37.6632 23.2494 34.4569C25.1005 31.2507 28.6194 29.3289 33.194 28.4891C37.7727 27.6485 43.5165 27.8677 50.0166 29.0374C63.0237 31.378 79.2331 37.5567 95.5843 46.9971C107.845 54.0758 118.473 61.9994 126.617 69.7715C134.746 77.5291 140.457 85.1897 142.8 91.7541L141.334 92.2777C139.11 86.0479 133.6 78.5882 125.541 70.8982C117.498 63.2225 106.974 55.371 94.8056 48.3458C78.5682 38.9711 62.5287 32.8713 49.7408 30.5702C43.3433 29.4189 37.8029 29.2264 33.4752 30.0209C29.1435 30.8161 26.1337 32.5759 24.5981 35.2356C23.0625 37.8953 23.0434 41.3819 24.5205 45.5308C25.9964 49.676 28.9333 54.3778 33.129 59.3425C41.5159 69.2667 54.8182 80.1073 71.0556 89.482C86.2756 98.2693 101.324 104.181 113.685 106.782C119.867 108.083 125.347 108.549 129.827 108.15C134.318 107.749 137.712 106.487 139.834 104.422L140.92 105.538C138.437 107.954 134.634 109.285 129.965 109.701C125.284 110.119 119.64 109.626 113.364 108.306C100.809 105.664 85.6065 99.6813 70.2769 90.8308C53.9258 81.3904 40.4701 70.442 31.9395 60.3478C27.6765 55.3034 24.6148 50.4387 23.0534 46.0532Z" fill="#FF5C00"/>
<path fill-rule="evenodd" clip-rule="evenodd" d="M46.7215 102.787C43.281 102.787 40.4919 105.576 40.4919 109.016C40.4919 112.457 43.281 115.246 46.7215 115.246C50.1619 115.246 52.951 112.457 52.951 109.016C52.951 105.576 50.1619 102.787 46.7215 102.787ZM38.9346 109.016C38.9346 104.716 42.4209 101.229 46.7215 101.229C51.022 101.229 54.5083 104.716 54.5083 109.016C54.5083 113.317 51.022 116.803 46.7215 116.803C42.4209 116.803 38.9346 113.317 38.9346 109.016Z" fill="#FCAA7C"/>
<path fill-rule="evenodd" clip-rule="evenodd" d="M49.0571 110.574C48.197 110.574 47.4998 111.271 47.4998 112.131C47.4998 112.991 48.197 113.688 49.0571 113.688C49.9173 113.688 50.6145 112.991 50.6145 112.131C50.6145 111.271 49.9173 110.574 49.0571 110.574ZM45.9424 112.131C45.9424 110.411 47.3369 109.016 49.0571 109.016C50.7774 109.016 52.1719 110.411 52.1719 112.131C52.1719 113.851 50.7774 115.246 49.0571 115.246C47.3369 115.246 45.9424 113.851 45.9424 112.131Z" fill="#FCAA7C"/>
<path fill-rule="evenodd" clip-rule="evenodd" d="M144.057 92.6639C140.617 92.6639 137.828 95.453 137.828 98.8934C137.828 102.334 140.617 105.123 144.057 105.123C147.498 105.123 150.287 102.334 150.287 98.8934C150.287 95.453 147.498 92.6639 144.057 92.6639ZM136.271 98.8934C136.271 94.5929 139.757 91.1066 144.057 91.1066C148.358 91.1066 151.844 94.5929 151.844 98.8934C151.844 103.194 148.358 106.68 144.057 106.68C139.757 106.68 136.271 103.194 136.271 98.8934Z" fill="#FCAA7C"/>
<path fill-rule="evenodd" clip-rule="evenodd" d="M142.5 93.4426C141.64 93.4426 140.943 94.1399 140.943 95C140.943 95.8601 141.64 96.5574 142.5 96.5574C143.361 96.5574 144.058 95.8601 144.058 95C144.058 94.1399 143.361 93.4426 142.5 93.4426ZM139.386 95C139.386 93.2798 140.78 91.8853 142.5 91.8853C144.221 91.8853 145.615 93.2798 145.615 95C145.615 96.7202 144.221 98.1148 142.5 98.1148C140.78 98.1148 139.386 96.7202 139.386 95Z" fill="#FCAA7C"/>
<path fill-rule="evenodd" clip-rule="evenodd" d="M66.9666 11.6804C63.5261 11.6804 60.7371 14.4695 60.7371 17.9099C60.7371 21.3504 63.5261 24.1394 66.9666 24.1394C70.407 24.1394 73.1961 21.3504 73.1961 17.9099C73.1961 14.4695 70.407 11.6804 66.9666 11.6804ZM59.1797 17.9099C59.1797 13.6094 62.666 10.123 66.9666 10.123C71.2672 10.123 74.7535 13.6094 74.7535 17.9099C74.7535 22.2105 71.2672 25.6968 66.9666 25.6968C62.666 25.6968 59.1797 22.2105 59.1797 17.9099Z" fill="#FCAA7C"/>
<path fill-rule="evenodd" clip-rule="evenodd" d="M62.2944 16.3525C61.4343 16.3525 60.7371 17.0498 60.7371 17.9099C60.7371 18.77 61.4343 19.4673 62.2944 19.4673C63.1546 19.4673 63.8518 18.77 63.8518 17.9099C63.8518 17.0498 63.1546 16.3525 62.2944 16.3525ZM59.1797 17.9099C59.1797 16.1897 60.5742 14.7952 62.2944 14.7952C64.0147 14.7952 65.4092 16.1897 65.4092 17.9099C65.4092 19.6302 64.0147 21.0247 62.2944 21.0247C60.5742 21.0247 59.1797 19.6302 59.1797 17.9099Z" fill="#FCAA7C"/>
<path fill-rule="evenodd" clip-rule="evenodd" d="M65.5664 163.511L57.1597 176.295H42.5102L34.3889 163.895L35.6918 163.042L43.3519 174.738H56.3199L63.6946 163.523L56.3263 152.623H42.9311V151.066H57.1533L65.5664 163.511Z" fill="#FFDABF"/>
<path d="M39.7125 174.816C39.7125 176.751 41.2813 178.32 43.2166 178.32C45.1519 178.32 46.7207 176.751 46.7207 174.816C46.7207 172.88 45.1519 171.312 43.2166 171.312C41.2813 171.312 39.7125 172.88 39.7125 174.816Z" fill="white"/>
<path fill-rule="evenodd" clip-rule="evenodd" d="M45.9426 174.816C45.9426 173.31 44.7224 172.09 43.2172 172.09C41.712 172.09 40.4918 173.31 40.4918 174.816C40.4918 176.321 41.712 177.541 43.2172 177.541C44.7224 177.541 45.9426 176.321 45.9426 174.816ZM43.2172 170.533C45.5825 170.533 47.5 172.45 47.5 174.816C47.5 177.181 45.5825 179.098 43.2172 179.098C40.8519 179.098 38.9344 177.181 38.9344 174.816C38.9344 172.45 40.8519 170.533 43.2172 170.533Z" fill="#FFDABF"/>
<path d="M60.7379 163.525C60.7379 165.46 62.3067 167.029 64.242 167.029C66.1773 167.029 67.7461 165.46 67.7461 163.525C67.7461 161.589 66.1773 160.021 64.242 160.021C62.3067 160.021 60.7379 161.589 60.7379 163.525Z" fill="#F9F9F9"/>
<path fill-rule="evenodd" clip-rule="evenodd" d="M66.967 163.525C66.967 162.019 65.7468 160.799 64.2416 160.799C62.7364 160.799 61.5162 162.019 61.5162 163.525C61.5162 165.03 62.7364 166.25 64.2416 166.25C65.7468 166.25 66.967 165.03 66.967 163.525ZM64.2416 159.242C66.6069 159.242 68.5244 161.159 68.5244 163.525C68.5244 165.89 66.6069 167.807 64.2416 167.807C61.8763 167.807 59.9589 165.89 59.9589 163.525C59.9589 161.159 61.8763 159.242 64.2416 159.242Z" fill="#FFDABF"/>
<path d="M52.9508 152.234C52.9508 154.169 54.5196 155.738 56.4549 155.738C58.3901 155.738 59.959 154.169 59.959 152.234C59.959 150.298 58.3901 148.729 56.4549 148.729C54.5196 148.729 52.9508 150.298 52.9508 152.234Z" fill="#FFF2E6"/>
<path fill-rule="evenodd" clip-rule="evenodd" d="M59.1799 152.234C59.1799 150.728 57.9597 149.508 56.4545 149.508C54.9493 149.508 53.7291 150.728 53.7291 152.234C53.7291 153.739 54.9493 154.959 56.4545 154.959C57.9597 154.959 59.1799 153.739 59.1799 152.234ZM56.4545 147.951C58.8198 147.951 60.7373 149.868 60.7373 152.234C60.7373 154.599 58.8198 156.516 56.4545 156.516C54.0892 156.516 52.1717 154.599 52.1717 152.234C52.1717 149.868 54.0892 147.951 56.4545 147.951Z" fill="#FFDABF"/>
<path d="M52.9508 174.816C52.9508 176.751 54.5196 178.32 56.4549 178.32C58.3901 178.32 59.959 176.751 59.959 174.816C59.959 172.88 58.3901 171.312 56.4549 171.312C54.5196 171.312 52.9508 172.88 52.9508 174.816Z" fill="#F9F9F9"/>
<path fill-rule="evenodd" clip-rule="evenodd" d="M59.1799 174.816C59.1799 173.31 57.9597 172.09 56.4545 172.09C54.9493 172.09 53.7291 173.31 53.7291 174.816C53.7291 176.321 54.9493 177.541 56.4545 177.541C57.9597 177.541 59.1799 176.321 59.1799 174.816ZM56.4545 170.533C58.8198 170.533 60.7373 172.45 60.7373 174.816C60.7373 177.181 58.8198 179.098 56.4545 179.098C54.0892 179.098 52.1717 177.181 52.1717 174.816C52.1717 172.45 54.0892 170.533 56.4545 170.533Z" fill="#FFDABF"/>
<path fill-rule="evenodd" clip-rule="evenodd" d="M44.542 151.831L36.1353 164.615H21.4858L13.08 151.78L21.4941 139.385H36.1289L44.542 151.831ZM42.6702 151.843L35.3019 140.943H22.3192L14.9518 151.796L22.3275 163.057H35.2955L42.6702 151.843Z" fill="#FFDABF"/>
<path d="M18.6881 163.135C18.6881 165.07 20.2569 166.639 22.1922 166.639C24.1275 166.639 25.6963 165.07 25.6963 163.135C25.6963 161.2 24.1275 159.631 22.1922 159.631C20.2569 159.631 18.6881 161.2 18.6881 163.135Z" fill="white"/>
<path fill-rule="evenodd" clip-rule="evenodd" d="M24.9182 163.135C24.9182 161.63 23.698 160.41 22.1928 160.41C20.6876 160.41 19.4674 161.63 19.4674 163.135C19.4674 164.64 20.6876 165.861 22.1928 165.861C23.698 165.861 24.9182 164.64 24.9182 163.135ZM22.1928 158.852C24.5581 158.852 26.4756 160.77 26.4756 163.135C26.4756 165.501 24.5581 167.418 22.1928 167.418C19.8275 167.418 17.91 165.501 17.91 163.135C17.91 160.77 19.8275 158.852 22.1928 158.852Z" fill="#FFDABF"/>
<path d="M18.6881 140.553C18.6881 142.489 20.2569 144.057 22.1922 144.057C24.1275 144.057 25.6963 142.489 25.6963 140.553C25.6963 138.618 24.1275 137.049 22.1922 137.049C20.2569 137.049 18.6881 138.618 18.6881 140.553Z" fill="#FFF2E6"/>
<path fill-rule="evenodd" clip-rule="evenodd" d="M24.9182 140.553C24.9182 139.048 23.698 137.828 22.1928 137.828C20.6876 137.828 19.4674 139.048 19.4674 140.553C19.4674 142.058 20.6876 143.279 22.1928 143.279C23.698 143.279 24.9182 142.058 24.9182 140.553ZM22.1928 136.271C24.5581 136.271 26.4756 138.188 26.4756 140.553C26.4756 142.919 24.5581 144.836 22.1928 144.836C19.8275 144.836 17.91 142.919 17.91 140.553C17.91 138.188 19.8275 136.271 22.1928 136.271Z" fill="#FFDABF"/>
<path d="M10.902 151.844C10.902 153.78 12.4708 155.348 14.4061 155.348C16.3413 155.348 17.9102 153.78 17.9102 151.844C17.9102 149.909 16.3413 148.34 14.4061 148.34C12.4708 148.34 10.902 149.909 10.902 151.844Z" fill="white"/>
<path fill-rule="evenodd" clip-rule="evenodd" d="M17.1311 151.844C17.1311 150.339 15.9109 149.119 14.4057 149.119C12.9005 149.119 11.6803 150.339 11.6803 151.844C11.6803 153.35 12.9005 154.57 14.4057 154.57C15.9109 154.57 17.1311 153.35 17.1311 151.844ZM14.4057 147.562C16.771 147.562 18.6885 149.479 18.6885 151.844C18.6885 154.21 16.771 156.127 14.4057 156.127C12.0404 156.127 10.1229 154.21 10.1229 151.844C10.1229 149.479 12.0404 147.562 14.4057 147.562Z" fill="#FFDABF"/>
<path d="M39.7135 151.844C39.7135 153.78 41.2823 155.348 43.2176 155.348C45.1528 155.348 46.7217 153.78 46.7217 151.844C46.7217 149.909 45.1528 148.34 43.2176 148.34C41.2823 148.34 39.7135 149.909 39.7135 151.844Z" fill="#FFF2E6"/>
<path fill-rule="evenodd" clip-rule="evenodd" d="M45.9426 151.844C45.9426 150.339 44.7224 149.119 43.2172 149.119C41.712 149.119 40.4918 150.339 40.4918 151.844C40.4918 153.35 41.712 154.57 43.2172 154.57C44.7224 154.57 45.9426 153.35 45.9426 151.844ZM43.2172 147.562C45.5825 147.562 47.5 149.479 47.5 151.844C47.5 154.21 45.5825 156.127 43.2172 156.127C40.8519 156.127 38.9344 154.21 38.9344 151.844C38.9344 149.479 40.8519 147.562 43.2172 147.562Z" fill="#FFDABF"/>
<path d="M31.9264 140.553C31.9264 142.489 33.4952 144.057 35.4305 144.057C37.3657 144.057 38.9346 142.489 38.9346 140.553C38.9346 138.618 37.3657 137.049 35.4305 137.049C33.4952 137.049 31.9264 138.618 31.9264 140.553Z" fill="#FFF2E6"/>
<path fill-rule="evenodd" clip-rule="evenodd" d="M38.1555 140.553C38.1555 139.048 36.9353 137.828 35.4301 137.828C33.9249 137.828 32.7047 139.048 32.7047 140.553C32.7047 142.058 33.9249 143.279 35.4301 143.279C36.9353 143.279 38.1555 142.058 38.1555 140.553ZM35.4301 136.271C37.7954 136.271 39.7129 138.188 39.7129 140.553C39.7129 142.919 37.7954 144.836 35.4301 144.836C33.0648 144.836 31.1473 142.919 31.1473 140.553C31.1473 138.188 33.0648 136.271 35.4301 136.271Z" fill="#FFDABF"/>
<path d="M31.9264 163.135C31.9264 165.07 33.4952 166.639 35.4305 166.639C37.3657 166.639 38.9346 165.07 38.9346 163.135C38.9346 161.2 37.3657 159.631 35.4305 159.631C33.4952 159.631 31.9264 161.2 31.9264 163.135Z" fill="#F9F9F9"/>
<path fill-rule="evenodd" clip-rule="evenodd" d="M38.1555 163.135C38.1555 161.63 36.9353 160.41 35.4301 160.41C33.9249 160.41 32.7047 161.63 32.7047 163.135C32.7047 164.64 33.9249 165.861 35.4301 165.861C36.9353 165.861 38.1555 164.64 38.1555 163.135ZM35.4301 158.852C37.7954 158.852 39.7129 160.77 39.7129 163.135C39.7129 165.501 37.7954 167.418 35.4301 167.418C33.0648 167.418 31.1473 165.501 31.1473 163.135C31.1473 160.77 33.0648 158.852 35.4301 158.852Z" fill="#FFDABF"/>
<path fill-rule="evenodd" clip-rule="evenodd" d="M174.414 29.433L187.197 37.8397V52.4892L174.797 60.6105L173.944 59.3076L185.64 51.6475V38.6795L174.426 31.3048L163.525 38.6731V52.0683H161.968V37.846L174.414 29.433Z" fill="#FFDABF"/>
<path d="M185.717 55.287C187.652 55.287 189.221 53.7182 189.221 51.7829C189.221 49.8476 187.652 48.2788 185.717 48.2788C183.782 48.2788 182.213 49.8476 182.213 51.7829C182.213 53.7182 183.782 55.287 185.717 55.287Z" fill="white"/>
<path fill-rule="evenodd" clip-rule="evenodd" d="M185.717 49.0574C184.212 49.0574 182.992 50.2776 182.992 51.7828C182.992 53.288 184.212 54.5082 185.717 54.5082C187.223 54.5082 188.443 53.288 188.443 51.7828C188.443 50.2776 187.223 49.0574 185.717 49.0574ZM181.435 51.7828C181.435 49.4175 183.352 47.5 185.717 47.5C188.083 47.5 190 49.4175 190 51.7828C190 54.1481 188.083 56.0656 185.717 56.0656C183.352 56.0656 181.435 54.1481 181.435 51.7828Z" fill="#FFDABF"/>
<path d="M174.426 34.2624C176.361 34.2624 177.93 32.6935 177.93 30.7583C177.93 28.823 176.361 27.2542 174.426 27.2542C172.491 27.2542 170.922 28.823 170.922 30.7583C170.922 32.6935 172.491 34.2624 174.426 34.2624Z" fill="white"/>
<path fill-rule="evenodd" clip-rule="evenodd" d="M174.426 28.0328C172.921 28.0328 171.701 29.253 171.701 30.7583C171.701 32.2635 172.921 33.4837 174.426 33.4837C175.932 33.4837 177.152 32.2635 177.152 30.7583C177.152 29.253 175.932 28.0328 174.426 28.0328ZM170.144 30.7583C170.144 28.3929 172.061 26.4755 174.426 26.4755C176.792 26.4755 178.709 28.3929 178.709 30.7583C178.709 33.1236 176.792 35.041 174.426 35.041C172.061 35.041 170.144 33.1236 170.144 30.7583Z" fill="#FFDABF"/>
<path d="M163.135 42.0492C165.07 42.0492 166.639 40.4804 166.639 38.5451C166.639 36.6099 165.07 35.041 163.135 35.041C161.2 35.041 159.631 36.6099 159.631 38.5451C159.631 40.4804 161.2 42.0492 163.135 42.0492Z" fill="white"/>
<path fill-rule="evenodd" clip-rule="evenodd" d="M163.135 35.8197C161.63 35.8197 160.41 37.0399 160.41 38.5451C160.41 40.0503 161.63 41.2705 163.135 41.2705C164.641 41.2705 165.861 40.0503 165.861 38.5451C165.861 37.0399 164.641 35.8197 163.135 35.8197ZM158.853 38.5451C158.853 36.1798 160.77 34.2623 163.135 34.2623C165.501 34.2623 167.418 36.1798 167.418 38.5451C167.418 40.9104 165.501 42.8279 163.135 42.8279C160.77 42.8279 158.853 40.9104 158.853 38.5451Z" fill="#FFDABF"/>
<path d="M185.717 42.0492C187.652 42.0492 189.221 40.4804 189.221 38.5451C189.221 36.6099 187.652 35.041 185.717 35.041C183.782 35.041 182.213 36.6099 182.213 38.5451C182.213 40.4804 183.782 42.0492 185.717 42.0492Z" fill="white"/>
<path fill-rule="evenodd" clip-rule="evenodd" d="M185.717 35.8197C184.212 35.8197 182.992 37.0399 182.992 38.5451C182.992 40.0503 184.212 41.2705 185.717 41.2705C187.223 41.2705 188.443 40.0503 188.443 38.5451C188.443 37.0399 187.223 35.8197 185.717 35.8197ZM181.435 38.5451C181.435 36.1798 183.352 34.2623 185.717 34.2623C188.083 34.2623 190 36.1798 190 38.5451C190 40.9104 188.083 42.8279 185.717 42.8279C183.352 42.8279 181.435 40.9104 181.435 38.5451Z" fill="#FFDABF"/>
<path fill-rule="evenodd" clip-rule="evenodd" d="M162.733 50.4575L175.517 58.8642V73.5137L162.682 81.9195L150.287 73.5054V58.8706L162.733 50.4575ZM162.745 52.3293L151.844 59.6977V72.6803L162.697 80.0477L173.959 72.672V59.704L162.745 52.3293Z" fill="#FFDABF"/>
<path d="M174.036 76.3114C175.972 76.3114 177.54 74.7426 177.54 72.8073C177.54 70.8721 175.972 69.3032 174.036 69.3032C172.101 69.3032 170.532 70.8721 170.532 72.8073C170.532 74.7426 172.101 76.3114 174.036 76.3114Z" fill="white"/>
<path fill-rule="evenodd" clip-rule="evenodd" d="M174.037 70.0819C172.531 70.0819 171.311 71.3021 171.311 72.8073C171.311 74.3125 172.531 75.5327 174.037 75.5327C175.542 75.5327 176.762 74.3125 176.762 72.8073C176.762 71.3021 175.542 70.0819 174.037 70.0819ZM169.754 72.8073C169.754 70.442 171.671 68.5245 174.037 68.5245C176.402 68.5245 178.319 70.442 178.319 72.8073C178.319 75.1726 176.402 77.0901 174.037 77.0901C171.671 77.0901 169.754 75.1726 169.754 72.8073Z" fill="#FFDABF"/>
<path d="M151.454 76.3114C153.39 76.3114 154.958 74.7426 154.958 72.8073C154.958 70.8721 153.39 69.3032 151.454 69.3032C149.519 69.3032 147.95 70.8721 147.95 72.8073C147.95 74.7426 149.519 76.3114 151.454 76.3114Z" fill="#FFF4E8"/>
<path fill-rule="evenodd" clip-rule="evenodd" d="M151.455 70.0819C149.949 70.0819 148.729 71.3021 148.729 72.8073C148.729 74.3125 149.949 75.5327 151.455 75.5327C152.96 75.5327 154.18 74.3125 154.18 72.8073C154.18 71.3021 152.96 70.0819 151.455 70.0819ZM147.172 72.8073C147.172 70.442 149.089 68.5245 151.455 68.5245C153.82 68.5245 155.737 70.442 155.737 72.8073C155.737 75.1726 153.82 77.0901 151.455 77.0901C149.089 77.0901 147.172 75.1726 147.172 72.8073Z" fill="#FFDABF"/>
<path d="M162.745 84.0984C164.681 84.0984 166.249 82.5296 166.249 80.5943C166.249 78.659 164.681 77.0902 162.745 77.0902C160.81 77.0902 159.241 78.659 159.241 80.5943C159.241 82.5296 160.81 84.0984 162.745 84.0984Z" fill="#FFF4E8"/>
<path fill-rule="evenodd" clip-rule="evenodd" d="M162.746 77.8689C161.24 77.8689 160.02 79.0891 160.02 80.5943C160.02 82.0995 161.24 83.3197 162.746 83.3197C164.251 83.3197 165.471 82.0995 165.471 80.5943C165.471 79.0891 164.251 77.8689 162.746 77.8689ZM158.463 80.5943C158.463 78.229 160.38 76.3115 162.746 76.3115C165.111 76.3115 167.028 78.229 167.028 80.5943C167.028 82.9596 165.111 84.8771 162.746 84.8771C160.38 84.8771 158.463 82.9596 158.463 80.5943Z" fill="#FFDABF"/>
<path d="M162.745 55.2869C164.681 55.2869 166.249 53.718 166.249 51.7828C166.249 49.8475 164.681 48.2787 162.745 48.2787C160.81 48.2787 159.241 49.8475 159.241 51.7828C159.241 53.718 160.81 55.2869 162.745 55.2869Z" fill="white"/>
<path fill-rule="evenodd" clip-rule="evenodd" d="M162.746 49.0574C161.24 49.0574 160.02 50.2776 160.02 51.7828C160.02 53.288 161.24 54.5082 162.746 54.5082C164.251 54.5082 165.471 53.288 165.471 51.7828C165.471 50.2776 164.251 49.0574 162.746 49.0574ZM158.463 51.7828C158.463 49.4175 160.38 47.5 162.746 47.5C165.111 47.5 167.028 49.4175 167.028 51.7828C167.028 54.1481 165.111 56.0656 162.746 56.0656C160.38 56.0656 158.463 54.1481 158.463 51.7828Z" fill="#FFDABF"/>
<path d="M151.454 63.0737C153.39 63.0737 154.958 61.5049 154.958 59.5697C154.958 57.6344 153.39 56.0656 151.454 56.0656C149.519 56.0656 147.95 57.6344 147.95 59.5697C147.95 61.5049 149.519 63.0737 151.454 63.0737Z" fill="#FFF4E8"/>
<path fill-rule="evenodd" clip-rule="evenodd" d="M151.455 56.8442C149.949 56.8442 148.729 58.0644 148.729 59.5697C148.729 61.0749 149.949 62.2951 151.455 62.2951C152.96 62.2951 154.18 61.0749 154.18 59.5697C154.18 58.0644 152.96 56.8442 151.455 56.8442ZM147.172 59.5697C147.172 57.2043 149.089 55.2869 151.455 55.2869C153.82 55.2869 155.737 57.2043 155.737 59.5697C155.737 61.935 153.82 63.8524 151.455 63.8524C149.089 63.8524 147.172 61.935 147.172 59.5697Z" fill="#FFDABF"/>
<path d="M174.036 63.0737C175.972 63.0737 177.54 61.5049 177.54 59.5697C177.54 57.6344 175.972 56.0656 174.036 56.0656C172.101 56.0656 170.532 57.6344 170.532 59.5697C170.532 61.5049 172.101 63.0737 174.036 63.0737Z" fill="white"/>
<path fill-rule="evenodd" clip-rule="evenodd" d="M174.037 56.8442C172.531 56.8442 171.311 58.0644 171.311 59.5697C171.311 61.0749 172.531 62.2951 174.037 62.2951C175.542 62.2951 176.762 61.0749 176.762 59.5697C176.762 58.0644 175.542 56.8442 174.037 56.8442ZM169.754 59.5697C169.754 57.2043 171.671 55.2869 174.037 55.2869C176.402 55.2869 178.319 57.2043 178.319 59.5697C178.319 61.935 176.402 63.8524 174.037 63.8524C171.671 63.8524 169.754 61.935 169.754 59.5697Z" fill="#FFDABF"/>
</g>
<defs>
<linearGradient id="paint0_linear_330_9338" x1="89.5211" y1="12.5322" x2="89.5211" y2="159.166" gradientUnits="userSpaceOnUse">
<stop stop-color="#FFAA45"/>
<stop offset="1" stop-color="#FF7A00"/>
</linearGradient>
<clipPath id="clip0_330_9338">
<rect width="190" height="179.098" fill="white"/>
</clipPath>
</defs>
</svg>
