<svg width="149" height="147" viewBox="0 0 149 147" fill="none" xmlns="http://www.w3.org/2000/svg">
<path opacity="0.1" fill-rule="evenodd" clip-rule="evenodd" d="M66.0635 15.4511C46.4215 42.0729 10.7042 48.5245 2.73597 74.5958C-5.23224 100.667 1.38032 134.384 60.9837 145.298C120.587 156.211 156.486 100.386 147.144 47.5905C137.801 -5.20449 85.7055 -11.1707 66.0635 15.4511Z" fill="url(#paint0_linear)"/>
<path d="M74.4297 91.375C74.4818 88.4583 74.9245 86.0755 75.7578 84.2266C76.6172 82.3516 78.2188 80.3203 80.5625 78.1328C82.9062 75.9453 84.5469 74.1875 85.4844 72.8594C86.4219 71.5312 87.099 70.151 87.5156 68.7188C87.9583 67.2865 88.1797 65.5677 88.1797 63.5625C88.1797 59.7865 87.1771 56.8177 85.1719 54.6562C83.1667 52.4948 80.4062 51.4141 76.8906 51.4141C73.1406 51.4141 70.1849 52.5339 68.0234 54.7734C65.888 57.013 64.7943 59.8906 64.7422 63.4062H62.6328C62.6849 59.1875 64.0521 55.7891 66.7344 53.2109C69.4167 50.6328 72.8021 49.3438 76.8906 49.3438C80.9792 49.3438 84.2344 50.6328 86.6562 53.2109C89.0781 55.7891 90.2891 59.2656 90.2891 63.6406C90.2891 66.6354 89.7031 69.3047 88.5312 71.6484C87.3594 73.9661 85.0807 76.6615 81.6953 79.7344C78.2578 82.4167 76.5391 86.2969 76.5391 91.375H74.4297ZM73.4922 105.086C73.4922 104.487 73.7005 103.979 74.1172 103.562C74.5339 103.12 75.0417 102.898 75.6406 102.898C76.2396 102.898 76.7474 103.12 77.1641 103.562C77.6068 103.979 77.8281 104.487 77.8281 105.086C77.8281 105.685 77.6068 106.193 77.1641 106.609C76.7474 107.026 76.2396 107.234 75.6406 107.234C75.0417 107.234 74.5339 107.026 74.1172 106.609C73.7005 106.193 73.4922 105.685 73.4922 105.086Z" fill="#FF6B00"/>
<defs>
<linearGradient id="paint0_linear" x1="74.3075" y1="0" x2="74.3075" y2="146.677" gradientUnits="userSpaceOnUse">
<stop stop-color="#FFAA45"/>
<stop offset="1" stop-color="#FF7A00"/>
</linearGradient>
</defs>
</svg>
