<svg width="40" height="40" viewBox="0 0 40 40" fill="none" xmlns="http://www.w3.org/2000/svg">
<circle cx="20" cy="20" r="20" fill="white"/>
<path fill-rule="evenodd" clip-rule="evenodd" d="M25.7877 24.5753C29.0345 21.3285 29.0345 16.0644 25.7877 12.8176C22.5408 9.57074 17.2767 9.57074 14.0298 12.8176C10.783 16.0644 10.783 21.3285 14.0298 24.5753L19.3328 29.8784C19.6509 30.1964 20.1665 30.1964 20.4846 29.8784L25.7877 24.5753ZM15.1816 13.9693C17.7923 11.3585 22.0252 11.3585 24.6359 13.9693C27.2466 16.58 27.2466 20.8129 24.6359 23.4236L19.9088 28.1508L15.1816 23.4236C12.5708 20.8128 12.5708 16.58 15.1816 13.9693ZM20.0001 14.6401C17.8767 14.6401 16.1554 16.3615 16.1554 18.4848C16.1554 20.6082 17.8767 22.3295 20.0001 22.3295C22.1235 22.3295 23.8448 20.6082 23.8448 18.4848C23.8448 16.3615 22.1235 14.6401 20.0001 14.6401ZM17.7842 18.4848C17.7842 17.261 18.7763 16.2689 20.0001 16.2689C21.2239 16.2689 22.216 17.261 22.216 18.4848C22.216 19.7086 21.2239 20.7008 20.0001 20.7008C18.7763 20.7008 17.7842 19.7086 17.7842 18.4848Z" fill="#36739F"/>
</svg>
