<svg width="620" height="286" viewBox="0 0 620 286" fill="none" xmlns="http://www.w3.org/2000/svg">
<path fill-rule="evenodd" clip-rule="evenodd" d="M590.732 22.3728C592.744 22.3728 594.375 23.993 594.375 25.9917V176.535H372.74V22.3728H590.732ZM595.832 25.9917C595.832 23.1936 593.549 20.9253 590.732 20.9253H371.283V177.983H595.832V25.9917Z" fill="#36739F"/>
<path fill-rule="evenodd" clip-rule="evenodd" d="M615.933 251.083H364.726V273.52H615.933V251.083ZM615.475 252.531V272.072H366.183V252.531H615.475Z" fill="#36739F"/>
<path fill-rule="evenodd" clip-rule="evenodd" d="M617.39 177.982C619.402 177.982 621.033 179.602 621.033 181.601V247.464C621.033 249.463 619.402 251.083 617.39 251.083H379.298V177.982H617.39ZM622.49 181.601C622.49 178.803 620.207 176.535 617.39 176.535H377.841V252.53H617.39C620.207 252.53 622.49 250.262 622.49 247.464V181.601Z" fill="#36739F"/>
<path fill-rule="evenodd" clip-rule="evenodd" d="M173.18 125.871C171.112 125.871 169.457 127.504 169.457 129.49V268.454C169.457 270.44 171.112 272.072 173.18 272.072H371.283V273.52H173.18C170.332 273.52 168 271.264 168 268.454V129.49C168 126.68 170.332 124.424 173.18 124.424H371.283V125.871H173.18Z" fill="#36739F"/>
<path fill-rule="evenodd" clip-rule="evenodd" d="M363.269 172.193H372.012V170.745H363.269C360.452 170.745 358.168 173.013 358.168 175.811V247.464C358.168 250.263 360.452 252.531 363.269 252.531H385.127V251.083H363.269C361.256 251.083 359.625 249.463 359.625 247.464V175.811C359.625 173.813 361.256 172.193 363.269 172.193Z" fill="#36739F"/>
<path fill-rule="evenodd" clip-rule="evenodd" d="M586.346 2.1072C588.358 2.1072 589.989 3.72741 589.989 5.72604V20.9252H372.741V5.72604C372.741 3.72741 374.372 2.1072 376.384 2.1072H586.346ZM591.446 5.72604C591.446 2.92796 589.163 0.659668 586.346 0.659668H376.384C373.567 0.659668 371.284 2.92796 371.284 5.72604V22.3727H591.446V5.72604Z" fill="#36739F"/>
<path fill-rule="evenodd" clip-rule="evenodd" d="M460.903 30.334H452.16V168.574H460.903V30.334ZM459.446 31.7815V167.126H453.617V31.7815H459.446Z" fill="#36739F"/>
<path d="M452.16 49.876H460.903V51.3235H452.16V49.876Z" fill="#36739F"/>
<path d="M452.16 69.418H460.903V70.8655H452.16V69.418Z" fill="#36739F"/>
<path d="M452.16 88.9595H460.903V90.407H452.16V88.9595Z" fill="#36739F"/>
<path d="M452.16 108.501H460.903V109.949H452.16V108.501Z" fill="#36739F"/>
<path d="M452.16 128.043H460.903V129.491H452.16V128.043Z" fill="#36739F"/>
<path d="M452.16 147.584H460.903V149.032H452.16V147.584Z" fill="#36739F"/>
<path fill-rule="evenodd" clip-rule="evenodd" d="M443.416 30.334H434.673V168.574H443.416V30.334ZM441.959 31.7815V167.126H436.13V31.7815H441.959Z" fill="#36739F"/>
<path d="M434.673 49.876H443.416V51.3235H434.673V49.876Z" fill="#36739F"/>
<path d="M434.673 69.418H443.416V70.8655H434.673V69.418Z" fill="#36739F"/>
<path d="M434.673 88.9595H443.416V90.407H434.673V88.9595Z" fill="#36739F"/>
<path d="M434.673 108.501H443.416V109.949H434.673V108.501Z" fill="#36739F"/>
<path d="M434.673 128.043H443.416V129.491H434.673V128.043Z" fill="#36739F"/>
<path d="M434.673 147.584H443.416V149.032H434.673V147.584Z" fill="#36739F"/>
<path fill-rule="evenodd" clip-rule="evenodd" d="M425.93 30.334H417.186V168.574H425.93V30.334ZM424.472 31.7815V167.126H418.644V31.7815H424.472Z" fill="#36739F"/>
<path d="M417.186 49.876H425.93V51.3235H417.186V49.876Z" fill="#36739F"/>
<path d="M417.186 69.418H425.93V70.8655H417.186V69.418Z" fill="#36739F"/>
<path d="M417.186 88.9595H425.93V90.407H417.186V88.9595Z" fill="#36739F"/>
<path d="M417.186 108.501H425.93V109.949H417.186V108.501Z" fill="#36739F"/>
<path d="M417.186 128.043H425.93V129.491H417.186V128.043Z" fill="#36739F"/>
<path d="M417.186 147.584H425.93V149.032H417.186V147.584Z" fill="#36739F"/>
<path fill-rule="evenodd" clip-rule="evenodd" d="M408.442 30.334H399.699V168.574H408.442V30.334ZM406.985 31.7815V167.126H401.156V31.7815H406.985Z" fill="#36739F"/>
<path fill-rule="evenodd" clip-rule="evenodd" d="M350.883 138.176H342.139V237.332H350.883V138.176ZM349.426 139.623V235.884H343.597V139.623H349.426Z" fill="#36739F"/>
<path d="M342.139 157.717H350.883V159.165H342.139V157.717Z" fill="#36739F"/>
<path d="M342.139 177.259H350.883V178.706H342.139V177.259Z" fill="#36739F"/>
<path d="M342.139 196.801H350.883V198.248H342.139V196.801Z" fill="#36739F"/>
<path d="M342.139 216.342H350.883V217.79H342.139V216.342Z" fill="#36739F"/>
<path fill-rule="evenodd" clip-rule="evenodd" d="M332.667 138.176H323.924V237.332H332.667V138.176ZM331.21 139.623V235.884H325.381V139.623H331.21Z" fill="#36739F"/>
<path d="M323.924 157.717H332.667V159.165H323.924V157.717Z" fill="#36739F"/>
<path d="M323.924 177.259H332.667V178.706H323.924V177.259Z" fill="#36739F"/>
<path d="M323.924 196.801H332.667V198.248H323.924V196.801Z" fill="#36739F"/>
<path d="M323.924 216.342H332.667V217.79H323.924V216.342Z" fill="#36739F"/>
<path fill-rule="evenodd" clip-rule="evenodd" d="M314.451 138.176H305.708V237.332H314.451V138.176ZM312.994 139.623V235.884H307.165V139.623H312.994Z" fill="#36739F"/>
<path d="M305.708 157.717H314.451V159.165H305.708V157.717Z" fill="#36739F"/>
<path d="M305.708 177.259H314.451V178.706H305.708V177.259Z" fill="#36739F"/>
<path d="M305.708 196.801H314.451V198.248H305.708V196.801Z" fill="#36739F"/>
<path d="M305.708 216.342H314.451V217.79H305.708V216.342Z" fill="#36739F"/>
<path fill-rule="evenodd" clip-rule="evenodd" d="M296.236 138.176H287.493V237.332H296.236V138.176ZM294.779 139.623V235.884H288.95V139.623H294.779Z" fill="#36739F"/>
<path d="M287.493 157.717H296.236V159.165H287.493V157.717Z" fill="#36739F"/>
<path d="M287.493 177.259H296.236V178.706H287.493V177.259Z" fill="#36739F"/>
<path d="M287.493 196.801H296.236V198.248H287.493V196.801Z" fill="#36739F"/>
<path d="M287.493 216.342H296.236V217.79H287.493V216.342Z" fill="#36739F"/>
<path fill-rule="evenodd" clip-rule="evenodd" d="M278.021 138.176H269.278V237.332H278.021V138.176ZM276.564 139.623V235.884H270.735V139.623H276.564Z" fill="#36739F"/>
<path d="M269.278 157.717H278.021V159.165H269.278V157.717Z" fill="#36739F"/>
<path d="M269.278 177.259H278.021V178.706H269.278V177.259Z" fill="#36739F"/>
<path d="M269.278 196.801H278.021V198.248H269.278V196.801Z" fill="#36739F"/>
<path d="M269.278 216.342H278.021V217.79H269.278V216.342Z" fill="#36739F"/>
<path fill-rule="evenodd" clip-rule="evenodd" d="M259.806 138.176H251.062V237.332H259.806V138.176ZM258.348 139.623V235.884H252.52V139.623H258.348Z" fill="#36739F"/>
<path d="M251.062 157.717H259.806V159.165H251.062V157.717Z" fill="#36739F"/>
<path d="M251.062 177.259H259.806V178.706H251.062V177.259Z" fill="#36739F"/>
<path d="M251.062 196.801H259.806V198.248H251.062V196.801Z" fill="#36739F"/>
<path d="M251.062 216.342H259.806V217.79H251.062V216.342Z" fill="#36739F"/>
<path fill-rule="evenodd" clip-rule="evenodd" d="M241.59 138.176H232.846V237.332H241.59V138.176ZM240.133 139.623V235.884H234.304V139.623H240.133Z" fill="#36739F"/>
<path d="M232.846 157.717H241.59V159.165H232.846V157.717Z" fill="#36739F"/>
<path d="M232.846 177.259H241.59V178.706H232.846V177.259Z" fill="#36739F"/>
<path d="M232.846 196.801H241.59V198.248H232.846V196.801Z" fill="#36739F"/>
<path d="M232.846 216.342H241.59V217.79H232.846V216.342Z" fill="#36739F"/>
<path fill-rule="evenodd" clip-rule="evenodd" d="M223.375 138.176H214.632V237.332H223.375V138.176ZM221.918 139.623V235.884H216.089V139.623H221.918Z" fill="#36739F"/>
<path d="M214.632 157.717H223.375V159.165H214.632V157.717Z" fill="#36739F"/>
<path d="M214.632 177.259H223.375V178.706H214.632V177.259Z" fill="#36739F"/>
<path d="M214.632 196.801H223.375V198.248H214.632V196.801Z" fill="#36739F"/>
<path d="M214.632 216.342H223.375V217.79H214.632V216.342Z" fill="#36739F"/>
<path fill-rule="evenodd" clip-rule="evenodd" d="M205.159 138.176H196.416V237.332H205.159V138.176ZM203.702 139.623V235.884H197.873V139.623H203.702Z" fill="#36739F"/>
<path d="M196.417 157.717H205.16V159.165H196.417V157.717Z" fill="#36739F"/>
<path d="M196.417 177.259H205.16V178.706H196.417V177.259Z" fill="#36739F"/>
<path d="M196.417 196.801H205.16V198.248H196.417V196.801Z" fill="#36739F"/>
<path d="M196.417 216.342H205.16V217.79H196.417V216.342Z" fill="#36739F"/>
<path fill-rule="evenodd" clip-rule="evenodd" d="M186.944 138.176H178.201V237.332H186.944V138.176ZM185.487 139.623V235.884H179.658V139.623H185.487Z" fill="#36739F"/>
<path d="M178.201 157.717H186.944V159.165H178.201V157.717Z" fill="#36739F"/>
<path d="M178.201 177.259H186.944V178.706H178.201V177.259Z" fill="#36739F"/>
<path d="M178.201 196.801H186.944V198.248H178.201V196.801Z" fill="#36739F"/>
<path d="M178.201 216.342H186.944V217.79H178.201V216.342Z" fill="#36739F"/>
<path d="M399.699 49.8755H408.442V51.323H399.699V49.8755Z" fill="#36739F"/>
<path d="M399.699 69.418H408.442V70.8655H399.699V69.418Z" fill="#36739F"/>
<path d="M399.699 88.959H408.442V90.4065H399.699V88.959Z" fill="#36739F"/>
<path d="M399.699 108.501H408.442V109.949H399.699V108.501Z" fill="#36739F"/>
<path d="M399.699 128.043H408.442V129.491H399.699V128.043Z" fill="#36739F"/>
<path d="M399.699 147.584H408.442V149.032H399.699V147.584Z" fill="#36739F"/>
<path fill-rule="evenodd" clip-rule="evenodd" d="M399.699 184.497H390.956V244.569H399.699V184.497ZM398.242 185.944V243.122H392.413V185.944H398.242Z" fill="#36739F"/>
<path d="M390.956 204.039H399.699V205.486H390.956V204.039Z" fill="#36739F"/>
<path d="M390.956 223.581H399.699V225.028H390.956V223.581Z" fill="#36739F"/>
<path fill-rule="evenodd" clip-rule="evenodd" d="M417.186 184.497H408.442V244.569H417.186V184.497ZM415.728 185.944V243.122H409.899V185.944H415.728Z" fill="#36739F"/>
<path d="M408.442 204.039H417.186V205.486H408.442V204.039Z" fill="#36739F"/>
<path d="M408.442 223.581H417.186V225.028H408.442V223.581Z" fill="#36739F"/>
<path fill-rule="evenodd" clip-rule="evenodd" d="M434.673 184.497H425.929V244.569H434.673V184.497ZM433.216 185.944V243.122H427.387V185.944H433.216Z" fill="#36739F"/>
<path d="M425.929 204.039H434.673V205.486H425.929V204.039Z" fill="#36739F"/>
<path d="M425.929 223.581H434.673V225.028H425.929V223.581Z" fill="#36739F"/>
<path fill-rule="evenodd" clip-rule="evenodd" d="M452.159 184.497H443.416V244.569H452.159V184.497ZM450.702 185.944V243.122H444.873V185.944H450.702Z" fill="#36739F"/>
<path d="M443.416 204.039H452.159V205.486H443.416V204.039Z" fill="#36739F"/>
<path d="M443.416 223.581H452.159V225.028H443.416V223.581Z" fill="#36739F"/>
<path fill-rule="evenodd" clip-rule="evenodd" d="M470.375 184.497H461.632V244.57H470.375V184.497ZM468.918 185.945V243.122H463.089V185.945H468.918Z" fill="#36739F"/>
<path d="M461.632 204.038H470.375V205.486H461.632V204.038Z" fill="#36739F"/>
<path d="M461.632 223.581H470.375V225.028H461.632V223.581Z" fill="#36739F"/>
<path fill-rule="evenodd" clip-rule="evenodd" d="M487.699 184.497H478.956V244.57H487.699V184.497ZM486.242 185.945V243.122H480.413V185.945H486.242Z" fill="#36739F"/>
<path d="M478.956 204.039H487.699V205.486H478.956V204.039Z" fill="#36739F"/>
<path d="M478.956 223.581H487.699V225.028H478.956V223.581Z" fill="#36739F"/>
<path fill-rule="evenodd" clip-rule="evenodd" d="M505.186 184.497H496.442V244.57H505.186V184.497ZM503.728 185.945V243.122H497.899V185.945H503.728Z" fill="#36739F"/>
<path d="M496.442 204.039H505.186V205.486H496.442V204.039Z" fill="#36739F"/>
<path d="M496.442 223.581H505.186V225.028H496.442V223.581Z" fill="#36739F"/>
<path fill-rule="evenodd" clip-rule="evenodd" d="M522.673 184.497H513.929V244.57H522.673V184.497ZM521.216 185.945V243.122H515.387V185.945H521.216Z" fill="#36739F"/>
<path d="M513.929 204.039H522.673V205.486H513.929V204.039Z" fill="#36739F"/>
<path d="M513.929 223.581H522.673V225.028H513.929V223.581Z" fill="#36739F"/>
<path fill-rule="evenodd" clip-rule="evenodd" d="M540.159 184.497H531.416V244.57H540.159V184.497ZM538.702 185.945V243.122H532.873V185.945H538.702Z" fill="#36739F"/>
<path d="M531.416 204.039H540.159V205.486H531.416V204.039Z" fill="#36739F"/>
<path d="M531.416 223.581H540.159V225.028H531.416V223.581Z" fill="#36739F"/>
<path fill-rule="evenodd" clip-rule="evenodd" d="M558.375 184.497H549.632V244.57H558.375V184.497ZM556.918 185.945V243.122H551.089V185.945H556.918Z" fill="#36739F"/>
<path d="M549.632 204.038H558.375V205.486H549.632V204.038Z" fill="#36739F"/>
<path d="M549.632 223.581H558.375V225.028H549.632V223.581Z" fill="#36739F"/>
<path fill-rule="evenodd" clip-rule="evenodd" d="M576.699 184.497H567.956V244.57H576.699V184.497ZM575.242 185.945V243.122H569.413V185.945H575.242Z" fill="#36739F"/>
<path d="M567.956 204.039H576.699V205.486H567.956V204.039Z" fill="#36739F"/>
<path d="M567.956 223.581H576.699V225.028H567.956V223.581Z" fill="#36739F"/>
<path fill-rule="evenodd" clip-rule="evenodd" d="M594.186 184.497H585.442V244.57H594.186V184.497ZM592.728 185.945V243.122H586.899V185.945H592.728Z" fill="#36739F"/>
<path d="M585.442 204.039H594.186V205.486H585.442V204.039Z" fill="#36739F"/>
<path d="M585.442 223.581H594.186V225.028H585.442V223.581Z" fill="#36739F"/>
<path fill-rule="evenodd" clip-rule="evenodd" d="M611.673 184.497H602.929V244.57H611.673V184.497ZM610.216 185.945V243.122H604.387V185.945H610.216Z" fill="#36739F"/>
<path d="M602.929 204.039H611.673V205.486H602.929V204.039Z" fill="#36739F"/>
<path d="M602.929 223.581H611.673V225.028H602.929V223.581Z" fill="#36739F"/>
<path fill-rule="evenodd" clip-rule="evenodd" d="M390.956 30.334H382.213V168.574H390.956V30.334ZM389.499 31.7815V167.126H383.67V31.7815H389.499Z" fill="#36739F"/>
<path fill-rule="evenodd" clip-rule="evenodd" d="M513.903 30.334H505.16V168.574H513.903V30.334ZM512.446 31.7815V167.126H506.617V31.7815H512.446Z" fill="#36739F"/>
<path d="M505.16 49.876H513.903V51.3235H505.16V49.876Z" fill="#36739F"/>
<path d="M505.16 69.418H513.903V70.8655H505.16V69.418Z" fill="#36739F"/>
<path d="M505.16 88.9595H513.903V90.407H505.16V88.9595Z" fill="#36739F"/>
<path d="M505.16 108.501H513.903V109.949H505.16V108.501Z" fill="#36739F"/>
<path d="M505.16 128.043H513.903V129.491H505.16V128.043Z" fill="#36739F"/>
<path d="M505.16 147.585H513.903V149.032H505.16V147.585Z" fill="#36739F"/>
<path fill-rule="evenodd" clip-rule="evenodd" d="M496.416 30.334H487.673V168.574H496.416V30.334ZM494.959 31.7815V167.126H489.13V31.7815H494.959Z" fill="#36739F"/>
<path d="M487.673 49.876H496.416V51.3235H487.673V49.876Z" fill="#36739F"/>
<path d="M487.673 69.418H496.416V70.8655H487.673V69.418Z" fill="#36739F"/>
<path d="M487.673 88.9595H496.416V90.407H487.673V88.9595Z" fill="#36739F"/>
<path d="M487.673 108.501H496.416V109.949H487.673V108.501Z" fill="#36739F"/>
<path d="M487.673 128.043H496.416V129.491H487.673V128.043Z" fill="#36739F"/>
<path d="M487.673 147.585H496.416V149.032H487.673V147.585Z" fill="#36739F"/>
<path fill-rule="evenodd" clip-rule="evenodd" d="M478.93 30.334H470.186V168.574H478.93V30.334ZM477.472 31.7815V167.126H471.644V31.7815H477.472Z" fill="#36739F"/>
<path d="M470.186 49.876H478.93V51.3235H470.186V49.876Z" fill="#36739F"/>
<path d="M470.186 69.418H478.93V70.8655H470.186V69.418Z" fill="#36739F"/>
<path d="M470.186 88.9595H478.93V90.407H470.186V88.9595Z" fill="#36739F"/>
<path d="M470.186 108.501H478.93V109.949H470.186V108.501Z" fill="#36739F"/>
<path d="M470.186 128.043H478.93V129.491H470.186V128.043Z" fill="#36739F"/>
<path d="M470.186 147.585H478.93V149.032H470.186V147.585Z" fill="#36739F"/>
<path fill-rule="evenodd" clip-rule="evenodd" d="M566.903 30.334H558.16V168.574H566.903V30.334ZM565.446 31.7815V167.126H559.617V31.7815H565.446Z" fill="#36739F"/>
<path d="M558.16 49.876H566.903V51.3235H558.16V49.876Z" fill="#36739F"/>
<path d="M558.16 69.418H566.903V70.8655H558.16V69.418Z" fill="#36739F"/>
<path d="M558.16 88.9595H566.903V90.407H558.16V88.9595Z" fill="#36739F"/>
<path d="M558.16 108.501H566.903V109.949H558.16V108.501Z" fill="#36739F"/>
<path d="M558.16 128.043H566.903V129.491H558.16V128.043Z" fill="#36739F"/>
<path d="M558.16 147.585H566.903V149.032H558.16V147.585Z" fill="#36739F"/>
<path fill-rule="evenodd" clip-rule="evenodd" d="M584.903 30.334H576.16V168.574H584.903V30.334ZM583.446 31.7815V167.126H577.617V31.7815H583.446Z" fill="#36739F"/>
<path d="M576.16 49.876H584.903V51.3235H576.16V49.876Z" fill="#36739F"/>
<path d="M576.16 69.418H584.903V70.8655H576.16V69.418Z" fill="#36739F"/>
<path d="M576.16 88.9595H584.903V90.407H576.16V88.9595Z" fill="#36739F"/>
<path d="M576.16 108.501H584.903V109.949H576.16V108.501Z" fill="#36739F"/>
<path d="M576.16 128.043H584.903V129.491H576.16V128.043Z" fill="#36739F"/>
<path d="M576.16 147.585H584.903V149.032H576.16V147.585Z" fill="#36739F"/>
<path fill-rule="evenodd" clip-rule="evenodd" d="M549.416 30.334H540.673V168.574H549.416V30.334ZM547.959 31.7815V167.126H542.13V31.7815H547.959Z" fill="#36739F"/>
<path d="M540.673 49.876H549.416V51.3235H540.673V49.876Z" fill="#36739F"/>
<path d="M540.673 69.418H549.416V70.8655H540.673V69.418Z" fill="#36739F"/>
<path d="M540.673 88.9595H549.416V90.407H540.673V88.9595Z" fill="#36739F"/>
<path d="M540.673 108.501H549.416V109.949H540.673V108.501Z" fill="#36739F"/>
<path d="M540.673 128.043H549.416V129.491H540.673V128.043Z" fill="#36739F"/>
<path d="M540.673 147.585H549.416V149.032H540.673V147.585Z" fill="#36739F"/>
<path fill-rule="evenodd" clip-rule="evenodd" d="M531.93 30.334H523.186V168.574H531.93V30.334ZM530.472 31.7815V167.126H524.644V31.7815H530.472Z" fill="#36739F"/>
<path d="M523.186 49.876H531.93V51.3235H523.186V49.876Z" fill="#36739F"/>
<path d="M523.186 69.418H531.93V70.8655H523.186V69.418Z" fill="#36739F"/>
<path d="M523.186 88.9595H531.93V90.407H523.186V88.9595Z" fill="#36739F"/>
<path d="M523.186 108.501H531.93V109.949H523.186V108.501Z" fill="#36739F"/>
<path d="M523.186 128.043H531.93V129.491H523.186V128.043Z" fill="#36739F"/>
<path d="M523.186 147.585H531.93V149.032H523.186V147.585Z" fill="#36739F"/>
<path fill-rule="evenodd" clip-rule="evenodd" d="M377.842 177.259V251.807H379.299V177.259H377.842Z" fill="#36739F"/>
<path fill-rule="evenodd" clip-rule="evenodd" d="M374.198 251.083H369.098V273.52H374.198V251.083ZM372.741 252.531V272.072H370.555V252.531H372.741Z" fill="#36739F"/>
<path fill-rule="evenodd" clip-rule="evenodd" d="M386.584 251.083H381.484V273.52H386.584V251.083ZM385.127 252.531V272.072H382.941V252.531H385.127Z" fill="#36739F"/>
<path fill-rule="evenodd" clip-rule="evenodd" d="M398.971 251.083H393.87V273.52H398.971V251.083ZM397.513 252.531V272.072H395.328V252.531H397.513Z" fill="#36739F"/>
<path fill-rule="evenodd" clip-rule="evenodd" d="M411.357 251.083H406.257V273.52H411.357V251.083ZM409.9 252.531V272.072H407.714V252.531H409.9Z" fill="#36739F"/>
<path fill-rule="evenodd" clip-rule="evenodd" d="M423.744 251.083H418.644V273.52H423.744V251.083ZM422.287 252.531V272.072H420.101V252.531H422.287Z" fill="#36739F"/>
<path fill-rule="evenodd" clip-rule="evenodd" d="M436.13 251.083H431.03V273.52H436.13V251.083ZM434.673 252.531V272.072H432.487V252.531H434.673Z" fill="#36739F"/>
<path fill-rule="evenodd" clip-rule="evenodd" d="M448.517 251.083H443.416V273.52H448.517V251.083ZM447.059 252.531V272.072H444.874V252.531H447.059Z" fill="#36739F"/>
<path fill-rule="evenodd" clip-rule="evenodd" d="M460.903 251.083H455.803V273.52H460.903V251.083ZM459.446 252.531V272.072H457.26V252.531H459.446Z" fill="#36739F"/>
<path fill-rule="evenodd" clip-rule="evenodd" d="M473.561 251.083H468.46V273.52H473.561V251.083ZM472.103 252.531V272.072H469.917V252.531H472.103Z" fill="#36739F"/>
<path fill-rule="evenodd" clip-rule="evenodd" d="M486.561 251.083H481.46V273.52H486.561V251.083ZM485.103 252.531V272.072H482.917V252.531H485.103Z" fill="#36739F"/>
<path fill-rule="evenodd" clip-rule="evenodd" d="M499.561 251.083H494.46V273.52H499.561V251.083ZM498.103 252.531V272.072H495.917V252.531H498.103Z" fill="#36739F"/>
<path fill-rule="evenodd" clip-rule="evenodd" d="M512.561 251.083H507.46V273.52H512.561V251.083ZM511.103 252.531V272.072H508.917V252.531H511.103Z" fill="#36739F"/>
<path fill-rule="evenodd" clip-rule="evenodd" d="M525.561 251.083H520.46V273.52H525.561V251.083ZM524.103 252.531V272.072H521.917V252.531H524.103Z" fill="#36739F"/>
<path fill-rule="evenodd" clip-rule="evenodd" d="M538.561 251.083H533.46V273.52H538.561V251.083ZM537.103 252.531V272.072H534.917V252.531H537.103Z" fill="#36739F"/>
<path fill-rule="evenodd" clip-rule="evenodd" d="M551.561 251.083H546.46V273.52H551.561V251.083ZM550.103 252.531V272.072H547.917V252.531H550.103Z" fill="#36739F"/>
<path fill-rule="evenodd" clip-rule="evenodd" d="M564.561 251.083H559.46V273.52H564.561V251.083ZM563.103 252.531V272.072H560.917V252.531H563.103Z" fill="#36739F"/>
<path fill-rule="evenodd" clip-rule="evenodd" d="M577.561 251.083H572.46V273.52H577.561V251.083ZM576.103 252.531V272.072H573.917V252.531H576.103Z" fill="#36739F"/>
<path fill-rule="evenodd" clip-rule="evenodd" d="M590.561 251.083H585.46V273.52H590.561V251.083ZM589.103 252.531V272.072H586.917V252.531H589.103Z" fill="#36739F"/>
<path fill-rule="evenodd" clip-rule="evenodd" d="M603.561 251.083H598.46V273.52H603.561V251.083ZM602.103 252.531V272.072H599.917V252.531H602.103Z" fill="#36739F"/>
<path fill-rule="evenodd" clip-rule="evenodd" d="M616.561 251.083H611.46V273.52H616.561V251.083ZM615.103 252.531V272.072H612.917V252.531H615.103Z" fill="#36739F"/>
<path fill-rule="evenodd" clip-rule="evenodd" d="M263.449 251.083H258.349V273.52H263.449V251.083ZM261.992 252.531V272.072H259.806V252.531H261.992Z" fill="#36739F"/>
<path fill-rule="evenodd" clip-rule="evenodd" d="M275.835 251.083H270.735V273.52H275.835V251.083ZM274.378 252.531V272.072H272.192V252.531H274.378Z" fill="#36739F"/>
<path fill-rule="evenodd" clip-rule="evenodd" d="M288.222 251.083H283.121V273.52H288.222V251.083ZM286.764 252.531V272.072H284.579V252.531H286.764Z" fill="#36739F"/>
<path fill-rule="evenodd" clip-rule="evenodd" d="M300.608 251.083H295.508V273.52H300.608V251.083ZM299.151 252.531V272.072H296.965V252.531H299.151Z" fill="#36739F"/>
<path fill-rule="evenodd" clip-rule="evenodd" d="M312.994 251.083H307.894V273.52H312.994V251.083ZM311.537 252.531V272.072H309.351V252.531H311.537Z" fill="#36739F"/>
<path fill-rule="evenodd" clip-rule="evenodd" d="M325.381 251.083H320.281V273.52H325.381V251.083ZM323.924 252.531V272.072H321.738V252.531H323.924Z" fill="#36739F"/>
<path fill-rule="evenodd" clip-rule="evenodd" d="M337.768 251.083H332.667V273.52H337.768V251.083ZM336.31 252.531V272.072H334.125V252.531H336.31Z" fill="#36739F"/>
<path fill-rule="evenodd" clip-rule="evenodd" d="M350.153 251.083H345.053V273.52H350.153V251.083ZM348.696 252.531V272.072H346.51V252.531H348.696Z" fill="#36739F"/>
<path d="M361.602 251.47L171.267 251.47" stroke="#36739F" stroke-width="1.5"/>
<path fill-rule="evenodd" clip-rule="evenodd" d="M361.812 251.083H356.711V273.52H361.812V251.083ZM360.354 252.531V272.072H358.168V252.531H360.354Z" fill="#36739F"/>
<path fill-rule="evenodd" clip-rule="evenodd" d="M177.473 251.083H172.372V273.52H177.473V251.083ZM176.015 252.531V272.072H173.83V252.531H176.015Z" fill="#36739F"/>
<path fill-rule="evenodd" clip-rule="evenodd" d="M189.858 251.083H184.758V273.52H189.858V251.083ZM188.401 252.531V272.072H186.215V252.531H188.401Z" fill="#36739F"/>
<path fill-rule="evenodd" clip-rule="evenodd" d="M202.245 251.083H197.145V273.52H202.245V251.083ZM200.788 252.531V272.072H198.602V252.531H200.788Z" fill="#36739F"/>
<path fill-rule="evenodd" clip-rule="evenodd" d="M214.632 251.083H209.532V273.52H214.632V251.083ZM213.175 252.531V272.072H210.989V252.531H213.175Z" fill="#36739F"/>
<path fill-rule="evenodd" clip-rule="evenodd" d="M227.018 251.083H221.917V273.52H227.018V251.083ZM225.56 252.531V272.072H223.375V252.531H225.56Z" fill="#36739F"/>
<path fill-rule="evenodd" clip-rule="evenodd" d="M239.404 251.083H234.304V273.52H239.404V251.083ZM237.947 252.531V272.072H235.761V252.531H237.947Z" fill="#36739F"/>
<path fill-rule="evenodd" clip-rule="evenodd" d="M251.062 251.083H245.962V273.52H251.062V251.083ZM249.605 252.531V272.072H247.419V252.531H249.605Z" fill="#36739F"/>
<path d="M382.213 49.8755H390.956V51.323H382.213V49.8755Z" fill="#36739F"/>
<path d="M382.213 69.418H390.956V70.8655H382.213V69.418Z" fill="#36739F"/>
<path d="M382.213 88.959H390.956V90.4065H382.213V88.959Z" fill="#36739F"/>
<path d="M382.213 108.501H390.956V109.949H382.213V108.501Z" fill="#36739F"/>
<path d="M382.213 128.043H390.956V129.491H382.213V128.043Z" fill="#36739F"/>
<path d="M382.213 147.584H390.956V149.032H382.213V147.584Z" fill="#36739F"/>
<path d="M449.973 1.3833H451.431V14.4111H449.973V1.3833Z" fill="#36739F"/>
<path d="M449.973 17.3062H451.431V21.6488H449.973V17.3062Z" fill="#36739F"/>
<path d="M441.23 1.3833H442.688V5.7259H441.23V1.3833Z" fill="#36739F"/>
<path d="M432.487 17.3062H433.944V21.6488H432.487V17.3062Z" fill="#36739F"/>
<path d="M423.744 1.3833H425.201V5.7259H423.744V1.3833Z" fill="#36739F"/>
<path d="M371.283 238.779H372.74V251.807H371.283V238.779Z" fill="#36739F"/>
<path d="M364.726 171.469H366.184V184.497H364.726V171.469Z" fill="#36739F"/>
<path d="M406.257 1.38379H407.714V5.72639H406.257V1.38379Z" fill="#36739F"/>
<path d="M415.033 17.3101H416.49V21.6527H415.033V17.3101Z" fill="#36739F"/>
<path d="M397.513 17.3062H398.971V21.6488H397.513V17.3062Z" fill="#36739F"/>
<path d="M388.77 1.3833H390.228V5.7259H388.77V1.3833Z" fill="#36739F"/>
<path d="M380.027 17.3062H381.484V21.6488H380.027V17.3062Z" fill="#36739F"/>
<path d="M441.23 8.62109H442.688V21.6489H441.23V8.62109Z" fill="#36739F"/>
<path d="M432.487 1.3833H433.944V14.4111H432.487V1.3833Z" fill="#36739F"/>
<path d="M423.744 8.62109H425.201V21.6489H423.744V8.62109Z" fill="#36739F"/>
<path d="M371.283 177.259H372.74V235.884H371.283V177.259Z" fill="#36739F"/>
<path d="M364.726 187.392H366.184V253.254H364.726V187.392Z" fill="#36739F"/>
<path d="M415.001 1.3833H416.458V14.4111H415.001V1.3833Z" fill="#36739F"/>
<path d="M406.258 8.62109H407.715V21.6489H406.258V8.62109Z" fill="#36739F"/>
<path d="M397.513 1.3833H398.971V14.4111H397.513V1.3833Z" fill="#36739F"/>
<path d="M388.77 8.62109H390.228V22.3727H388.77V8.62109Z" fill="#36739F"/>
<path d="M519.973 1.38379H521.431V14.4116H519.973V1.38379Z" fill="#36739F"/>
<path d="M519.973 17.3066H521.431V21.6492H519.973V17.3066Z" fill="#36739F"/>
<path d="M511.23 1.38379H512.688V5.72639H511.23V1.38379Z" fill="#36739F"/>
<path d="M502.487 17.3066H503.944V21.6492H502.487V17.3066Z" fill="#36739F"/>
<path d="M493.744 1.38379H495.201V5.72639H493.744V1.38379Z" fill="#36739F"/>
<path d="M476.257 1.38379H477.714V5.72639H476.257V1.38379Z" fill="#36739F"/>
<path d="M485.033 17.3101H486.49V21.6527H485.033V17.3101Z" fill="#36739F"/>
<path d="M467.513 17.3066H468.971V21.6492H467.513V17.3066Z" fill="#36739F"/>
<path d="M458.77 1.38379H460.228V5.72639H458.77V1.38379Z" fill="#36739F"/>
<path d="M511.23 8.62109H512.688V21.6489H511.23V8.62109Z" fill="#36739F"/>
<path d="M502.487 1.38379H503.944V14.4116H502.487V1.38379Z" fill="#36739F"/>
<path d="M493.744 8.62109H495.201V21.6489H493.744V8.62109Z" fill="#36739F"/>
<path d="M485.001 1.38379H486.458V14.4116H485.001V1.38379Z" fill="#36739F"/>
<path d="M476.257 8.62109H477.714V21.6489H476.257V8.62109Z" fill="#36739F"/>
<path d="M467.513 1.38379H468.971V14.4116H467.513V1.38379Z" fill="#36739F"/>
<path d="M458.77 8.62109H460.228V22.3727H458.77V8.62109Z" fill="#36739F"/>
<path d="M380.027 1.3833H381.484V14.4111H380.027V1.3833Z" fill="#36739F"/>
<path d="M581.033 1H582.49V5.3426H581.033V1Z" fill="#36739F"/>
<path d="M572.29 16.9229H573.747V21.2655H572.29V16.9229Z" fill="#36739F"/>
<path d="M563.547 1H565.004V5.3426H563.547V1Z" fill="#36739F"/>
<path d="M546.059 1H547.517V5.3426H546.059V1Z" fill="#36739F"/>
<path d="M554.836 16.9268H556.293V21.2694H554.836V16.9268Z" fill="#36739F"/>
<path d="M537.316 16.9229H538.773V21.2655H537.316V16.9229Z" fill="#36739F"/>
<path d="M528.573 1H530.03V5.3426H528.573V1Z" fill="#36739F"/>
<path d="M581.033 8.2373H582.49V21.2651H581.033V8.2373Z" fill="#36739F"/>
<path d="M572.29 1H573.747V14.0278H572.29V1Z" fill="#36739F"/>
<path d="M563.547 8.2373H565.004V21.2651H563.547V8.2373Z" fill="#36739F"/>
<path d="M554.804 1H556.261V14.0278H554.804V1Z" fill="#36739F"/>
<path d="M546.059 8.2373H547.517V21.2651H546.059V8.2373Z" fill="#36739F"/>
<path d="M537.316 1H538.773V14.0278H537.316V1Z" fill="#36739F"/>
<path d="M528.573 8.2373H530.03V21.9889H528.573V8.2373Z" fill="#36739F"/>
<path opacity="0.3" fill-rule="evenodd" clip-rule="evenodd" d="M340.709 76.3183C334.3 79.1875 329.341 84.7381 327.349 91.5134C325.582 91.0999 323.732 90.894 321.885 90.894C309.727 90.894 299.549 99.3471 298.778 110.18C292.667 108.797 286.365 111.725 283.146 117.562C282.953 117.912 283.063 118.363 283.392 118.569C283.721 118.775 284.145 118.657 284.338 118.307C287.389 112.774 293.487 110.133 299.244 111.815C299.449 111.875 299.669 111.831 299.84 111.696C300.01 111.56 300.113 111.349 300.118 111.123C300.344 100.889 309.902 92.3655 321.885 92.3655C323.852 92.3655 325.816 92.612 327.659 93.1024C328.022 93.1991 328.392 92.9701 328.492 92.5859C331.017 82.936 339.997 75.6722 350.641 75.6722C350.651 75.6722 350.661 75.672 350.671 75.6715C353.307 75.5495 356.077 76.0378 358.63 76.9022C358.994 77.0254 359.383 76.8114 359.499 76.4242C359.614 76.0369 359.413 75.6231 359.049 75.4999C356.379 74.5955 353.45 74.0723 350.626 74.2006C347.695 74.2024 344.878 74.7268 342.267 75.6847C336.375 71.1532 329.31 68.6362 322.004 68.6362C305.121 68.6362 291.354 80.9792 290.678 96.5365C289.105 96.4284 287.45 96.3319 285.881 96.3319C278.25 96.3319 271.308 97.993 266.247 100.694C261.448 103.255 258.157 106.866 257.879 111.037C253.638 111.372 249.781 113.724 247.51 117.541C247.306 117.884 247.402 118.339 247.725 118.556C248.047 118.773 248.474 118.671 248.679 118.328C250.807 114.752 254.511 112.593 258.57 112.473C258.945 112.462 259.242 112.136 259.242 111.738V111.611C259.242 108.057 261.992 104.611 266.867 102.009C271.699 99.4306 278.421 97.8035 285.881 97.8035C287.637 97.8035 289.517 97.9282 291.301 98.0548C291.49 98.0682 291.676 97.9986 291.815 97.8621C291.954 97.7256 292.035 97.5343 292.038 97.3327C292.268 82.3944 305.419 70.1078 322.004 70.1078C328.704 70.1078 335.201 72.3153 340.709 76.3183Z" fill="#36739F"/>
<path d="M189.34 208.633L166.246 199.76V285.016H230.138L249.383 280.772V226.378L242.839 218.277H193.958V215.577L189.34 208.633Z" fill="white"/>
<path opacity="0.3" fill-rule="evenodd" clip-rule="evenodd" d="M7.00026 285.012H260.209V283.888H7.00026V285.012Z" fill="#36739F"/>
<path fill-rule="evenodd" clip-rule="evenodd" d="M236.398 224.743C239.165 224.743 241.409 226.991 241.409 229.764V267.906C241.409 269.901 240.23 271.706 238.407 272.506L223.357 279.106H98.8423L84.346 272.53C82.5535 271.716 81.4019 269.927 81.4019 267.956V229.764C81.4019 226.991 83.6454 224.743 86.4129 224.743H236.398ZM242.445 229.764C242.445 226.418 239.738 223.705 236.398 223.705H86.4129C83.0729 223.705 80.3652 226.418 80.3652 229.764V267.956C80.3652 270.335 81.755 272.494 83.9184 273.476L98.6186 280.145H223.574L238.823 273.457C241.023 272.492 242.445 270.313 242.445 267.906V229.764Z" fill="#36739F" stroke="#36739F" stroke-width="0.4"/>
<path fill-rule="evenodd" clip-rule="evenodd" d="M182.486 217.818C185.254 217.818 187.497 220.066 187.497 222.839V223.704H135.314V222.839C135.314 220.066 137.557 217.818 140.325 217.818H182.486ZM188.534 222.839C188.534 219.492 185.827 216.779 182.486 216.779H140.325C136.985 216.779 134.277 219.492 134.277 222.839V224.743H188.534V222.839Z" fill="#36739F" stroke="#36739F" stroke-width="0.4"/>
<path opacity="0.5" fill-rule="evenodd" clip-rule="evenodd" d="M219.809 233.746C220.286 233.746 220.673 234.133 220.673 234.611V251.924C220.673 252.402 220.286 252.79 219.809 252.79H215.662C215.185 252.79 214.798 252.402 214.798 251.924V234.611C214.798 234.133 215.185 233.746 215.662 233.746H219.809ZM221.71 234.611C221.71 233.56 220.859 232.707 219.809 232.707H215.662C214.612 232.707 213.762 233.56 213.762 234.611V251.924C213.762 252.976 214.612 253.829 215.662 253.829H219.809C220.859 253.829 221.71 252.976 221.71 251.924V234.611Z" fill="#36739F" stroke="#36739F" stroke-width="0.4"/>
<path opacity="0.5" fill-rule="evenodd" clip-rule="evenodd" d="M206.677 233.746C207.155 233.746 207.541 234.133 207.541 234.611V251.924C207.541 252.402 207.155 252.79 206.677 252.79H202.53C202.053 252.79 201.666 252.402 201.666 251.924V234.611C201.666 234.133 202.053 233.746 202.53 233.746H206.677ZM208.578 234.611C208.578 233.56 207.727 232.707 206.677 232.707H202.53C201.481 232.707 200.63 233.56 200.63 234.611V251.924C200.63 252.976 201.481 253.829 202.53 253.829H206.677C207.727 253.829 208.578 252.976 208.578 251.924V234.611Z" fill="#36739F" stroke="#36739F" stroke-width="0.4"/>
<path fill-rule="evenodd" clip-rule="evenodd" d="M194.236 231.668C194.713 231.668 195.1 232.056 195.1 232.534V249.847C195.1 250.325 194.713 250.712 194.236 250.712H178.339C177.862 250.712 177.475 250.325 177.475 249.847V232.534C177.475 232.056 177.862 231.668 178.339 231.668H194.236ZM196.137 232.534C196.137 231.482 195.286 230.629 194.236 230.629H178.339C177.289 230.629 176.438 231.482 176.438 232.534V249.847C176.438 250.899 177.289 251.751 178.339 251.751H194.236C195.286 251.751 196.137 250.899 196.137 249.847V232.534Z" fill="#36739F" stroke="#36739F" stroke-width="0.4"/>
<path fill-rule="evenodd" clip-rule="evenodd" d="M144.471 231.668C144.948 231.668 145.335 232.056 145.335 232.534V249.847C145.335 250.325 144.948 250.712 144.471 250.712H128.574C128.097 250.712 127.71 250.325 127.71 249.847V232.534C127.71 232.056 128.097 231.668 128.574 231.668H144.471ZM146.372 232.534C146.372 231.482 145.521 230.629 144.471 230.629H128.574C127.525 230.629 126.674 231.482 126.674 232.534V249.847C126.674 250.899 127.525 251.751 128.574 251.751H144.471C145.521 251.751 146.372 250.899 146.372 249.847V232.534Z" fill="#36739F" stroke="#36739F" stroke-width="0.4"/>
<path fill-rule="evenodd" clip-rule="evenodd" d="M237.78 231.668C238.257 231.668 238.644 232.056 238.644 232.534V249.847C238.644 250.325 238.257 250.712 237.78 250.712H228.104C227.626 250.712 227.24 250.325 227.24 249.847V232.534C227.24 232.056 227.626 231.668 228.104 231.668H237.78ZM239.681 232.534C239.681 231.482 238.83 230.629 237.78 230.629H228.104C227.054 230.629 226.203 231.482 226.203 232.534V249.847C226.203 250.899 227.054 251.751 228.104 251.751H237.78C238.83 251.751 239.681 250.899 239.681 249.847V232.534Z" fill="#36739F" stroke="#36739F" stroke-width="0.4"/>
<path fill-rule="evenodd" clip-rule="evenodd" d="M94.7067 231.668C95.1839 231.668 95.5707 232.056 95.5707 232.534V249.847C95.5707 250.325 95.1839 250.712 94.7067 250.712H85.0303C84.5531 250.712 84.1663 250.325 84.1663 249.847V232.534C84.1663 232.056 84.5531 231.668 85.0303 231.668H94.7067ZM96.6074 232.534C96.6074 231.482 95.7564 230.629 94.7067 230.629H85.0303C83.9806 230.629 83.1296 231.482 83.1296 232.534V249.847C83.1296 250.899 83.9806 251.751 85.0303 251.751H94.7067C95.7564 251.751 96.6074 250.899 96.6074 249.847V232.534Z" fill="#36739F" stroke="#36739F" stroke-width="0.4"/>
<path opacity="0.5" fill-rule="evenodd" clip-rule="evenodd" d="M219.809 257.292C220.286 257.292 220.673 257.679 220.673 258.157V275.47C220.673 275.948 220.286 276.336 219.809 276.336H215.662C215.185 276.336 214.798 275.948 214.798 275.47V258.157C214.798 257.679 215.185 257.292 215.662 257.292H219.809ZM221.71 258.157C221.71 257.106 220.859 256.253 219.809 256.253H215.662C214.612 256.253 213.762 257.106 213.762 258.157V275.47C213.762 276.522 214.612 277.375 215.662 277.375H219.809C220.859 277.375 221.71 276.522 221.71 275.47V258.157Z" fill="#36739F" stroke="#36739F" stroke-width="0.4"/>
<path opacity="0.5" fill-rule="evenodd" clip-rule="evenodd" d="M206.677 257.292C207.155 257.292 207.541 257.679 207.541 258.157V275.47C207.541 275.948 207.155 276.336 206.677 276.336H202.53C202.053 276.336 201.666 275.948 201.666 275.47V258.157C201.666 257.679 202.053 257.292 202.53 257.292H206.677ZM208.578 258.157C208.578 257.106 207.727 256.253 206.677 256.253H202.53C201.481 256.253 200.63 257.106 200.63 258.157V275.47C200.63 276.522 201.481 277.375 202.53 277.375H206.677C207.727 277.375 208.578 276.522 208.578 275.47V258.157Z" fill="#36739F" stroke="#36739F" stroke-width="0.4"/>
<path fill-rule="evenodd" clip-rule="evenodd" d="M222.574 230.976C223.051 230.976 223.438 231.363 223.438 231.841V278.24C223.438 278.718 223.051 279.106 222.574 279.106H199.765C199.288 279.106 198.901 278.718 198.901 278.24V231.841C198.901 231.363 199.288 230.976 199.765 230.976H222.574ZM224.475 231.841C224.475 230.79 223.624 229.937 222.574 229.937H199.765C198.715 229.937 197.864 230.79 197.864 231.841V278.24C197.864 279.292 198.715 280.145 199.765 280.145H222.574C223.624 280.145 224.475 279.292 224.475 278.24V231.841Z" fill="#36739F" stroke="#36739F" stroke-width="0.4"/>
<path fill-rule="evenodd" clip-rule="evenodd" d="M211.688 279.625V230.457H210.651V279.625H211.688Z" fill="#36739F" stroke="#36739F" stroke-width="0.4"/>
<path fill-rule="evenodd" clip-rule="evenodd" d="M80.883 255.214H98.8535V254.175H80.883V255.214Z" fill="#36739F" stroke="#36739F" stroke-width="0.4"/>
<path fill-rule="evenodd" clip-rule="evenodd" d="M174.884 255.214L198.387 255.214L198.387 254.175L174.884 254.175L174.884 255.214Z" fill="#36739F" stroke="#36739F" stroke-width="0.4"/>
<path fill-rule="evenodd" clip-rule="evenodd" d="M124.428 255.214L147.931 255.214L147.931 254.175L124.428 254.175L124.428 255.214Z" fill="#36739F" stroke="#36739F" stroke-width="0.4"/>
<path opacity="0.5" fill-rule="evenodd" clip-rule="evenodd" d="M170.045 233.746C170.522 233.746 170.909 234.133 170.909 234.611V251.924C170.909 252.402 170.522 252.79 170.045 252.79H165.898C165.42 252.79 165.034 252.402 165.034 251.924V234.611C165.034 234.133 165.42 233.746 165.898 233.746H170.045ZM171.945 234.611C171.945 233.56 171.094 232.707 170.045 232.707H165.898C164.848 232.707 163.997 233.56 163.997 234.611V251.924C163.997 252.976 164.848 253.829 165.898 253.829H170.045C171.094 253.829 171.945 252.976 171.945 251.924V234.611Z" fill="#36739F" stroke="#36739F" stroke-width="0.4"/>
<path opacity="0.5" fill-rule="evenodd" clip-rule="evenodd" d="M156.912 233.746C157.389 233.746 157.776 234.133 157.776 234.611V251.924C157.776 252.402 157.389 252.79 156.912 252.79H152.765C152.288 252.79 151.901 252.402 151.901 251.924V234.611C151.901 234.133 152.288 233.746 152.765 233.746H156.912ZM158.812 234.611C158.812 233.56 157.962 232.707 156.912 232.707H152.765C151.715 232.707 150.864 233.56 150.864 234.611V251.924C150.864 252.976 151.715 253.829 152.765 253.829H156.912C157.962 253.829 158.812 252.976 158.812 251.924V234.611Z" fill="#36739F" stroke="#36739F" stroke-width="0.4"/>
<path opacity="0.5" fill-rule="evenodd" clip-rule="evenodd" d="M170.045 257.292C170.522 257.292 170.909 257.679 170.909 258.157V275.47C170.909 275.948 170.522 276.336 170.045 276.336H165.898C165.42 276.336 165.034 275.948 165.034 275.47V258.157C165.034 257.679 165.42 257.292 165.898 257.292H170.045ZM171.945 258.157C171.945 257.106 171.094 256.253 170.045 256.253H165.898C164.848 256.253 163.997 257.106 163.997 258.157V275.47C163.997 276.522 164.848 277.375 165.898 277.375H170.045C171.094 277.375 171.945 276.522 171.945 275.47V258.157Z" fill="#36739F" stroke="#36739F" stroke-width="0.4"/>
<path opacity="0.5" fill-rule="evenodd" clip-rule="evenodd" d="M156.912 257.292C157.389 257.292 157.776 257.679 157.776 258.157V275.47C157.776 275.948 157.389 276.336 156.912 276.336H152.765C152.288 276.336 151.901 275.948 151.901 275.47V258.157C151.901 257.679 152.288 257.292 152.765 257.292H156.912ZM158.812 258.157C158.812 257.106 157.962 256.253 156.912 256.253H152.765C151.715 256.253 150.864 257.106 150.864 258.157V275.47C150.864 276.522 151.715 277.375 152.765 277.375H156.912C157.962 277.375 158.812 276.522 158.812 275.47V258.157Z" fill="#36739F" stroke="#36739F" stroke-width="0.4"/>
<path fill-rule="evenodd" clip-rule="evenodd" d="M172.809 230.976C173.286 230.976 173.673 231.363 173.673 231.841V278.24C173.673 278.718 173.286 279.106 172.809 279.106H150.001C149.523 279.106 149.137 278.718 149.137 278.24V231.841C149.137 231.363 149.523 230.976 150.001 230.976H172.809ZM174.71 231.841C174.71 230.79 173.859 229.937 172.809 229.937H150.001C148.951 229.937 148.1 230.79 148.1 231.841V278.24C148.1 279.292 148.951 280.145 150.001 280.145H172.809C173.859 280.145 174.71 279.292 174.71 278.24V231.841Z" fill="#36739F" stroke="#36739F" stroke-width="0.4"/>
<path fill-rule="evenodd" clip-rule="evenodd" d="M161.923 279.625V230.457H160.886V279.625H161.923Z" fill="#36739F" stroke="#36739F" stroke-width="0.4"/>
<path opacity="0.5" fill-rule="evenodd" clip-rule="evenodd" d="M120.28 233.746C120.757 233.746 121.144 234.133 121.144 234.611V251.924C121.144 252.402 120.757 252.79 120.28 252.79H116.133C115.656 252.79 115.269 252.402 115.269 251.924V234.611C115.269 234.133 115.656 233.746 116.133 233.746H120.28ZM122.181 234.611C122.181 233.56 121.33 232.707 120.28 232.707H116.133C115.083 232.707 114.232 233.56 114.232 234.611V251.924C114.232 252.976 115.083 253.829 116.133 253.829H120.28C121.33 253.829 122.181 252.976 122.181 251.924V234.611Z" fill="#36739F" stroke="#36739F" stroke-width="0.4"/>
<path opacity="0.5" fill-rule="evenodd" clip-rule="evenodd" d="M107.148 233.746C107.625 233.746 108.012 234.133 108.012 234.611V251.924C108.012 252.402 107.625 252.79 107.148 252.79H103.001C102.524 252.79 102.137 252.402 102.137 251.924V234.611C102.137 234.133 102.524 233.746 103.001 233.746H107.148ZM109.049 234.611C109.049 233.56 108.198 232.707 107.148 232.707H103.001C101.951 232.707 101.1 233.56 101.1 234.611V251.924C101.1 252.976 101.951 253.829 103.001 253.829H107.148C108.198 253.829 109.049 252.976 109.049 251.924V234.611Z" fill="#36739F" stroke="#36739F" stroke-width="0.4"/>
<path opacity="0.5" fill-rule="evenodd" clip-rule="evenodd" d="M120.28 257.292C120.757 257.292 121.144 257.679 121.144 258.157V275.47C121.144 275.948 120.757 276.336 120.28 276.336H116.133C115.656 276.336 115.269 275.948 115.269 275.47V258.157C115.269 257.679 115.656 257.292 116.133 257.292H120.28ZM122.181 258.157C122.181 257.106 121.33 256.253 120.28 256.253H116.133C115.083 256.253 114.232 257.106 114.232 258.157V275.47C114.232 276.522 115.083 277.375 116.133 277.375H120.28C121.33 277.375 122.181 276.522 122.181 275.47V258.157Z" fill="#36739F" stroke="#36739F" stroke-width="0.4"/>
<path opacity="0.5" fill-rule="evenodd" clip-rule="evenodd" d="M107.148 257.292C107.625 257.292 108.012 257.679 108.012 258.157V275.47C108.012 275.948 107.625 276.336 107.148 276.336H103.001C102.524 276.336 102.137 275.948 102.137 275.47V258.157C102.137 257.679 102.524 257.292 103.001 257.292H107.148ZM109.049 258.157C109.049 257.106 108.198 256.253 107.148 256.253H103.001C101.951 256.253 101.1 257.106 101.1 258.157V275.47C101.1 276.522 101.951 277.375 103.001 277.375H107.148C108.198 277.375 109.049 276.522 109.049 275.47V258.157Z" fill="#36739F" stroke="#36739F" stroke-width="0.4"/>
<path fill-rule="evenodd" clip-rule="evenodd" d="M123.045 230.976C123.522 230.976 123.909 231.363 123.909 231.841V278.24C123.909 278.718 123.522 279.106 123.045 279.106H100.236C99.7587 279.106 99.3719 278.718 99.3719 278.24V231.841C99.3719 231.363 99.7587 230.976 100.236 230.976H123.045ZM124.945 231.841C124.945 230.79 124.094 229.937 123.045 229.937H100.236C99.1862 229.937 98.3352 230.79 98.3352 231.841V278.24C98.3352 279.292 99.1862 280.145 100.236 280.145H123.045C124.094 280.145 124.945 279.292 124.945 278.24V231.841Z" fill="#36739F" stroke="#36739F" stroke-width="0.4"/>
<path fill-rule="evenodd" clip-rule="evenodd" d="M112.158 279.625V230.457H111.121V279.625H112.158Z" fill="#36739F" stroke="#36739F" stroke-width="0.4"/>
<path fill-rule="evenodd" clip-rule="evenodd" d="M191.805 273.912C194.801 273.912 197.173 276.19 197.173 278.933V280.318H198.21V278.933C198.21 275.556 195.312 272.873 191.805 272.873H180.769C177.263 272.873 174.365 275.556 174.365 278.933V280.318H175.401V278.933C175.401 276.19 177.773 273.912 180.769 273.912H191.805Z" fill="#36739F" stroke="#36739F" stroke-width="0.4"/>
<path fill-rule="evenodd" clip-rule="evenodd" d="M142.041 273.912C145.036 273.912 147.409 276.19 147.409 278.933V280.318H148.445V278.933C148.445 275.556 145.547 272.873 142.041 272.873H131.004C127.498 272.873 124.6 275.556 124.6 278.933V280.318H125.637V278.933C125.637 276.19 128.009 273.912 131.004 273.912H142.041Z" fill="#36739F" stroke="#36739F" stroke-width="0.4"/>
<path fill-rule="evenodd" clip-rule="evenodd" d="M143.637 211.83C143.61 211.739 143.662 211.642 143.753 211.615L160.573 206.637C161.116 206.476 161.694 206.476 162.238 206.637L179.058 211.615C179.106 211.63 179.147 211.665 179.167 211.712C179.205 211.8 179.165 211.902 179.078 211.94L167.804 216.869L168.219 217.821L179.492 212.892C180.105 212.625 180.384 211.91 180.117 211.297C179.974 210.969 179.694 210.721 179.351 210.619L162.531 205.641C161.796 205.423 161.014 205.423 160.28 205.641L143.46 210.619C142.819 210.809 142.453 211.483 142.642 212.125C142.744 212.468 142.991 212.749 143.319 212.892L154.483 217.773L154.897 216.821L143.733 211.94L143.526 212.416L143.733 211.94C143.686 211.92 143.651 211.88 143.637 211.83Z" fill="#36739F" stroke="#36739F" stroke-width="0.4"/>
<path fill-rule="evenodd" clip-rule="evenodd" d="M186.288 283.607C188.67 283.607 190.664 281.942 191.173 279.71L190.162 279.478C189.758 281.248 188.176 282.569 186.288 282.569C184.418 282.569 182.848 281.274 182.426 279.529L181.418 279.775C181.951 281.974 183.928 283.607 186.288 283.607Z" fill="#36739F" stroke="#36739F" stroke-width="0.4"/>
<path fill-rule="evenodd" clip-rule="evenodd" d="M131.653 279.775C132.186 281.974 134.164 283.607 136.523 283.607C138.878 283.607 140.853 281.98 141.39 279.787L140.383 279.539C139.957 281.279 138.39 282.569 136.523 282.569C134.653 282.569 133.083 281.274 132.661 279.53L131.653 279.775Z" fill="#36739F" stroke="#36739F" stroke-width="0.4"/>
<g opacity="0.3">
<path fill-rule="evenodd" clip-rule="evenodd" d="M25.1257 228.246C25.5702 228.246 25.9306 228.606 25.9306 229.051V246.961L35.8248 237.067C36.1391 236.753 36.6487 236.753 36.963 237.067C37.2773 237.381 37.2773 237.891 36.963 238.205L26.2314 248.937C26.1436 249.025 26.0404 249.088 25.9306 249.127V283.246C25.9306 283.69 25.5702 284.05 25.1257 284.05C24.6812 284.05 24.3208 283.69 24.3208 283.246V254.493C24.211 254.454 24.1079 254.391 24.02 254.303L12.2152 242.498C11.9009 242.184 11.9009 241.674 12.2152 241.36C12.5296 241.045 13.0392 241.045 13.3535 241.36L24.3208 252.327V229.051C24.3208 228.606 24.6812 228.246 25.1257 228.246Z" fill="#36739F"/>
<path d="M25.9447 266.983C25.7689 266.951 25.4264 266.879 24.9412 266.762C24.1253 266.565 23.2144 266.311 22.2325 265.994C19.4262 265.089 16.6203 263.868 14.007 262.289C0.543695 254.151 -2.7626 240.396 10.4329 219.074C14.8738 211.899 20.4111 208.797 26.1979 209.263C30.944 209.645 35.5091 212.55 37.6475 216.158C38.6962 217.927 39.1894 219.456 40.0061 222.911C40.2414 223.907 40.3336 224.289 40.4695 224.817C41.4079 228.462 42.565 230.945 44.7793 233.333C53.2928 242.514 49.4128 251.582 37.4868 260.146C34.8596 262.033 32.0405 263.731 29.2211 265.213C28.2344 265.731 27.3186 266.185 26.4977 266.571C26.0075 266.802 25.6596 266.958 25.4779 267.036L25.9447 266.983ZM25.6538 268.586L25.8952 268.63L26.1206 268.533C26.319 268.448 26.6838 268.285 27.1913 268.046C28.0333 267.65 28.9704 267.185 29.9791 266.655C32.861 265.141 35.7432 263.404 38.4372 261.47C51.0468 252.415 55.3563 242.342 45.9741 232.225C43.973 230.067 42.9244 227.817 42.0475 224.411C41.9153 223.897 41.8247 223.521 41.5919 222.536C40.7384 218.925 40.2085 217.283 39.0493 215.327C36.6438 211.269 31.6074 208.063 26.3286 207.639C19.9043 207.122 13.7969 210.542 9.04732 218.217C-4.62511 240.309 -1.0755 255.076 13.1641 263.683C15.8944 265.333 18.8136 266.604 21.7325 267.545C22.7543 267.874 23.7041 268.139 24.5581 268.346C25.0748 268.471 25.448 268.549 25.6538 268.586Z" fill="#36739F"/>
</g>
<path opacity="0.3" fill-rule="evenodd" clip-rule="evenodd" d="M160.154 146.684C149.744 149.179 142.418 158.226 141.316 169.28C139.033 168.811 136.708 168.575 134.375 168.578C125.273 168.578 117.276 172.046 112.713 177.349C107.263 168.883 97.8181 163.803 87.7141 163.973C71.9339 163.977 58.9791 175.602 58.976 190.116C58.9562 191.687 59.0911 193.256 59.3785 194.8C52.0901 196.112 46.6852 202.423 46.5708 209.915L46.5707 209.926C46.5707 209.994 46.5529 210.076 46.4988 210.272L46.492 210.297L46.4919 210.297C46.4464 210.462 46.373 210.727 46.373 211.016C46.373 211.429 46.707 211.763 47.119 211.763C47.531 211.763 47.8649 211.429 47.8649 211.016C47.8649 210.948 47.8828 210.867 47.9369 210.67L47.9437 210.645L47.9437 210.645C47.989 210.482 48.0616 210.219 48.0626 209.933C48.1722 202.917 53.4121 197.048 60.3601 196.16C60.568 196.134 60.7551 196.021 60.8757 195.849C60.9964 195.677 61.0393 195.463 60.994 195.258C60.6223 193.575 60.4458 191.854 60.4679 190.131L60.4679 190.121C60.4679 176.565 72.6157 165.468 87.7205 165.468L87.7332 165.468C97.6588 165.298 106.914 170.468 111.989 179.016C112.115 179.229 112.339 179.365 112.586 179.38C112.833 179.395 113.071 179.286 113.222 179.089C117.301 173.766 125.164 170.073 134.376 170.073H134.377C136.882 170.07 139.379 170.354 141.819 170.92C142.032 170.969 142.256 170.923 142.431 170.793C142.607 170.663 142.716 170.462 142.732 170.244C143.48 159.524 150.333 150.749 160.154 148.226V146.684Z" fill="#36739F"/>
</svg>
