<svg width="18" height="18" viewBox="0 0 18 18" fill="none" xmlns="http://www.w3.org/2000/svg">
<path d="M7.79487 0C3.48988 0 0 3.48988 0 7.79487C0 12.0999 3.48988 15.5897 7.79487 15.5897C12.0999 15.5897 15.5897 12.0999 15.5897 7.79487C15.5897 3.48988 12.0999 0 7.79487 0ZM7.79487 2.46154C10.7404 2.46154 13.1282 4.84935 13.1282 7.79487C13.1282 10.7404 10.7404 13.1282 7.79487 13.1282C4.84935 13.1282 2.46154 10.7404 2.46154 7.79487C2.46154 4.84935 4.84935 2.46154 7.79487 2.46154Z" fill="#FF8A00"/>
<path d="M11.5607 11.5604C12.0044 11.1168 12.7025 11.0826 13.1853 11.458L13.3013 11.5604L16.8705 15.1297C17.3511 15.6103 17.3511 16.3896 16.8705 16.8702C16.4268 17.3139 15.7287 17.348 15.2459 16.9726L15.1299 16.8702L11.5607 13.301C11.08 12.8204 11.08 12.0411 11.5607 11.5604Z" fill="#FF8A00"/>
</svg>
