<svg width="32" height="32" viewBox="0 0 32 32" fill="none" xmlns="http://www.w3.org/2000/svg">
<path d="M15.9999 3.58691C9.15541 3.58691 3.58691 9.15541 3.58691 15.9999C3.58691 22.8444 9.15541 28.4129 15.9999 28.4129C22.8444 28.4129 28.4129 22.8444 28.4129 15.9999C28.4129 9.15541 22.8444 3.58691 15.9999 3.58691ZM21.5374 13.1589C21.5429 13.2819 21.5459 13.4059 21.5459 13.5299C21.5459 17.3054 18.6724 21.6584 13.4164 21.6584C11.8029 21.6584 10.3009 21.1859 9.03691 20.3749C9.26041 20.4014 9.48791 20.4149 9.71841 20.4149C11.0574 20.4149 12.2889 19.9579 13.2669 19.1919C12.0169 19.1689 10.9614 18.3429 10.5979 17.2074C10.7719 17.2414 10.9514 17.2589 11.1349 17.2589C11.3954 17.2589 11.6484 17.2239 11.8879 17.1589C10.5809 16.8964 9.59641 15.7419 9.59641 14.3579C9.59641 14.3459 9.59641 14.3334 9.59691 14.3219C9.98191 14.5354 10.4224 14.6644 10.8904 14.6789C10.1244 14.1674 9.61991 13.2924 9.61991 12.3014C9.61991 11.7774 9.76041 11.2864 10.0064 10.8644C11.4149 12.5934 13.5209 13.7304 15.8949 13.8504C15.8459 13.6409 15.8214 13.4234 15.8214 13.1989C15.8214 11.6214 17.1004 10.3419 18.6784 10.3419C19.4999 10.3419 20.2424 10.6889 20.7634 11.2439C21.4149 11.1159 22.0259 10.8789 22.5784 10.5504C22.3644 11.2179 21.9119 11.7774 21.3214 12.1314C21.8999 12.0624 22.4509 11.9094 22.9624 11.6819C22.5804 12.2539 22.0954 12.7574 21.5374 13.1589Z" fill="url(#paint0_linear)"/>
<defs>
<linearGradient id="paint0_linear" x1="15.9999" y1="3.58691" x2="15.9999" y2="28.4129" gradientUnits="userSpaceOnUse">
<stop stop-color="#FFAA45"/>
<stop offset="1" stop-color="#FF7A00"/>
</linearGradient>
</defs>
</svg>
